<svg width="1216" height="984" viewBox="0 0 1216 984" fill="none" xmlns="http://www.w3.org/2000/svg">
<g id="Group 13">
<g id="Content">
<rect width="1216" height="472" rx="32" fill="#004851"/>
<text id="Creche" fill="#F6EB61" xml:space="preserve" style="white-space: pre" font-family="Calistoga" font-size="80" letter-spacing="0em"><tspan x="102" y="156">Creche </tspan></text>
<text id="A Casulo tamb&#195;&#169;m conta com o servi&#195;&#167;o de creche educativa, para as fam&#195;&#173;lias que querem que seu c&#195;&#163;o se divirta em um ambiente natural, e al&#195;&#169;m disso, tamb&#195;&#169;m aprenda coisas novas e a se comportar em matilha." fill="#FFF4E0" xml:space="preserve" style="white-space: pre" font-family="Nunito Sans" font-size="20" letter-spacing="0.01em"><tspan x="102" y="222.58">A Casulo tamb&#xe9;m conta com o servi&#xe7;o de creche </tspan><tspan x="102" y="254.58">educativa, para as fam&#xed;lias que querem que seu c&#xe3;o se </tspan><tspan x="102" y="286.58">divirta em um ambiente natural, e al&#xe9;m disso, tamb&#xe9;m </tspan><tspan x="102" y="318.58">aprenda coisas novas e a se comportar em matilha.</tspan></text>
<g id="Tags">
<g id="Default">
<rect x="102" y="360" width="162" height="40" rx="16" fill="white"/>
<g id="clock">
<path id="Vector (Stroke)" fill-rule="evenodd" clip-rule="evenodd" d="M126 371C121.029 371 117 375.029 117 380C117 384.971 121.029 389 126 389C130.971 389 135 384.971 135 380C135 375.029 130.971 371 126 371ZM115 380C115 373.925 119.925 369 126 369C132.075 369 137 373.925 137 380C137 386.075 132.075 391 126 391C119.925 391 115 386.075 115 380Z" fill="#004851"/>
<path id="Vector (Stroke)_2" fill-rule="evenodd" clip-rule="evenodd" d="M126 373C126.552 373 127 373.448 127 374V379.382L130.447 381.106C130.941 381.353 131.141 381.953 130.894 382.447C130.647 382.941 130.047 383.141 129.553 382.894L125.553 380.894C125.214 380.725 125 380.379 125 380V374C125 373.448 125.448 373 126 373Z" fill="#004851"/>
</g>
<text id="Das 7h &#195;&#160;s 18h" fill="#0F2830" xml:space="preserve" style="white-space: pre" font-family="Nunito Sans" font-size="16" letter-spacing="0.01em"><tspan x="146.282" y="385.264">Das 7h &#xe0;s 18h</tspan></text>
</g>
<g id="Default_2">
<rect x="280" y="360" width="224" height="40" rx="16" fill="white"/>
<g id="calendar">
<path id="Vector (Stroke)_3" fill-rule="evenodd" clip-rule="evenodd" d="M297 373C296.448 373 296 373.448 296 374V388C296 388.552 296.448 389 297 389H311C311.552 389 312 388.552 312 388V374C312 373.448 311.552 373 311 373H297ZM294 374C294 372.343 295.343 371 297 371H311C312.657 371 314 372.343 314 374V388C314 389.657 312.657 391 311 391H297C295.343 391 294 389.657 294 388V374Z" fill="#004851"/>
<path id="Vector (Stroke)_4" fill-rule="evenodd" clip-rule="evenodd" d="M308 369C308.552 369 309 369.448 309 370V374C309 374.552 308.552 375 308 375C307.448 375 307 374.552 307 374V370C307 369.448 307.448 369 308 369Z" fill="#004851"/>
<path id="Vector (Stroke)_5" fill-rule="evenodd" clip-rule="evenodd" d="M300 369C300.552 369 301 369.448 301 370V374C301 374.552 300.552 375 300 375C299.448 375 299 374.552 299 374V370C299 369.448 299.448 369 300 369Z" fill="#004851"/>
<path id="Vector (Stroke)_6" fill-rule="evenodd" clip-rule="evenodd" d="M294 378C294 377.448 294.448 377 295 377H313C313.552 377 314 377.448 314 378C314 378.552 313.552 379 313 379H295C294.448 379 294 378.552 294 378Z" fill="#004851"/>
</g>
<text id="Ter&#195;&#167;as e Quintas-feiras" fill="#0F2830" xml:space="preserve" style="white-space: pre" font-family="Nunito Sans" font-size="16" letter-spacing="0.01em"><tspan x="324.107" y="385.264">Ter&#xe7;as e Quintas-feiras</tspan></text>
</g>
</g>
</g>
<g id="CTA">
<rect x="724" y="64" width="391" height="852" rx="32" fill="white"/>
<text id="Benef&#195;&#173;cios" fill="#FF6A39" xml:space="preserve" style="white-space: pre" font-family="Calistoga" font-size="40" letter-spacing="0em"><tspan x="772" y="154">Benef&#xed;cios</tspan></text>
<g id="Frame 42">
<g id="Item">
<g id="check-circle">
<path id="Vector (Stroke)_7" fill-rule="evenodd" clip-rule="evenodd" d="M785.141 201.145C783.654 200.486 781.992 200.323 780.404 200.68C778.816 201.036 777.386 201.893 776.328 203.122C775.27 204.352 774.64 205.888 774.533 207.502C774.426 209.116 774.847 210.721 775.733 212.077C776.62 213.434 777.924 214.47 779.451 215.03C780.979 215.591 782.648 215.646 784.209 215.187C785.771 214.729 787.141 213.781 788.116 212.486C789.091 211.191 789.618 209.617 789.619 208V207.233C789.619 206.773 789.995 206.4 790.458 206.4C790.922 206.4 791.297 206.773 791.297 207.233V208C791.296 209.977 790.652 211.901 789.46 213.484C788.268 215.067 786.593 216.225 784.685 216.786C782.776 217.346 780.737 217.279 778.87 216.594C777.003 215.909 775.409 214.643 774.326 212.984C773.242 211.326 772.728 209.365 772.859 207.392C772.99 205.42 773.759 203.542 775.052 202.039C776.345 200.537 778.093 199.49 780.034 199.054C781.975 198.618 784.006 198.818 785.824 199.622C786.248 199.809 786.438 200.302 786.249 200.723C786.061 201.143 785.565 201.332 785.141 201.145Z" fill="#00BF6F"/>
<path id="Vector (Stroke)_8" fill-rule="evenodd" clip-rule="evenodd" d="M791.051 200.744C791.379 201.069 791.379 201.597 791.052 201.922L782.662 210.264C782.504 210.42 782.291 210.508 782.068 210.508C781.846 210.508 781.632 210.421 781.475 210.264L778.958 207.764C778.63 207.439 778.63 206.911 778.958 206.586C779.285 206.26 779.817 206.26 780.144 206.586L782.068 208.496L789.865 200.744C790.192 200.419 790.723 200.419 791.051 200.744Z" fill="#00BF6F"/>
</g>
<g id="Frame 41">
<text id="Ampla &#195;&#129;rea Verde" fill="#004851" xml:space="preserve" style="white-space: pre" font-family="Nunito Sans" font-size="20" font-weight="600" letter-spacing="0.01em"><tspan x="800" y="214.58">Ampla &#xc1;rea Verde</tspan></text>
</g>
</g>
<g id="Item_2">
<g id="check-circle_2">
<path id="Vector (Stroke)_9" fill-rule="evenodd" clip-rule="evenodd" d="M785.141 249.145C783.654 248.486 781.992 248.323 780.404 248.68C778.816 249.036 777.386 249.893 776.328 251.122C775.27 252.352 774.64 253.888 774.533 255.502C774.426 257.116 774.847 258.721 775.733 260.077C776.62 261.434 777.924 262.47 779.451 263.03C780.979 263.591 782.648 263.646 784.209 263.187C785.771 262.729 787.141 261.781 788.116 260.486C789.091 259.191 789.618 257.617 789.619 256V255.233C789.619 254.773 789.995 254.4 790.458 254.4C790.922 254.4 791.297 254.773 791.297 255.233V256C791.296 257.977 790.652 259.901 789.46 261.484C788.268 263.067 786.593 264.225 784.685 264.786C782.776 265.346 780.737 265.279 778.87 264.594C777.003 263.909 775.409 262.643 774.326 260.984C773.242 259.326 772.728 257.365 772.859 255.392C772.99 253.42 773.759 251.542 775.052 250.039C776.345 248.537 778.093 247.49 780.034 247.054C781.975 246.618 784.006 246.818 785.824 247.622C786.248 247.809 786.438 248.302 786.249 248.723C786.061 249.143 785.565 249.332 785.141 249.145Z" fill="#00BF6F"/>
<path id="Vector (Stroke)_10" fill-rule="evenodd" clip-rule="evenodd" d="M791.051 248.744C791.379 249.069 791.379 249.597 791.052 249.922L782.662 258.264C782.504 258.42 782.291 258.508 782.068 258.508C781.846 258.508 781.632 258.421 781.475 258.264L778.958 255.764C778.63 255.439 778.63 254.911 778.958 254.586C779.285 254.26 779.817 254.26 780.144 254.586L782.068 256.496L789.865 248.744C790.192 248.419 790.723 248.419 791.051 248.744Z" fill="#00BF6F"/>
</g>
<g id="Frame 41_2">
<text id="Brinquedos com Obst&#195;&#161;culos" fill="#004851" xml:space="preserve" style="white-space: pre" font-family="Nunito Sans" font-size="20" font-weight="600" letter-spacing="0.01em"><tspan x="800" y="262.58">Brinquedos com Obst&#xe1;culos</tspan></text>
</g>
</g>
<g id="Item_3">
<g id="check-circle_3">
<path id="Vector (Stroke)_11" fill-rule="evenodd" clip-rule="evenodd" d="M785.141 297.145C783.654 296.486 781.992 296.323 780.404 296.68C778.816 297.036 777.386 297.893 776.328 299.122C775.27 300.352 774.64 301.888 774.533 303.502C774.426 305.116 774.847 306.721 775.733 308.077C776.62 309.434 777.924 310.47 779.451 311.03C780.979 311.591 782.648 311.646 784.209 311.187C785.771 310.729 787.141 309.781 788.116 308.486C789.091 307.191 789.618 305.617 789.619 304V303.233C789.619 302.773 789.995 302.4 790.458 302.4C790.922 302.4 791.297 302.773 791.297 303.233V304C791.296 305.977 790.652 307.901 789.46 309.484C788.268 311.067 786.593 312.225 784.685 312.786C782.776 313.346 780.737 313.279 778.87 312.594C777.003 311.909 775.409 310.643 774.326 308.984C773.242 307.326 772.728 305.365 772.859 303.392C772.99 301.42 773.759 299.542 775.052 298.039C776.345 296.537 778.093 295.49 780.034 295.054C781.975 294.618 784.006 294.818 785.824 295.622C786.248 295.809 786.438 296.302 786.249 296.723C786.061 297.143 785.565 297.332 785.141 297.145Z" fill="#00BF6F"/>
<path id="Vector (Stroke)_12" fill-rule="evenodd" clip-rule="evenodd" d="M791.051 296.744C791.379 297.069 791.379 297.597 791.052 297.922L782.662 306.264C782.504 306.42 782.291 306.508 782.068 306.508C781.846 306.508 781.632 306.421 781.475 306.264L778.958 303.764C778.63 303.439 778.63 302.911 778.958 302.586C779.285 302.26 779.817 302.26 780.144 302.586L782.068 304.496L789.865 296.744C790.192 296.419 790.723 296.419 791.051 296.744Z" fill="#00BF6F"/>
</g>
<g id="Frame 41_3">
<text id="Piscina Pet" fill="#004851" xml:space="preserve" style="white-space: pre" font-family="Nunito Sans" font-size="20" font-weight="600" letter-spacing="0.01em"><tspan x="800" y="310.58">Piscina Pet</tspan></text>
</g>
</g>
<g id="Item_4">
<g id="check-circle_4">
<path id="Vector (Stroke)_13" fill-rule="evenodd" clip-rule="evenodd" d="M785.141 345.145C783.654 344.486 781.992 344.323 780.404 344.68C778.816 345.036 777.386 345.893 776.328 347.122C775.27 348.352 774.64 349.888 774.533 351.502C774.426 353.116 774.847 354.721 775.733 356.077C776.62 357.434 777.924 358.47 779.451 359.03C780.979 359.591 782.648 359.646 784.209 359.187C785.771 358.729 787.141 357.781 788.116 356.486C789.091 355.191 789.618 353.617 789.619 352V351.233C789.619 350.773 789.995 350.4 790.458 350.4C790.922 350.4 791.297 350.773 791.297 351.233V352C791.296 353.977 790.652 355.901 789.46 357.484C788.268 359.067 786.593 360.225 784.685 360.786C782.776 361.346 780.737 361.279 778.87 360.594C777.003 359.909 775.409 358.643 774.326 356.984C773.242 355.326 772.728 353.365 772.859 351.392C772.99 349.42 773.759 347.542 775.052 346.039C776.345 344.537 778.093 343.49 780.034 343.054C781.975 342.618 784.006 342.818 785.824 343.622C786.248 343.809 786.438 344.302 786.249 344.722C786.061 345.143 785.565 345.332 785.141 345.145Z" fill="#00BF6F"/>
<path id="Vector (Stroke)_14" fill-rule="evenodd" clip-rule="evenodd" d="M791.051 344.744C791.379 345.069 791.379 345.597 791.052 345.922L782.662 354.264C782.504 354.42 782.291 354.508 782.068 354.508C781.846 354.508 781.632 354.421 781.475 354.264L778.958 351.764C778.63 351.439 778.63 350.911 778.958 350.586C779.285 350.26 779.817 350.26 780.144 350.586L782.068 352.496L789.865 344.744C790.192 344.419 790.723 344.419 791.051 344.744Z" fill="#00BF6F"/>
</g>
<g id="Frame 41_4">
<text id="Enriquecimento Ambiental" fill="#004851" xml:space="preserve" style="white-space: pre" font-family="Nunito Sans" font-size="20" font-weight="600" letter-spacing="0.01em"><tspan x="800" y="358.58">Enriquecimento Ambiental</tspan></text>
</g>
</g>
<g id="Item_5">
<g id="check-circle_5">
<path id="Vector (Stroke)_15" fill-rule="evenodd" clip-rule="evenodd" d="M785.141 393.145C783.654 392.486 781.992 392.323 780.404 392.68C778.816 393.036 777.386 393.893 776.328 395.122C775.27 396.352 774.64 397.888 774.533 399.502C774.426 401.116 774.847 402.721 775.733 404.077C776.62 405.434 777.924 406.47 779.451 407.03C780.979 407.591 782.648 407.646 784.209 407.187C785.771 406.729 787.141 405.781 788.116 404.486C789.091 403.191 789.618 401.617 789.619 400V399.233C789.619 398.773 789.995 398.4 790.458 398.4C790.922 398.4 791.297 398.773 791.297 399.233V400C791.296 401.977 790.652 403.901 789.46 405.484C788.268 407.067 786.593 408.225 784.685 408.786C782.776 409.346 780.737 409.279 778.87 408.594C777.003 407.909 775.409 406.643 774.326 404.984C773.242 403.326 772.728 401.365 772.859 399.392C772.99 397.42 773.759 395.542 775.052 394.039C776.345 392.537 778.093 391.49 780.034 391.054C781.975 390.618 784.006 390.818 785.824 391.622C786.248 391.809 786.438 392.302 786.249 392.723C786.061 393.143 785.565 393.332 785.141 393.145Z" fill="#00BF6F"/>
<path id="Vector (Stroke)_16" fill-rule="evenodd" clip-rule="evenodd" d="M791.051 392.744C791.379 393.069 791.379 393.597 791.052 393.922L782.662 402.264C782.504 402.42 782.291 402.508 782.068 402.508C781.846 402.508 781.632 402.421 781.475 402.264L778.958 399.764C778.63 399.439 778.63 398.911 778.958 398.586C779.285 398.26 779.817 398.26 780.144 398.586L782.068 400.496L789.865 392.744C790.192 392.419 790.723 392.419 791.051 392.744Z" fill="#00BF6F"/>
</g>
<g id="Frame 41_5">
<text id="Aulas de Comandos Individuais" fill="#004851" xml:space="preserve" style="white-space: pre" font-family="Nunito Sans" font-size="20" font-weight="600" letter-spacing="0.01em"><tspan x="800" y="406.58">Aulas de Comandos </tspan><tspan x="800" y="438.58">Individuais</tspan></text>
</g>
</g>
<g id="Item_6">
<g id="check-circle_6">
<path id="Vector (Stroke)_17" fill-rule="evenodd" clip-rule="evenodd" d="M785.141 473.145C783.654 472.486 781.992 472.323 780.404 472.68C778.816 473.036 777.386 473.893 776.328 475.122C775.27 476.352 774.64 477.888 774.533 479.502C774.426 481.116 774.847 482.721 775.733 484.077C776.62 485.434 777.924 486.47 779.451 487.03C780.979 487.591 782.648 487.646 784.209 487.187C785.771 486.729 787.141 485.781 788.116 484.486C789.091 483.191 789.618 481.617 789.619 480V479.233C789.619 478.773 789.995 478.4 790.458 478.4C790.922 478.4 791.297 478.773 791.297 479.233V480C791.296 481.977 790.652 483.901 789.46 485.484C788.268 487.067 786.593 488.225 784.685 488.786C782.776 489.346 780.737 489.279 778.87 488.594C777.003 487.909 775.409 486.643 774.326 484.984C773.242 483.326 772.728 481.365 772.859 479.392C772.99 477.42 773.759 475.542 775.052 474.039C776.345 472.537 778.093 471.49 780.034 471.054C781.975 470.618 784.006 470.818 785.824 471.622C786.248 471.809 786.438 472.302 786.249 472.723C786.061 473.143 785.565 473.332 785.141 473.145Z" fill="#00BF6F"/>
<path id="Vector (Stroke)_18" fill-rule="evenodd" clip-rule="evenodd" d="M791.051 472.744C791.379 473.069 791.379 473.597 791.052 473.922L782.662 482.264C782.504 482.42 782.291 482.508 782.068 482.508C781.846 482.508 781.632 482.421 781.475 482.264L778.958 479.764C778.63 479.439 778.63 478.911 778.958 478.586C779.285 478.26 779.817 478.26 780.144 478.586L782.068 480.496L789.865 472.744C790.192 472.419 790.723 472.419 791.051 472.744Z" fill="#00BF6F"/>
</g>
<g id="Frame 41_6">
<text id="Aulas de Pace (Local Indicado) em Grupo" fill="#004851" xml:space="preserve" style="white-space: pre" font-family="Nunito Sans" font-size="20" font-weight="600" letter-spacing="0.01em"><tspan x="800" y="486.58">Aulas de Pace (Local </tspan><tspan x="800" y="518.58">Indicado) em Grupo</tspan></text>
</g>
</g>
<g id="Item_7">
<g id="check-circle_7">
<path id="Vector (Stroke)_19" fill-rule="evenodd" clip-rule="evenodd" d="M785.141 553.145C783.654 552.486 781.992 552.323 780.404 552.68C778.816 553.036 777.386 553.893 776.328 555.122C775.27 556.352 774.64 557.888 774.533 559.502C774.426 561.116 774.847 562.721 775.733 564.077C776.62 565.434 777.924 566.47 779.451 567.03C780.979 567.591 782.648 567.646 784.209 567.187C785.771 566.729 787.141 565.781 788.116 564.486C789.091 563.191 789.618 561.617 789.619 560V559.233C789.619 558.773 789.995 558.4 790.458 558.4C790.922 558.4 791.297 558.773 791.297 559.233V560C791.296 561.977 790.652 563.901 789.46 565.484C788.268 567.067 786.593 568.225 784.685 568.786C782.776 569.346 780.737 569.279 778.87 568.594C777.003 567.909 775.409 566.643 774.326 564.984C773.242 563.326 772.728 561.365 772.859 559.392C772.99 557.42 773.759 555.542 775.052 554.039C776.345 552.537 778.093 551.49 780.034 551.054C781.975 550.618 784.006 550.818 785.824 551.622C786.248 551.809 786.438 552.302 786.249 552.722C786.061 553.143 785.565 553.332 785.141 553.145Z" fill="#00BF6F"/>
<path id="Vector (Stroke)_20" fill-rule="evenodd" clip-rule="evenodd" d="M791.051 552.744C791.379 553.069 791.379 553.597 791.052 553.922L782.662 562.264C782.504 562.42 782.291 562.508 782.068 562.508C781.846 562.508 781.632 562.421 781.475 562.264L778.958 559.764C778.63 559.439 778.63 558.911 778.958 558.586C779.285 558.26 779.817 558.26 780.144 558.586L782.068 560.496L789.865 552.744C790.192 552.419 790.723 552.419 791.051 552.744Z" fill="#00BF6F"/>
</g>
<g id="Frame 41_7">
<text id="Dicas de Obedi&#195;&#170;ncia para &#226;&#128;&#168;os Donos em Grupo Privado" fill="#004851" xml:space="preserve" style="white-space: pre" font-family="Nunito Sans" font-size="20" font-weight="600" letter-spacing="0.01em"><tspan x="800" y="566.58">Dicas de Obedi&#xea;ncia para &#x2028;</tspan><tspan x="800" y="598.58">os Donos em Grupo Privado</tspan></text>
</g>
</g>
</g>
<g id="Taxi">
<rect id="Rectangle 18" opacity="0.8" x="756" y="656" width="327" height="228" rx="16" fill="#F6EB61"/>
<g id="Button">
<text id="Button_2" fill="#73381D" xml:space="preserve" style="white-space: pre" font-family="Nunito Sans" font-size="16" font-weight="600" letter-spacing="0.01em"><tspan x="788.47" y="853.264">Solicitar Servi&#xe7;o</tspan></text>
<g id="arrow-right">
<path id="Vector (Stroke)_21" fill-rule="evenodd" clip-rule="evenodd" d="M920 848C920 847.448 920.448 847 921 847H935C935.552 847 936 847.448 936 848C936 848.552 935.552 849 935 849H921C920.448 849 920 848.552 920 848Z" fill="#73381D"/>
<path id="Vector (Stroke)_22" fill-rule="evenodd" clip-rule="evenodd" d="M927.293 840.293C927.683 839.902 928.317 839.902 928.707 840.293L935.707 847.293C936.098 847.683 936.098 848.317 935.707 848.707L928.707 855.707C928.317 856.098 927.683 856.098 927.293 855.707C926.902 855.317 926.902 854.683 927.293 854.293L933.586 848L927.293 841.707C926.902 841.317 926.902 840.683 927.293 840.293Z" fill="#73381D"/>
</g>
</g>
<text id="T&#195;&#161;xi-dog" fill="#FF6A39" xml:space="preserve" style="white-space: pre" font-family="Calistoga" font-size="40" letter-spacing="0em"><tspan x="860" y="722">T&#xe1;xi-dog</tspan></text>
<text id="Contamos com servi&#195;&#167;o de busca e entrega no in&#195;&#173;cio da manh&#195;&#163; e final da tarde, de acordo com a rota." fill="#73381D" xml:space="preserve" style="white-space: pre" font-family="Nunito Sans" font-size="16" letter-spacing="0.01em"><tspan x="788" y="769.264">Contamos com servi&#xe7;o de busca e </tspan><tspan x="788" y="793.264">entrega no in&#xed;cio da manh&#xe3; e final </tspan><tspan x="788" y="817.264">da tarde, de acordo com a rota.</tspan></text>
<g id="Layer_1" clip-path="url(#clip0_1255_801)">
<path id="Vector" d="M802.787 696.341L799.933 704.5H832.067L829.212 696.341C828.72 694.941 827.397 694 825.909 694H806.091C804.603 694 803.28 694.941 802.787 696.341ZM792.331 705.025L796.181 694.033C797.658 689.822 801.628 687 806.091 687H825.909C830.372 687 834.342 689.822 835.819 694.033L839.669 705.025C842.206 706.075 844 708.58 844 711.5V727.25H788V711.5C788 708.58 789.794 706.075 792.331 705.025Z" fill="#FF6A39"/>
<path id="Vector_2" d="M809 680H823C824.936 680 826.5 681.564 826.5 683.5V687H805.5V683.5C805.5 681.564 807.064 680 809 680Z" fill="#FFF4E0"/>
<path id="Vector_3" d="M798.5 727.25V732.5C798.5 734.436 796.936 736 795 736H791.5C789.564 736 788 734.436 788 732.5V727.25H798.5Z" fill="#73381D"/>
<path id="Vector_4" d="M833.5 727.25H844V732.5C844 734.436 842.436 736 840.5 736H837C835.064 736 833.5 734.436 833.5 732.5V727.25Z" fill="#73381D"/>
<path id="Vector_5" d="M798.5 718.5C800.433 718.5 802 716.933 802 715C802 713.067 800.433 711.5 798.5 711.5C796.567 711.5 795 713.067 795 715C795 716.933 796.567 718.5 798.5 718.5Z" fill="#FFF4E0"/>
<path id="Vector_6" d="M833.5 718.5C835.433 718.5 837 716.933 837 715C837 713.067 835.433 711.5 833.5 711.5C831.567 711.5 830 713.067 830 715C830 716.933 831.567 718.5 833.5 718.5Z" fill="#FFF4E0"/>
</g>
</g>
</g>
<g id="How it Works">
<text id="Como Funciona" fill="#FF6A39" xml:space="preserve" style="white-space: pre" font-family="Calistoga" font-size="40" letter-spacing="0em"><tspan x="102" y="578">Como Funciona</tspan></text>
<text id="A creche &#195;&#169; indicada para c&#195;&#163;es que sejam soci&#195;&#161;veis com demais c&#195;&#163;es e pessoas. Para c&#195;&#163;es que tenham algum transtorno de comportamento, agressividade ou inseguran&#195;&#167;a, recomendamos o nosso servi&#195;&#167;o de adestramento especializado. Todo c&#195;&#163;o ser&#195;&#161; avaliado na primeira aula, a fim de verificar se &#195;&#169; candidato a frequentar o ambiente sem que coloque os demais c&#195;&#163;es em risco." fill="#004851" xml:space="preserve" style="white-space: pre" font-family="Nunito Sans" font-size="20" letter-spacing="0.01em"><tspan x="102" y="638.58">A creche &#xe9; indicada para c&#xe3;es que sejam soci&#xe1;veis com demais </tspan><tspan x="102" y="670.58">c&#xe3;es e pessoas. Para c&#xe3;es que tenham algum transtorno de </tspan><tspan x="102" y="702.58">comportamento, agressividade ou inseguran&#xe7;a, recomendamos o </tspan><tspan x="102" y="734.58">nosso servi&#xe7;o de adestramento especializado.&#10;</tspan><tspan x="102" y="766.58">&#10;</tspan><tspan x="102" y="798.58">Todo c&#xe3;o ser&#xe1; avaliado na primeira aula, a fim de verificar se &#xe9; </tspan><tspan x="102" y="830.58">candidato a frequentar o ambiente sem que coloque os demais </tspan><tspan x="102" y="862.58">c&#xe3;es em risco.</tspan></text>
<g id="Button_3">
<rect x="93" y="920" width="309" height="64" rx="32" fill="#FF6A39"/>
<g id="calendar_2">
<path id="Vector (Stroke)_23" fill-rule="evenodd" clip-rule="evenodd" d="M130 945C129.448 945 129 945.448 129 946V960C129 960.552 129.448 961 130 961H144C144.552 961 145 960.552 145 960V946C145 945.448 144.552 945 144 945H130ZM127 946C127 944.343 128.343 943 130 943H144C145.657 943 147 944.343 147 946V960C147 961.657 145.657 963 144 963H130C128.343 963 127 961.657 127 960V946Z" fill="#FFF4E0"/>
<path id="Vector (Stroke)_24" fill-rule="evenodd" clip-rule="evenodd" d="M141 941C141.552 941 142 941.448 142 942V946C142 946.552 141.552 947 141 947C140.448 947 140 946.552 140 946V942C140 941.448 140.448 941 141 941Z" fill="#FFF4E0"/>
<path id="Vector (Stroke)_25" fill-rule="evenodd" clip-rule="evenodd" d="M133 941C133.552 941 134 941.448 134 942V946C134 946.552 133.552 947 133 947C132.448 947 132 946.552 132 946V942C132 941.448 132.448 941 133 941Z" fill="white"/>
<path id="Vector (Stroke)_26" fill-rule="evenodd" clip-rule="evenodd" d="M127 950C127 949.448 127.448 949 128 949H146C146.552 949 147 949.448 147 950C147 950.552 146.552 951 146 951H128C127.448 951 127 950.552 127 950Z" fill="white"/>
</g>
<text id="Button_4" fill="#FFF4E0" xml:space="preserve" style="white-space: pre" font-family="Nunito Sans" font-size="20" font-weight="600" letter-spacing="0.01em"><tspan x="165.327" y="958.58">Agende sua Avalia&#xe7;&#xe3;o</tspan></text>
</g>
</g>
</g>
<defs>
<clipPath id="clip0_1255_801">
<rect width="56" height="56" fill="white" transform="translate(788 680)"/>
</clipPath>
</defs>
</svg>
