<svg width="1216" height="968" viewBox="0 0 1216 968" fill="none" xmlns="http://www.w3.org/2000/svg">
<g id="Group 13">
<g id="Content">
<rect width="1216" height="440" rx="32" fill="#FF6A39"/>
<text id="Adestramento" fill="#F6EB61" xml:space="preserve" style="white-space: pre" font-family="Calistoga" font-size="80" letter-spacing="0em"><tspan x="102" y="156">Adestramento</tspan></text>
<text id="Seja para lidar com problemas ou para melhorar a rela&#195;&#167;&#195;&#163;o com o seu pet, conte com nossa expertise para ajud&#195;&#161;-lo a encontrar solu&#195;&#167;&#195;&#181;es." fill="#FFF4E0" xml:space="preserve" style="white-space: pre" font-family="Nunito Sans" font-size="20" letter-spacing="0.01em"><tspan x="102" y="222.58">Seja para lidar com problemas ou para melhorar a </tspan><tspan x="102" y="254.58">rela&#xe7;&#xe3;o com o seu pet, conte com nossa expertise </tspan><tspan x="102" y="286.58">para ajud&#xe1;-lo a encontrar solu&#xe7;&#xf5;es.</tspan></text>
<g id="Tags">
<g id="Default">
<rect x="102" y="328" width="122" height="40" rx="16" fill="white"/>
<g id="clock">
<path id="Vector (Stroke)" fill-rule="evenodd" clip-rule="evenodd" d="M126 339C121.029 339 117 343.029 117 348C117 352.971 121.029 357 126 357C130.971 357 135 352.971 135 348C135 343.029 130.971 339 126 339ZM115 348C115 341.925 119.925 337 126 337C132.075 337 137 341.925 137 348C137 354.075 132.075 359 126 359C119.925 359 115 354.075 115 348Z" fill="#004851"/>
<path id="Vector (Stroke)_2" fill-rule="evenodd" clip-rule="evenodd" d="M126 341C126.552 341 127 341.448 127 342V347.382L130.447 349.106C130.941 349.353 131.141 349.953 130.894 350.447C130.647 350.941 130.047 351.141 129.553 350.894L125.553 348.894C125.214 348.725 125 348.379 125 348V342C125 341.448 125.448 341 126 341Z" fill="#004851"/>
</g>
<text id="1h30min" fill="#0F2830" xml:space="preserve" style="white-space: pre" font-family="Nunito Sans" font-size="16" letter-spacing="0.01em"><tspan x="146.364" y="353.264">1h30min</tspan></text>
</g>
<g id="Default_2">
<rect x="240" y="328" width="195" height="40" rx="16" fill="white"/>
<g id="map-pin">
<path id="Vector (Stroke)_3" fill-rule="evenodd" clip-rule="evenodd" d="M264 338C261.878 338 259.843 338.843 258.343 340.343C256.843 341.843 256 343.878 256 346C256 349.098 258.016 352.104 260.226 354.437C261.311 355.582 262.399 356.519 263.217 357.171C263.521 357.413 263.787 357.615 264 357.773C264.213 357.615 264.479 357.413 264.783 357.171C265.601 356.519 266.689 355.582 267.774 354.437C269.984 352.104 272 349.098 272 346C272 343.878 271.157 341.843 269.657 340.343C268.157 338.843 266.122 338 264 338ZM264 359C263.445 359.832 263.445 359.832 263.445 359.832L263.442 359.83L263.435 359.825L263.412 359.81C263.393 359.797 263.365 359.778 263.33 359.753C263.259 359.704 263.156 359.632 263.028 359.539C262.771 359.353 262.406 359.082 261.971 358.735C261.101 358.043 259.939 357.043 258.774 355.813C256.484 353.396 254 349.902 254 346C254 343.348 255.054 340.804 256.929 338.929C258.804 337.054 261.348 336 264 336C266.652 336 269.196 337.054 271.071 338.929C272.946 340.804 274 343.348 274 346C274 349.902 271.516 353.396 269.226 355.813C268.061 357.043 266.899 358.043 266.029 358.735C265.594 359.082 265.229 359.353 264.972 359.539C264.844 359.632 264.741 359.704 264.67 359.753C264.635 359.778 264.607 359.797 264.588 359.81L264.565 359.825L264.558 359.83L264.556 359.831C264.556 359.831 264.555 359.832 264 359ZM264 359L264.555 359.832C264.219 360.056 263.781 360.056 263.445 359.832L264 359Z" fill="#004851"/>
<path id="Vector (Stroke)_4" fill-rule="evenodd" clip-rule="evenodd" d="M264 344C262.895 344 262 344.895 262 346C262 347.105 262.895 348 264 348C265.105 348 266 347.105 266 346C266 344.895 265.105 344 264 344ZM260 346C260 343.791 261.791 342 264 342C266.209 342 268 343.791 268 346C268 348.209 266.209 350 264 350C261.791 350 260 348.209 260 346Z" fill="#004851"/>
</g>
<text id="Online e Presencial" fill="#0F2830" xml:space="preserve" style="white-space: pre" font-family="Nunito Sans" font-size="16" letter-spacing="0.01em"><tspan x="284.138" y="353.264">Online e Presencial</tspan></text>
</g>
</g>
</g>
<g id="CTA">
<rect x="724" y="64" width="391" height="904" rx="32" fill="white"/>
<text id="Abordagem" fill="#FF6A39" xml:space="preserve" style="white-space: pre" font-family="Calistoga" font-size="40" letter-spacing="0em"><tspan x="772" y="154">Abordagem</tspan></text>
<g id="Item">
<g id="check-circle">
<path id="Vector (Stroke)_5" fill-rule="evenodd" clip-rule="evenodd" d="M785.141 201.145C783.654 200.486 781.992 200.323 780.404 200.68C778.816 201.036 777.386 201.893 776.328 203.122C775.27 204.352 774.64 205.888 774.533 207.502C774.426 209.116 774.847 210.721 775.733 212.077C776.62 213.434 777.924 214.47 779.451 215.03C780.979 215.591 782.648 215.646 784.209 215.187C785.771 214.729 787.141 213.781 788.116 212.486C789.091 211.191 789.618 209.617 789.619 208V207.233C789.619 206.773 789.995 206.4 790.458 206.4C790.922 206.4 791.297 206.773 791.297 207.233V208C791.296 209.977 790.652 211.901 789.46 213.484C788.268 215.067 786.593 216.225 784.685 216.786C782.776 217.346 780.737 217.279 778.87 216.594C777.003 215.909 775.409 214.643 774.326 212.984C773.242 211.326 772.728 209.365 772.859 207.392C772.99 205.42 773.759 203.542 775.052 202.039C776.345 200.537 778.093 199.49 780.034 199.054C781.975 198.618 784.006 198.818 785.824 199.622C786.248 199.809 786.438 200.302 786.249 200.723C786.061 201.143 785.565 201.332 785.141 201.145Z" fill="white"/>
<path id="Vector (Stroke)_6" fill-rule="evenodd" clip-rule="evenodd" d="M791.051 200.744C791.379 201.069 791.379 201.597 791.052 201.922L782.662 210.264C782.504 210.42 782.291 210.508 782.068 210.508C781.846 210.508 781.632 210.421 781.475 210.264L778.958 207.764C778.63 207.439 778.63 206.911 778.958 206.586C779.285 206.26 779.817 206.26 780.144 206.586L782.068 208.496L789.865 200.744C790.192 200.419 790.723 200.419 791.051 200.744Z" fill="white"/>
</g>
<g id="Frame 41">
<text id="Gen&#195;&#169;tica" fill="#FF6A39" xml:space="preserve" style="white-space: pre" font-family="Nunito Sans" font-size="20" font-weight="600" letter-spacing="0.01em"><tspan x="800" y="214.58">Gen&#xe9;tica</tspan></text>
<text id="O que o c&#195;&#163;o herda da ra&#195;&#167;a e dos seus ancestrais." fill="#004851" xml:space="preserve" style="white-space: pre" font-family="Nunito Sans" font-size="16" letter-spacing="0.01em"><tspan x="800" y="241.264">O que o c&#xe3;o herda da ra&#xe7;a e dos </tspan><tspan x="800" y="265.264">seus ancestrais.</tspan></text>
</g>
</g>
<g id="Item_2">
<g id="check-circle_2">
<path id="Vector (Stroke)_7" fill-rule="evenodd" clip-rule="evenodd" d="M785.141 393.145C783.654 392.486 781.992 392.323 780.404 392.68C778.816 393.036 777.386 393.893 776.328 395.122C775.27 396.352 774.64 397.888 774.533 399.502C774.426 401.116 774.847 402.721 775.733 404.077C776.62 405.434 777.924 406.47 779.451 407.03C780.979 407.591 782.648 407.646 784.209 407.187C785.771 406.729 787.141 405.781 788.116 404.486C789.091 403.191 789.618 401.617 789.619 400V399.233C789.619 398.773 789.995 398.4 790.458 398.4C790.922 398.4 791.297 398.773 791.297 399.233V400C791.296 401.977 790.652 403.901 789.46 405.484C788.268 407.067 786.593 408.225 784.685 408.786C782.776 409.346 780.737 409.279 778.87 408.594C777.003 407.909 775.409 406.643 774.326 404.984C773.242 403.326 772.728 401.365 772.859 399.392C772.99 397.42 773.759 395.542 775.052 394.039C776.345 392.537 778.093 391.49 780.034 391.054C781.975 390.618 784.006 390.818 785.824 391.622C786.248 391.809 786.438 392.302 786.249 392.722C786.061 393.143 785.565 393.332 785.141 393.145Z" fill="white"/>
<path id="Vector (Stroke)_8" fill-rule="evenodd" clip-rule="evenodd" d="M791.051 392.744C791.379 393.069 791.379 393.597 791.052 393.922L782.662 402.264C782.504 402.42 782.291 402.508 782.068 402.508C781.846 402.508 781.632 402.421 781.475 402.264L778.958 399.764C778.63 399.439 778.63 398.911 778.958 398.586C779.285 398.26 779.817 398.26 780.144 398.586L782.068 400.496L789.865 392.744C790.192 392.419 790.723 392.419 791.051 392.744Z" fill="white"/>
</g>
<g id="Frame 41_2">
<text id="Rotina Estruturada" fill="#FF6A39" xml:space="preserve" style="white-space: pre" font-family="Nunito Sans" font-size="20" font-weight="600" letter-spacing="0.01em"><tspan x="800" y="406.58">Rotina Estruturada</tspan></text>
<text id="Qual a rotina ideal para o c&#195;&#163;o e a fam&#195;&#173;lia." fill="#004851" xml:space="preserve" style="white-space: pre" font-family="Nunito Sans" font-size="16" letter-spacing="0.01em"><tspan x="800" y="433.264">Qual a rotina ideal para o c&#xe3;o e a </tspan><tspan x="800" y="457.264">fam&#xed;lia.</tspan></text>
</g>
</g>
<g id="Item_3">
<g id="check-circle_3">
<path id="Vector (Stroke)_9" fill-rule="evenodd" clip-rule="evenodd" d="M785.141 585.145C783.654 584.486 781.992 584.323 780.404 584.68C778.816 585.036 777.386 585.893 776.328 587.122C775.27 588.352 774.64 589.888 774.533 591.502C774.426 593.116 774.847 594.721 775.733 596.077C776.62 597.434 777.924 598.47 779.451 599.03C780.979 599.591 782.648 599.646 784.209 599.187C785.771 598.729 787.141 597.781 788.116 596.486C789.091 595.191 789.618 593.617 789.619 592V591.233C789.619 590.773 789.995 590.4 790.458 590.4C790.922 590.4 791.297 590.773 791.297 591.233V592C791.296 593.977 790.652 595.901 789.46 597.484C788.268 599.067 786.593 600.225 784.685 600.786C782.776 601.346 780.737 601.279 778.87 600.594C777.003 599.909 775.409 598.643 774.326 596.984C773.242 595.326 772.728 593.365 772.859 591.392C772.99 589.42 773.759 587.542 775.052 586.039C776.345 584.537 778.093 583.49 780.034 583.054C781.975 582.618 784.006 582.818 785.824 583.622C786.248 583.809 786.438 584.302 786.249 584.723C786.061 585.143 785.565 585.332 785.141 585.145Z" fill="white"/>
<path id="Vector (Stroke)_10" fill-rule="evenodd" clip-rule="evenodd" d="M791.051 584.744C791.379 585.069 791.379 585.597 791.052 585.922L782.662 594.264C782.504 594.42 782.291 594.508 782.068 594.508C781.846 594.508 781.632 594.421 781.475 594.264L778.958 591.764C778.63 591.439 778.63 590.911 778.958 590.586C779.285 590.26 779.817 590.26 780.144 590.586L782.068 592.496L789.865 584.744C790.192 584.419 790.723 584.419 791.051 584.744Z" fill="white"/>
</g>
<g id="Frame 41_3">
<text id="Mente" fill="#FF6A39" xml:space="preserve" style="white-space: pre" font-family="Nunito Sans" font-size="20" font-weight="600" letter-spacing="0.01em"><tspan x="800" y="598.58">Mente</tspan></text>
<text id="Como funciona a mente canina e como eles aprendem." fill="#004851" xml:space="preserve" style="white-space: pre" font-family="Nunito Sans" font-size="16" letter-spacing="0.01em"><tspan x="800" y="625.264">Como funciona a mente canina e </tspan><tspan x="800" y="649.264">como eles aprendem.</tspan></text>
</g>
</g>
<g id="Item_4">
<g id="check-circle_4">
<path id="Vector (Stroke)_11" fill-rule="evenodd" clip-rule="evenodd" d="M785.141 777.145C783.654 776.486 781.992 776.323 780.404 776.68C778.816 777.036 777.386 777.893 776.328 779.122C775.27 780.352 774.64 781.888 774.533 783.502C774.426 785.116 774.847 786.721 775.733 788.077C776.62 789.434 777.924 790.47 779.451 791.03C780.979 791.591 782.648 791.646 784.209 791.187C785.771 790.729 787.141 789.781 788.116 788.486C789.091 787.191 789.618 785.617 789.619 784V783.233C789.619 782.773 789.995 782.4 790.458 782.4C790.922 782.4 791.297 782.773 791.297 783.233V784C791.296 785.977 790.652 787.901 789.46 789.484C788.268 791.067 786.593 792.225 784.685 792.786C782.776 793.346 780.737 793.279 778.87 792.594C777.003 791.909 775.409 790.643 774.326 788.984C773.242 787.326 772.728 785.365 772.859 783.392C772.99 781.42 773.759 779.542 775.052 778.039C776.345 776.537 778.093 775.49 780.034 775.054C781.975 774.618 784.006 774.818 785.824 775.622C786.248 775.809 786.438 776.302 786.249 776.722C786.061 777.143 785.565 777.332 785.141 777.145Z" fill="white"/>
<path id="Vector (Stroke)_12" fill-rule="evenodd" clip-rule="evenodd" d="M791.051 776.744C791.379 777.069 791.379 777.597 791.052 777.922L782.662 786.264C782.504 786.42 782.291 786.508 782.068 786.508C781.846 786.508 781.632 786.421 781.475 786.264L778.958 783.764C778.63 783.439 778.63 782.911 778.958 782.586C779.285 782.26 779.817 782.26 780.144 782.586L782.068 784.496L789.865 776.744C790.192 776.419 790.723 776.419 791.051 776.744Z" fill="white"/>
</g>
<g id="Frame 41_4">
<text id="Educa&#195;&#167;&#195;&#163;o Sanit&#195;&#161;ria" fill="#FF6A39" xml:space="preserve" style="white-space: pre" font-family="Nunito Sans" font-size="20" font-weight="600" letter-spacing="0.01em"><tspan x="800" y="790.58">Educa&#xe7;&#xe3;o Sanit&#xe1;ria</tspan></text>
<text id="Onde o c&#195;&#163;o deve fazer suas necessidades." fill="#004851" xml:space="preserve" style="white-space: pre" font-family="Nunito Sans" font-size="16" letter-spacing="0.01em"><tspan x="800" y="817.264">Onde o c&#xe3;o deve fazer suas </tspan><tspan x="800" y="841.264">necessidades.</tspan></text>
</g>
</g>
<g id="Item_5">
<g id="check-circle_5">
<path id="Vector (Stroke)_13" fill-rule="evenodd" clip-rule="evenodd" d="M785.141 297.145C783.654 296.486 781.992 296.323 780.404 296.68C778.816 297.036 777.386 297.893 776.328 299.122C775.27 300.352 774.64 301.888 774.533 303.502C774.426 305.116 774.847 306.721 775.733 308.077C776.62 309.434 777.924 310.47 779.451 311.03C780.979 311.591 782.648 311.646 784.209 311.187C785.771 310.729 787.141 309.781 788.116 308.486C789.091 307.191 789.618 305.617 789.619 304V303.233C789.619 302.773 789.995 302.4 790.458 302.4C790.922 302.4 791.297 302.773 791.297 303.233V304C791.296 305.977 790.652 307.901 789.46 309.484C788.268 311.067 786.593 312.225 784.685 312.786C782.776 313.346 780.737 313.279 778.87 312.594C777.003 311.909 775.409 310.643 774.326 308.984C773.242 307.326 772.728 305.365 772.859 303.392C772.99 301.42 773.759 299.542 775.052 298.039C776.345 296.537 778.093 295.49 780.034 295.054C781.975 294.618 784.006 294.818 785.824 295.622C786.248 295.809 786.438 296.302 786.249 296.723C786.061 297.143 785.565 297.332 785.141 297.145Z" fill="white"/>
<path id="Vector (Stroke)_14" fill-rule="evenodd" clip-rule="evenodd" d="M791.051 296.744C791.379 297.069 791.379 297.597 791.052 297.922L782.662 306.264C782.504 306.42 782.291 306.508 782.068 306.508C781.846 306.508 781.632 306.421 781.475 306.264L778.958 303.764C778.63 303.439 778.63 302.911 778.958 302.586C779.285 302.26 779.817 302.26 780.144 302.586L782.068 304.496L789.865 296.744C790.192 296.419 790.723 296.419 791.051 296.744Z" fill="white"/>
</g>
<g id="Frame 41_5">
<text id="Manejo" fill="#FF6A39" xml:space="preserve" style="white-space: pre" font-family="Nunito Sans" font-size="20" font-weight="600" letter-spacing="0.01em"><tspan x="800" y="310.58">Manejo</tspan></text>
<text id="Como fazer o manejo correto em cada fase." fill="#004851" xml:space="preserve" style="white-space: pre" font-family="Nunito Sans" font-size="16" letter-spacing="0.01em"><tspan x="800" y="337.264">Como fazer o manejo correto em </tspan><tspan x="800" y="361.264">cada fase.</tspan></text>
</g>
</g>
<g id="Item_6">
<g id="check-circle_6">
<path id="Vector (Stroke)_15" fill-rule="evenodd" clip-rule="evenodd" d="M785.141 489.145C783.654 488.486 781.992 488.323 780.404 488.68C778.816 489.036 777.386 489.893 776.328 491.122C775.27 492.352 774.64 493.888 774.533 495.502C774.426 497.116 774.847 498.721 775.733 500.077C776.62 501.434 777.924 502.47 779.451 503.03C780.979 503.591 782.648 503.646 784.209 503.187C785.771 502.729 787.141 501.781 788.116 500.486C789.091 499.191 789.618 497.617 789.619 496V495.233C789.619 494.773 789.995 494.4 790.458 494.4C790.922 494.4 791.297 494.773 791.297 495.233V496C791.296 497.977 790.652 499.901 789.46 501.484C788.268 503.067 786.593 504.225 784.685 504.786C782.776 505.346 780.737 505.279 778.87 504.594C777.003 503.909 775.409 502.643 774.326 500.984C773.242 499.326 772.728 497.365 772.859 495.392C772.99 493.42 773.759 491.542 775.052 490.039C776.345 488.537 778.093 487.49 780.034 487.054C781.975 486.618 784.006 486.818 785.824 487.622C786.248 487.809 786.438 488.302 786.249 488.722C786.061 489.143 785.565 489.332 785.141 489.145Z" fill="white"/>
<path id="Vector (Stroke)_16" fill-rule="evenodd" clip-rule="evenodd" d="M791.051 488.744C791.379 489.069 791.379 489.597 791.052 489.922L782.662 498.264C782.504 498.42 782.291 498.508 782.068 498.508C781.846 498.508 781.632 498.421 781.475 498.264L778.958 495.764C778.63 495.439 778.63 494.911 778.958 494.586C779.285 494.26 779.817 494.26 780.144 494.586L782.068 496.496L789.865 488.744C790.192 488.419 790.723 488.419 791.051 488.744Z" fill="white"/>
</g>
<g id="Frame 41_6">
<text id="V&#195;&#173;nculo" fill="#FF6A39" xml:space="preserve" style="white-space: pre" font-family="Nunito Sans" font-size="20" font-weight="600" letter-spacing="0.01em"><tspan x="800" y="502.58">V&#xed;nculo</tspan></text>
<text id="O que &#195;&#169; v&#195;&#173;nculo saud&#195;&#161;vel e como desenvolver." fill="#004851" xml:space="preserve" style="white-space: pre" font-family="Nunito Sans" font-size="16" letter-spacing="0.01em"><tspan x="800" y="529.264">O que &#xe9; v&#xed;nculo saud&#xe1;vel e como </tspan><tspan x="800" y="553.264">desenvolver.</tspan></text>
</g>
</g>
<g id="Item_7">
<g id="check-circle_7">
<path id="Vector (Stroke)_17" fill-rule="evenodd" clip-rule="evenodd" d="M785.141 681.145C783.654 680.486 781.992 680.323 780.404 680.68C778.816 681.036 777.386 681.893 776.328 683.122C775.27 684.352 774.64 685.888 774.533 687.502C774.426 689.116 774.847 690.721 775.733 692.077C776.62 693.434 777.924 694.47 779.451 695.03C780.979 695.591 782.648 695.646 784.209 695.187C785.771 694.729 787.141 693.781 788.116 692.486C789.091 691.191 789.618 689.617 789.619 688V687.233C789.619 686.773 789.995 686.4 790.458 686.4C790.922 686.4 791.297 686.773 791.297 687.233V688C791.296 689.977 790.652 691.901 789.46 693.484C788.268 695.067 786.593 696.225 784.685 696.786C782.776 697.346 780.737 697.279 778.87 696.594C777.003 695.909 775.409 694.643 774.326 692.984C773.242 691.326 772.728 689.365 772.859 687.392C772.99 685.42 773.759 683.542 775.052 682.039C776.345 680.537 778.093 679.49 780.034 679.054C781.975 678.618 784.006 678.818 785.824 679.622C786.248 679.809 786.438 680.302 786.249 680.723C786.061 681.143 785.565 681.332 785.141 681.145Z" fill="white"/>
<path id="Vector (Stroke)_18" fill-rule="evenodd" clip-rule="evenodd" d="M791.051 680.744C791.379 681.069 791.379 681.597 791.052 681.922L782.662 690.264C782.504 690.42 782.291 690.508 782.068 690.508C781.846 690.508 781.632 690.421 781.475 690.264L778.958 687.764C778.63 687.439 778.63 686.911 778.958 686.586C779.285 686.26 779.817 686.26 780.144 686.586L782.068 688.496L789.865 680.744C790.192 680.419 790.723 680.419 791.051 680.744Z" fill="white"/>
</g>
<g id="Frame 41_7">
<text id="Refor&#195;&#167;adores" fill="#FF6A39" xml:space="preserve" style="white-space: pre" font-family="Nunito Sans" font-size="20" font-weight="600" letter-spacing="0.01em"><tspan x="800" y="694.58">Refor&#xe7;adores</tspan></text>
<text id="O que &#195;&#169; e como criar um c&#195;&#163;o obediente." fill="#004851" xml:space="preserve" style="white-space: pre" font-family="Nunito Sans" font-size="16" letter-spacing="0.01em"><tspan x="800" y="721.264">O que &#xe9; e como criar um c&#xe3;o </tspan><tspan x="800" y="745.264">obediente.</tspan></text>
</g>
</g>
<g id="Item_8">
<g id="check-circle_8">
<path id="Vector (Stroke)_19" fill-rule="evenodd" clip-rule="evenodd" d="M785.141 873.145C783.654 872.486 781.992 872.323 780.404 872.68C778.816 873.036 777.386 873.893 776.328 875.122C775.27 876.352 774.64 877.888 774.533 879.502C774.426 881.116 774.847 882.721 775.733 884.077C776.62 885.434 777.924 886.47 779.451 887.03C780.979 887.591 782.648 887.646 784.209 887.187C785.771 886.729 787.141 885.781 788.116 884.486C789.091 883.191 789.618 881.617 789.619 880V879.233C789.619 878.773 789.995 878.4 790.458 878.4C790.922 878.4 791.297 878.773 791.297 879.233V880C791.296 881.977 790.652 883.901 789.46 885.484C788.268 887.067 786.593 888.225 784.685 888.786C782.776 889.346 780.737 889.279 778.87 888.594C777.003 887.909 775.409 886.643 774.326 884.984C773.242 883.326 772.728 881.365 772.859 879.392C772.99 877.42 773.759 875.542 775.052 874.039C776.345 872.537 778.093 871.49 780.034 871.054C781.975 870.618 784.006 870.818 785.824 871.622C786.248 871.809 786.438 872.302 786.249 872.722C786.061 873.143 785.565 873.332 785.141 873.145Z" fill="white"/>
<path id="Vector (Stroke)_20" fill-rule="evenodd" clip-rule="evenodd" d="M791.051 872.744C791.379 873.069 791.379 873.597 791.052 873.922L782.662 882.264C782.504 882.42 782.291 882.508 782.068 882.508C781.846 882.508 781.632 882.421 781.475 882.264L778.958 879.764C778.63 879.439 778.63 878.911 778.958 878.586C779.285 878.26 779.817 878.26 780.144 878.586L782.068 880.496L789.865 872.744C790.192 872.419 790.723 872.419 791.051 872.744Z" fill="white"/>
</g>
<g id="Frame 41_8">
<text id="Objetivo com o C&#195;&#163;o" fill="#FF6A39" xml:space="preserve" style="white-space: pre" font-family="Nunito Sans" font-size="20" font-weight="600" letter-spacing="0.01em"><tspan x="800" y="886.58">Objetivo com o C&#xe3;o</tspan></text>
<text id="Como ter o c&#195;&#163;o ideal para sua vida." fill="#004851" xml:space="preserve" style="white-space: pre" font-family="Nunito Sans" font-size="16" letter-spacing="0.01em"><tspan x="800" y="913.264">Como ter o c&#xe3;o ideal para sua vida.</tspan></text>
</g>
</g>
</g>
<g id="How it Works">
<text id="Como Funciona" fill="#FF6A39" xml:space="preserve" style="white-space: pre" font-family="Calistoga" font-size="40" letter-spacing="0em"><tspan x="102" y="546">Como Funciona</tspan></text>
<g id="Marcamos uma visita ou v&#195;&#173;deo chamada, de aproximadamente 1h30min, para tratar de assuntos relacionados ao c&#195;&#163;o em especial, e as dificuldades que os donos vem enfrentando. A consultoria &#195;&#169; personalizada de acordo com cada c&#195;&#163;o e cada fam&#195;&#173;lia, sendo indicada tanto para c&#195;&#163;es pet (companhia), quanto para c&#195;&#163;es de fun&#195;&#167;&#195;&#163;o (c&#195;&#163;es de trabalho, como guarda).">
<text fill="#004851" xml:space="preserve" style="white-space: pre" font-family="Nunito Sans" font-size="20" letter-spacing="0.01em"><tspan x="102" y="606.58">Marcamos uma visita ou v&#xed;deo chamada, de aproximadamente </tspan><tspan x="184.513" y="638.58">, para tratar de assuntos relacionados ao c&#xe3;o em </tspan><tspan x="102" y="670.58">especial, e as dificuldades que os donos vem enfrentando.&#10;</tspan><tspan x="102" y="702.58">&#10;</tspan><tspan x="102" y="734.58">A consultoria &#xe9; personalizada de acordo com cada c&#xe3;o e cada </tspan><tspan x="102" y="766.58">fam&#xed;lia, sendo indicada tanto para c&#xe3;es pet (companhia), quanto </tspan><tspan x="102" y="798.58">para c&#xe3;es de fun&#xe7;&#xe3;o (c&#xe3;es de trabalho, como guarda).</tspan></text>
<text fill="#004851" xml:space="preserve" style="white-space: pre" font-family="Nunito Sans" font-size="20" font-weight="600" letter-spacing="0.01em"><tspan x="102" y="638.58">1h30min</tspan></text>
</g>
<g id="Button">
<rect x="93" y="856" width="330" height="64" rx="32" fill="#FF6A39"/>
<g id="calendar">
<path id="Vector (Stroke)_21" fill-rule="evenodd" clip-rule="evenodd" d="M130 881C129.448 881 129 881.448 129 882V896C129 896.552 129.448 897 130 897H144C144.552 897 145 896.552 145 896V882C145 881.448 144.552 881 144 881H130ZM127 882C127 880.343 128.343 879 130 879H144C145.657 879 147 880.343 147 882V896C147 897.657 145.657 899 144 899H130C128.343 899 127 897.657 127 896V882Z" fill="#FFF4E0"/>
<path id="Vector (Stroke)_22" fill-rule="evenodd" clip-rule="evenodd" d="M141 877C141.552 877 142 877.448 142 878V882C142 882.552 141.552 883 141 883C140.448 883 140 882.552 140 882V878C140 877.448 140.448 877 141 877Z" fill="#FFF4E0"/>
<path id="Vector (Stroke)_23" fill-rule="evenodd" clip-rule="evenodd" d="M133 877C133.552 877 134 877.448 134 878V882C134 882.552 133.552 883 133 883C132.448 883 132 882.552 132 882V878C132 877.448 132.448 877 133 877Z" fill="white"/>
<path id="Vector (Stroke)_24" fill-rule="evenodd" clip-rule="evenodd" d="M127 886C127 885.448 127.448 885 128 885H146C146.552 885 147 885.448 147 886C147 886.552 146.552 887 146 887H128C127.448 887 127 886.552 127 886Z" fill="white"/>
</g>
<text id="Button_2" fill="#FFF4E0" xml:space="preserve" style="white-space: pre" font-family="Nunito Sans" font-size="20" font-weight="600" letter-spacing="0.01em"><tspan x="165.119" y="894.58">Marque uma Consultoria</tspan></text>
</g>
</g>
</g>
</svg>
