<svg width="17" height="16" viewBox="0 0 17 16" fill="none" xmlns="http://www.w3.org/2000/svg">
<path d="M9.25299 11.14L14.049 5.65898C14.615 5.01198 14.155 3.99998 13.296 3.99998L3.70399 3.99998C3.51174 3.99981 3.32353 4.05507 3.16188 4.15912C3.00023 4.26317 2.872 4.41161 2.79254 4.58667C2.71308 4.76173 2.68577 4.95598 2.71387 5.14615C2.74197 5.33633 2.8243 5.51438 2.95099 5.65898L7.74699 11.139C7.84085 11.2464 7.9566 11.3325 8.08648 11.3915C8.21636 11.4504 8.35735 11.481 8.49999 11.481C8.64263 11.481 8.78362 11.4504 8.9135 11.3915C9.04337 11.3325 9.15913 11.2464 9.25299 11.139L9.25299 11.14Z" fill="#FF6A39"/>
</svg>
