<svg width="40" height="32" viewBox="0 0 40 32" fill="none" xmlns="http://www.w3.org/2000/svg">
<path fill-rule="evenodd" clip-rule="evenodd" d="M17.4933 28.2667C17.4933 29.04 16.8667 29.6667 16.0933 29.6667V29.68C15.32 29.68 14.6933 29.0533 14.6933 28.28V19.6267C14.6933 18.8533 15.32 18.2267 16.0933 18.2267H21.28C25.28 18.2267 28.5333 14.9733 28.5333 10.9733V8.90667H22.1467C21.6133 8.90667 21.1333 8.61333 20.8933 8.13333L20.12 6.58667C19.7733 5.89333 19.0667 5.45333 18.28 5.45333H11.44V11.88C11.44 14.6267 9.48 16.9867 6.78667 17.4933L6.62667 17.52L4.38667 22C4.02667 22.68 3.18667 22.9733 2.50667 22.6267C2.17333 22.4533 1.92 22.1733 1.8 21.8133C1.68 21.4533 1.70667 21.08 1.88 20.7467L3.65333 17.2L3.33333 17.0533C1.30667 16.1333 0 14.08 0 11.8533V8.68C0 5.36 2.69333 2.66667 6.01333 2.66667H18.28C20.12 2.66667 21.7867 3.69333 22.6267 5.34667L23.0133 6.13333H28.2C29.92 6.13333 31.32 7.53333 31.32 9.25333V10.9867C31.32 16.52 26.8133 21.0267 21.28 21.0267H17.4933V28.2667ZM5.76 14.7867C7.36 14.7733 8.65333 13.4533 8.65333 11.8533L8.66667 11.8667V5.48H6.02667C5.58667 5.48 5.14667 5.57333 4.73333 5.74667C3.56 6.26667 2.8 7.41333 2.8 8.69333V11.8667C2.8 13.4267 4.04 14.72 5.6 14.7867H5.62667H5.76ZM17.3194 10.48C16.986 10.8 16.546 10.9867 16.0927 10.9867C15.626 10.9867 15.186 10.8 14.866 10.48C14.546 10.1467 14.3594 9.72002 14.3594 9.25335C14.3594 8.78669 14.546 8.34669 14.866 8.02669C15.1994 7.70669 15.626 7.52002 16.0927 7.52002C16.5594 7.52002 16.9994 7.70669 17.3194 8.02669C17.6394 8.36002 17.826 8.78669 17.826 9.25335C17.826 9.72002 17.6394 10.16 17.3194 10.48Z" fill="#004851"/>
<path d="M38 16L38 28" stroke="#FF6A39" stroke-width="3" stroke-linecap="round"/>
</svg>
