<svg width="24" height="24" viewBox="0 0 24 24" fill="none" xmlns="http://www.w3.org/2000/svg">
<path fill-rule="evenodd" clip-rule="evenodd" d="M13.12 21.2C13.12 21.78 12.65 22.25 12.07 22.25V22.26C11.49 22.26 11.02 21.79 11.02 21.21V14.72C11.02 14.14 11.49 13.67 12.07 13.67H15.96C18.96 13.67 21.4 11.23 21.4 8.23V6.68H16.61C16.21 6.68 15.85 6.46 15.67 6.1L15.09 4.94C14.83 4.42 14.3 4.09 13.71 4.09H8.58V8.91C8.58 10.97 7.11 12.74 5.09 13.12L4.97 13.14L3.29 16.5C3.02 17.01 2.39 17.23 1.88 16.97C1.63 16.84 1.44 16.63 1.35 16.36C1.26 16.09 1.28 15.81 1.41 15.56L2.74 12.9L2.5 12.79C0.98 12.1 0 10.56 0 8.89V6.51C0 4.02 2.02 2 4.51 2H13.71C15.09 2 16.34 2.77 16.97 4.01L17.26 4.6H21.15C22.44 4.6 23.49 5.65 23.49 6.94V8.24C23.49 12.39 20.11 15.77 15.96 15.77H13.12V21.2ZM4.32 11.09C5.52 11.08 6.49 10.09 6.49 8.89L6.5 8.9V4.11H4.52C4.19 4.11 3.86 4.18 3.55 4.31C2.67 4.7 2.1 5.56 2.1 6.52V8.9C2.1 10.07 3.03 11.04 4.2 11.09H4.22H4.32ZM12.99 7.86001C12.74 8.10001 12.41 8.24001 12.07 8.24001C11.72 8.24001 11.39 8.10001 11.15 7.86001C10.91 7.61001 10.77 7.29001 10.77 6.94001C10.77 6.59001 10.91 6.26001 11.15 6.02001C11.4 5.78001 11.72 5.64001 12.07 5.64001C12.42 5.64001 12.75 5.78001 12.99 6.02001C13.23 6.27001 13.37 6.59001 13.37 6.94001C13.37 7.29001 13.23 7.62001 12.99 7.86001Z" fill="white"/>
</svg>
