<svg width="40" height="32" viewBox="0 0 40 32" fill="none" xmlns="http://www.w3.org/2000/svg">
<path fill-rule="evenodd" clip-rule="evenodd" d="M17.9933 28.2667C17.9933 29.04 17.3667 29.6667 16.5933 29.6667V29.68C15.82 29.68 15.1933 29.0533 15.1933 28.28V19.6267C15.1933 18.8533 15.82 18.2267 16.5933 18.2267H21.78C25.78 18.2267 29.0333 14.9733 29.0333 10.9733V8.90667H22.6467C22.1133 8.90667 21.6333 8.61333 21.3933 8.13333L20.62 6.58667C20.2733 5.89333 19.5667 5.45333 18.78 5.45333H11.94V11.88C11.94 14.6267 9.98 16.9867 7.28667 17.4933L7.12667 17.52L4.88667 22C4.52667 22.68 3.68667 22.9733 3.00667 22.6267C2.67333 22.4533 2.42 22.1733 2.3 21.8133C2.18 21.4533 2.20667 21.08 2.38 20.7467L4.15333 17.2L3.83333 17.0533C1.80667 16.1333 0.5 14.08 0.5 11.8533V8.68C0.5 5.36 3.19333 2.66667 6.51333 2.66667H18.78C20.62 2.66667 22.2867 3.69333 23.1267 5.34667L23.5133 6.13333H28.7C30.42 6.13333 31.82 7.53333 31.82 9.25333V10.9867C31.82 16.52 27.3133 21.0267 21.78 21.0267H17.9933V28.2667ZM6.26 14.7867C7.86 14.7733 9.15333 13.4533 9.15333 11.8533L9.16667 11.8667V5.48H6.52667C6.08667 5.48 5.64667 5.57333 5.23333 5.74667C4.06 6.26667 3.3 7.41333 3.3 8.69333V11.8667C3.3 13.4267 4.54 14.72 6.1 14.7867H6.12667H6.26ZM17.8194 10.48C17.486 10.8 17.046 10.9867 16.5927 10.9867C16.126 10.9867 15.686 10.8 15.366 10.48C15.046 10.1467 14.8594 9.72002 14.8594 9.25335C14.8594 8.78669 15.046 8.34669 15.366 8.02669C15.6994 7.70669 16.126 7.52002 16.5927 7.52002C17.0594 7.52002 17.4994 7.70669 17.8194 8.02669C18.1394 8.36002 18.326 8.78669 18.326 9.25335C18.326 9.72002 18.1394 10.16 17.8194 10.48Z" fill="#004851"/>
<path d="M38 22L38 28" stroke="#FF6A39" stroke-width="3" stroke-linecap="round"/>
</svg>
