<svg width="24" height="24" viewBox="0 0 24 24" fill="none" xmlns="http://www.w3.org/2000/svg">
<path d="M12.9 7.93754L13.8625 2.15837C13.9416 1.68337 14.3541 1.33337 14.8375 1.33337C15.15 1.33337 15.4416 1.47921 15.6291 1.72921L16.3333 2.66671H18.5041C19.0333 2.66671 19.5416 2.87921 19.9166 3.25421L20.6666 4.00004H23C23.5541 4.00004 24 4.44587 24 5.00004V6.00004C24 7.84171 22.5083 9.33337 20.6666 9.33337H19.3333H18.6666H17.7791L17.5666 10.6042L12.9 7.93754ZM17.3333 12.0042V21.3334C17.3333 22.0709 16.7375 22.6667 16 22.6667H14.6666C13.9291 22.6667 13.3333 22.0709 13.3333 21.3334V16.5334C12.3333 17.0459 11.2 17.3334 9.99996 17.3334C8.79996 17.3334 7.66662 17.0459 6.66662 16.5334V21.3334C6.66662 22.0709 6.07079 22.6667 5.33329 22.6667H3.99996C3.26246 22.6667 2.66662 22.0709 2.66662 21.3334V11.7417C1.46662 11.2875 0.524957 10.2709 0.199957 8.97087L0.0416235 8.32504C-0.137543 7.61254 0.29579 6.88754 1.01246 6.70837C1.72912 6.52921 2.44996 6.96254 2.62912 7.67921L2.79162 8.32504C2.93746 8.91671 3.47079 9.33337 4.08329 9.33337H5.33329H5.99996H12.6583L17.3333 12.0042ZM19.3333 4.66671C19.3333 4.4899 19.2631 4.32033 19.138 4.1953C19.013 4.07028 18.8434 4.00004 18.6666 4.00004C18.4898 4.00004 18.3202 4.07028 18.1952 4.1953C18.0702 4.32033 18 4.4899 18 4.66671C18 4.84352 18.0702 5.01309 18.1952 5.13811C18.3202 5.26314 18.4898 5.33337 18.6666 5.33337C18.8434 5.33337 19.013 5.26314 19.138 5.13811C19.2631 5.01309 19.3333 4.84352 19.3333 4.66671Z" fill="white"/>
</svg>
