<svg width="24" height="24" viewBox="0 0 24 24" fill="none" xmlns="http://www.w3.org/2000/svg">
<path d="M15.9286 2C15.3348 2 14.8571 2.47768 14.8571 3.07143C14.8571 3.66518 15.3348 4.14286 15.9286 4.14286H18.3438L14.6071 7.87946C13.2857 6.87946 11.6384 6.28571 9.85714 6.28571C5.51786 6.28571 2 9.80357 2 14.1429C2 18.4821 5.51786 22 9.85714 22C14.1964 22 17.7143 18.4821 17.7143 14.1429C17.7143 12.3616 17.1205 10.7143 16.1205 9.39732L19.8571 5.65625V8.07143C19.8571 8.66518 20.3348 9.14286 20.9286 9.14286C21.5223 9.14286 22 8.66518 22 8.07143V3.07143C22 2.47768 21.5223 2 20.9286 2H15.9286ZM4.14286 14.1429C4.14286 12.6273 4.7449 11.1739 5.81653 10.1022C6.88817 9.03061 8.34162 8.42857 9.85714 8.42857C11.3727 8.42857 12.8261 9.03061 13.8978 10.1022C14.9694 11.1739 15.5714 12.6273 15.5714 14.1429C15.5714 15.6584 14.9694 17.1118 13.8978 18.1835C12.8261 19.2551 11.3727 19.8571 9.85714 19.8571C8.34162 19.8571 6.88817 19.2551 5.81653 18.1835C4.7449 17.1118 4.14286 15.6584 4.14286 14.1429Z" fill="white"/>
</svg>
