<svg width="24" height="24" viewBox="0 0 24 24" fill="none" xmlns="http://www.w3.org/2000/svg">
<path d="M6 8.25C6 6.6587 6.63214 5.13258 7.75736 4.00736C8.88258 2.88214 10.4087 2.25 12 2.25C13.5913 2.25 15.1174 2.88214 16.2426 4.00736C17.3679 5.13258 18 6.6587 18 8.25C18 9.8413 17.3679 11.3674 16.2426 12.4926C15.1174 13.6179 13.5913 14.25 12 14.25C10.4087 14.25 8.88258 13.6179 7.75736 12.4926C6.63214 11.3674 6 9.8413 6 8.25ZM13.125 16.425C17.1469 15.8766 20.25 12.4266 20.25 8.25C20.25 3.69375 16.5562 0 12 0C7.44375 0 3.75 3.69375 3.75 8.25C3.75 12.4266 6.85312 15.8766 10.875 16.425V18.75H8.625C8.00156 18.75 7.5 19.2516 7.5 19.875C7.5 20.4984 8.00156 21 8.625 21H10.875V22.875C10.875 23.4984 11.3766 24 12 24C12.6234 24 13.125 23.4984 13.125 22.875V21H15.375C15.9984 21 16.5 20.4984 16.5 19.875C16.5 19.2516 15.9984 18.75 15.375 18.75H13.125V16.425Z" fill="white"/>
</svg>
