<svg width="1404" height="408" viewBox="0 0 1404 408" fill="none" xmlns="http://www.w3.org/2000/svg">
<path d="M37.0776 238.729V238.729C32.3991 223.948 35.8099 206.871 49.4718 199.542C56.0833 195.995 63.3481 193.742 69.6188 195.664C70.4696 195.924 71.3223 196.268 72.1702 196.679C83.9153 202.367 80.0595 221.03 67.0113 220.804V220.804C66.1435 220.789 65.2556 220.704 64.3555 220.56C46.327 217.672 34.0681 201.087 24.3142 185.652C16.5663 173.392 8.49919 157.966 6.50067 144.429C0.7132 105.226 3.08235 71.575 29.4783 41.9996C55.5805 12.7534 91.6859 7.74147 130.735 3.9727C171.648 0.0240229 217.195 22.1922 261.4 54.4057C313.924 92.6826 318.683 152.484 359.302 188.985C402.899 228.163 426.173 230.308 473.934 238.729C536.714 249.798 594.659 223.936 627.593 204.424C646.25 193.37 655.783 172.599 655.599 150.913V150.913C655.193 102.885 608.819 68.6762 562.811 82.4658L558.513 83.7541C532.628 91.5124 512.805 112.543 506.865 138.905C501.474 162.826 497.522 181.294 493.536 199.891C480.072 262.7 496.968 333.012 554.828 360.911C565.53 366.071 576.498 370.212 587.233 372.539C615.822 378.734 652.608 365.403 679.035 352.742C702.409 341.544 721.844 324.039 739.999 305.541C755.956 289.282 776.463 269.488 794.09 255.986C814.304 240.502 840.548 228.905 864.316 220.638C904.295 206.733 948.884 207.018 985.576 228.123C999.199 235.96 1012.27 245.765 1021.15 257.63V257.63C1059.25 308.555 1064.28 419.949 1003.28 401.948V401.948V401.948C953.704 387.319 986.423 316.428 1026.74 284.081L1031.11 280.569L1082.8 244.272C1131.1 210.353 1191.02 197.287 1249.06 208.014V208.014C1298.67 217.185 1343.62 243.146 1376.35 281.538L1410 321" stroke="#FF6A39" stroke-width="7"/>
</svg>
