<svg width="626" height="606" viewBox="0 0 626 606" fill="none" xmlns="http://www.w3.org/2000/svg">
  <path
    d="M612.241 20.9036C612.31 20.8439 612.37 20.7856 612.421 20.7303H613.387L613.008 19.4045L612.679 18.251L612.97 18.0013L613.288 18.0746C614.844 19.6201 615.267 21.0128 615.192 22.2847C615.108 23.6889 614.41 25.1256 613.429 26.6628C613.047 27.2611 612.641 27.847 612.229 28.442C612.116 28.6051 612.003 28.7688 611.889 28.9337C611.37 29.6869 610.853 30.4589 610.429 31.2267C609.906 32.1725 609.468 33.2124 609.388 34.2914H609.113C607.997 31.7479 606.517 30.0603 605.261 28.9202C604.654 28.3697 604.098 27.946 603.689 27.6346C603.644 27.5997 603.6 27.5662 603.558 27.5341C603.499 27.489 603.446 27.4481 603.398 27.4108C604.056 25.9096 604.499 25.6989 604.634 25.6523C604.755 25.6105 604.864 25.6084 605.2 25.6021L605.203 25.6021C605.501 25.5965 606.002 25.5849 606.519 25.307L606.709 25.2042L606.843 25.0338C607.406 24.3174 607.688 23.6491 607.851 23.1868C607.875 23.1184 607.896 23.0545 607.915 22.9977L609.095 22.2764C610.866 21.7724 611.75 21.3294 612.241 20.9036ZM607.996 22.7506C608.004 22.7296 608.004 22.7337 607.995 22.7538C607.996 22.7527 607.996 22.7516 607.996 22.7506ZM612.698 20.3644C612.7 20.3606 612.702 20.3571 612.704 20.3539C612.712 20.3412 612.71 20.3469 612.698 20.3644Z"
    fill="#004851" fill-opacity="0.25" stroke="#FFF4E0" stroke-width="2.08026" />
  <path
    d="M612.008 19.6902L611.496 17.8954L612.692 16.8696L613.803 17.126C621.41 24.3056 608.589 30.6306 610.641 35.8443C609.957 35.9298 609.701 35.1606 609.701 35.3315H608.419C606.282 29.8613 602.35 28.3229 602.179 27.6391C603.803 23.451 604.914 24.9895 606.025 24.3912C606.966 23.1946 606.966 22.1689 607.137 22.2544L608.675 21.3142C612.35 20.2885 611.581 19.6902 612.008 19.6902Z"
    fill="#004851" fill-opacity="0.25" stroke="#FFF4E0" stroke-width="2.08026"
    stroke-linecap="round" stroke-linejoin="round" />
  <path
    d="M613.245 129.874L613.179 129.841C613.616 129.117 614.001 128.699 614.259 128.466C614.433 128.307 614.562 128.221 614.638 128.172C614.642 128.17 614.648 128.166 614.654 128.162C614.672 128.151 614.696 128.135 614.711 128.125L614.712 128.125C614.721 128.119 614.809 128.063 614.891 127.985C614.891 127.984 614.892 127.984 614.893 127.983C614.921 127.957 615.101 127.789 615.181 127.505C615.229 127.335 615.245 127.107 615.159 126.868C614.983 125.191 614.607 124.215 614.179 123.56C614.336 123.517 614.461 123.483 614.567 123.455C614.683 123.424 614.777 123.399 614.866 123.373C615.044 123.321 615.202 123.264 615.386 123.158C615.489 123.099 615.611 123.017 615.735 122.934C615.768 122.911 615.802 122.888 615.836 122.866L616.089 122.697L616.212 122.418C616.443 121.888 616.565 121.469 616.61 121.12L616.996 120.927L616.531 119.997C616.218 119.372 615.774 118.993 615.384 118.761C615.391 118.72 615.398 118.68 615.405 118.639C615.411 118.604 615.418 118.569 615.424 118.534C615.469 118.284 615.515 118.028 615.55 117.798C615.588 117.544 615.624 117.262 615.622 117.01C615.621 116.887 615.611 116.716 615.562 116.538C615.521 116.39 615.42 116.118 615.16 115.905L614.511 115.315C614.876 114.638 615.153 114.359 615.31 114.219C615.361 114.173 615.406 114.136 615.462 114.091C615.467 114.087 615.472 114.083 615.476 114.079L615.482 114.074C615.534 114.032 615.624 113.958 615.706 113.874C615.801 113.778 615.918 113.638 616.006 113.443C616.096 113.242 616.128 113.041 616.128 112.855V112.719L616.093 112.587L616.046 112.413C617.13 112.222 617.965 112.039 618.613 111.853C619.459 111.611 620.074 111.342 620.519 110.981C620.86 110.704 621.057 110.408 621.187 110.147C621.98 110.794 622.34 111.28 622.522 111.594C622.631 111.781 622.688 111.922 622.752 112.08C622.762 112.107 622.773 112.133 622.785 112.161L622.785 112.162C622.815 112.236 622.871 112.373 622.956 112.509C623.012 114.446 622.497 116.575 621.668 118.801C620.824 121.068 619.688 123.348 618.594 125.545C618.55 125.634 618.506 125.722 618.462 125.811C617.347 128.052 616.266 130.244 615.708 132.127C615.22 133.771 615.025 135.53 615.943 136.888L615.916 137.007C614.547 137.513 613.696 138.266 613.128 138.984C612.85 139.337 612.646 139.673 612.501 139.917C612.389 136.029 612.525 134.566 612.728 133.793C612.819 133.447 612.922 133.242 613.082 132.922C613.1 132.887 613.119 132.849 613.138 132.81C613.343 132.399 613.572 131.902 613.787 131.063L613.997 130.25L613.245 129.874Z"
    fill="#004851" fill-opacity="0.25" stroke="#FFF4E0" stroke-width="2.08026" />
  <path
    d="M617.054 136.702L616.797 137.813C613.806 138.667 613.464 140.719 612.951 141.061C611.498 141.573 611.925 141.061 611.498 141.061C611.156 131.659 612.011 133.796 612.78 130.804L611.754 130.291C613.122 127.471 614.404 127.214 614.148 127.214C613.806 123.368 612.438 123.795 612.609 122.941C615.088 122.171 614.489 122.513 615.259 122.001C615.857 120.633 615.43 120.547 615.601 120.462C615.088 119.436 614.062 119.436 614.233 119.351C614.404 118.154 614.746 116.872 614.489 116.701L613.549 115.847L613.378 115.248C614.404 113.112 615.088 113.368 615.088 112.855L614.746 111.573C621.327 110.547 619.789 109.864 620.814 108.582C623.977 110.718 623.549 111.915 623.977 112.086C624.575 121.06 613.464 132.77 617.054 136.616V136.702Z"
    fill="#004851" fill-opacity="0.25" stroke="#FFF4E0" stroke-width="2.08026"
    stroke-linecap="round" stroke-linejoin="round" />
  <mask id="path-5-inside-1_1783_812" fill="white">
    <path
      d="M605.941 115.504L608.505 121.487L609.872 121.829L610.641 122.769C610.983 125.675 609.872 125.333 610.214 125.589L609.616 124.649C606.282 126.786 606.539 127.897 606.026 128.154C607.992 132.256 607.308 134.393 608.761 135.931C607.394 136.615 607.308 137.299 607.223 137.214C611.154 141.145 610.898 141.487 611.069 141.572V142.171C609.872 142.769 610.043 142.513 609.958 142.598L609.701 142.854L609.958 143.624C611.325 144.137 611.154 143.88 611.496 144.137C606.539 154.137 608.334 162.428 605.428 170.975L606.71 172.257C604.231 175.334 602.863 176.018 603.205 175.932C602.522 182.684 598.846 186.787 598.163 189.607C598.504 191.317 598.59 191.061 598.59 191.146L598.248 191.915L597.65 192.257C593.291 189.266 595.94 185.077 596.282 183.795C594.145 179.949 592.607 180.377 592.265 179.351L591.325 179.18C589.53 183.71 592.521 183.454 591.496 185.249L590.812 185.932L590.641 186.616L590.983 187.214C592.607 187.3 592.35 187.129 592.521 187.214L593.034 187.471C592.949 189.522 591.752 190.12 592.009 190.975C595.684 193.881 595.769 193.967 597.222 194.736C598.334 193.368 598.932 193.881 599.103 193.71C576.795 213.796 546.025 232.087 534.059 256.019H533.119C532.093 254.993 532.35 253.54 532.093 253.711C525.255 251.403 520.469 244.566 517.819 245.933C516.794 246.446 516.879 247.814 516.879 247.557L516.452 247.814C512.691 248.498 508.588 250.121 508.417 250.549C512.093 254.651 514.23 256.104 511.238 258.498C495.511 250.891 507.392 244.908 510.041 238.326C511.409 238.497 511.153 240.207 511.665 240.121H512.007C512.691 239.437 512.691 239.181 512.862 239.096C513.631 239.266 514.315 239.096 514.4 239.096C519.871 226.275 515.768 215.933 520.725 209.18H520.982C521.153 210.035 520.982 210.463 521.238 210.634H521.58C528.674 204.48 528.247 200.206 534.743 201.232L535.085 200.206C533.29 196.787 533.888 198.155 533.632 196.531C534.315 195.505 534.572 195.505 534.572 195.334C530.726 192.855 532.179 191.231 531.238 190.719L530.555 190.89C529.871 192.685 529.871 192.513 529.614 192.855C523.375 193.026 525.854 190.719 523.375 189.18C519.358 190.291 519.956 190.462 519.443 190.462L519.101 190.804H518.759C517.392 189.18 517.392 189.437 517.221 189.266C512.007 191.488 510.469 191.659 507.306 190.719C506.623 189.351 506.623 188.582 506.537 188.582H505.768L505.084 189.522C505.17 191.744 504.913 191.402 504.999 191.659H503.888C497.221 186.445 490.468 188.582 491.409 189.095L490.554 187.813C481.75 186.872 482.776 184.137 478.417 186.531C469.015 181.146 465.254 171.744 461.323 165.077L460.553 165.505C459.357 164.394 458.929 164.137 458.844 164.137C457.647 164.906 457.305 165.163 457.22 165.163L456.365 164.65C456.109 162.77 456.365 162 456.194 161.915C455.083 160.975 454.57 161.317 454.656 161.231V160.547L455.425 159.351C454.998 154.137 449.613 151.402 449.869 151.145L448.502 151.573C441.921 143.709 443.716 144.051 442.006 141.316C437.476 140.034 435.767 137.299 434.656 137.042C433.288 137.213 432.946 137.641 432.775 137.555C428.245 133.282 429.613 134.649 427.732 133.367C428.331 131.829 428.331 130.889 428.16 130.718L427.049 130.119C424.228 130.29 425.254 129.606 424.912 129.777C424.228 126.358 424.143 127.042 424.057 126.615C421.578 127.555 421.237 129.094 421.237 128.666C420.211 125.846 416.536 124.82 416.621 122.256L415.937 121.572C411.664 120.888 411.578 122.683 410.211 122.341L409.185 121.401C409.271 119.606 409.783 118.922 409.698 119.093L409.441 118.752L407.219 119.777L406.877 119.521C406.877 116.786 406.194 116.529 406.108 116.187L405.339 116.444C404.57 117.469 404.741 117.384 404.484 117.726H404.142C401.92 116.7 403.373 115.846 402.775 115.333L402.005 115.076L401.236 115.333C400.04 116.786 399.869 117.555 399.869 117.384L399.185 117.641C397.903 116.358 397.903 116.188 397.561 116.017C395.082 115.846 395.253 116.102 394.997 116.017L394.484 116.786L394.997 118.581C390.723 118.752 390.638 117.726 389.954 117.726L389.783 117.384L390.467 116.102C390.296 114.82 389.441 115.076 389.527 114.905C388.928 118.068 389.014 117.213 388.415 118.239L387.39 117.726C385.766 113.88 386.364 113.196 385.766 112.854C384.655 114.393 383.885 113.965 383.8 114.136L383.031 113.794L384.74 112.598C381.236 108.666 378.672 108.837 379.27 108.666C381.407 107.469 383.8 108.409 383.373 108.153L382.432 106.7L379.441 106.016C378.159 103.965 379.014 104.05 378.843 103.879V103.709L378.501 103.879C372.432 103.879 374.313 104.136 372.603 103.709C372.261 102.17 373.031 101.486 372.86 101.657L372.176 100.973C368.928 101.572 369.697 100.974 369.355 101.145L368.672 99.6059L367.988 99.0931C364.74 101.828 364.483 103.196 364.398 102.939L363.372 102.512C361.236 99.3497 362.261 100.29 361.919 99.3495L363.458 99.0078L363.8 98.3239L363.116 97.6402C359.953 96.7 360.21 97.6402 359.954 97.3838L359.184 98.0675C359.184 100.632 360.039 100.803 359.783 100.888L358.757 101.23C357.731 100.461 357.646 99.7768 357.475 99.8623C355.082 99.6914 354.569 100.29 354.227 100.632C353.201 97.2984 353.629 97.7256 352.688 96.9563H352.176L351.919 97.5547C352.347 98.4949 351.919 99.5205 351.919 99.4351C349.868 96.6145 350.21 96.6146 349.868 95.5034V95.247H349.099C347.475 96.2727 347.646 98.2384 347.133 98.3239C343.116 98.3239 344.312 97.3838 343.286 96.7855C339.098 98.4949 336.363 98.4094 334.483 97.8111C333.543 99.606 332.774 99.5204 332.774 99.6059C332.004 97.3836 332.261 97.4693 332.175 97.3838L331.491 96.871L330.722 97.0419L330.124 97.8966C325.85 93.0248 325.85 95.8453 324.141 94.1359C322.944 90.6315 323.03 91.8281 322.944 91.4007L321.32 91.2299C319.269 93.3667 317.987 94.3922 317.389 94.3067L316.534 93.452C316.534 91.5716 316.363 91.999 316.192 91.4007C313.884 94.2213 314.91 93.8795 314.055 95.5034L313.457 95.9307H312.773C311.748 94.6486 312.346 94.6486 312.089 94.5631C313.628 92.2554 313.457 90.888 313.286 90.4607L312.517 89.6059C311.919 90.0332 311.577 90.1187 311.662 90.1187H311.064L310.722 89.0931C310.978 87.2127 312.688 86.1014 312.346 86.2724V85.6743C310.209 84.905 310.038 85.8451 309.953 85.5887C307.218 88.0674 308.756 89.8624 307.816 90.4607C304.995 92.341 305.337 91.0589 305.166 91.4863C302.688 90.2897 302.517 88.8365 302.517 89.1784C301.747 92.5118 301.662 91.9137 300.636 92.8538C298.243 91.4008 298.158 91.3152 297.901 91.3152C293.798 92.6827 292.944 94.4777 293.029 94.0503L291.405 93.8795C294.055 88.8366 293.457 89.0075 293.884 88.1528L293.457 87.1271C289.439 87.1271 287.559 83.9648 287.645 84.5631C284.909 90.6316 284.226 87.8965 281.918 89.6914C280.892 88.5803 280.636 87.8109 280.55 87.8963L279.781 87.7255L278.756 88.7511C278.927 92.6828 278.841 93.0248 278.67 93.6231L277.559 93.8795C273.456 92.0846 274.397 92.6829 272.858 92.341C270.037 93.8795 270.037 95.3325 269.952 94.9906L268.499 95.4179C268.328 91.4862 267.901 92.0845 267.901 91.6571L266.875 90.7171H266.277C263.713 93.1103 262.516 92.9391 261.405 92.6827C260.892 91.4007 260.294 90.4607 260.123 90.4607L259.61 90.2895C256.447 91.0588 257.388 91.5717 255.935 91.7427V91.4007C258.071 89.8622 257.131 89.1785 257.388 89.0075L256.704 88.2383V87.7255C259.781 86.1015 257.73 82.0844 258.584 82.0844C268.67 74.05 263.2 65.8449 263.114 62.426C261.832 62.0841 261.918 62.255 261.832 62.084C261.832 60.1182 262.43 59.7762 262.174 59.5197C261.234 58.9214 260.636 58.5797 260.721 58.5797L260.379 57.6396L260.55 56.8701C261.747 56.3573 261.661 56.6139 261.747 56.5284L262.26 56.1009C262.943 50.4598 262.772 46.7845 263.542 45.1606V45.417C261.576 43.1947 264.396 41.7419 264.482 41.5709C261.661 27.2972 267.559 28.0663 267.986 23.5363C295.508 25.2457 313.713 30.2887 335.936 33.0238C336.449 34.1349 336.449 33.8784 336.791 34.2202C366.449 35.075 390.039 54.5626 413.886 49.0069C415.852 51.4001 418.245 55.5027 419.527 56.9557H419.869C429.955 52.7676 434.143 48.1522 428.673 41.5709C426.108 30.4596 442.434 17.6388 449.699 23.9637H450.04H450.382C451.066 22.5961 451.237 22.8525 451.408 22.5961C453.887 21.9123 453.032 24.8184 453.545 25.0749H453.887H454.229C456.707 22.5107 463.374 19.7757 464.998 21.9125H465.254L465.596 21.6559C469.357 13.7925 472.263 7.29675 477.391 7.55317C476.195 5.75827 474.656 6.27114 474.827 5.33096V4.989C485.597 5.50183 487.306 9.09162 492.691 12.596C492.007 2.59579 510.64 10.2882 514.144 6.18559C514.913 5.24541 515.597 5.2454 515.426 5.2454C522.178 4.81804 531.067 13.878 533.119 14.9891V15.8439C543.204 23.1945 544.401 21.3996 549.358 20.9723C557.393 13.2798 566.795 7.89503 574.914 3.7924C575.342 4.13429 575.256 4.13427 575.342 4.30521C575.171 4.98898 575.427 5.33096 575.342 5.33096L575.684 5.5018C577.564 5.24539 577.478 4.90361 577.735 5.07455C579.102 5.75832 578.675 5.58731 579.188 5.67278C580.128 4.90354 579.786 4.64718 580.128 4.39076C581.752 4.81812 582.179 5.5019 582.094 5.33096C585.256 4.3053 585.342 5.24546 585.94 4.90357L586.966 4.21978C600.043 -0.566622 605.855 4.04889 610.556 2.93776C609.359 6.69851 608.419 7.0403 608.505 7.38219C609.958 12.8524 610.812 15.4166 610.471 17.2115L609.787 18.0661C606.795 18.579 607.223 18.8355 606.966 18.8355C605.428 21.3996 605.086 21.656 604.744 21.9125C601.411 22.4253 600.47 20.8867 600.299 21.0577C598.334 15.8439 597.479 11.3994 596.624 9.00617L596.111 9.34813V10.8011L596.966 12.6815C595.513 15.2457 597.393 15.8439 598.077 16.5277C598.248 18.0662 598.675 19.2627 598.846 19.5191L598.334 21.3995C598.932 23.4508 598.846 22.6816 598.846 23.0235L598.59 23.6219C597.393 24.4766 597.479 23.8783 597.393 24.0492L598.761 26.1005C596.539 25.5022 596.282 26.9553 596.026 27.1262C599.53 27.639 598.932 27.7245 600.128 28.1518C606.282 34.0494 606.111 31.4852 607.479 36.1006L608.248 36.2717L608.847 36.9554C601.496 52.9386 602.351 56.9557 607.564 61.9985C609.445 61.9985 609.958 61.3147 609.872 61.4857L610.556 61.7421C608.163 67.0413 605.342 77.5544 609.872 78.9219L610.983 80.4604C610.043 84.9904 609.188 86.187 608.847 87.1271C610.47 91.4007 609.787 90.1187 610.727 91.2299C612.864 91.7427 612.436 90.9734 612.607 91.2299C613.377 89.435 614.915 88.2382 615 88.4092C616.368 90.375 616.197 90.4605 616.283 90.5459L617.65 90.8879C616.881 92.5119 616.624 92.0845 616.283 92.5119C617.223 94.7341 616.881 94.3922 616.966 95.1615C615.513 96.1871 614.659 95.9307 614.317 95.9307L613.889 94.9906L614.915 94.7342L615.171 94.1359L614.829 93.452L613.975 92.9391C607.223 94.0503 607.735 100.717 608.676 102.256C611.069 102.854 611.24 102.769 611.24 102.769C613.462 105.247 612.265 109.264 612.607 108.409C611.667 107.042 611.924 107.469 611.667 106.871C610.471 108.58 610.898 110.204 610.556 110.632C608.505 111.316 606.966 112.512 606.881 112.939C605.684 115.162 606.368 115.333 606.197 115.418L605.941 115.504Z" />
  </mask>
  <path
    d="M605.941 115.504L608.505 121.487L609.872 121.829L610.641 122.769C610.983 125.675 609.872 125.333 610.214 125.589L609.616 124.649C606.282 126.786 606.539 127.897 606.026 128.154C607.992 132.256 607.308 134.393 608.761 135.931C607.394 136.615 607.308 137.299 607.223 137.214C611.154 141.145 610.898 141.487 611.069 141.572V142.171C609.872 142.769 610.043 142.513 609.958 142.598L609.701 142.854L609.958 143.624C611.325 144.137 611.154 143.88 611.496 144.137C606.539 154.137 608.334 162.428 605.428 170.975L606.71 172.257C604.231 175.334 602.863 176.018 603.205 175.932C602.522 182.684 598.846 186.787 598.163 189.607C598.504 191.317 598.59 191.061 598.59 191.146L598.248 191.915L597.65 192.257C593.291 189.266 595.94 185.077 596.282 183.795C594.145 179.949 592.607 180.377 592.265 179.351L591.325 179.18C589.53 183.71 592.521 183.454 591.496 185.249L590.812 185.932L590.641 186.616L590.983 187.214C592.607 187.3 592.35 187.129 592.521 187.214L593.034 187.471C592.949 189.522 591.752 190.12 592.009 190.975C595.684 193.881 595.769 193.967 597.222 194.736C598.334 193.368 598.932 193.881 599.103 193.71C576.795 213.796 546.025 232.087 534.059 256.019H533.119C532.093 254.993 532.35 253.54 532.093 253.711C525.255 251.403 520.469 244.566 517.819 245.933C516.794 246.446 516.879 247.814 516.879 247.557L516.452 247.814C512.691 248.498 508.588 250.121 508.417 250.549C512.093 254.651 514.23 256.104 511.238 258.498C495.511 250.891 507.392 244.908 510.041 238.326C511.409 238.497 511.153 240.207 511.665 240.121H512.007C512.691 239.437 512.691 239.181 512.862 239.096C513.631 239.266 514.315 239.096 514.4 239.096C519.871 226.275 515.768 215.933 520.725 209.18H520.982C521.153 210.035 520.982 210.463 521.238 210.634H521.58C528.674 204.48 528.247 200.206 534.743 201.232L535.085 200.206C533.29 196.787 533.888 198.155 533.632 196.531C534.315 195.505 534.572 195.505 534.572 195.334C530.726 192.855 532.179 191.231 531.238 190.719L530.555 190.89C529.871 192.685 529.871 192.513 529.614 192.855C523.375 193.026 525.854 190.719 523.375 189.18C519.358 190.291 519.956 190.462 519.443 190.462L519.101 190.804H518.759C517.392 189.18 517.392 189.437 517.221 189.266C512.007 191.488 510.469 191.659 507.306 190.719C506.623 189.351 506.623 188.582 506.537 188.582H505.768L505.084 189.522C505.17 191.744 504.913 191.402 504.999 191.659H503.888C497.221 186.445 490.468 188.582 491.409 189.095L490.554 187.813C481.75 186.872 482.776 184.137 478.417 186.531C469.015 181.146 465.254 171.744 461.323 165.077L460.553 165.505C459.357 164.394 458.929 164.137 458.844 164.137C457.647 164.906 457.305 165.163 457.22 165.163L456.365 164.65C456.109 162.77 456.365 162 456.194 161.915C455.083 160.975 454.57 161.317 454.656 161.231V160.547L455.425 159.351C454.998 154.137 449.613 151.402 449.869 151.145L448.502 151.573C441.921 143.709 443.716 144.051 442.006 141.316C437.476 140.034 435.767 137.299 434.656 137.042C433.288 137.213 432.946 137.641 432.775 137.555C428.245 133.282 429.613 134.649 427.732 133.367C428.331 131.829 428.331 130.889 428.16 130.718L427.049 130.119C424.228 130.29 425.254 129.606 424.912 129.777C424.228 126.358 424.143 127.042 424.057 126.615C421.578 127.555 421.237 129.094 421.237 128.666C420.211 125.846 416.536 124.82 416.621 122.256L415.937 121.572C411.664 120.888 411.578 122.683 410.211 122.341L409.185 121.401C409.271 119.606 409.783 118.922 409.698 119.093L409.441 118.752L407.219 119.777L406.877 119.521C406.877 116.786 406.194 116.529 406.108 116.187L405.339 116.444C404.57 117.469 404.741 117.384 404.484 117.726H404.142C401.92 116.7 403.373 115.846 402.775 115.333L402.005 115.076L401.236 115.333C400.04 116.786 399.869 117.555 399.869 117.384L399.185 117.641C397.903 116.358 397.903 116.188 397.561 116.017C395.082 115.846 395.253 116.102 394.997 116.017L394.484 116.786L394.997 118.581C390.723 118.752 390.638 117.726 389.954 117.726L389.783 117.384L390.467 116.102C390.296 114.82 389.441 115.076 389.527 114.905C388.928 118.068 389.014 117.213 388.415 118.239L387.39 117.726C385.766 113.88 386.364 113.196 385.766 112.854C384.655 114.393 383.885 113.965 383.8 114.136L383.031 113.794L384.74 112.598C381.236 108.666 378.672 108.837 379.27 108.666C381.407 107.469 383.8 108.409 383.373 108.153L382.432 106.7L379.441 106.016C378.159 103.965 379.014 104.05 378.843 103.879V103.709L378.501 103.879C372.432 103.879 374.313 104.136 372.603 103.709C372.261 102.17 373.031 101.486 372.86 101.657L372.176 100.973C368.928 101.572 369.697 100.974 369.355 101.145L368.672 99.6059L367.988 99.0931C364.74 101.828 364.483 103.196 364.398 102.939L363.372 102.512C361.236 99.3497 362.261 100.29 361.919 99.3495L363.458 99.0078L363.8 98.3239L363.116 97.6402C359.953 96.7 360.21 97.6402 359.954 97.3838L359.184 98.0675C359.184 100.632 360.039 100.803 359.783 100.888L358.757 101.23C357.731 100.461 357.646 99.7768 357.475 99.8623C355.082 99.6914 354.569 100.29 354.227 100.632C353.201 97.2984 353.629 97.7256 352.688 96.9563H352.176L351.919 97.5547C352.347 98.4949 351.919 99.5205 351.919 99.4351C349.868 96.6145 350.21 96.6146 349.868 95.5034V95.247H349.099C347.475 96.2727 347.646 98.2384 347.133 98.3239C343.116 98.3239 344.312 97.3838 343.286 96.7855C339.098 98.4949 336.363 98.4094 334.483 97.8111C333.543 99.606 332.774 99.5204 332.774 99.6059C332.004 97.3836 332.261 97.4693 332.175 97.3838L331.491 96.871L330.722 97.0419L330.124 97.8966C325.85 93.0248 325.85 95.8453 324.141 94.1359C322.944 90.6315 323.03 91.8281 322.944 91.4007L321.32 91.2299C319.269 93.3667 317.987 94.3922 317.389 94.3067L316.534 93.452C316.534 91.5716 316.363 91.999 316.192 91.4007C313.884 94.2213 314.91 93.8795 314.055 95.5034L313.457 95.9307H312.773C311.748 94.6486 312.346 94.6486 312.089 94.5631C313.628 92.2554 313.457 90.888 313.286 90.4607L312.517 89.6059C311.919 90.0332 311.577 90.1187 311.662 90.1187H311.064L310.722 89.0931C310.978 87.2127 312.688 86.1014 312.346 86.2724V85.6743C310.209 84.905 310.038 85.8451 309.953 85.5887C307.218 88.0674 308.756 89.8624 307.816 90.4607C304.995 92.341 305.337 91.0589 305.166 91.4863C302.688 90.2897 302.517 88.8365 302.517 89.1784C301.747 92.5118 301.662 91.9137 300.636 92.8538C298.243 91.4008 298.158 91.3152 297.901 91.3152C293.798 92.6827 292.944 94.4777 293.029 94.0503L291.405 93.8795C294.055 88.8366 293.457 89.0075 293.884 88.1528L293.457 87.1271C289.439 87.1271 287.559 83.9648 287.645 84.5631C284.909 90.6316 284.226 87.8965 281.918 89.6914C280.892 88.5803 280.636 87.8109 280.55 87.8963L279.781 87.7255L278.756 88.7511C278.927 92.6828 278.841 93.0248 278.67 93.6231L277.559 93.8795C273.456 92.0846 274.397 92.6829 272.858 92.341C270.037 93.8795 270.037 95.3325 269.952 94.9906L268.499 95.4179C268.328 91.4862 267.901 92.0845 267.901 91.6571L266.875 90.7171H266.277C263.713 93.1103 262.516 92.9391 261.405 92.6827C260.892 91.4007 260.294 90.4607 260.123 90.4607L259.61 90.2895C256.447 91.0588 257.388 91.5717 255.935 91.7427V91.4007C258.071 89.8622 257.131 89.1785 257.388 89.0075L256.704 88.2383V87.7255C259.781 86.1015 257.73 82.0844 258.584 82.0844C268.67 74.05 263.2 65.8449 263.114 62.426C261.832 62.0841 261.918 62.255 261.832 62.084C261.832 60.1182 262.43 59.7762 262.174 59.5197C261.234 58.9214 260.636 58.5797 260.721 58.5797L260.379 57.6396L260.55 56.8701C261.747 56.3573 261.661 56.6139 261.747 56.5284L262.26 56.1009C262.943 50.4598 262.772 46.7845 263.542 45.1606V45.417C261.576 43.1947 264.396 41.7419 264.482 41.5709C261.661 27.2972 267.559 28.0663 267.986 23.5363C295.508 25.2457 313.713 30.2887 335.936 33.0238C336.449 34.1349 336.449 33.8784 336.791 34.2202C366.449 35.075 390.039 54.5626 413.886 49.0069C415.852 51.4001 418.245 55.5027 419.527 56.9557H419.869C429.955 52.7676 434.143 48.1522 428.673 41.5709C426.108 30.4596 442.434 17.6388 449.699 23.9637H450.04H450.382C451.066 22.5961 451.237 22.8525 451.408 22.5961C453.887 21.9123 453.032 24.8184 453.545 25.0749H453.887H454.229C456.707 22.5107 463.374 19.7757 464.998 21.9125H465.254L465.596 21.6559C469.357 13.7925 472.263 7.29675 477.391 7.55317C476.195 5.75827 474.656 6.27114 474.827 5.33096V4.989C485.597 5.50183 487.306 9.09162 492.691 12.596C492.007 2.59579 510.64 10.2882 514.144 6.18559C514.913 5.24541 515.597 5.2454 515.426 5.2454C522.178 4.81804 531.067 13.878 533.119 14.9891V15.8439C543.204 23.1945 544.401 21.3996 549.358 20.9723C557.393 13.2798 566.795 7.89503 574.914 3.7924C575.342 4.13429 575.256 4.13427 575.342 4.30521C575.171 4.98898 575.427 5.33096 575.342 5.33096L575.684 5.5018C577.564 5.24539 577.478 4.90361 577.735 5.07455C579.102 5.75832 578.675 5.58731 579.188 5.67278C580.128 4.90354 579.786 4.64718 580.128 4.39076C581.752 4.81812 582.179 5.5019 582.094 5.33096C585.256 4.3053 585.342 5.24546 585.94 4.90357L586.966 4.21978C600.043 -0.566622 605.855 4.04889 610.556 2.93776C609.359 6.69851 608.419 7.0403 608.505 7.38219C609.958 12.8524 610.812 15.4166 610.471 17.2115L609.787 18.0661C606.795 18.579 607.223 18.8355 606.966 18.8355C605.428 21.3996 605.086 21.656 604.744 21.9125C601.411 22.4253 600.47 20.8867 600.299 21.0577C598.334 15.8439 597.479 11.3994 596.624 9.00617L596.111 9.34813V10.8011L596.966 12.6815C595.513 15.2457 597.393 15.8439 598.077 16.5277C598.248 18.0662 598.675 19.2627 598.846 19.5191L598.334 21.3995C598.932 23.4508 598.846 22.6816 598.846 23.0235L598.59 23.6219C597.393 24.4766 597.479 23.8783 597.393 24.0492L598.761 26.1005C596.539 25.5022 596.282 26.9553 596.026 27.1262C599.53 27.639 598.932 27.7245 600.128 28.1518C606.282 34.0494 606.111 31.4852 607.479 36.1006L608.248 36.2717L608.847 36.9554C601.496 52.9386 602.351 56.9557 607.564 61.9985C609.445 61.9985 609.958 61.3147 609.872 61.4857L610.556 61.7421C608.163 67.0413 605.342 77.5544 609.872 78.9219L610.983 80.4604C610.043 84.9904 609.188 86.187 608.847 87.1271C610.47 91.4007 609.787 90.1187 610.727 91.2299C612.864 91.7427 612.436 90.9734 612.607 91.2299C613.377 89.435 614.915 88.2382 615 88.4092C616.368 90.375 616.197 90.4605 616.283 90.5459L617.65 90.8879C616.881 92.5119 616.624 92.0845 616.283 92.5119C617.223 94.7341 616.881 94.3922 616.966 95.1615C615.513 96.1871 614.659 95.9307 614.317 95.9307L613.889 94.9906L614.915 94.7342L615.171 94.1359L614.829 93.452L613.975 92.9391C607.223 94.0503 607.735 100.717 608.676 102.256C611.069 102.854 611.24 102.769 611.24 102.769C613.462 105.247 612.265 109.264 612.607 108.409C611.667 107.042 611.924 107.469 611.667 106.871C610.471 108.58 610.898 110.204 610.556 110.632C608.505 111.316 606.966 112.512 606.881 112.939C605.684 115.162 606.368 115.333 606.197 115.418L605.941 115.504Z"
    fill="#004851" fill-opacity="0.25" stroke="#FFF4E0" stroke-width="4.16052"
    mask="url(#path-5-inside-1_1783_812)" />
  <path
    d="M605.941 115.504L608.505 121.487L609.872 121.829L610.641 122.769C610.983 125.675 609.872 125.333 610.214 125.589L609.616 124.649C606.282 126.786 606.539 127.897 606.026 128.154C607.992 132.256 607.308 134.393 608.761 135.931C607.394 136.615 607.308 137.299 607.223 137.214C611.154 141.145 610.898 141.487 611.069 141.572V142.171C609.872 142.769 610.043 142.513 609.958 142.598L609.701 142.854L609.958 143.624C611.325 144.137 611.154 143.88 611.496 144.137C606.539 154.137 608.334 162.428 605.428 170.975L606.71 172.257C604.231 175.334 602.863 176.018 603.205 175.932C602.522 182.684 598.846 186.787 598.163 189.607C598.504 191.317 598.59 191.061 598.59 191.146L598.248 191.915L597.65 192.257C593.291 189.266 595.94 185.077 596.282 183.795C594.145 179.949 592.607 180.377 592.265 179.351L591.325 179.18C589.53 183.71 592.521 183.454 591.496 185.249L590.812 185.932L590.641 186.616L590.983 187.214C592.607 187.3 592.35 187.129 592.521 187.214L593.034 187.471C592.949 189.522 591.752 190.12 592.009 190.975C595.684 193.881 595.769 193.967 597.222 194.736C598.334 193.368 598.932 193.881 599.103 193.71C576.795 213.796 546.025 232.087 534.059 256.019H533.119C532.093 254.993 532.35 253.54 532.093 253.711C525.255 251.403 520.469 244.566 517.819 245.933C516.794 246.446 516.879 247.814 516.879 247.557L516.452 247.814C512.691 248.498 508.588 250.121 508.417 250.549C512.093 254.651 514.23 256.104 511.238 258.498C495.511 250.891 507.392 244.908 510.041 238.326C511.409 238.497 511.153 240.207 511.665 240.121H512.007C512.691 239.437 512.691 239.181 512.862 239.096C513.631 239.266 514.315 239.096 514.4 239.096C519.871 226.275 515.768 215.933 520.725 209.18H520.982C521.153 210.035 520.982 210.463 521.238 210.634H521.58C528.674 204.48 528.247 200.206 534.743 201.232L535.085 200.206C533.29 196.787 533.888 198.155 533.632 196.531C534.315 195.505 534.572 195.505 534.572 195.334C530.726 192.855 532.179 191.231 531.238 190.719L530.555 190.89C529.871 192.685 529.871 192.513 529.614 192.855C523.375 193.026 525.854 190.719 523.375 189.18C519.358 190.291 519.956 190.462 519.443 190.462L519.101 190.804H518.759C517.392 189.18 517.392 189.437 517.221 189.266C512.007 191.488 510.469 191.659 507.306 190.719C506.623 189.351 506.623 188.582 506.537 188.582H505.768L505.084 189.522C505.17 191.744 504.913 191.402 504.999 191.659H503.888C497.221 186.445 490.468 188.582 491.409 189.095L490.554 187.813C481.75 186.872 482.776 184.137 478.417 186.531C469.015 181.146 465.254 171.744 461.323 165.077L460.553 165.505C459.357 164.394 458.929 164.137 458.844 164.137C457.647 164.906 457.305 165.163 457.22 165.163L456.365 164.65C456.109 162.77 456.365 162 456.194 161.915C455.083 160.975 454.57 161.317 454.656 161.231V160.547L455.425 159.351C454.998 154.137 449.613 151.402 449.869 151.145L448.502 151.573C441.921 143.709 443.716 144.051 442.006 141.316C437.476 140.034 435.767 137.299 434.656 137.042C433.288 137.213 432.946 137.641 432.775 137.555C428.245 133.282 429.613 134.649 427.732 133.367C428.331 131.829 428.331 130.889 428.16 130.718L427.049 130.119C424.228 130.29 425.254 129.606 424.912 129.777C424.228 126.358 424.143 127.042 424.057 126.615C421.578 127.555 421.237 129.094 421.237 128.666C420.211 125.846 416.536 124.82 416.621 122.256L415.937 121.572C411.664 120.888 411.578 122.683 410.211 122.341L409.185 121.401C409.271 119.606 409.783 118.922 409.698 119.093L409.441 118.752L407.219 119.777L406.877 119.521C406.877 116.786 406.194 116.529 406.108 116.187L405.339 116.444C404.57 117.469 404.741 117.384 404.484 117.726H404.142C401.92 116.7 403.373 115.846 402.775 115.333L402.005 115.076L401.236 115.333C400.04 116.786 399.869 117.555 399.869 117.384L399.185 117.641C397.903 116.358 397.903 116.188 397.561 116.017C395.082 115.846 395.253 116.102 394.997 116.017L394.484 116.786L394.997 118.581C390.723 118.752 390.638 117.726 389.954 117.726L389.783 117.384L390.467 116.102C390.296 114.82 389.441 115.076 389.527 114.905C388.928 118.068 389.014 117.213 388.415 118.239L387.39 117.726C385.766 113.88 386.364 113.196 385.766 112.854C384.655 114.393 383.885 113.965 383.8 114.136L383.031 113.794L384.74 112.598C381.236 108.666 378.672 108.837 379.27 108.666C381.407 107.469 383.8 108.409 383.373 108.153L382.432 106.7L379.441 106.016C378.159 103.965 379.014 104.05 378.843 103.879V103.709L378.501 103.879C372.432 103.879 374.313 104.136 372.603 103.709C372.261 102.17 373.031 101.486 372.86 101.657L372.176 100.973C368.928 101.572 369.697 100.974 369.355 101.145L368.672 99.6059L367.988 99.0931C364.74 101.828 364.483 103.196 364.398 102.939L363.372 102.512C361.236 99.3497 362.261 100.29 361.919 99.3495L363.458 99.0078L363.8 98.3239L363.116 97.6402C359.953 96.7 360.21 97.6402 359.954 97.3838L359.184 98.0675C359.184 100.632 360.039 100.803 359.783 100.888L358.757 101.23C357.731 100.461 357.646 99.7768 357.475 99.8623C355.082 99.6914 354.569 100.29 354.227 100.632C353.201 97.2984 353.629 97.7256 352.688 96.9563H352.176L351.919 97.5547C352.347 98.4949 351.919 99.5205 351.919 99.4351C349.868 96.6145 350.21 96.6146 349.868 95.5034V95.247H349.099C347.475 96.2727 347.646 98.2384 347.133 98.3239C343.116 98.3239 344.312 97.3838 343.286 96.7855C339.098 98.4949 336.363 98.4094 334.483 97.8111C333.543 99.606 332.774 99.5204 332.774 99.6059C332.004 97.3836 332.261 97.4693 332.175 97.3838L331.491 96.871L330.722 97.0419L330.124 97.8966C325.85 93.0248 325.85 95.8453 324.141 94.1359C322.944 90.6315 323.03 91.8281 322.944 91.4007L321.32 91.2299C319.269 93.3667 317.987 94.3922 317.389 94.3067L316.534 93.452C316.534 91.5716 316.363 91.999 316.192 91.4007C313.884 94.2213 314.91 93.8795 314.055 95.5034L313.457 95.9307H312.773C311.748 94.6486 312.346 94.6486 312.089 94.5631C313.628 92.2554 313.457 90.888 313.286 90.4607L312.517 89.6059C311.919 90.0332 311.577 90.1187 311.662 90.1187H311.064L310.722 89.0931C310.978 87.2127 312.688 86.1014 312.346 86.2724V85.6743C310.209 84.905 310.038 85.8451 309.953 85.5887C307.218 88.0674 308.756 89.8624 307.816 90.4607C304.995 92.341 305.337 91.0589 305.166 91.4863C302.688 90.2897 302.517 88.8365 302.517 89.1784C301.747 92.5118 301.662 91.9137 300.636 92.8538C298.243 91.4008 298.158 91.3152 297.901 91.3152C293.798 92.6827 292.944 94.4777 293.029 94.0503L291.405 93.8795C294.055 88.8366 293.457 89.0075 293.884 88.1528L293.457 87.1271C289.439 87.1271 287.559 83.9648 287.645 84.5631C284.909 90.6316 284.226 87.8965 281.918 89.6914C280.892 88.5803 280.636 87.8109 280.55 87.8963L279.781 87.7255L278.756 88.7511C278.927 92.6828 278.841 93.0248 278.67 93.6231L277.559 93.8795C273.456 92.0846 274.397 92.6829 272.858 92.341C270.037 93.8795 270.037 95.3325 269.952 94.9906L268.499 95.4179C268.328 91.4862 267.901 92.0845 267.901 91.6571L266.875 90.7171H266.277C263.713 93.1103 262.516 92.9391 261.405 92.6827C260.892 91.4007 260.294 90.4607 260.123 90.4607L259.61 90.2895C256.447 91.0588 257.388 91.5717 255.935 91.7427V91.4007C258.071 89.8622 257.131 89.1785 257.388 89.0075L256.704 88.2383V87.7255C259.781 86.1015 257.73 82.0844 258.584 82.0844C268.67 74.05 263.2 65.8449 263.114 62.426C261.832 62.0841 261.918 62.255 261.832 62.084C261.832 60.1182 262.43 59.7762 262.174 59.5197C261.234 58.9214 260.636 58.5797 260.721 58.5797L260.379 57.6396L260.55 56.8701C261.747 56.3573 261.661 56.6139 261.747 56.5284L262.26 56.1009C262.943 50.4598 262.772 46.7845 263.542 45.1606V45.417C261.576 43.1947 264.396 41.7419 264.482 41.5709C261.661 27.2972 267.559 28.0663 267.986 23.5363C295.508 25.2457 313.713 30.2887 335.936 33.0238C336.449 34.1349 336.449 33.8784 336.791 34.2202C366.449 35.075 390.039 54.5626 413.886 49.0069C415.852 51.4001 418.245 55.5027 419.527 56.9557H419.869C429.955 52.7676 434.143 48.1522 428.673 41.5709C426.108 30.4596 442.434 17.6388 449.699 23.9637H450.04H450.382C451.066 22.5961 451.237 22.8525 451.408 22.5961C453.887 21.9123 453.032 24.8184 453.545 25.0749H453.887H454.229C456.707 22.5107 463.374 19.7757 464.998 21.9125H465.254L465.596 21.6559C469.357 13.7925 472.263 7.29675 477.391 7.55317C476.195 5.75827 474.656 6.27114 474.827 5.33096V4.989C485.597 5.50183 487.306 9.09162 492.691 12.596C492.007 2.59579 510.64 10.2882 514.144 6.18559C514.913 5.24541 515.597 5.2454 515.426 5.2454C522.178 4.81804 531.067 13.878 533.119 14.9891V15.8439C543.204 23.1945 544.401 21.3996 549.358 20.9723C557.393 13.2798 566.795 7.89503 574.914 3.7924C575.342 4.13429 575.256 4.13427 575.342 4.30521C575.171 4.98898 575.427 5.33096 575.342 5.33096L575.684 5.5018C577.564 5.24539 577.478 4.90361 577.735 5.07455C579.102 5.75832 578.675 5.58731 579.188 5.67278C580.128 4.90354 579.786 4.64718 580.128 4.39076C581.752 4.81812 582.179 5.5019 582.094 5.33096C585.256 4.3053 585.342 5.24546 585.94 4.90357L586.966 4.21978C600.043 -0.566622 605.855 4.04889 610.556 2.93776C609.359 6.69851 608.419 7.0403 608.505 7.38219C609.958 12.8524 610.812 15.4166 610.471 17.2115L609.787 18.0661C606.795 18.579 607.223 18.8355 606.966 18.8355C605.428 21.3996 605.086 21.656 604.744 21.9125C601.411 22.4253 600.47 20.8867 600.299 21.0577C598.334 15.8439 597.479 11.3994 596.624 9.00617L596.111 9.34813V10.8011L596.966 12.6815C595.513 15.2457 597.393 15.8439 598.077 16.5277C598.248 18.0662 598.675 19.2627 598.846 19.5191L598.334 21.3995C598.932 23.4508 598.846 22.6816 598.846 23.0235L598.59 23.6219C597.393 24.4766 597.479 23.8783 597.393 24.0492L598.761 26.1005C596.539 25.5022 596.282 26.9553 596.026 27.1262C599.53 27.639 598.932 27.7245 600.128 28.1518C606.282 34.0494 606.111 31.4852 607.479 36.1006L608.248 36.2717L608.847 36.9554C601.496 52.9386 602.351 56.9557 607.564 61.9985C609.445 61.9985 609.958 61.3147 609.872 61.4857L610.556 61.7421C608.163 67.0413 605.342 77.5544 609.872 78.9219L610.983 80.4604C610.043 84.9904 609.188 86.187 608.847 87.1271C610.47 91.4007 609.787 90.1187 610.727 91.2299C612.864 91.7427 612.436 90.9734 612.607 91.2299C613.377 89.435 614.915 88.2382 615 88.4092C616.368 90.375 616.197 90.4605 616.283 90.5459L617.65 90.8879C616.881 92.5119 616.624 92.0845 616.283 92.5119C617.223 94.7341 616.881 94.3922 616.966 95.1615C615.513 96.1871 614.659 95.9307 614.317 95.9307L613.889 94.9906L614.915 94.7342L615.171 94.1359L614.829 93.452L613.975 92.9391C607.223 94.0503 607.735 100.717 608.676 102.256C611.069 102.854 611.24 102.769 611.24 102.769C613.462 105.247 612.265 109.264 612.607 108.409C611.667 107.042 611.924 107.469 611.667 106.871C610.471 108.58 610.898 110.204 610.556 110.632C608.505 111.316 606.966 112.512 606.881 112.939C605.684 115.162 606.368 115.333 606.197 115.418L605.941 115.504Z"
    fill="#004851" fill-opacity="0.25" stroke="#FFF4E0" stroke-width="2.08026"
    stroke-linecap="round" stroke-linejoin="round" />
  <mask id="path-7-inside-2_1783_812" fill="white">
    <path
      d="M520.983 210.463L521.154 210.805H521.496C525.428 209.266 527.052 200.89 534.658 201.403L535 200.377C535.513 200.804 533.718 199.009 533.547 196.702C533.547 196.531 533.718 196.531 534.488 195.505C534.488 194.992 532.265 194.736 531.154 190.89L530.47 191.061C530.47 191.061 530.47 191.915 529.53 193.027C529.274 193.368 524.402 192.599 523.291 189.351C522.949 189.351 523.291 189.266 519.359 190.633L519.017 190.975H518.675C518.675 190.975 518.675 190.804 517.137 189.437C515.342 189.095 512.094 193.112 507.222 190.89C506.88 190.548 507.222 190.633 506.453 188.753H505.684L505 189.693C505 189.693 505.171 189.864 504.914 191.83H503.803C500.726 190.89 502.692 187.129 491.324 189.266L490.47 187.984C490.555 188.924 481.752 183.881 478.333 186.701C472.435 182.77 466.11 176.701 461.238 165.248L460.469 165.676C460.469 165.676 460.298 165.077 458.76 164.308C458.503 164.308 458.503 164.735 457.136 165.334L456.281 164.821C456.11 164.393 456.281 164.393 456.11 162.086C455.768 161.915 455.939 161.658 454.572 161.402V160.718L455.341 159.522C455.341 157.299 454.914 156.274 449.785 151.316L448.418 151.744C448.332 152.342 444.913 148.154 441.922 141.487C440.383 141.06 438.589 140.291 434.571 137.214C434.4 137.214 434.144 137.214 432.691 137.726C432.007 137.983 430.212 134.564 427.648 133.538C427.477 133.025 428.503 132.769 428.075 130.889L426.964 130.29C426.964 130.29 426.964 130.803 424.828 129.949C424.742 129.949 424.999 129.521 423.973 126.786C422.947 127.299 423.46 126.615 421.152 128.837C420.469 125.846 417.135 126.872 416.537 122.427L415.853 121.743C415.853 121.743 413.118 121.743 410.127 122.513L409.101 121.572C409.101 120.803 408.93 121.401 409.614 119.265L409.357 118.923L407.135 119.948L406.793 119.692C406.793 119.692 407.221 118.581 406.024 116.359L405.255 116.615C405.255 116.615 404.998 116.786 404.4 117.897H404.058C404.058 117.897 402.605 117.299 402.691 115.504L401.921 115.247L401.152 115.504C400.639 116.102 400.896 115.675 399.784 117.555L399.101 117.811C399.101 117.811 398.759 117.213 397.477 116.187C397.306 116.187 397.477 116.017 394.913 116.187L394.4 116.957L394.913 118.752C394.913 118.752 393.118 119.35 389.87 117.897L389.699 117.555L390.383 116.273C390.383 116.273 390.639 115.589 389.442 115.076C389.271 114.734 389.784 116.102 388.331 118.41L387.306 117.897C386.878 117.555 386.964 116.957 385.682 113.025C385.425 113.025 385.511 113.965 383.716 114.307L382.947 113.965L384.656 112.769C383.118 111.316 384.4 111.572 379.186 108.837C380.468 108.495 379.784 108.068 383.288 108.324L382.348 106.871L379.357 106.187C379.357 106.187 378.673 106.017 378.758 104.051V103.88L378.417 104.051C378.758 103.88 377.562 104.478 372.519 103.88C372.434 103.196 372.263 103.709 372.776 101.828L372.092 101.145C372.092 101.145 372.519 101.486 369.271 101.316L368.587 99.7771L367.904 99.2643C366.878 100.29 366.878 99.777 364.314 103.11L363.288 102.683C363.288 102.683 362.177 101.914 361.835 99.5207L363.374 99.1787L363.715 98.4951L363.032 97.8112C362.519 98.0676 363.801 97.2129 359.869 97.5547L359.1 98.2387C359.1 98.2387 358.502 98.2386 359.698 101.059L358.673 101.401C358.673 101.401 358.416 101.145 357.391 100.033C357.22 100.204 355.852 99.4352 354.143 100.803C354.057 101.401 354.143 98.3241 352.604 97.1275H352.091L351.835 97.7256C351.749 98.3239 352.519 97.982 351.835 99.606C351.835 99.7769 350.211 97.8966 349.784 95.6744V95.418H349.014C348.16 95.7598 348.16 96.5292 347.048 98.4951C347.219 98.3241 344.826 99.0932 343.202 96.9564C341.151 97.0419 339.014 99.5205 334.399 97.982C334.057 98.1529 334.57 98.666 332.689 99.7771C332.689 99.5207 332.518 99.777 332.091 97.5547L331.407 97.0419L330.638 97.2128L330.04 98.0676C330.04 98.0676 327.475 95.247 324.057 94.3068C323.886 94.0504 324.399 94.4777 322.86 91.5716L321.236 91.4008C320.21 91.4008 320.552 93.4522 317.304 94.4779L316.45 93.6231C316.45 93.6231 316.706 93.0247 316.108 91.5716C316.364 91.1443 314.484 93.623 313.971 95.6744L313.373 96.1019H312.689C312.689 96.1019 312.433 96.2728 312.005 94.7343C311.749 93.8796 313.715 93.8795 313.202 90.6316L312.433 89.7768C312.433 89.7768 312.347 89.9477 311.578 90.2896H310.98L310.638 89.264C310.98 88.3238 310.381 88.5803 312.262 86.4436V85.8452C312.262 85.8452 312.262 85.1613 309.868 85.7596C309.27 85.9306 308.501 87.5546 307.732 90.6316C307.39 90.4606 308.159 91.3153 305.082 91.6572C304.142 91.0589 304.398 91.7428 302.432 89.3496C302.261 88.7513 302.603 91.7427 300.552 93.0248C300.039 93.1957 300.467 92.5975 297.817 91.4863C296.193 92.1701 296.877 91.3155 292.945 94.2215L291.321 94.0504C291.321 94.0504 292.176 93.1958 293.8 88.3239L293.372 87.2981C291.748 86.6998 292.005 88.4093 287.56 84.734C287.817 84.6486 285.338 89.5205 281.834 89.8624C281.406 89.5205 281.663 89.777 280.466 88.0675L279.697 87.8964L278.671 88.922C278.671 88.922 279.184 90.4606 278.586 93.794L277.475 94.0504C277.475 94.0504 276.534 93.1103 272.774 92.512C271.834 93.1957 271.834 92.5119 269.868 95.1616L268.415 95.5888C268.415 95.5888 268.842 95.2472 267.816 91.8283L266.791 90.888H266.193C265.594 91.0589 264.312 93.6232 261.321 92.8539C260.808 92.4266 261.492 91.9991 260.039 90.6316L259.526 90.4607C259.526 90.4607 257.303 91.4862 255.85 91.9136V91.5716C255.081 90.9733 255.765 91.5718 253.97 88.7512L253.03 88.3239L252.432 88.8367C252.432 88.8367 252.859 89.9478 251.149 91.9136L250.038 91.7427C250.038 91.7427 250.209 91.6572 248.329 90.3752L247.474 90.8024C247.474 90.8024 247.474 91.6573 247.645 93.6231L246.278 93.9651C246.278 93.9651 245.85 93.965 245.252 93.3667H244.739C242.944 96.4437 245.423 93.623 238.927 100.717C238.671 100.204 238.756 101.914 234.483 100.29L234.654 98.6659C234.654 98.6659 234.739 98.5804 233.201 97.5547C232.773 98.2385 229.525 103.794 229.525 107.897C229.269 108.153 229.183 107.897 227.559 108.495C227.303 108.837 227.303 110.205 225.85 111.487H224.482C224.482 111.487 223.713 110.974 221.747 108.923C221.405 108.239 222.858 112.085 220.722 113.367H220.209C219.696 113.111 220.722 112.683 219.012 110.205C218.585 110.205 218.499 109.435 214.14 110.29L213.884 111.145L214.995 112.854V113.88C214.739 113.367 214.824 115.76 207.815 115.675C207.645 115.418 207.815 115.675 206.704 113.623C206.704 113.623 206.619 113.709 205.85 113.367H205.508C203.627 114.393 205.08 116.102 202.089 119.008H201.32C201.32 119.008 201.405 118.495 200.721 117.213H200.294L199.781 117.726C199.781 117.726 199.525 118.324 199.525 120.119C196.875 122.342 199.354 119.265 193.029 121.743H192.602C192.602 121.743 192.516 121.145 191.661 120.632C191.661 120.632 191.747 120.29 192.174 119.521L191.832 118.666C189.439 119.435 189.439 120.29 188.242 125.419C188.242 125.419 187.388 126.017 184.653 126.273C184.396 125.931 185.593 130.29 183.627 134.82C181.747 135.675 183.2 134.479 178.755 138.496C178.242 138.838 176.447 138.581 173.456 137.385L172.345 137.897C172.516 138.838 173.114 138.496 176.105 142.598L175.849 143.368H174.738L173.285 142.513C173.285 142.513 172.858 142.598 170.55 143.111C170.293 143.88 170.55 143.111 169.866 145.675L168.498 145.333C168.498 145.333 168.413 144.308 165.934 143.538L164.567 144.051C163.37 144.821 164.567 146.102 159.695 148.752C159.353 148.923 159.268 148.239 156.703 148.154L155.678 149.18C155.678 149.18 155.849 149.009 155.165 151.829C155.421 151.829 153.968 152.257 152.601 152.598C151.319 156.017 153.712 154.735 148.242 160.633C148.413 160.547 147.729 160.975 145.934 161.231L145.507 160.975C145.507 160.975 145.763 160.804 144.823 160.291L143.968 160.633C144.054 161.146 141.66 163.539 140.72 165.676C140.549 165.419 140.977 166.188 139.096 165.59C138.925 165.59 139.182 164.992 138.754 163.795L137.216 163.453C134.395 167.299 135.592 167.556 125.934 172.171L126.361 174.137C126.361 174.137 127.985 175.334 131.746 176.616C132.259 177.385 132.259 176.958 133.37 179.437C133.284 178.325 133.284 183.966 130.549 185.59L129.951 185.334C129.438 185.077 131.062 185.59 128.669 182.428C128.498 182.257 126.532 182.086 121.404 180.975C121.831 181.146 119.951 180.804 117.13 183.368C117.13 184.907 118.156 183.625 117.643 189.693C115.763 191.317 115.763 190.291 109.951 192.428C108.754 194.65 109.438 193.539 109.267 199.266C106.874 199.608 103.626 209.437 91.4031 214.138C90.2065 214.138 92.5998 214.822 88.9245 224.566L84.3091 227.3C86.3604 238.583 66.7019 237.386 66.8729 250.292C67.3002 255.335 58.4966 258.07 57.8983 263.711C51.2315 283.028 23.5388 283.284 21.3165 306.618C17.8122 306.362 11.5728 321.405 2 322.259C3.11113 323.712 3.70935 322.601 4.99143 327.986C5.58973 330.977 12.5985 326.618 15.2481 331.063L16.2737 331.319C16.872 331.832 17.2993 328.926 20.6327 329.268C20.9746 329.268 21.1456 330.037 23.1969 330.892C23.4533 330.892 23.3679 330.892 24.9919 329.439C25.1628 329.439 25.2482 329.439 26.7013 330.892C33.1116 331.148 30.2911 321.918 38.069 316.362C43.1118 316.704 44.9922 315.678 54.6505 316.02C56.2744 320.208 67.9841 322.858 68.155 330.208C85.0784 345.764 116.959 361.149 109.267 391.32C109.352 391.491 109.096 390.979 110.036 392.517C116.275 392.859 126.276 391.662 128.925 381.833C129.523 381.662 129.865 381.662 133.37 382.175L134.224 381.406C134.566 380.893 133.797 380.465 134.395 375.337L135.421 374.312C135.421 374.312 135.165 373.457 138.242 374.312C152.515 382.26 155.079 403.799 172.259 411.833C173.627 410.808 173.37 411.577 175.251 407.56L176.105 407.303C194.909 431.406 187.217 402.261 235.679 457.817H236.448C245.252 450.894 250.038 466.621 261.919 469.27C267.133 484.57 272.432 508.673 294.996 513.117C298.073 516.023 298.672 512.348 305.509 522.263C289.783 545.596 272.859 541.579 276.62 596.623L278.5 599.956C278.5 599.956 279.697 599.785 282.176 599.7C283.116 599.785 283.372 601.409 285.253 604.144L287.389 603.973C335.424 581.409 340.809 519.784 374.229 477.989C374.998 475.937 372.006 476.792 374.485 470.125C373.203 471.407 374.058 470.211 370.981 474.228L369.869 474.484L369.015 472.775C369.271 472.347 369.528 471.578 374.912 467.817V467.39C374.485 467.39 373.374 465.852 371.152 467.817C370.553 468.758 369.784 472.518 364.314 471.236L366.109 470.211V469.356C365.339 469.185 365.51 468.501 362.946 469.099C363.801 467.732 362.946 467.305 364.399 462.176C364.485 462.005 366.451 461.236 369.015 459.783C368.844 459.527 369.527 460.296 371.066 460.125L371.408 459.356C370.382 456.022 369.442 459.612 366.28 454.484L364.57 455.339L363.715 453.971L363.886 452.347H365.339C365.339 452.347 365.51 450.809 366.28 449.185C366.536 448.245 364.57 448.244 365.681 444.484C366.536 441.407 376.451 442.774 377.647 435.167L377.306 434.056L376.109 433.8L375.083 434.142L374.314 433.8C374.741 434.483 372.861 430.466 375.425 429.697C378.759 430.723 377.391 432.09 379.87 436.962C380.553 434.654 379.87 436.62 381.408 431.236C380.724 427.902 376.878 420.637 384.229 414.312C383.972 414.141 384.143 414.056 383.288 413.714L382.861 412.945V412.175C382.861 412.175 382.776 412.004 384.485 411.577C384.485 411.577 384.912 411.15 385.682 410.124C386.024 409.953 386.793 410.295 390.126 410.466L391.323 408.158C392.861 406.107 396.793 408.415 401.75 405.765C402.434 405.594 402.69 406.705 404.913 406.107V405.594L404.144 404.654C404.656 403.97 402.52 402.175 405.853 396.534C410.725 394.568 406.622 396.534 418.075 392.261C416.451 392.517 410.127 373.542 422.947 377.047L423.546 376.448C423.802 369.354 420.81 373.115 422.52 357.901C422.862 358.072 422.52 357.132 425.511 357.474L426.195 357.901C426.195 357.901 427.135 360.123 428.417 367.645L426.793 368.072L427.905 369.782H429.016C432.691 362.773 422.776 352.089 434.486 338.926L437.05 338.585C437.05 338.585 437.306 338.841 438.845 339.696C440.383 339.097 441.153 339.012 441.836 335.251L441.666 334.738C441.067 334.311 441.067 335.593 435.341 335.935C434.828 336.191 435.341 333.029 434.229 330.123C434.059 330.123 434.4 330.123 432.007 332.259L431.323 331.063L429.101 330.294L428.332 329.097L430.212 327.046C430.212 327.046 430.212 326.362 428.588 324.909C428.332 324.909 428.161 325.08 426.024 325.422C427.392 324.054 427.135 318.499 428.332 314.481L428.161 314.225C428.161 314.225 428.246 314.396 427.477 313.883L427.306 313.456C427.306 313.456 429.016 310.635 428.845 308.584L429.614 308.413L430.298 309.097C430.298 309.097 429.956 309.353 430.469 311.661L431.922 311.063C432.093 311.49 431.665 312.003 430.982 316.362C431.238 316.875 431.323 316.618 433.033 318.584L433.289 320.123C433.289 320.123 433.118 320.379 431.922 322.259L432.264 322.772C433.546 323.114 433.289 321.747 436.452 324.311L436.11 325.507C436.11 325.507 436.794 326.362 439.7 327.986C440.64 327.559 440.213 326.106 444.059 326.875L444.401 328.67H444.828L445.597 328.071L446.367 328.584C448.589 331.148 443.973 333.456 445.597 337.302C448.503 338.584 446.879 337.901 453.632 342.003C453.802 342.003 450.896 336.619 453.802 332.687L454.828 332.174L456.367 332.943C458.076 332.687 456.452 332.516 461.409 333.2L461.837 331.576L462.777 330.892C463.29 330.465 462.948 331.405 470.042 330.55C469.871 330.55 470.982 329.781 471.324 327.644C471.239 327.644 471.41 326.704 469.786 326.105L469.615 325.849L469.786 324.995H470.042C472.948 321.49 473.119 322.259 478.589 327.559C480.897 330.55 476.794 335.337 477.307 343.029C476.623 344.14 477.478 343.371 474.401 345.764C474.316 345.422 469.529 342.26 472.008 339.012C472.008 338.584 470.128 336.79 468.333 335.337C468.162 335.508 468.333 334.995 466.452 336.277V336.875C471.324 347.132 473.803 376.448 449.7 377.303L449.358 377.645C449.785 378.329 449.443 378.072 450.811 379.953C450.811 380.38 450.811 382.944 448.674 389.525L449.871 391.748C449.871 391.748 450.469 391.748 451.922 391.919L452.178 392.773C451.751 393.201 452.179 392.773 450.213 393.799C450.042 393.799 450.042 394.568 449.443 396.107C449.272 396.107 449.443 396.449 448.247 396.534L447.649 396.278C447.307 394.91 447.563 396.449 447.392 391.406L446.879 390.807C445.597 390.466 445.341 390.808 441.238 392.261C441.409 392.517 440.469 391.577 437.477 391.149L436.879 392.004C436.623 392.517 437.392 392.432 435.939 397.645C438.589 399.782 437.563 430.124 419.956 426.62L419.357 424.056C418.075 426.278 415.255 427.389 417.648 434.142L416.964 434.398C416.964 434.911 416.793 433.116 414.144 431.236C413.973 431.407 414.315 431.407 413.204 434.484C409.614 437.133 408.588 442.347 400.297 448.415C399.101 448.928 398.502 447.646 391.579 449.014L392.947 451.236L391.408 453.373C390.895 452.774 391.836 455.082 385.596 454.484C385.682 455.253 384.4 452.091 377.135 449.698L374.485 451.236V453.629C373.545 453.458 376.964 454.569 379.528 460.894C379.528 461.151 378.758 461.92 376.536 463.886C378.673 467.048 377.904 469.527 374.656 476.45L375.169 478.074C465.512 406.791 482.008 365.679 534.658 256.019H533.718C533.034 255.506 533.462 255.762 532.693 253.711C527.137 253.711 528.761 248.156 518.419 245.933C517.906 246.446 517.821 246.019 517.479 247.557L517.051 247.814C514.658 247.985 514.402 248.497 509.017 250.549C507.564 251.062 517.051 255.677 511.838 258.498C504.145 253.455 500.128 250.207 510.641 238.326C511.41 238.241 511.41 238.925 512.265 240.121H512.607C512.607 240.121 512.778 239.865 513.462 239.096C513.803 238.925 513.889 239.523 515 239.096C519.359 232.258 516.624 220.719 521.325 209.181H521.581C521.581 209.181 521.667 209.437 521.667 210.292L520.983 210.463Z" />
  </mask>
  <path
    d="M520.983 210.463L521.154 210.805H521.496C525.428 209.266 527.052 200.89 534.658 201.403L535 200.377C535.513 200.804 533.718 199.009 533.547 196.702C533.547 196.531 533.718 196.531 534.488 195.505C534.488 194.992 532.265 194.736 531.154 190.89L530.47 191.061C530.47 191.061 530.47 191.915 529.53 193.027C529.274 193.368 524.402 192.599 523.291 189.351C522.949 189.351 523.291 189.266 519.359 190.633L519.017 190.975H518.675C518.675 190.975 518.675 190.804 517.137 189.437C515.342 189.095 512.094 193.112 507.222 190.89C506.88 190.548 507.222 190.633 506.453 188.753H505.684L505 189.693C505 189.693 505.171 189.864 504.914 191.83H503.803C500.726 190.89 502.692 187.129 491.324 189.266L490.47 187.984C490.555 188.924 481.752 183.881 478.333 186.701C472.435 182.77 466.11 176.701 461.238 165.248L460.469 165.676C460.469 165.676 460.298 165.077 458.76 164.308C458.503 164.308 458.503 164.735 457.136 165.334L456.281 164.821C456.11 164.393 456.281 164.393 456.11 162.086C455.768 161.915 455.939 161.658 454.572 161.402V160.718L455.341 159.522C455.341 157.299 454.914 156.274 449.785 151.316L448.418 151.744C448.332 152.342 444.913 148.154 441.922 141.487C440.383 141.06 438.589 140.291 434.571 137.214C434.4 137.214 434.144 137.214 432.691 137.726C432.007 137.983 430.212 134.564 427.648 133.538C427.477 133.025 428.503 132.769 428.075 130.889L426.964 130.29C426.964 130.29 426.964 130.803 424.828 129.949C424.742 129.949 424.999 129.521 423.973 126.786C422.947 127.299 423.46 126.615 421.152 128.837C420.469 125.846 417.135 126.872 416.537 122.427L415.853 121.743C415.853 121.743 413.118 121.743 410.127 122.513L409.101 121.572C409.101 120.803 408.93 121.401 409.614 119.265L409.357 118.923L407.135 119.948L406.793 119.692C406.793 119.692 407.221 118.581 406.024 116.359L405.255 116.615C405.255 116.615 404.998 116.786 404.4 117.897H404.058C404.058 117.897 402.605 117.299 402.691 115.504L401.921 115.247L401.152 115.504C400.639 116.102 400.896 115.675 399.784 117.555L399.101 117.811C399.101 117.811 398.759 117.213 397.477 116.187C397.306 116.187 397.477 116.017 394.913 116.187L394.4 116.957L394.913 118.752C394.913 118.752 393.118 119.35 389.87 117.897L389.699 117.555L390.383 116.273C390.383 116.273 390.639 115.589 389.442 115.076C389.271 114.734 389.784 116.102 388.331 118.41L387.306 117.897C386.878 117.555 386.964 116.957 385.682 113.025C385.425 113.025 385.511 113.965 383.716 114.307L382.947 113.965L384.656 112.769C383.118 111.316 384.4 111.572 379.186 108.837C380.468 108.495 379.784 108.068 383.288 108.324L382.348 106.871L379.357 106.187C379.357 106.187 378.673 106.017 378.758 104.051V103.88L378.417 104.051C378.758 103.88 377.562 104.478 372.519 103.88C372.434 103.196 372.263 103.709 372.776 101.828L372.092 101.145C372.092 101.145 372.519 101.486 369.271 101.316L368.587 99.7771L367.904 99.2643C366.878 100.29 366.878 99.777 364.314 103.11L363.288 102.683C363.288 102.683 362.177 101.914 361.835 99.5207L363.374 99.1787L363.715 98.4951L363.032 97.8112C362.519 98.0676 363.801 97.2129 359.869 97.5547L359.1 98.2387C359.1 98.2387 358.502 98.2386 359.698 101.059L358.673 101.401C358.673 101.401 358.416 101.145 357.391 100.033C357.22 100.204 355.852 99.4352 354.143 100.803C354.057 101.401 354.143 98.3241 352.604 97.1275H352.091L351.835 97.7256C351.749 98.3239 352.519 97.982 351.835 99.606C351.835 99.7769 350.211 97.8966 349.784 95.6744V95.418H349.014C348.16 95.7598 348.16 96.5292 347.048 98.4951C347.219 98.3241 344.826 99.0932 343.202 96.9564C341.151 97.0419 339.014 99.5205 334.399 97.982C334.057 98.1529 334.57 98.666 332.689 99.7771C332.689 99.5207 332.518 99.777 332.091 97.5547L331.407 97.0419L330.638 97.2128L330.04 98.0676C330.04 98.0676 327.475 95.247 324.057 94.3068C323.886 94.0504 324.399 94.4777 322.86 91.5716L321.236 91.4008C320.21 91.4008 320.552 93.4522 317.304 94.4779L316.45 93.6231C316.45 93.6231 316.706 93.0247 316.108 91.5716C316.364 91.1443 314.484 93.623 313.971 95.6744L313.373 96.1019H312.689C312.689 96.1019 312.433 96.2728 312.005 94.7343C311.749 93.8796 313.715 93.8795 313.202 90.6316L312.433 89.7768C312.433 89.7768 312.347 89.9477 311.578 90.2896H310.98L310.638 89.264C310.98 88.3238 310.381 88.5803 312.262 86.4436V85.8452C312.262 85.8452 312.262 85.1613 309.868 85.7596C309.27 85.9306 308.501 87.5546 307.732 90.6316C307.39 90.4606 308.159 91.3153 305.082 91.6572C304.142 91.0589 304.398 91.7428 302.432 89.3496C302.261 88.7513 302.603 91.7427 300.552 93.0248C300.039 93.1957 300.467 92.5975 297.817 91.4863C296.193 92.1701 296.877 91.3155 292.945 94.2215L291.321 94.0504C291.321 94.0504 292.176 93.1958 293.8 88.3239L293.372 87.2981C291.748 86.6998 292.005 88.4093 287.56 84.734C287.817 84.6486 285.338 89.5205 281.834 89.8624C281.406 89.5205 281.663 89.777 280.466 88.0675L279.697 87.8964L278.671 88.922C278.671 88.922 279.184 90.4606 278.586 93.794L277.475 94.0504C277.475 94.0504 276.534 93.1103 272.774 92.512C271.834 93.1957 271.834 92.5119 269.868 95.1616L268.415 95.5888C268.415 95.5888 268.842 95.2472 267.816 91.8283L266.791 90.888H266.193C265.594 91.0589 264.312 93.6232 261.321 92.8539C260.808 92.4266 261.492 91.9991 260.039 90.6316L259.526 90.4607C259.526 90.4607 257.303 91.4862 255.85 91.9136V91.5716C255.081 90.9733 255.765 91.5718 253.97 88.7512L253.03 88.3239L252.432 88.8367C252.432 88.8367 252.859 89.9478 251.149 91.9136L250.038 91.7427C250.038 91.7427 250.209 91.6572 248.329 90.3752L247.474 90.8024C247.474 90.8024 247.474 91.6573 247.645 93.6231L246.278 93.9651C246.278 93.9651 245.85 93.965 245.252 93.3667H244.739C242.944 96.4437 245.423 93.623 238.927 100.717C238.671 100.204 238.756 101.914 234.483 100.29L234.654 98.6659C234.654 98.6659 234.739 98.5804 233.201 97.5547C232.773 98.2385 229.525 103.794 229.525 107.897C229.269 108.153 229.183 107.897 227.559 108.495C227.303 108.837 227.303 110.205 225.85 111.487H224.482C224.482 111.487 223.713 110.974 221.747 108.923C221.405 108.239 222.858 112.085 220.722 113.367H220.209C219.696 113.111 220.722 112.683 219.012 110.205C218.585 110.205 218.499 109.435 214.14 110.29L213.884 111.145L214.995 112.854V113.88C214.739 113.367 214.824 115.76 207.815 115.675C207.645 115.418 207.815 115.675 206.704 113.623C206.704 113.623 206.619 113.709 205.85 113.367H205.508C203.627 114.393 205.08 116.102 202.089 119.008H201.32C201.32 119.008 201.405 118.495 200.721 117.213H200.294L199.781 117.726C199.781 117.726 199.525 118.324 199.525 120.119C196.875 122.342 199.354 119.265 193.029 121.743H192.602C192.602 121.743 192.516 121.145 191.661 120.632C191.661 120.632 191.747 120.29 192.174 119.521L191.832 118.666C189.439 119.435 189.439 120.29 188.242 125.419C188.242 125.419 187.388 126.017 184.653 126.273C184.396 125.931 185.593 130.29 183.627 134.82C181.747 135.675 183.2 134.479 178.755 138.496C178.242 138.838 176.447 138.581 173.456 137.385L172.345 137.897C172.516 138.838 173.114 138.496 176.105 142.598L175.849 143.368H174.738L173.285 142.513C173.285 142.513 172.858 142.598 170.55 143.111C170.293 143.88 170.55 143.111 169.866 145.675L168.498 145.333C168.498 145.333 168.413 144.308 165.934 143.538L164.567 144.051C163.37 144.821 164.567 146.102 159.695 148.752C159.353 148.923 159.268 148.239 156.703 148.154L155.678 149.18C155.678 149.18 155.849 149.009 155.165 151.829C155.421 151.829 153.968 152.257 152.601 152.598C151.319 156.017 153.712 154.735 148.242 160.633C148.413 160.547 147.729 160.975 145.934 161.231L145.507 160.975C145.507 160.975 145.763 160.804 144.823 160.291L143.968 160.633C144.054 161.146 141.66 163.539 140.72 165.676C140.549 165.419 140.977 166.188 139.096 165.59C138.925 165.59 139.182 164.992 138.754 163.795L137.216 163.453C134.395 167.299 135.592 167.556 125.934 172.171L126.361 174.137C126.361 174.137 127.985 175.334 131.746 176.616C132.259 177.385 132.259 176.958 133.37 179.437C133.284 178.325 133.284 183.966 130.549 185.59L129.951 185.334C129.438 185.077 131.062 185.59 128.669 182.428C128.498 182.257 126.532 182.086 121.404 180.975C121.831 181.146 119.951 180.804 117.13 183.368C117.13 184.907 118.156 183.625 117.643 189.693C115.763 191.317 115.763 190.291 109.951 192.428C108.754 194.65 109.438 193.539 109.267 199.266C106.874 199.608 103.626 209.437 91.4031 214.138C90.2065 214.138 92.5998 214.822 88.9245 224.566L84.3091 227.3C86.3604 238.583 66.7019 237.386 66.8729 250.292C67.3002 255.335 58.4966 258.07 57.8983 263.711C51.2315 283.028 23.5388 283.284 21.3165 306.618C17.8122 306.362 11.5728 321.405 2 322.259C3.11113 323.712 3.70935 322.601 4.99143 327.986C5.58973 330.977 12.5985 326.618 15.2481 331.063L16.2737 331.319C16.872 331.832 17.2993 328.926 20.6327 329.268C20.9746 329.268 21.1456 330.037 23.1969 330.892C23.4533 330.892 23.3679 330.892 24.9919 329.439C25.1628 329.439 25.2482 329.439 26.7013 330.892C33.1116 331.148 30.2911 321.918 38.069 316.362C43.1118 316.704 44.9922 315.678 54.6505 316.02C56.2744 320.208 67.9841 322.858 68.155 330.208C85.0784 345.764 116.959 361.149 109.267 391.32C109.352 391.491 109.096 390.979 110.036 392.517C116.275 392.859 126.276 391.662 128.925 381.833C129.523 381.662 129.865 381.662 133.37 382.175L134.224 381.406C134.566 380.893 133.797 380.465 134.395 375.337L135.421 374.312C135.421 374.312 135.165 373.457 138.242 374.312C152.515 382.26 155.079 403.799 172.259 411.833C173.627 410.808 173.37 411.577 175.251 407.56L176.105 407.303C194.909 431.406 187.217 402.261 235.679 457.817H236.448C245.252 450.894 250.038 466.621 261.919 469.27C267.133 484.57 272.432 508.673 294.996 513.117C298.073 516.023 298.672 512.348 305.509 522.263C289.783 545.596 272.859 541.579 276.62 596.623L278.5 599.956C278.5 599.956 279.697 599.785 282.176 599.7C283.116 599.785 283.372 601.409 285.253 604.144L287.389 603.973C335.424 581.409 340.809 519.784 374.229 477.989C374.998 475.937 372.006 476.792 374.485 470.125C373.203 471.407 374.058 470.211 370.981 474.228L369.869 474.484L369.015 472.775C369.271 472.347 369.528 471.578 374.912 467.817V467.39C374.485 467.39 373.374 465.852 371.152 467.817C370.553 468.758 369.784 472.518 364.314 471.236L366.109 470.211V469.356C365.339 469.185 365.51 468.501 362.946 469.099C363.801 467.732 362.946 467.305 364.399 462.176C364.485 462.005 366.451 461.236 369.015 459.783C368.844 459.527 369.527 460.296 371.066 460.125L371.408 459.356C370.382 456.022 369.442 459.612 366.28 454.484L364.57 455.339L363.715 453.971L363.886 452.347H365.339C365.339 452.347 365.51 450.809 366.28 449.185C366.536 448.245 364.57 448.244 365.681 444.484C366.536 441.407 376.451 442.774 377.647 435.167L377.306 434.056L376.109 433.8L375.083 434.142L374.314 433.8C374.741 434.483 372.861 430.466 375.425 429.697C378.759 430.723 377.391 432.09 379.87 436.962C380.553 434.654 379.87 436.62 381.408 431.236C380.724 427.902 376.878 420.637 384.229 414.312C383.972 414.141 384.143 414.056 383.288 413.714L382.861 412.945V412.175C382.861 412.175 382.776 412.004 384.485 411.577C384.485 411.577 384.912 411.15 385.682 410.124C386.024 409.953 386.793 410.295 390.126 410.466L391.323 408.158C392.861 406.107 396.793 408.415 401.75 405.765C402.434 405.594 402.69 406.705 404.913 406.107V405.594L404.144 404.654C404.656 403.97 402.52 402.175 405.853 396.534C410.725 394.568 406.622 396.534 418.075 392.261C416.451 392.517 410.127 373.542 422.947 377.047L423.546 376.448C423.802 369.354 420.81 373.115 422.52 357.901C422.862 358.072 422.52 357.132 425.511 357.474L426.195 357.901C426.195 357.901 427.135 360.123 428.417 367.645L426.793 368.072L427.905 369.782H429.016C432.691 362.773 422.776 352.089 434.486 338.926L437.05 338.585C437.05 338.585 437.306 338.841 438.845 339.696C440.383 339.097 441.153 339.012 441.836 335.251L441.666 334.738C441.067 334.311 441.067 335.593 435.341 335.935C434.828 336.191 435.341 333.029 434.229 330.123C434.059 330.123 434.4 330.123 432.007 332.259L431.323 331.063L429.101 330.294L428.332 329.097L430.212 327.046C430.212 327.046 430.212 326.362 428.588 324.909C428.332 324.909 428.161 325.08 426.024 325.422C427.392 324.054 427.135 318.499 428.332 314.481L428.161 314.225C428.161 314.225 428.246 314.396 427.477 313.883L427.306 313.456C427.306 313.456 429.016 310.635 428.845 308.584L429.614 308.413L430.298 309.097C430.298 309.097 429.956 309.353 430.469 311.661L431.922 311.063C432.093 311.49 431.665 312.003 430.982 316.362C431.238 316.875 431.323 316.618 433.033 318.584L433.289 320.123C433.289 320.123 433.118 320.379 431.922 322.259L432.264 322.772C433.546 323.114 433.289 321.747 436.452 324.311L436.11 325.507C436.11 325.507 436.794 326.362 439.7 327.986C440.64 327.559 440.213 326.106 444.059 326.875L444.401 328.67H444.828L445.597 328.071L446.367 328.584C448.589 331.148 443.973 333.456 445.597 337.302C448.503 338.584 446.879 337.901 453.632 342.003C453.802 342.003 450.896 336.619 453.802 332.687L454.828 332.174L456.367 332.943C458.076 332.687 456.452 332.516 461.409 333.2L461.837 331.576L462.777 330.892C463.29 330.465 462.948 331.405 470.042 330.55C469.871 330.55 470.982 329.781 471.324 327.644C471.239 327.644 471.41 326.704 469.786 326.105L469.615 325.849L469.786 324.995H470.042C472.948 321.49 473.119 322.259 478.589 327.559C480.897 330.55 476.794 335.337 477.307 343.029C476.623 344.14 477.478 343.371 474.401 345.764C474.316 345.422 469.529 342.26 472.008 339.012C472.008 338.584 470.128 336.79 468.333 335.337C468.162 335.508 468.333 334.995 466.452 336.277V336.875C471.324 347.132 473.803 376.448 449.7 377.303L449.358 377.645C449.785 378.329 449.443 378.072 450.811 379.953C450.811 380.38 450.811 382.944 448.674 389.525L449.871 391.748C449.871 391.748 450.469 391.748 451.922 391.919L452.178 392.773C451.751 393.201 452.179 392.773 450.213 393.799C450.042 393.799 450.042 394.568 449.443 396.107C449.272 396.107 449.443 396.449 448.247 396.534L447.649 396.278C447.307 394.91 447.563 396.449 447.392 391.406L446.879 390.807C445.597 390.466 445.341 390.808 441.238 392.261C441.409 392.517 440.469 391.577 437.477 391.149L436.879 392.004C436.623 392.517 437.392 392.432 435.939 397.645C438.589 399.782 437.563 430.124 419.956 426.62L419.357 424.056C418.075 426.278 415.255 427.389 417.648 434.142L416.964 434.398C416.964 434.911 416.793 433.116 414.144 431.236C413.973 431.407 414.315 431.407 413.204 434.484C409.614 437.133 408.588 442.347 400.297 448.415C399.101 448.928 398.502 447.646 391.579 449.014L392.947 451.236L391.408 453.373C390.895 452.774 391.836 455.082 385.596 454.484C385.682 455.253 384.4 452.091 377.135 449.698L374.485 451.236V453.629C373.545 453.458 376.964 454.569 379.528 460.894C379.528 461.151 378.758 461.92 376.536 463.886C378.673 467.048 377.904 469.527 374.656 476.45L375.169 478.074C465.512 406.791 482.008 365.679 534.658 256.019H533.718C533.034 255.506 533.462 255.762 532.693 253.711C527.137 253.711 528.761 248.156 518.419 245.933C517.906 246.446 517.821 246.019 517.479 247.557L517.051 247.814C514.658 247.985 514.402 248.497 509.017 250.549C507.564 251.062 517.051 255.677 511.838 258.498C504.145 253.455 500.128 250.207 510.641 238.326C511.41 238.241 511.41 238.925 512.265 240.121H512.607C512.607 240.121 512.778 239.865 513.462 239.096C513.803 238.925 513.889 239.523 515 239.096C519.359 232.258 516.624 220.719 521.325 209.181H521.581C521.581 209.181 521.667 209.437 521.667 210.292L520.983 210.463Z"
    fill="#004851" stroke="#FFF4E0" stroke-width="4.16052" mask="url(#path-7-inside-2_1783_812)" />
  <path
    d="M520.983 210.463L521.154 210.805H521.496C525.428 209.266 527.052 200.89 534.658 201.403L535 200.377C535.513 200.804 533.718 199.009 533.547 196.702C533.547 196.531 533.718 196.531 534.488 195.505C534.488 194.992 532.265 194.736 531.154 190.89L530.47 191.061C530.47 191.061 530.47 191.915 529.53 193.027C529.274 193.368 524.402 192.599 523.291 189.351C522.949 189.351 523.291 189.266 519.359 190.633L519.017 190.975H518.675C518.675 190.975 518.675 190.804 517.137 189.437C515.342 189.095 512.094 193.112 507.222 190.89C506.88 190.548 507.222 190.633 506.453 188.753H505.684L505 189.693C505 189.693 505.171 189.864 504.914 191.83H503.803C500.726 190.89 502.692 187.129 491.324 189.266L490.47 187.984C490.555 188.924 481.752 183.881 478.333 186.701C472.435 182.77 466.11 176.701 461.238 165.248L460.469 165.676C460.469 165.676 460.298 165.077 458.76 164.308C458.503 164.308 458.503 164.735 457.136 165.334L456.281 164.821C456.11 164.393 456.281 164.393 456.11 162.086C455.768 161.915 455.939 161.658 454.572 161.402V160.718L455.341 159.522C455.341 157.299 454.914 156.274 449.785 151.316L448.418 151.744C448.332 152.342 444.913 148.154 441.922 141.487C440.383 141.06 438.589 140.291 434.571 137.214C434.4 137.214 434.144 137.214 432.691 137.726C432.007 137.983 430.212 134.564 427.648 133.538C427.477 133.025 428.503 132.769 428.075 130.889L426.964 130.29C426.964 130.29 426.964 130.803 424.828 129.949C424.742 129.949 424.999 129.521 423.973 126.786C422.947 127.299 423.46 126.615 421.152 128.837C420.469 125.846 417.135 126.872 416.537 122.427L415.853 121.743C415.853 121.743 413.118 121.743 410.127 122.513L409.101 121.572C409.101 120.803 408.93 121.401 409.614 119.265L409.357 118.923L407.135 119.948L406.793 119.692C406.793 119.692 407.221 118.581 406.024 116.359L405.255 116.615C405.255 116.615 404.998 116.786 404.4 117.897H404.058C404.058 117.897 402.605 117.299 402.691 115.504L401.921 115.247L401.152 115.504C400.639 116.102 400.896 115.675 399.784 117.555L399.101 117.811C399.101 117.811 398.759 117.213 397.477 116.187C397.306 116.187 397.477 116.017 394.913 116.187L394.4 116.957L394.913 118.752C394.913 118.752 393.118 119.35 389.87 117.897L389.699 117.555L390.383 116.273C390.383 116.273 390.639 115.589 389.442 115.076C389.271 114.734 389.784 116.102 388.331 118.41L387.306 117.897C386.878 117.555 386.964 116.957 385.682 113.025C385.425 113.025 385.511 113.965 383.716 114.307L382.947 113.965L384.656 112.769C383.118 111.316 384.4 111.572 379.186 108.837C380.468 108.495 379.784 108.068 383.288 108.324L382.348 106.871L379.357 106.187C379.357 106.187 378.673 106.017 378.758 104.051V103.88L378.417 104.051C378.758 103.88 377.562 104.478 372.519 103.88C372.434 103.196 372.263 103.709 372.776 101.828L372.092 101.145C372.092 101.145 372.519 101.486 369.271 101.316L368.587 99.7771L367.904 99.2643C366.878 100.29 366.878 99.777 364.314 103.11L363.288 102.683C363.288 102.683 362.177 101.914 361.835 99.5207L363.374 99.1787L363.715 98.4951L363.032 97.8112C362.519 98.0676 363.801 97.2129 359.869 97.5547L359.1 98.2387C359.1 98.2387 358.502 98.2386 359.698 101.059L358.673 101.401C358.673 101.401 358.416 101.145 357.391 100.033C357.22 100.204 355.852 99.4352 354.143 100.803C354.057 101.401 354.143 98.3241 352.604 97.1275H352.091L351.835 97.7256C351.749 98.3239 352.519 97.982 351.835 99.606C351.835 99.7769 350.211 97.8966 349.784 95.6744V95.418H349.014C348.16 95.7598 348.16 96.5292 347.048 98.4951C347.219 98.3241 344.826 99.0932 343.202 96.9564C341.151 97.0419 339.014 99.5205 334.399 97.982C334.057 98.1529 334.57 98.666 332.689 99.7771C332.689 99.5207 332.518 99.777 332.091 97.5547L331.407 97.0419L330.638 97.2128L330.04 98.0676C330.04 98.0676 327.475 95.247 324.057 94.3068C323.886 94.0504 324.399 94.4777 322.86 91.5716L321.236 91.4008C320.21 91.4008 320.552 93.4522 317.304 94.4779L316.45 93.6231C316.45 93.6231 316.706 93.0247 316.108 91.5716C316.364 91.1443 314.484 93.623 313.971 95.6744L313.373 96.1019H312.689C312.689 96.1019 312.433 96.2728 312.005 94.7343C311.749 93.8796 313.715 93.8795 313.202 90.6316L312.433 89.7768C312.433 89.7768 312.347 89.9477 311.578 90.2896H310.98L310.638 89.264C310.98 88.3238 310.381 88.5803 312.262 86.4436V85.8452C312.262 85.8452 312.262 85.1613 309.868 85.7596C309.27 85.9306 308.501 87.5546 307.732 90.6316C307.39 90.4606 308.159 91.3153 305.082 91.6572C304.142 91.0589 304.398 91.7428 302.432 89.3496C302.261 88.7513 302.603 91.7427 300.552 93.0248C300.039 93.1957 300.467 92.5975 297.817 91.4863C296.193 92.1701 296.877 91.3155 292.945 94.2215L291.321 94.0504C291.321 94.0504 292.176 93.1958 293.8 88.3239L293.372 87.2981C291.748 86.6998 292.005 88.4093 287.56 84.734C287.817 84.6486 285.338 89.5205 281.834 89.8624C281.406 89.5205 281.663 89.777 280.466 88.0675L279.697 87.8964L278.671 88.922C278.671 88.922 279.184 90.4606 278.586 93.794L277.475 94.0504C277.475 94.0504 276.534 93.1103 272.774 92.512C271.834 93.1957 271.834 92.5119 269.868 95.1616L268.415 95.5888C268.415 95.5888 268.842 95.2472 267.816 91.8283L266.791 90.888H266.193C265.594 91.0589 264.312 93.6232 261.321 92.8539C260.808 92.4266 261.492 91.9991 260.039 90.6316L259.526 90.4607C259.526 90.4607 257.303 91.4862 255.85 91.9136V91.5716C255.081 90.9733 255.765 91.5718 253.97 88.7512L253.03 88.3239L252.432 88.8367C252.432 88.8367 252.859 89.9478 251.149 91.9136L250.038 91.7427C250.038 91.7427 250.209 91.6572 248.329 90.3752L247.474 90.8024C247.474 90.8024 247.474 91.6573 247.645 93.6231L246.278 93.9651C246.278 93.9651 245.85 93.965 245.252 93.3667H244.739C242.944 96.4437 245.423 93.623 238.927 100.717C238.671 100.204 238.756 101.914 234.483 100.29L234.654 98.6659C234.654 98.6659 234.739 98.5804 233.201 97.5547C232.773 98.2385 229.525 103.794 229.525 107.897C229.269 108.153 229.183 107.897 227.559 108.495C227.303 108.837 227.303 110.205 225.85 111.487H224.482C224.482 111.487 223.713 110.974 221.747 108.923C221.405 108.239 222.858 112.085 220.722 113.367H220.209C219.696 113.111 220.722 112.683 219.012 110.205C218.585 110.205 218.499 109.435 214.14 110.29L213.884 111.145L214.995 112.854V113.88C214.739 113.367 214.824 115.76 207.815 115.675C207.645 115.418 207.815 115.675 206.704 113.623C206.704 113.623 206.619 113.709 205.85 113.367H205.508C203.627 114.393 205.08 116.102 202.089 119.008H201.32C201.32 119.008 201.405 118.495 200.721 117.213H200.294L199.781 117.726C199.781 117.726 199.525 118.324 199.525 120.119C196.875 122.342 199.354 119.265 193.029 121.743H192.602C192.602 121.743 192.516 121.145 191.661 120.632C191.661 120.632 191.747 120.29 192.174 119.521L191.832 118.666C189.439 119.435 189.439 120.29 188.242 125.419C188.242 125.419 187.388 126.017 184.653 126.273C184.396 125.931 185.593 130.29 183.627 134.82C181.747 135.675 183.2 134.479 178.755 138.496C178.242 138.838 176.447 138.581 173.456 137.385L172.345 137.897C172.516 138.838 173.114 138.496 176.105 142.598L175.849 143.368H174.738L173.285 142.513C173.285 142.513 172.858 142.598 170.55 143.111C170.293 143.88 170.55 143.111 169.866 145.675L168.498 145.333C168.498 145.333 168.413 144.308 165.934 143.538L164.567 144.051C163.37 144.821 164.567 146.102 159.695 148.752C159.353 148.923 159.268 148.239 156.703 148.154L155.678 149.18C155.678 149.18 155.849 149.009 155.165 151.829C155.421 151.829 153.968 152.257 152.601 152.598C151.319 156.017 153.712 154.735 148.242 160.633C148.413 160.547 147.729 160.975 145.934 161.231L145.507 160.975C145.507 160.975 145.763 160.804 144.823 160.291L143.968 160.633C144.054 161.146 141.66 163.539 140.72 165.676C140.549 165.419 140.977 166.188 139.096 165.59C138.925 165.59 139.182 164.992 138.754 163.795L137.216 163.453C134.395 167.299 135.592 167.556 125.934 172.171L126.361 174.137C126.361 174.137 127.985 175.334 131.746 176.616C132.259 177.385 132.259 176.958 133.37 179.437C133.284 178.325 133.284 183.966 130.549 185.59L129.951 185.334C129.438 185.077 131.062 185.59 128.669 182.428C128.498 182.257 126.532 182.086 121.404 180.975C121.831 181.146 119.951 180.804 117.13 183.368C117.13 184.907 118.156 183.625 117.643 189.693C115.763 191.317 115.763 190.291 109.951 192.428C108.754 194.65 109.438 193.539 109.267 199.266C106.874 199.608 103.626 209.437 91.4031 214.138C90.2065 214.138 92.5998 214.822 88.9245 224.566L84.3091 227.3C86.3604 238.583 66.7019 237.386 66.8729 250.292C67.3002 255.335 58.4966 258.07 57.8983 263.711C51.2315 283.028 23.5388 283.284 21.3165 306.618C17.8122 306.362 11.5728 321.405 2 322.259C3.11113 323.712 3.70935 322.601 4.99143 327.986C5.58973 330.977 12.5985 326.618 15.2481 331.063L16.2737 331.319C16.872 331.832 17.2993 328.926 20.6327 329.268C20.9746 329.268 21.1456 330.037 23.1969 330.892C23.4533 330.892 23.3679 330.892 24.9919 329.439C25.1628 329.439 25.2482 329.439 26.7013 330.892C33.1116 331.148 30.2911 321.918 38.069 316.362C43.1118 316.704 44.9922 315.678 54.6505 316.02C56.2744 320.208 67.9841 322.858 68.155 330.208C85.0784 345.764 116.959 361.149 109.267 391.32C109.352 391.491 109.096 390.979 110.036 392.517C116.275 392.859 126.276 391.662 128.925 381.833C129.523 381.662 129.865 381.662 133.37 382.175L134.224 381.406C134.566 380.893 133.797 380.465 134.395 375.337L135.421 374.312C135.421 374.312 135.165 373.457 138.242 374.312C152.515 382.26 155.079 403.799 172.259 411.833C173.627 410.808 173.37 411.577 175.251 407.56L176.105 407.303C194.909 431.406 187.217 402.261 235.679 457.817H236.448C245.252 450.894 250.038 466.621 261.919 469.27C267.133 484.57 272.432 508.673 294.996 513.117C298.073 516.023 298.672 512.348 305.509 522.263C289.783 545.596 272.859 541.579 276.62 596.623L278.5 599.956C278.5 599.956 279.697 599.785 282.176 599.7C283.116 599.785 283.372 601.409 285.253 604.144L287.389 603.973C335.424 581.409 340.809 519.784 374.229 477.989C374.998 475.937 372.006 476.792 374.485 470.125C373.203 471.407 374.058 470.211 370.981 474.228L369.869 474.484L369.015 472.775C369.271 472.347 369.528 471.578 374.912 467.817V467.39C374.485 467.39 373.374 465.852 371.152 467.817C370.553 468.758 369.784 472.518 364.314 471.236L366.109 470.211V469.356C365.339 469.185 365.51 468.501 362.946 469.099C363.801 467.732 362.946 467.305 364.399 462.176C364.485 462.005 366.451 461.236 369.015 459.783C368.844 459.527 369.527 460.296 371.066 460.125L371.408 459.356C370.382 456.022 369.442 459.612 366.28 454.484L364.57 455.339L363.715 453.971L363.886 452.347H365.339C365.339 452.347 365.51 450.809 366.28 449.185C366.536 448.245 364.57 448.244 365.681 444.484C366.536 441.407 376.451 442.774 377.647 435.167L377.306 434.056L376.109 433.8L375.083 434.142L374.314 433.8C374.741 434.483 372.861 430.466 375.425 429.697C378.759 430.723 377.391 432.09 379.87 436.962C380.553 434.654 379.87 436.62 381.408 431.236C380.724 427.902 376.878 420.637 384.229 414.312C383.972 414.141 384.143 414.056 383.288 413.714L382.861 412.945V412.175C382.861 412.175 382.776 412.004 384.485 411.577C384.485 411.577 384.912 411.15 385.682 410.124C386.024 409.953 386.793 410.295 390.126 410.466L391.323 408.158C392.861 406.107 396.793 408.415 401.75 405.765C402.434 405.594 402.69 406.705 404.913 406.107V405.594L404.144 404.654C404.656 403.97 402.52 402.175 405.853 396.534C410.725 394.568 406.622 396.534 418.075 392.261C416.451 392.517 410.127 373.542 422.947 377.047L423.546 376.448C423.802 369.354 420.81 373.115 422.52 357.901C422.862 358.072 422.52 357.132 425.511 357.474L426.195 357.901C426.195 357.901 427.135 360.123 428.417 367.645L426.793 368.072L427.905 369.782H429.016C432.691 362.773 422.776 352.089 434.486 338.926L437.05 338.585C437.05 338.585 437.306 338.841 438.845 339.696C440.383 339.097 441.153 339.012 441.836 335.251L441.666 334.738C441.067 334.311 441.067 335.593 435.341 335.935C434.828 336.191 435.341 333.029 434.229 330.123C434.059 330.123 434.4 330.123 432.007 332.259L431.323 331.063L429.101 330.294L428.332 329.097L430.212 327.046C430.212 327.046 430.212 326.362 428.588 324.909C428.332 324.909 428.161 325.08 426.024 325.422C427.392 324.054 427.135 318.499 428.332 314.481L428.161 314.225C428.161 314.225 428.246 314.396 427.477 313.883L427.306 313.456C427.306 313.456 429.016 310.635 428.845 308.584L429.614 308.413L430.298 309.097C430.298 309.097 429.956 309.353 430.469 311.661L431.922 311.063C432.093 311.49 431.665 312.003 430.982 316.362C431.238 316.875 431.323 316.618 433.033 318.584L433.289 320.123C433.289 320.123 433.118 320.379 431.922 322.259L432.264 322.772C433.546 323.114 433.289 321.747 436.452 324.311L436.11 325.507C436.11 325.507 436.794 326.362 439.7 327.986C440.64 327.559 440.213 326.106 444.059 326.875L444.401 328.67H444.828L445.597 328.071L446.367 328.584C448.589 331.148 443.973 333.456 445.597 337.302C448.503 338.584 446.879 337.901 453.632 342.003C453.802 342.003 450.896 336.619 453.802 332.687L454.828 332.174L456.367 332.943C458.076 332.687 456.452 332.516 461.409 333.2L461.837 331.576L462.777 330.892C463.29 330.465 462.948 331.405 470.042 330.55C469.871 330.55 470.982 329.781 471.324 327.644C471.239 327.644 471.41 326.704 469.786 326.105L469.615 325.849L469.786 324.995H470.042C472.948 321.49 473.119 322.259 478.589 327.559C480.897 330.55 476.794 335.337 477.307 343.029C476.623 344.14 477.478 343.371 474.401 345.764C474.316 345.422 469.529 342.26 472.008 339.012C472.008 338.584 470.128 336.79 468.333 335.337C468.162 335.508 468.333 334.995 466.452 336.277V336.875C471.324 347.132 473.803 376.448 449.7 377.303L449.358 377.645C449.785 378.329 449.443 378.072 450.811 379.953C450.811 380.38 450.811 382.944 448.674 389.525L449.871 391.748C449.871 391.748 450.469 391.748 451.922 391.919L452.178 392.773C451.751 393.201 452.179 392.773 450.213 393.799C450.042 393.799 450.042 394.568 449.443 396.107C449.272 396.107 449.443 396.449 448.247 396.534L447.649 396.278C447.307 394.91 447.563 396.449 447.392 391.406L446.879 390.807C445.597 390.466 445.341 390.808 441.238 392.261C441.409 392.517 440.469 391.577 437.477 391.149L436.879 392.004C436.623 392.517 437.392 392.432 435.939 397.645C438.589 399.782 437.563 430.124 419.956 426.62L419.357 424.056C418.075 426.278 415.255 427.389 417.648 434.142L416.964 434.398C416.964 434.911 416.793 433.116 414.144 431.236C413.973 431.407 414.315 431.407 413.204 434.484C409.614 437.133 408.588 442.347 400.297 448.415C399.101 448.928 398.502 447.646 391.579 449.014L392.947 451.236L391.408 453.373C390.895 452.774 391.836 455.082 385.596 454.484C385.682 455.253 384.4 452.091 377.135 449.698L374.485 451.236V453.629C373.545 453.458 376.964 454.569 379.528 460.894C379.528 461.151 378.758 461.92 376.536 463.886C378.673 467.048 377.904 469.527 374.656 476.45L375.169 478.074C465.512 406.791 482.008 365.679 534.658 256.019H533.718C533.034 255.506 533.462 255.762 532.693 253.711C527.137 253.711 528.761 248.156 518.419 245.933C517.906 246.446 517.821 246.019 517.479 247.557L517.051 247.814C514.658 247.985 514.402 248.497 509.017 250.549C507.564 251.062 517.051 255.677 511.838 258.498C504.145 253.455 500.128 250.207 510.641 238.326C511.41 238.241 511.41 238.925 512.265 240.121H512.607C512.607 240.121 512.778 239.865 513.462 239.096C513.803 238.925 513.889 239.523 515 239.096C519.359 232.258 516.624 220.719 521.325 209.181H521.581C521.581 209.181 521.667 209.437 521.667 210.292L520.983 210.463Z"
    fill="#004851" stroke="#FFF4E0" stroke-width="2.08026" stroke-linecap="round"
    stroke-linejoin="round" />
  <circle class="pulse" cx="430.534" cy="292.196" r="138.337" transform="rotate(180 430.534 292.196)" fill="#F6EB61" />
  <circle opacity="0.1" cx="430.534" cy="292.196" r="138.337" transform="rotate(180 430.534 292.196)" fill="#F6EB61" />
  <circle opacity="0.1" cx="430.534" cy="292.197" r="88.4111" transform="rotate(180 430.534
  292.197)" fill="#F6EB61" />
  <circle opacity="0.1" cx="430.534" cy="292.197" r="38.4848" transform="rotate(180 430.534
  292.197)" fill="#F6EB61" />
  <circle cx="430.534" cy="292.197" r="4.16052" transform="rotate(180 430.534 292.197)"
    fill="#F6EB61" />
</svg>