<svg width="87" height="81" viewBox="0 0 87 81" fill="none" xmlns="http://www.w3.org/2000/svg">
<path d="M72.437 11.2833C60.1502 0.0494667 42.1006 -3.11108 26.4573 3.22665C13.937 8.30016 7.46297 18.1367 5.25679 22.1289C-3.35676 37.7431 -0.283669 55.6862 6.57939 66.5374C10.2527 72.3484 17.7548 79.5954 21.9171 80.2386C23.1785 80.4327 24.0177 79.9947 24.5011 79.5899C26.5684 77.8433 25.1736 75.5865 23.5564 72.9638C22.0171 70.4742 19.6942 66.7148 18.0271 61.7134C13.8759 49.2376 15.9043 39.5618 18.3383 33.64C21.3669 26.2654 26.3294 21.2196 30.5862 18.0036C31.6532 20.0053 32.459 21.763 33.0536 23.2933C30.7974 24.0696 28.3133 25.4392 27.4075 28.2116C26.574 30.7789 27.2908 34.3442 29.9416 35.869C32.7646 37.4936 36.2323 36.0243 37.7883 34.4551C39.0775 33.1576 40.0278 30.9175 39.4109 27.0416C42.1673 26.7422 46.4629 26.7699 48.8747 29.3039C49.7027 30.1745 49.9917 30.8676 50.4307 31.9155C50.9753 33.2186 51.6533 34.8377 53.4649 36.9003C56.1935 40.0054 60.4502 41.7576 66.1463 42.1236C66.2852 43.1604 66.7798 44.1086 67.5689 44.8128C68.3803 45.5336 69.4083 45.9218 70.4864 45.9218C70.5698 45.9218 70.6531 45.9218 70.7365 45.9162C70.7698 45.9162 70.7976 45.9107 70.831 45.9051C70.8254 46.0271 70.8199 46.1435 70.8087 46.2711C70.4864 49.4649 68.1024 51.9767 65.8851 53.0413C65.4794 53.2354 65.1294 53.3629 64.7793 53.435C62.2563 53.9673 60.4891 53.69 58.6164 53.3906C57.3549 53.191 56.049 52.9803 54.6041 53.0635C49.147 53.3518 43.6733 58.0316 42.4007 63.4988C40.9503 69.7423 45.0348 75.9081 49.825 78.7693C52.1923 80.1832 54.8709 80.8929 57.8439 80.8929C59.6556 80.8929 61.5728 80.6323 63.5956 80.1C77.3662 76.5181 83.9347 60.366 85.6407 51.3889C88.4471 36.6508 83.3845 21.2806 72.437 11.2777V11.2833ZM34.2039 30.9008C33.7538 31.35 32.7368 31.6217 32.4701 31.4997C32.2533 31.3444 31.9977 30.4462 32.2144 29.7697C32.4423 29.0655 33.3926 28.5443 34.4373 28.1617C34.6596 29.6976 34.4984 30.6014 34.1983 30.9008H34.2039ZM80.6671 50.4519C78.7388 60.5823 72.1702 72.6589 62.2619 75.2372C60.7948 75.6198 56.3324 76.7842 52.4202 74.4443C49.2804 72.5646 46.424 68.4947 47.3187 64.6411C48.169 60.9759 51.9812 58.2534 54.8653 58.1037C54.982 58.0982 55.1043 58.0926 55.221 58.0926C56.0268 58.0926 56.8659 58.2257 57.8162 58.3754C59.8501 58.697 62.3841 59.0962 65.824 58.3754C66.5686 58.2202 67.3077 57.9596 68.0746 57.5881C71.3033 56.03 75.2767 52.265 75.8324 46.7812C76.227 42.8832 74.6876 39.7726 73.7485 38.2865C73.2428 37.4659 72.3258 36.9946 71.3422 37.0556C64.4514 37.5435 59.7111 36.3736 57.2605 33.579C55.9934 32.1373 55.5544 31.0838 55.0876 29.9693C54.5764 28.7494 53.9984 27.3743 52.5313 25.8329C48.3635 21.458 41.845 21.5745 38.0383 22.1178C37.0992 19.6005 35.6765 16.6285 33.6315 13.1297C33.2703 12.5142 32.6701 12.0651 31.9699 11.9043C31.2753 11.7435 30.5306 11.8766 29.936 12.2702C24.7401 15.708 17.6881 21.8739 13.6425 31.7326C10.8862 38.4418 8.5744 49.3706 13.2146 63.3103C14.1426 66.0993 15.2374 68.5058 16.3044 70.5574C14.4761 68.7775 12.5366 66.5263 10.8417 63.8537C4.76777 54.2501 2.05033 38.3808 9.67471 24.5687C11.6197 21.0477 17.3269 12.3756 28.3467 7.91202C41.9783 2.38938 58.3163 5.23942 69.0082 15.0094C80.5615 25.5667 82.601 40.2439 80.656 50.4574L80.6671 50.4519Z" fill="#FF6A39"/>
</svg>
