<svg width="198" height="71" viewBox="0 0 198 71" fill="none" xmlns="http://www.w3.org/2000/svg">
<path d="M30.4636 38.0565C27.7961 43.7788 22.5947 47.1056 16.1262 47.1056C6.6568 47.1056 0.0549316 40.1192 0.0549316 29.6727C0.0549316 19.2263 6.59012 12.506 16.3262 12.506C24.3952 12.506 29.73 17.2302 29.73 23.7509C29.73 24.5493 29.5966 25.3478 29.4633 26.2128H23.5283C24.3952 21.3555 21.6611 18.0286 16.4596 18.0286C10.2578 18.0286 6.19 22.6197 6.19 29.7393C6.19 36.8588 10.3912 41.5165 16.3929 41.5165C20.7275 41.5165 24.1284 39.1211 25.9289 35.1288L30.4636 38.0565V38.0565Z" fill="#0F2830"/>
<path d="M63.7175 39.9861V24.7489C63.7175 16.964 58.4493 12.506 49.8469 12.506C41.2444 12.506 36.1763 16.6979 36.1763 22.7528C36.1763 23.4182 36.243 24.1501 36.3764 24.882H42.3781C41.5112 20.5571 44.312 17.6959 49.7135 17.6959C54.7816 17.6959 57.5157 20.2244 57.5157 24.4828V24.5493C50.8472 28.342 34.9093 25.0151 34.9093 36.9254C34.9093 43.313 39.644 47.1056 46.3125 47.1056C50.9138 47.1056 54.7816 45.3757 57.9825 41.9822H58.6494C58.7827 44.9099 60.7833 46.8395 63.5841 46.8395C64.5177 46.8395 65.9181 46.5733 67.1851 46.1076V41.7826C66.6516 41.9822 66.1182 42.0488 65.718 42.0488C64.451 42.0488 63.7175 41.3169 63.7175 39.9861V39.9861ZM57.5157 34.1308C57.5157 38.3892 52.4476 41.9822 47.3128 41.9822C43.6451 41.9822 41.1777 40.1192 41.1777 36.8588C41.1777 30.205 51.4473 32.5339 57.5157 29.34V34.1308V34.1308Z" fill="#0F2830"/>
<path d="M109.971 13.4377H103.77C104.048 16.504 103.292 19.9473 101.313 22.3981C100.33 23.6401 99.1184 24.7158 97.6735 25.8137C95.673 27.4772 93.1167 28.2035 90.8438 29.4733C89.8269 28.442 88.7988 27.516 87.8596 26.7231C86.2981 25.4533 84.5309 24.2833 82.7026 23.3795C81.1577 22.5755 79.3795 21.9711 78.1069 21.0452C75.7951 19.2209 75.0004 16.2378 75.0004 13.3046L69.221 13.36L69.1932 19.0989C69.2155 22.7696 69.271 32.5174 69.2933 36.3156H74.9282C74.9393 34.0311 74.9671 29.5066 74.9893 25.4921C75.8618 26.1242 76.8399 26.6454 77.9124 27.028C80.4242 28.0427 82.5915 29.0574 84.7199 30.7153C85.2645 31.1423 85.9591 31.7189 86.6926 32.3843C84.5309 34.0145 82.4692 35.8942 81.6912 38.6999C81.0077 41.3281 82.447 44.1172 84.4809 45.7085C88.432 49.0188 94.6005 46.9838 96.1842 42.3705C97.1178 39.3098 96.012 36.2158 94.1559 33.4489C94.5615 33.2826 94.9339 33.1273 95.2673 32.9942C96.0342 32.6948 97.0011 32.157 97.9959 31.6469C102.636 29.1073 106.987 25.4755 108.738 20.2467C109.46 18.1286 110.055 15.639 109.966 13.4377H109.971ZM91.1773 41.3946C90.3215 42.8418 88.4265 43.3187 87.2817 41.8327C86.6371 40.9954 86.3926 40.5407 86.776 38.8828C87.0539 37.6852 88.2653 36.5928 89.7491 35.6502C91.2162 37.5964 92.122 39.6979 91.1717 41.3891L91.1773 41.3946Z" fill="#0F2830"/>
<path d="M135.043 46.0408C133.709 46.5731 132.309 46.8393 131.109 46.8393C128.174 46.8393 126.374 45.1758 125.974 42.3147H125.307C123.24 45.1093 119.572 46.8393 115.304 46.8393C108.302 46.8393 103.767 42.1816 103.767 34.9955V13.4373H109.969V34.064C109.969 38.5886 112.637 41.3166 116.905 41.3166C121.839 41.3166 125.374 37.7236 125.374 32.7333V13.4373H131.575V39.9193C131.575 41.2501 132.309 41.982 133.576 41.982C133.976 41.982 134.51 41.9155 135.043 41.7159V46.0408V46.0408Z" fill="#0F2830"/>
<path d="M150.097 46.0412C148.43 46.5735 146.696 46.8396 145.229 46.8396C140.961 46.8396 138.561 44.5108 138.561 40.3854V0.196594H144.762V38.4558C144.762 40.5851 146.163 41.7827 148.43 41.7827C148.897 41.7827 149.497 41.7162 150.097 41.5831V46.0412V46.0412Z" fill="#0F2830"/>
<path d="M192.743 12.4562C191.976 14.6797 190.064 18.7884 185.863 21.3556C185.419 21.6273 184.957 21.8658 184.485 22.0931C182.885 18.2228 180.023 15.334 176.233 13.787C174.938 13.1493 173.604 12.7501 172.276 12.6558C168.38 12.3675 164.59 13.7537 163.679 17.7959C163.09 20.4186 163.196 23.3795 166.569 25.9357C170.086 28.5972 174.893 29.6673 179.706 29.1461C179.711 29.3679 179.723 29.5897 179.723 29.817C179.723 33.0774 178.906 35.7666 177.427 37.7406C176.505 38.8329 175.399 39.7644 174.143 40.4409C172.771 41.1007 171.181 41.4612 169.392 41.4612C162.99 41.4612 159.122 37.1362 159.122 29.8836C159.122 26.8616 159.789 24.3388 161.012 22.4036L159.322 21.3889L155.938 19.3429C155.938 19.3429 155.938 19.3429 155.938 19.3484L155.827 19.2708C153.96 22.082 152.926 25.664 152.926 29.8115C152.926 39.9751 159.111 46.7343 168.597 47.0947C168.947 47.1224 169.303 47.1391 169.664 47.1391C169.853 47.1391 170.048 47.1391 170.242 47.128C170.859 47.1058 171.47 47.0392 172.076 46.9394C179.911 45.8804 185.163 40.1193 185.852 31.7411C185.963 30.7098 185.98 29.6673 185.896 28.6249C185.88 28.2756 185.852 27.9318 185.819 27.588C186.836 27.1666 187.825 26.6676 188.77 26.0909C194.455 22.6199 196.994 17.1915 198 14.2694L192.743 12.4673V12.4562ZM169.925 21.5109C169.925 21.5109 169.898 21.4887 169.881 21.4776C168.542 20.4574 169.175 18.2672 170.859 18.1618C171.148 18.1452 171.448 18.1452 171.737 18.1729C173.61 18.3504 175.816 19.8086 177.505 21.9711C177.922 22.5034 178.294 23.0634 178.628 23.6457C175.355 23.9007 172.148 23.1965 169.92 21.5109H169.925Z" fill="#0F2830"/>
<path d="M28.2637 64.9985C28.2637 62.0764 30.5143 59.9804 33.543 59.9804C35.2268 59.9804 36.6272 60.5903 37.5441 61.6993L36.0992 63.0301C35.4435 62.2815 34.6266 61.8934 33.6541 61.8934C31.8313 61.8934 30.5421 63.1687 30.5421 64.9985C30.5421 66.8283 31.8313 68.1036 33.6541 68.1036C34.6266 68.1036 35.4435 67.7154 36.0992 66.9558L37.5441 68.2866C36.6272 69.4066 35.2268 70.0165 33.5318 70.0165C30.5199 70.0165 28.2692 67.9261 28.2692 64.9985H28.2637Z" fill="#FF6A39"/>
<path d="M47.9724 68.0484V69.8505H40.4425V60.1471H47.789V61.9491H42.6765V64.0562H47.1889V65.8028H42.6765V68.0484H47.9669H47.9724Z" fill="#FF6A39"/>
<path d="M60.0792 60.1522V69.8556H58.2342L53.3884 63.967V69.8556H51.1655V60.1522H53.0272L57.8619 66.0408V60.1522H60.0847H60.0792Z" fill="#FF6A39"/>
<path d="M65.7844 61.982H62.6724V60.1522H71.147V61.982H68.035V69.8556H65.7844V61.982V61.982Z" fill="#FF6A39"/>
<path d="M79.9437 69.8505L78.0709 67.1502H76.0037V69.8505H73.7531V60.1471H77.9598C80.555 60.1471 82.1832 61.4889 82.1832 63.668C82.1832 65.1208 81.4441 66.1909 80.1827 66.7288L82.361 69.845H79.9437V69.8505ZM77.832 61.9769H75.9981V65.3592H77.832C79.2046 65.3592 79.8992 64.7215 79.8992 63.668C79.8992 62.6145 79.2046 61.9769 77.832 61.9769V61.9769Z" fill="#FF6A39"/>
<path d="M84.7386 64.9985C84.7386 62.1152 86.9893 59.9805 90.0568 59.9805C93.1244 59.9805 95.375 62.0986 95.375 64.9985C95.375 67.8985 93.1133 70.0166 90.0568 70.0166C87.0004 70.0166 84.7386 67.8818 84.7386 64.9985ZM93.1021 64.9985C93.1021 63.1577 91.7962 61.8934 90.0624 61.8934C88.3286 61.8934 87.0226 63.1521 87.0226 64.9985C87.0226 66.845 88.3286 68.1036 90.0624 68.1036C91.7962 68.1036 93.1021 66.845 93.1021 64.9985Z" fill="#FF6A39"/>
<path d="M103.175 64.9985C103.175 62.0764 105.425 59.9805 108.454 59.9805C110.138 59.9805 111.538 60.5904 112.455 61.6994L111.01 63.0301C110.354 62.2816 109.537 61.8934 108.565 61.8934C106.742 61.8934 105.453 63.1687 105.453 64.9985C105.453 66.8283 106.742 68.1036 108.565 68.1036C109.537 68.1036 110.354 67.7155 111.01 66.9559L112.455 68.2866C111.538 69.4067 110.138 70.0166 108.443 70.0166C105.431 70.0166 103.18 67.9262 103.18 64.9985H103.175Z" fill="#FF6A39"/>
<path d="M121.566 67.7712H117.054L116.193 69.8505H113.886L118.221 60.1471H120.444L124.79 69.8505H122.428L121.566 67.7712ZM120.855 66.0689L119.316 62.3539L117.771 66.0689H120.855V66.0689Z" fill="#FF6A39"/>
<path d="M136.111 60.1522V69.8556H134.266L129.42 63.967V69.8556H127.197V60.1522H129.059L133.894 66.0408V60.1522H136.116H136.111Z" fill="#FF6A39"/>
<path d="M139.808 60.1522H142.059V69.8556H139.808V60.1522Z" fill="#FF6A39"/>
<path d="M154.672 60.1522V69.8556H152.827L147.981 63.967V69.8556H145.758V60.1522H147.62L152.455 66.0408V60.1522H154.677H154.672Z" fill="#FF6A39"/>
<path d="M157.757 64.9985C157.757 62.1152 160.007 59.9805 163.075 59.9805C166.143 59.9805 168.393 62.0986 168.393 64.9985C168.393 67.8985 166.131 70.0166 163.075 70.0166C160.019 70.0166 157.757 67.8818 157.757 64.9985ZM166.12 64.9985C166.12 63.1577 164.814 61.8934 163.081 61.8934C161.347 61.8934 160.041 63.1521 160.041 64.9985C160.041 66.845 161.347 68.1036 163.081 68.1036C164.814 68.1036 166.12 66.845 166.12 64.9985Z" fill="#FF6A39"/>
</svg>
