<svg width="1216" height="916" viewBox="0 0 1216 916" fill="none" xmlns="http://www.w3.org/2000/svg">
<g id="Group 13">
<g id="Content">
<rect width="1216" height="440" rx="32" fill="#BDE9C9"/>
<text id="Hotel Canino" fill="#0F2830" xml:space="preserve" style="white-space: pre" font-family="Calistoga" font-size="80" letter-spacing="0em"><tspan x="102" y="156">Hotel Canino</tspan></text>
<text id="Nossa equipe, especialista em comportamento canino, estar&#195;&#161; empenhada em fazer das f&#195;&#169;rias do seu pet, a melhor experi&#195;&#170;ncia poss&#195;&#173;vel, afinal, ele merece." fill="#004851" xml:space="preserve" style="white-space: pre" font-family="Nunito Sans" font-size="20" letter-spacing="0.01em"><tspan x="102" y="222.58">Nossa equipe, especialista em comportamento </tspan><tspan x="102" y="254.58">canino, estar&#xe1; empenhada em fazer das f&#xe9;rias do seu </tspan><tspan x="102" y="286.58">pet, a melhor experi&#xea;ncia poss&#xed;vel, afinal, ele merece.</tspan></text>
<g id="Tags">
<g id="Default">
<rect x="102" y="328" width="122" height="40" rx="16" fill="white"/>
<g id="clock">
<path id="Vector (Stroke)" fill-rule="evenodd" clip-rule="evenodd" d="M126 339C121.029 339 117 343.029 117 348C117 352.971 121.029 357 126 357C130.971 357 135 352.971 135 348C135 343.029 130.971 339 126 339ZM115 348C115 341.925 119.925 337 126 337C132.075 337 137 341.925 137 348C137 354.075 132.075 359 126 359C119.925 359 115 354.075 115 348Z" fill="#004851"/>
<path id="Vector (Stroke)_2" fill-rule="evenodd" clip-rule="evenodd" d="M126 341C126.552 341 127 341.448 127 342V347.382L130.447 349.106C130.941 349.353 131.141 349.953 130.894 350.447C130.647 350.941 130.047 351.141 129.553 350.894L125.553 348.894C125.214 348.725 125 348.379 125 348V342C125 341.448 125.448 341 126 341Z" fill="#004851"/>
</g>
<text id="1h30min" fill="#0F2830" xml:space="preserve" style="white-space: pre" font-family="Nunito Sans" font-size="16" letter-spacing="0.01em"><tspan x="146.364" y="353.264">1h30min</tspan></text>
</g>
<g id="Default_2">
<rect x="240" y="328" width="195" height="40" rx="16" fill="white"/>
<g id="map-pin">
<path id="Vector (Stroke)_3" fill-rule="evenodd" clip-rule="evenodd" d="M264 338C261.878 338 259.843 338.843 258.343 340.343C256.843 341.843 256 343.878 256 346C256 349.098 258.016 352.104 260.226 354.437C261.311 355.582 262.399 356.519 263.217 357.171C263.521 357.413 263.787 357.615 264 357.773C264.213 357.615 264.479 357.413 264.783 357.171C265.601 356.519 266.689 355.582 267.774 354.437C269.984 352.104 272 349.098 272 346C272 343.878 271.157 341.843 269.657 340.343C268.157 338.843 266.122 338 264 338ZM264 359C263.445 359.832 263.445 359.832 263.445 359.832L263.442 359.83L263.435 359.825L263.412 359.81C263.393 359.797 263.365 359.778 263.33 359.753C263.259 359.704 263.156 359.632 263.028 359.539C262.771 359.353 262.406 359.082 261.971 358.735C261.101 358.043 259.939 357.043 258.774 355.813C256.484 353.396 254 349.902 254 346C254 343.348 255.054 340.804 256.929 338.929C258.804 337.054 261.348 336 264 336C266.652 336 269.196 337.054 271.071 338.929C272.946 340.804 274 343.348 274 346C274 349.902 271.516 353.396 269.226 355.813C268.061 357.043 266.899 358.043 266.029 358.735C265.594 359.082 265.229 359.353 264.972 359.539C264.844 359.632 264.741 359.704 264.67 359.753C264.635 359.778 264.607 359.797 264.588 359.81L264.565 359.825L264.558 359.83L264.556 359.831C264.556 359.831 264.555 359.832 264 359ZM264 359L264.555 359.832C264.219 360.056 263.781 360.056 263.445 359.832L264 359Z" fill="#004851"/>
<path id="Vector (Stroke)_4" fill-rule="evenodd" clip-rule="evenodd" d="M264 344C262.895 344 262 344.895 262 346C262 347.105 262.895 348 264 348C265.105 348 266 347.105 266 346C266 344.895 265.105 344 264 344ZM260 346C260 343.791 261.791 342 264 342C266.209 342 268 343.791 268 346C268 348.209 266.209 350 264 350C261.791 350 260 348.209 260 346Z" fill="#004851"/>
</g>
<text id="Online e Presencial" fill="#0F2830" xml:space="preserve" style="white-space: pre" font-family="Nunito Sans" font-size="16" letter-spacing="0.01em"><tspan x="284.138" y="353.264">Online e Presencial</tspan></text>
</g>
</g>
</g>
<g id="How it Works">
<text id="Como Funciona" fill="#FF6A39" xml:space="preserve" style="white-space: pre" font-family="Calistoga" font-size="40" letter-spacing="0em"><tspan x="102" y="546">Como Funciona</tspan></text>
<text id="A Casulo conta com um servi&#195;&#167;o de pet hotel, que atender&#195;&#161; todas as suas necessidades quando precisar viajar e n&#195;&#163;o puder levar seu amigo de quatro patas. E caso n&#195;&#163;o consiga traz&#195;&#170;-lo at&#195;&#169; n&#195;&#179;s, nosso taxi-dog poder&#195;&#161; fazer a busca e entrega em sua casa." fill="#004851" xml:space="preserve" style="white-space: pre" font-family="Nunito Sans" font-size="20" letter-spacing="0.01em"><tspan x="102" y="606.58">A Casulo conta com um servi&#xe7;o de pet hotel, que atender&#xe1; todas </tspan><tspan x="102" y="638.58">as suas necessidades quando precisar viajar e n&#xe3;o puder levar </tspan><tspan x="102" y="670.58">seu amigo de quatro patas. E caso n&#xe3;o consiga traz&#xea;-lo at&#xe9; n&#xf3;s, </tspan><tspan x="102" y="702.58">nosso taxi-dog poder&#xe1; fazer a busca e entrega em sua casa.</tspan></text>
<g id="Button">
<rect x="93" y="760" width="340" height="64" rx="32" fill="#FF6A39"/>
<g id="calendar">
<path id="Vector (Stroke)_5" fill-rule="evenodd" clip-rule="evenodd" d="M130 785C129.448 785 129 785.448 129 786V800C129 800.552 129.448 801 130 801H144C144.552 801 145 800.552 145 800V786C145 785.448 144.552 785 144 785H130ZM127 786C127 784.343 128.343 783 130 783H144C145.657 783 147 784.343 147 786V800C147 801.657 145.657 803 144 803H130C128.343 803 127 801.657 127 800V786Z" fill="#FFF4E0"/>
<path id="Vector (Stroke)_6" fill-rule="evenodd" clip-rule="evenodd" d="M141 781C141.552 781 142 781.448 142 782V786C142 786.552 141.552 787 141 787C140.448 787 140 786.552 140 786V782C140 781.448 140.448 781 141 781Z" fill="#FFF4E0"/>
<path id="Vector (Stroke)_7" fill-rule="evenodd" clip-rule="evenodd" d="M133 781C133.552 781 134 781.448 134 782V786C134 786.552 133.552 787 133 787C132.448 787 132 786.552 132 786V782C132 781.448 132.448 781 133 781Z" fill="white"/>
<path id="Vector (Stroke)_8" fill-rule="evenodd" clip-rule="evenodd" d="M127 790C127 789.448 127.448 789 128 789H146C146.552 789 147 789.448 147 790C147 790.552 146.552 791 146 791H128C127.448 791 127 790.552 127 790Z" fill="white"/>
</g>
<text id="Button_2" fill="#FFF4E0" xml:space="preserve" style="white-space: pre" font-family="Nunito Sans" font-size="20" font-weight="600" letter-spacing="0.01em"><tspan x="165.229" y="798.58">Marque sua Hospedagem</tspan></text>
</g>
</g>
<g id="CTA">
<rect x="724" y="64" width="391" height="852" rx="32" fill="white"/>
<text id="Benef&#195;&#173;cios" fill="#FF6A39" xml:space="preserve" style="white-space: pre" font-family="Calistoga" font-size="40" letter-spacing="0em"><tspan x="772" y="154">Benef&#xed;cios</tspan></text>
<g id="Frame 42">
<g id="Item">
<g id="check-circle">
<path id="Vector (Stroke)_9" fill-rule="evenodd" clip-rule="evenodd" d="M785.141 201.145C783.654 200.486 781.992 200.323 780.404 200.68C778.816 201.036 777.386 201.893 776.328 203.122C775.27 204.352 774.64 205.888 774.533 207.502C774.426 209.116 774.847 210.721 775.733 212.077C776.62 213.434 777.924 214.47 779.451 215.03C780.979 215.591 782.648 215.646 784.209 215.187C785.771 214.729 787.141 213.781 788.116 212.486C789.091 211.191 789.618 209.617 789.619 208V207.233C789.619 206.773 789.995 206.4 790.458 206.4C790.922 206.4 791.297 206.773 791.297 207.233V208C791.296 209.977 790.652 211.901 789.46 213.484C788.268 215.067 786.593 216.225 784.685 216.786C782.776 217.346 780.737 217.279 778.87 216.594C777.003 215.909 775.409 214.643 774.326 212.984C773.242 211.326 772.728 209.365 772.859 207.392C772.99 205.42 773.759 203.542 775.052 202.039C776.345 200.537 778.093 199.49 780.034 199.054C781.975 198.618 784.006 198.818 785.824 199.622C786.248 199.809 786.438 200.302 786.249 200.723C786.061 201.143 785.565 201.332 785.141 201.145Z" fill="#00BF6F"/>
<path id="Vector (Stroke)_10" fill-rule="evenodd" clip-rule="evenodd" d="M791.051 200.744C791.379 201.069 791.379 201.597 791.052 201.922L782.662 210.264C782.504 210.42 782.291 210.508 782.068 210.508C781.846 210.508 781.632 210.421 781.475 210.264L778.958 207.764C778.63 207.439 778.63 206.911 778.958 206.586C779.285 206.26 779.817 206.26 780.144 206.586L782.068 208.496L789.865 200.744C790.192 200.419 790.723 200.419 791.051 200.744Z" fill="#00BF6F"/>
</g>
<g id="Frame 41">
<text id="Hospedagem com Dormit&#195;&#179;rio Individual" fill="#004851" xml:space="preserve" style="white-space: pre" font-family="Nunito Sans" font-size="20" font-weight="600" letter-spacing="0.01em"><tspan x="800" y="214.58">Hospedagem com </tspan><tspan x="800" y="246.58">Dormit&#xf3;rio Individual</tspan></text>
</g>
</g>
<g id="Item_2">
<g id="check-circle_2">
<path id="Vector (Stroke)_11" fill-rule="evenodd" clip-rule="evenodd" d="M785.141 281.145C783.654 280.486 781.992 280.323 780.404 280.68C778.816 281.036 777.386 281.893 776.328 283.122C775.27 284.352 774.64 285.888 774.533 287.502C774.426 289.116 774.847 290.721 775.733 292.077C776.62 293.434 777.924 294.47 779.451 295.03C780.979 295.591 782.648 295.646 784.209 295.187C785.771 294.729 787.141 293.781 788.116 292.486C789.091 291.191 789.618 289.617 789.619 288V287.233C789.619 286.773 789.995 286.4 790.458 286.4C790.922 286.4 791.297 286.773 791.297 287.233V288C791.296 289.977 790.652 291.901 789.46 293.484C788.268 295.067 786.593 296.225 784.685 296.786C782.776 297.346 780.737 297.279 778.87 296.594C777.003 295.909 775.409 294.643 774.326 292.984C773.242 291.326 772.728 289.365 772.859 287.392C772.99 285.42 773.759 283.542 775.052 282.039C776.345 280.537 778.093 279.49 780.034 279.054C781.975 278.618 784.006 278.818 785.824 279.622C786.248 279.809 786.438 280.302 786.249 280.723C786.061 281.143 785.565 281.332 785.141 281.145Z" fill="#00BF6F"/>
<path id="Vector (Stroke)_12" fill-rule="evenodd" clip-rule="evenodd" d="M791.051 280.744C791.379 281.069 791.379 281.597 791.052 281.922L782.662 290.264C782.504 290.42 782.291 290.508 782.068 290.508C781.846 290.508 781.632 290.421 781.475 290.264L778.958 287.764C778.63 287.439 778.63 286.911 778.958 286.586C779.285 286.26 779.817 286.26 780.144 286.586L782.068 288.496L789.865 280.744C790.192 280.419 790.723 280.419 791.051 280.744Z" fill="#00BF6F"/>
</g>
<g id="Frame 41_2">
<text id="Monitoramento em Todos &#226;&#128;&#168;os Momentos de Recrea&#195;&#167;&#195;&#163;o" fill="#004851" xml:space="preserve" style="white-space: pre" font-family="Nunito Sans" font-size="20" font-weight="600" letter-spacing="0.01em"><tspan x="800" y="294.58">Monitoramento em Todos &#x2028;</tspan><tspan x="800" y="326.58">os Momentos de Recrea&#xe7;&#xe3;o</tspan></text>
</g>
</g>
<g id="Item_3">
<g id="check-circle_3">
<path id="Vector (Stroke)_13" fill-rule="evenodd" clip-rule="evenodd" d="M785.141 361.145C783.654 360.486 781.992 360.323 780.404 360.68C778.816 361.036 777.386 361.893 776.328 363.122C775.27 364.352 774.64 365.888 774.533 367.502C774.426 369.116 774.847 370.721 775.733 372.077C776.62 373.434 777.924 374.47 779.451 375.03C780.979 375.591 782.648 375.646 784.209 375.187C785.771 374.729 787.141 373.781 788.116 372.486C789.091 371.191 789.618 369.617 789.619 368V367.233C789.619 366.773 789.995 366.4 790.458 366.4C790.922 366.4 791.297 366.773 791.297 367.233V368C791.296 369.977 790.652 371.901 789.46 373.484C788.268 375.067 786.593 376.225 784.685 376.786C782.776 377.346 780.737 377.279 778.87 376.594C777.003 375.909 775.409 374.643 774.326 372.984C773.242 371.326 772.728 369.365 772.859 367.392C772.99 365.42 773.759 363.542 775.052 362.039C776.345 360.537 778.093 359.49 780.034 359.054C781.975 358.618 784.006 358.818 785.824 359.622C786.248 359.809 786.438 360.302 786.249 360.723C786.061 361.143 785.565 361.332 785.141 361.145Z" fill="#00BF6F"/>
<path id="Vector (Stroke)_14" fill-rule="evenodd" clip-rule="evenodd" d="M791.051 360.744C791.379 361.069 791.379 361.597 791.052 361.922L782.662 370.264C782.504 370.42 782.291 370.508 782.068 370.508C781.846 370.508 781.632 370.421 781.475 370.264L778.958 367.764C778.63 367.439 778.63 366.911 778.958 366.586C779.285 366.26 779.817 366.26 780.144 366.586L782.068 368.496L789.865 360.744C790.192 360.419 790.723 360.419 791.051 360.744Z" fill="#00BF6F"/>
</g>
<g id="Frame 41_3">
<text id="Cercados Externos com &#226;&#128;&#168;&#195;&#129;rea Verde e Piscina Pet" fill="#004851" xml:space="preserve" style="white-space: pre" font-family="Nunito Sans" font-size="20" font-weight="600" letter-spacing="0.01em"><tspan x="800" y="374.58">Cercados Externos com &#x2028;</tspan><tspan x="800" y="406.58">&#xc1;rea Verde e Piscina Pet</tspan></text>
</g>
</g>
<g id="Item_4">
<g id="check-circle_4">
<path id="Vector (Stroke)_15" fill-rule="evenodd" clip-rule="evenodd" d="M785.141 441.145C783.654 440.486 781.992 440.323 780.404 440.68C778.816 441.036 777.386 441.893 776.328 443.122C775.27 444.352 774.64 445.888 774.533 447.502C774.426 449.116 774.847 450.721 775.733 452.077C776.62 453.434 777.924 454.47 779.451 455.03C780.979 455.591 782.648 455.646 784.209 455.187C785.771 454.729 787.141 453.781 788.116 452.486C789.091 451.191 789.618 449.617 789.619 448V447.233C789.619 446.773 789.995 446.4 790.458 446.4C790.922 446.4 791.297 446.773 791.297 447.233V448C791.296 449.977 790.652 451.901 789.46 453.484C788.268 455.067 786.593 456.225 784.685 456.786C782.776 457.346 780.737 457.279 778.87 456.594C777.003 455.909 775.409 454.643 774.326 452.984C773.242 451.326 772.728 449.365 772.859 447.392C772.99 445.42 773.759 443.542 775.052 442.039C776.345 440.537 778.093 439.49 780.034 439.054C781.975 438.618 784.006 438.818 785.824 439.622C786.248 439.809 786.438 440.302 786.249 440.723C786.061 441.143 785.565 441.332 785.141 441.145Z" fill="#00BF6F"/>
<path id="Vector (Stroke)_16" fill-rule="evenodd" clip-rule="evenodd" d="M791.051 440.744C791.379 441.069 791.379 441.597 791.052 441.922L782.662 450.264C782.504 450.42 782.291 450.508 782.068 450.508C781.846 450.508 781.632 450.421 781.475 450.264L778.958 447.764C778.63 447.439 778.63 446.911 778.958 446.586C779.285 446.26 779.817 446.26 780.144 446.586L782.068 448.496L789.865 440.744C790.192 440.419 790.723 440.419 791.051 440.744Z" fill="#00BF6F"/>
</g>
<g id="Frame 41_4">
<text id="&#195;&#129;reas Fechadas e Cobertas para Dias de Chuva" fill="#004851" xml:space="preserve" style="white-space: pre" font-family="Nunito Sans" font-size="20" font-weight="600" letter-spacing="0.01em"><tspan x="800" y="454.58">&#xc1;reas Fechadas e Cobertas </tspan><tspan x="800" y="486.58">para Dias de Chuva</tspan></text>
</g>
</g>
<g id="Item_5">
<g id="check-circle_5">
<path id="Vector (Stroke)_17" fill-rule="evenodd" clip-rule="evenodd" d="M785.141 521.145C783.654 520.486 781.992 520.323 780.404 520.68C778.816 521.036 777.386 521.893 776.328 523.122C775.27 524.352 774.64 525.888 774.533 527.502C774.426 529.116 774.847 530.721 775.733 532.077C776.62 533.434 777.924 534.47 779.451 535.03C780.979 535.591 782.648 535.646 784.209 535.187C785.771 534.729 787.141 533.781 788.116 532.486C789.091 531.191 789.618 529.617 789.619 528V527.233C789.619 526.773 789.995 526.4 790.458 526.4C790.922 526.4 791.297 526.773 791.297 527.233V528C791.296 529.977 790.652 531.901 789.46 533.484C788.268 535.067 786.593 536.225 784.685 536.786C782.776 537.346 780.737 537.279 778.87 536.594C777.003 535.909 775.409 534.643 774.326 532.984C773.242 531.326 772.728 529.365 772.859 527.392C772.99 525.42 773.759 523.542 775.052 522.039C776.345 520.537 778.093 519.49 780.034 519.054C781.975 518.618 784.006 518.818 785.824 519.622C786.248 519.809 786.438 520.302 786.249 520.722C786.061 521.143 785.565 521.332 785.141 521.145Z" fill="#00BF6F"/>
<path id="Vector (Stroke)_18" fill-rule="evenodd" clip-rule="evenodd" d="M791.051 520.744C791.379 521.069 791.379 521.597 791.052 521.922L782.662 530.264C782.504 530.42 782.291 530.508 782.068 530.508C781.846 530.508 781.632 530.421 781.475 530.264L778.958 527.764C778.63 527.439 778.63 526.911 778.958 526.586C779.285 526.26 779.817 526.26 780.144 526.586L782.068 528.496L789.865 520.744C790.192 520.419 790.723 520.419 791.051 520.744Z" fill="#00BF6F"/>
</g>
<g id="Frame 41_5">
<text id="Parceria com Cl&#195;&#173;nica Veterin&#195;&#161;ria com Atendimento 24h" fill="#004851" xml:space="preserve" style="white-space: pre" font-family="Nunito Sans" font-size="20" font-weight="600" letter-spacing="0.01em"><tspan x="800" y="534.58">Parceria com Cl&#xed;nica </tspan><tspan x="800" y="566.58">Veterin&#xe1;ria com </tspan><tspan x="800" y="598.58">Atendimento 24h</tspan></text>
</g>
</g>
</g>
<g id="Taxi">
<rect id="Rectangle 18" opacity="0.8" x="756" y="656" width="327" height="228" rx="16" fill="#F6EB61"/>
<g id="Button_3">
<text id="Button_4" fill="#73381D" xml:space="preserve" style="white-space: pre" font-family="Nunito Sans" font-size="16" font-weight="600" letter-spacing="0.01em"><tspan x="788.47" y="853.264">Solicitar Servi&#xe7;o</tspan></text>
<g id="arrow-right">
<path id="Vector (Stroke)_19" fill-rule="evenodd" clip-rule="evenodd" d="M920 848C920 847.448 920.448 847 921 847H935C935.552 847 936 847.448 936 848C936 848.552 935.552 849 935 849H921C920.448 849 920 848.552 920 848Z" fill="#73381D"/>
<path id="Vector (Stroke)_20" fill-rule="evenodd" clip-rule="evenodd" d="M927.293 840.293C927.683 839.902 928.317 839.902 928.707 840.293L935.707 847.293C936.098 847.683 936.098 848.317 935.707 848.707L928.707 855.707C928.317 856.098 927.683 856.098 927.293 855.707C926.902 855.317 926.902 854.683 927.293 854.293L933.586 848L927.293 841.707C926.902 841.317 926.902 840.683 927.293 840.293Z" fill="#73381D"/>
</g>
</g>
<text id="T&#195;&#161;xi-dog" fill="#FF6A39" xml:space="preserve" style="white-space: pre" font-family="Calistoga" font-size="40" letter-spacing="0em"><tspan x="860" y="722">T&#xe1;xi-dog</tspan></text>
<text id="Contamos com servi&#195;&#167;o de busca e entrega no in&#195;&#173;cio da manh&#195;&#163; e final da tarde, de acordo com a rota." fill="#73381D" xml:space="preserve" style="white-space: pre" font-family="Nunito Sans" font-size="16" letter-spacing="0.01em"><tspan x="788" y="769.264">Contamos com servi&#xe7;o de busca e </tspan><tspan x="788" y="793.264">entrega no in&#xed;cio da manh&#xe3; e final </tspan><tspan x="788" y="817.264">da tarde, de acordo com a rota.</tspan></text>
<g id="Layer_1" clip-path="url(#clip0_1255_888)">
<path id="Vector" d="M802.787 696.341L799.933 704.5H832.067L829.212 696.341C828.72 694.941 827.397 694 825.909 694H806.091C804.603 694 803.28 694.941 802.787 696.341ZM792.331 705.025L796.181 694.033C797.658 689.822 801.628 687 806.091 687H825.909C830.372 687 834.342 689.822 835.819 694.033L839.669 705.025C842.206 706.075 844 708.58 844 711.5V727.25H788V711.5C788 708.58 789.794 706.075 792.331 705.025Z" fill="#FF6A39"/>
<path id="Vector_2" d="M809 680H823C824.936 680 826.5 681.564 826.5 683.5V687H805.5V683.5C805.5 681.564 807.064 680 809 680Z" fill="#FFF4E0"/>
<path id="Vector_3" d="M798.5 727.25V732.5C798.5 734.436 796.936 736 795 736H791.5C789.564 736 788 734.436 788 732.5V727.25H798.5Z" fill="#73381D"/>
<path id="Vector_4" d="M833.5 727.25H844V732.5C844 734.436 842.436 736 840.5 736H837C835.064 736 833.5 734.436 833.5 732.5V727.25Z" fill="#73381D"/>
<path id="Vector_5" d="M798.5 718.5C800.433 718.5 802 716.933 802 715C802 713.067 800.433 711.5 798.5 711.5C796.567 711.5 795 713.067 795 715C795 716.933 796.567 718.5 798.5 718.5Z" fill="#FFF4E0"/>
<path id="Vector_6" d="M833.5 718.5C835.433 718.5 837 716.933 837 715C837 713.067 835.433 711.5 833.5 711.5C831.567 711.5 830 713.067 830 715C830 716.933 831.567 718.5 833.5 718.5Z" fill="#FFF4E0"/>
</g>
</g>
</g>
</g>
<defs>
<clipPath id="clip0_1255_888">
<rect width="56" height="56" fill="white" transform="translate(788 680)"/>
</clipPath>
</defs>
</svg>
