<svg width="320" height="320" viewBox="0 0 320 320" fill="none" xmlns="http://www.w3.org/2000/svg">
<circle opacity="0.5" cx="160" cy="160" r="140.146" fill="#F6EB61"/>
<g clip-path="url(#clip0_1141_362)">
<path d="M276.738 268.528C276.642 268.241 276.519 267.958 276.46 267.662C274.221 256.537 264.314 249.162 254.499 249.23C252.701 249.244 253.075 248.528 253.728 247.493C255.52 244.651 257.103 241.7 258.348 238.589C261.842 230.922 263.602 222.566 263.137 214.065C263.123 206.53 261.723 199.282 259.174 192.573C259.096 192.295 259.009 192.012 258.895 191.724C255.32 182.575 249.842 174.725 242.603 168.098C240.683 166.338 240.665 166.406 242.891 165.106C255.922 157.507 265.413 146.771 271.475 132.955C274.216 126.707 275.621 120.12 276.734 113.443V61.912C275.662 60.0922 273.97 59.2301 272.008 58.6235C256.35 53.7614 240.706 48.8583 225.057 43.9597C224.336 43.7316 223.625 43.4625 222.909 43.2117H218.804C211.999 45.8434 204.938 47.6861 198.001 49.9119C188.527 52.945 179.031 55.9142 169.512 58.8151C166.639 59.6908 165.193 61.4514 165.083 64.3978C165.061 65.082 165.006 65.7661 165.015 66.4457C165.161 80.804 164.737 95.1667 165.252 109.525C165.403 113.648 166.041 117.676 166.871 121.694C167.022 122.419 167.154 123.149 167.4 124.412C163.793 122.387 160.573 120.608 157.38 118.775C156.531 118.287 156.413 117.265 156.057 116.44C148.928 99.9604 143.218 82.9978 138.552 65.6612C136.162 56.7854 129.753 52.1833 120.631 52.1742C113.489 52.1696 106.346 52.238 99.2034 52.1468C95.2946 52.0966 91.9239 53.2825 88.8817 55.6907C82.2682 60.9268 75.5862 66.0717 69.0046 71.3443C67.3763 72.6488 65.7571 73.3603 63.6271 73.2463C60.9771 73.1049 58.277 73.0091 55.6589 73.3512C49.1639 74.2041 45.2734 78.2452 43.2026 84.2567V90.6422C44.4204 94.5556 45.6656 98.4598 46.856 102.382C49.9758 112.672 57.7251 118.478 68.4801 118.529C72.4299 118.547 76.3798 118.583 80.3297 118.51C81.8212 118.483 82.7744 118.989 83.3491 120.376C83.7277 121.283 84.2796 122.118 84.7174 123.003C85.9991 125.58 86.031 128.111 84.3434 130.542C76.3889 141.968 73.0548 154.689 74.1586 168.481C75.1803 181.211 79.942 192.514 88.6035 201.946C91.1121 204.678 92.1429 207.373 92.0744 211.054C91.8646 222.521 91.965 233.992 92.0288 245.463C92.038 247.347 91.6548 248.195 89.5157 248.542C79.9922 250.07 74.1312 257.094 74.04 266.713C74.0263 268.154 74.1175 269.605 74.0172 271.041C73.8439 273.568 74.7242 275.488 76.9545 276.743H119.829C126.123 274.435 128.823 269.965 128.709 263.247C128.499 250.644 128.645 238.038 128.654 225.435C128.654 222.981 128.796 222.867 130.812 223.948C139.934 228.842 149.056 233.746 158.173 238.649C159.017 239.15 159.884 239.62 160.773 240.049C165.362 242.516 169.95 244.984 174.538 247.452C174.789 247.588 175.013 247.775 175.597 248.181C171.104 248.865 167.213 250.133 164.016 253.025C159.911 256.738 157.763 261.335 157.571 266.854C157.526 268.218 157.622 269.591 157.544 270.955C157.403 273.454 158.297 275.393 160.422 276.743H274.677C275.055 276.743 275.447 276.688 275.817 276.752C276.615 276.898 276.779 276.624 276.757 275.826C276.688 273.395 276.734 270.959 276.734 268.528H276.738Z" fill="#FFFFFF"/>
<path d="M276.738 113.452C275.625 120.129 274.22 126.716 271.479 132.964C265.418 146.78 255.926 157.516 242.895 165.115C240.669 166.415 240.683 166.347 242.608 168.107C249.846 174.73 255.324 182.584 258.9 191.734C260.14 194.908 259.215 197.549 256.583 198.644C253.842 199.784 251.31 198.539 249.978 195.214C246.234 185.882 240.3 178.242 232.382 172.089C231.228 171.195 230.147 170.616 228.655 171.254C223.054 173.658 217.572 172.728 212.021 170.839C195.898 165.357 183.387 155.428 174.639 140.814C173.786 139.391 172.746 138.36 171.286 137.562C164.883 134.068 158.547 130.447 152.139 126.957C150.164 125.881 148.846 124.444 148.02 122.337C144.586 113.566 141.028 104.841 137.562 96.079C136.841 94.2545 136.312 92.3571 135.582 90.1587C133.945 92.3662 132.549 94.4096 130.989 96.3207C123.76 105.183 110.191 103.887 104.75 93.8349C103.418 91.3765 102.87 88.7128 102.866 85.9351C102.857 78.6374 102.811 71.3397 102.893 64.042C102.916 62.1401 102.277 61.5471 100.398 61.5699C98.0813 61.6019 96.1109 62.2359 94.3002 63.6726C87.1484 69.3329 79.9237 74.9019 72.813 80.6124C70.7377 82.2772 68.5621 83.0982 65.9075 82.9887C63.0979 82.8701 60.2837 82.9203 57.4696 82.9887C54.0396 83.0708 51.9872 85.6843 52.9039 88.9728C54.0624 93.1416 55.2939 97.3013 56.7261 101.383C58.327 105.954 62.3636 108.718 67.2029 108.768C72.8267 108.827 78.455 108.841 84.0788 108.768C86.9067 108.731 88.8497 109.821 90.0584 112.417C91.0527 114.551 92.2522 116.585 93.3378 118.674C96.4256 124.618 96.0653 130.392 92.3252 135.915C88.3525 141.785 85.5201 148.107 84.357 155.131C81.7572 170.853 85.7482 184.755 96.567 196.368C100.316 200.395 101.999 204.363 101.849 209.896C101.479 223.798 101.73 237.714 101.726 251.625C101.726 256.227 100.033 257.942 95.4267 258.042C94.0584 258.074 92.6901 258.029 91.3218 258.102C87.1666 258.33 83.9192 261.545 83.5452 265.682C83.4311 266.968 83.9009 267.475 85.1917 267.47C95.4541 267.443 105.716 267.479 115.974 267.429C118.446 267.415 119.185 266.439 119.19 263.506C119.208 252.181 119.199 240.856 119.199 229.531C119.199 221.171 119.181 212.81 119.222 204.445C119.235 201.855 120.672 200.053 122.866 199.597C125.101 199.136 127.226 200.176 128.193 202.169C128.608 203.022 128.8 203.953 128.622 204.833C127.528 210.247 129.99 213.034 134.834 215.342C143.947 219.688 152.695 224.792 161.599 229.577C162.128 229.86 162.68 230.101 163.564 230.53C163.327 228.979 163.136 227.688 162.93 226.402C159.961 207.903 173.676 190.233 192.222 188.509C196.026 188.158 199.811 188.222 203.606 188.24C207.059 188.253 209.348 190.324 209.307 193.152C209.266 195.98 206.954 197.859 203.515 197.964C199.574 198.083 195.62 197.649 191.688 198.333C182.055 200.016 174.438 207.446 172.559 217.089C170.689 226.69 175.154 236.665 183.651 241.705C187.505 243.99 191.451 246.129 195.328 248.382C198.219 250.06 199.237 251.949 198.612 254.216C197.918 256.724 196.117 257.983 192.828 258.02C187.355 258.083 181.882 258.001 176.408 258.079C172.121 258.138 168.823 260.592 167.624 264.414C166.88 266.79 167.336 267.452 169.813 267.456C180.076 267.465 190.347 267.785 200.596 267.393C223.328 266.517 239.725 255.766 249.39 235.032C249.741 234.275 250.015 233.476 250.393 232.733C251.643 230.265 254.074 229.299 256.496 230.261C258.882 231.214 260.063 233.673 259.201 236.254C257.874 240.236 255.953 243.949 253.714 247.497C253.062 248.533 252.683 249.249 254.485 249.235C264.3 249.167 274.211 256.542 276.446 267.666C276.506 267.963 276.629 268.241 276.724 268.533C276.724 270.964 276.679 273.399 276.747 275.83C276.77 276.624 276.606 276.898 275.808 276.756C275.438 276.688 275.051 276.747 274.667 276.747H160.413C158.287 275.397 157.389 273.459 157.535 270.959C157.612 269.596 157.517 268.227 157.562 266.859C157.754 261.34 159.902 256.747 164.007 253.03C167.204 250.138 171.095 248.865 175.587 248.186C175.004 247.78 174.78 247.588 174.529 247.456C159.957 239.616 145.384 231.775 130.802 223.953C128.791 222.872 128.65 222.986 128.645 225.44C128.636 238.042 128.494 250.649 128.7 263.251C128.809 269.97 126.114 274.444 119.819 276.747H76.9453C74.7104 275.493 73.8301 273.573 74.008 271.046C74.1083 269.609 74.0171 268.159 74.0308 266.717C74.122 257.098 79.983 250.074 89.5065 248.546C91.6456 248.204 92.0287 247.351 92.0196 245.467C91.9603 233.996 91.8554 222.525 92.0652 211.059C92.1336 207.378 91.1028 204.687 88.5943 201.95C79.9328 192.518 75.171 181.211 74.1494 168.486C73.041 154.693 76.3797 141.968 84.3342 130.547C86.0264 128.116 85.9899 125.589 84.7082 123.007C84.2704 122.123 83.7185 121.288 83.3399 120.38C82.7652 118.994 81.812 118.492 80.3205 118.515C76.3706 118.588 72.4207 118.551 68.4708 118.533C57.7159 118.483 49.9666 112.681 46.8468 102.387C45.6746 98.4644 44.4295 94.5601 43.2117 90.6467C43.2117 88.5167 43.2117 86.3913 43.2117 84.2612C45.2824 78.2498 49.173 74.2086 55.6679 73.3557C58.286 73.0136 60.9861 73.1049 63.6361 73.2508C65.7661 73.3649 67.3853 72.6533 69.0136 71.3489C75.5952 66.0763 82.2772 60.9314 88.8907 55.6953C91.933 53.287 95.3036 52.1012 99.2124 52.1513C106.355 52.2426 113.498 52.1741 120.64 52.1787C129.762 52.1878 136.171 56.7899 138.561 65.6658C143.231 83.0024 148.937 99.965 156.066 116.444C156.422 117.27 156.536 118.291 157.389 118.779C160.577 120.613 163.797 122.392 167.409 124.417C167.163 123.153 167.031 122.424 166.88 121.698C166.05 117.68 165.407 113.653 165.261 109.53C164.746 95.1713 165.17 80.8131 165.024 66.4548C165.015 65.7707 165.07 65.0865 165.092 64.4069C165.197 61.4605 166.648 59.6953 169.521 58.8242C179.04 55.9233 188.532 52.9541 198.01 49.921C204.947 47.6997 212.008 45.8525 218.813 43.2208C220.181 43.2208 221.549 43.2208 222.918 43.2208C223.634 43.4716 224.341 43.7407 225.066 43.9688C240.715 48.8628 256.359 53.7705 272.017 58.6326C273.974 59.2392 275.671 60.1058 276.743 61.9211V113.461L276.738 113.452ZM267.119 90.8748H267.187C267.187 83.8827 267.123 76.8906 267.228 69.903C267.26 67.8825 266.576 66.9702 264.629 66.3727C250.685 62.1081 236.774 57.7386 222.863 53.36C221.554 52.9495 220.377 52.9906 219.095 53.4102C215.702 54.5185 212.286 55.5448 208.879 56.6121C198.224 59.9416 187.569 63.2758 176.91 66.5962C175.706 66.9702 174.671 67.3169 174.698 68.9725C174.944 83.1757 173.804 97.429 175.186 111.573C177.453 134.802 190.005 150.816 211.177 160.312C217.371 163.09 223.273 163.295 229.823 160.819C250.872 152.86 266.412 131.833 267.087 109.343C267.269 103.194 267.114 97.0322 267.114 90.8793L267.119 90.8748ZM112.608 75.1619H112.617C112.617 78.8016 112.585 82.4459 112.627 86.0857C112.658 89.1644 114.246 91.5088 116.704 92.2705C119.464 93.1234 122.027 92.2841 123.915 89.7801C125.466 87.7231 126.734 85.4197 128.453 83.5223C131.601 80.0468 132.704 76.4344 130.465 72.0376C129.758 70.6465 129.603 68.9817 129.101 67.472C128.089 64.4252 126.073 62.4913 122.83 61.8801C121.393 61.611 119.961 61.6338 118.524 61.6292C114.58 61.6232 112.608 63.557 112.608 67.4309C112.608 70.0079 112.608 72.5895 112.608 75.1665V75.1619ZM234.699 267.452C244.724 267.452 254.745 267.438 264.77 267.465C266.143 267.465 266.398 267.037 265.723 265.865C263.675 262.33 260.756 259.958 256.72 259.091C253.185 258.33 249.6 258.749 246.038 258.663C245.312 258.644 244.71 258.909 244.186 259.402C241.18 262.197 238.01 264.779 234.703 267.452H234.699Z" fill="#0F2830"/>
<path d="M112.608 75.1619H112.617C112.617 78.8017 112.585 82.446 112.626 86.0857C112.658 89.1644 114.246 91.5088 116.704 92.2705C119.463 93.1234 122.027 92.2842 123.915 89.7801C125.466 87.7231 126.734 85.4198 128.453 83.5224C131.6 80.0468 132.704 76.4345 130.465 72.0376C129.758 70.6465 129.603 68.9817 129.101 67.472C128.088 64.4252 126.072 62.4913 122.83 61.8801C121.393 61.611 119.961 61.6338 118.524 61.6293C114.58 61.6232 112.608 63.5571 112.608 67.4309C112.608 70.0079 112.608 72.5895 112.608 75.1665V75.1619Z" fill="#FF6A39"/>
<path d="M234.699 267.452C244.724 267.452 254.745 267.438 264.77 267.466C266.143 267.466 266.398 267.037 265.723 265.865C263.675 262.33 260.756 259.958 256.72 259.091C253.185 258.33 249.6 258.749 246.038 258.663C245.312 258.644 244.71 258.909 244.186 259.402C241.18 262.197 238.01 264.779 234.703 267.452H234.699Z" fill="#FF6A39"/>
<path d="M267.228 69.903C267.26 67.8825 266.576 66.9703 264.628 66.3728C250.685 62.1082 236.774 57.7387 222.863 53.36C221.554 52.9495 220.377 52.9906 219.095 53.4102C215.702 54.5185 212.286 55.5448 208.879 56.6121C198.224 59.9417 187.569 63.2758 176.91 66.5962C175.706 66.9703 174.671 67.3169 174.698 68.9726C174.944 83.1757 173.804 97.429 175.186 111.573C177.453 134.802 190.005 150.816 211.177 160.312C217.371 163.09 223.273 163.295 229.823 160.819C250.872 152.86 266.412 131.833 267.087 109.343C267.269 103.194 267.114 97.0322 267.114 90.8793C267.137 90.8793 267.16 90.8793 267.183 90.8793C267.183 83.8872 267.119 76.8951 267.224 69.9076L267.228 69.903ZM257.709 116.024C253.431 134.72 242.197 147.231 224.103 153.594C222.087 154.301 220.108 154.333 218.087 153.621C199.205 146.949 187.761 133.84 184.034 114.123C183.286 110.159 183.286 106.113 183.273 102.09C183.25 94.4187 183.236 86.7425 183.282 79.0708C183.309 74.5553 184.208 73.3694 188.513 72.0194C198.511 68.8768 208.523 65.7798 218.516 62.6372C220.254 62.0899 221.932 62.1036 223.656 62.6464C233.869 65.8528 244.095 69.0227 254.307 72.2474C257.714 73.3238 258.631 74.6648 258.64 78.268C258.653 83.4357 258.64 88.6034 258.64 94.9341C258.348 101.192 259.388 108.681 257.709 116.029V116.024Z" fill="#FF6A39"/>
<path d="M87.6046 91.1941C85.0231 91.185 82.8292 89.0002 82.8064 86.4186C82.779 83.8873 85.0596 81.593 87.5818 81.6067C90.1497 81.6204 92.3664 83.828 92.3938 86.3958C92.4211 88.9181 90.136 91.2078 87.6046 91.1941Z" fill="#0F2830"/>
<path d="M263.16 214.557C263.105 217.102 260.811 219.323 258.289 219.273C255.753 219.223 253.572 216.929 253.627 214.361C253.687 211.793 255.94 209.604 258.489 209.645C260.98 209.681 263.215 212.035 263.16 214.557Z" fill="#FF6A39"/>
<path d="M258.64 94.9296C258.348 101.187 259.388 108.677 257.709 116.024C253.431 134.72 242.197 147.231 224.103 153.594C222.087 154.301 220.108 154.333 218.087 153.621C199.205 146.949 187.761 133.84 184.035 114.123C183.287 110.159 183.287 106.113 183.273 102.09C183.25 94.4187 183.236 86.7425 183.282 79.0708C183.309 74.5553 184.208 73.3694 188.514 72.0193C198.511 68.8768 208.523 65.7798 218.516 62.6372C220.254 62.0899 221.932 62.1036 223.657 62.6464C233.869 65.8528 244.095 69.0227 254.307 72.2474C257.714 73.3238 258.631 74.6648 258.64 78.268C258.654 83.4357 258.64 88.6034 258.64 94.9341V94.9296ZM248.943 97.8213C248.943 92.161 248.897 87.527 248.966 82.8929C248.989 81.2783 248.432 80.4117 246.836 79.9282C238.767 77.4881 230.726 74.9658 222.68 72.4527C221.709 72.1471 220.788 72.0239 219.789 72.3386C211.383 74.9749 202.977 77.6021 194.561 80.1973C193.449 80.5394 192.933 81.1369 192.961 82.3182C193.17 91.8052 192.235 101.342 193.412 110.779C195.424 126.925 204.363 137.872 219.438 143.883C220.473 144.294 221.44 144.349 222.516 143.934C236.601 138.488 245.244 128.394 248.327 113.621C249.486 108.07 248.751 102.405 248.948 97.8213H248.943Z" fill="#0F2830"/>
<path d="M201.741 106.136C201.731 102.264 205.394 100.015 208.641 101.671C209.818 102.273 210.625 103.304 211.583 104.161C213.38 105.767 214.744 108.8 216.901 108.809C219.196 108.818 220.614 105.789 222.402 104.079C225.531 101.087 228.541 97.9764 231.606 94.9205C232.888 93.6388 234.338 92.6855 236.245 92.9546C239.506 93.4199 241.34 96.941 239.83 99.8738C239.424 100.667 238.808 101.383 238.174 102.022C232.61 107.623 227.036 113.219 221.426 118.779C218.11 122.063 215.77 122.031 212.477 118.761C209.517 115.819 206.575 112.85 203.615 109.908C202.498 108.8 201.663 107.577 201.745 106.141L201.741 106.136Z" fill="#FF6A39"/>
</g>
<defs>
<clipPath id="clip0_1141_362">
<rect width="233.554" height="233.577" fill="#FFFFFF" transform="translate(43.2117 43.2117)"/>
</clipPath>
</defs>
</svg>
