<svg width="320" height="320" viewBox="0 0 320 320" fill="none" xmlns="http://www.w3.org/2000/svg">
<circle opacity="0.5" cx="160" cy="160" r="140.146" fill="#F6EB61"/>
<g>
  <path d="M76.8992 272.117H222.89C226.236 271.334 229.413 270.131 232.339 268.286C234.108 267.171 235.947 267.206 237.693 268.315C240.555 270.131 243.667 271.288 246.925 272.117H255.229C263.854 270.26 270.26 265.53 273.693 257.291C276.607 250.301 276.274 243.282 272.712 236.596C271.661 234.628 271.988 233.851 273.752 232.672C281.448 227.515 284.864 217.787 282.026 209.431C280.169 203.959 276.444 200.42 270.709 199.34C268.958 199.007 268.374 198.242 268.485 196.561C268.765 192.275 268.181 188.129 266.306 184.204C260.502 172.041 246.184 168.602 236.636 178.809C236.49 178.961 236.304 179.083 236.012 179.323C235.527 178.476 235.743 177.612 235.743 176.806C235.725 147.107 235.743 117.402 235.725 87.7022C235.72 76.3387 228.391 67.4979 217.325 65.4833C216.052 65.2497 214.721 65.2438 213.413 65.2438C203.585 65.2263 193.752 65.1971 183.918 65.2672C182.108 65.2789 181.022 64.8526 180.222 63.0482C178.791 59.8365 176.117 58.2307 172.561 58.2307C170.231 58.2307 167.901 58.2073 165.571 58.2307C164.566 58.2424 163.702 58.0847 163.171 57.092C160.572 52.2161 156.339 49.4599 151.206 47.8833C151.206 47.8833 149.781 47.2993 147.264 47.2993C144.747 47.2993 143.34 47.8833 143.34 47.8833C138.12 49.4599 133.892 52.3154 131.264 57.2497C130.774 58.1606 129.909 58.2249 129.004 58.2249C126.75 58.219 124.496 58.2541 122.242 58.2249C118.412 58.1723 115.673 59.9241 114.131 63.3752C113.489 64.8117 112.625 65.2614 111.124 65.2555C101.822 65.2088 92.4963 65.5767 83.2116 65.1504C69.7109 64.5256 60.9576 73.3723 58.978 83.3577V254.161C61.2963 263.807 67.2934 269.775 76.8992 272.117Z" fill="#FFFFFF"/>
  <path d="M193.577 208.467V224.818L204.964 232.117L199.124 245.839L204.964 261.022L220.73 267.445L232.409 263.358L243.796 265.693H259.27L267.445 257.518V241.752L270.073 232.117L277.664 220.146L275.912 208.467L267.445 202.044L263.066 194.745L259.27 180.73L247.007 177.81L234.453 185.11L224.526 177.81L209.635 180.73L204.964 202.044L193.577 208.467Z" fill="#FF6A39"/>
  <path d="M222.89 272.117H76.8992C67.2934 269.775 61.2963 263.807 58.978 254.161V83.3577C60.9576 73.3723 69.7109 64.5256 83.2116 65.1504C92.4963 65.5767 101.822 65.2088 111.124 65.2555C112.625 65.2614 113.489 64.8117 114.131 63.3752C115.673 59.9241 118.412 58.1723 122.242 58.2249C124.496 58.2541 126.75 58.219 129.004 58.2249C129.909 58.2249 130.774 58.1606 131.264 57.2497C133.892 52.3154 138.12 49.4599 143.34 47.8833C143.34 47.8833 144.747 47.2993 147.264 47.2993C149.781 47.2993 151.206 47.8833 151.206 47.8833C156.339 49.4599 160.572 52.2161 163.171 57.092C163.702 58.0847 164.566 58.2424 165.571 58.2307C167.901 58.2073 170.231 58.2307 172.561 58.2307C176.117 58.2307 178.791 59.8365 180.222 63.0482C181.022 64.8526 182.108 65.2789 183.918 65.2672C193.752 65.1971 203.585 65.2263 213.413 65.2438C214.721 65.2438 216.052 65.2497 217.325 65.4833C228.391 67.4979 235.72 76.3387 235.725 87.7022C235.743 117.402 235.725 147.107 235.743 176.806C235.743 177.612 235.527 178.476 236.012 179.323C236.304 179.083 236.49 178.961 236.636 178.809C246.184 168.602 260.502 172.041 266.306 184.204C268.181 188.129 268.765 192.275 268.485 196.561C268.374 198.242 268.958 199.007 270.709 199.34C276.444 200.42 280.169 203.959 282.026 209.431C284.864 217.787 281.448 227.515 273.752 232.672C271.988 233.851 271.661 234.628 272.712 236.596C276.274 243.282 276.607 250.301 273.693 257.291C270.26 265.53 263.854 270.26 255.229 272.117H246.925C243.667 271.288 240.555 270.131 237.693 268.315C235.947 267.206 234.108 267.171 232.339 268.286C229.413 270.131 226.236 271.334 222.89 272.117ZM87.124 168.712C87.124 192.87 87.1299 217.028 87.1065 241.18C87.1065 242.838 87.2583 243.948 89.4014 243.942C123.778 243.895 158.161 243.901 192.537 243.936C194.026 243.936 194.85 243.445 195.171 241.974C195.638 239.819 196.45 237.775 197.612 235.912C198.412 234.634 198.225 233.974 196.94 233.15C191.124 229.419 187.807 224.029 187.054 217.168C186.213 209.536 190.558 200.438 199.953 199.235C201.378 199.054 201.629 198.312 201.506 196.958C200.969 191.159 202.231 185.74 205.647 181.01C206.972 179.177 207.474 177.372 207.457 175.159C207.375 165.524 207.398 155.895 207.439 146.26C207.451 142.873 209.857 140.841 212.958 141.448C215.13 141.875 216.479 143.65 216.49 146.295C216.52 154.324 216.496 162.353 216.508 170.377C216.508 172.917 216.73 173.115 219.311 172.864C221.004 172.701 222.68 172.823 224.28 173.32C226.143 173.892 226.709 173.337 226.686 171.404C226.604 164.181 226.651 156.952 226.651 149.729C226.651 129.296 226.674 108.858 226.639 88.4263C226.628 80.7709 222.406 75.2526 215.089 74.6511C204.28 73.7577 193.401 74.4234 182.558 74.3592C181.431 74.3533 181.098 75.1241 181.104 76.1285C181.104 77.9504 181.092 79.7782 181.104 81.6C181.115 84.4497 181.15 84.4906 184.093 84.4906C193.127 84.4906 202.155 84.4789 211.188 84.5022C214.896 84.5081 216.479 86.1198 216.496 89.8628C216.52 95.2643 216.525 100.666 216.49 106.061C216.467 109.092 214.563 111.101 211.883 111.048C209.285 111.002 207.48 109.039 207.439 106.12C207.398 102.984 207.428 99.8424 207.422 96.7066C207.422 93.6059 207.416 93.5942 204.432 93.5942C166.336 93.5942 128.245 93.5942 90.1488 93.5942C87.1357 93.5942 87.124 93.6059 87.124 96.6774C87.124 120.689 87.124 144.701 87.124 168.707V168.712ZM67.889 168.607C67.889 195.323 67.889 222.032 67.889 248.748C67.889 253.448 69.2612 257.507 73.1153 260.473C75.9182 262.628 79.1649 263.194 82.5868 263.194C120.613 263.194 158.633 263.194 196.66 263.194C196.806 263.194 196.952 263.212 197.098 263.194C197.728 263.118 198.546 263.486 198.943 262.879C199.387 262.196 198.604 261.693 198.283 261.18C197.238 259.498 196.187 257.775 195.778 255.854C195.288 253.53 194.079 252.969 191.801 252.975C155.965 253.045 120.123 253.028 84.2861 253.022C79.3576 253.022 78.0496 251.72 78.0496 246.826C78.0496 194.785 78.0496 142.75 78.0496 90.7095C78.0496 85.8044 79.3459 84.5139 84.2744 84.5081C93.162 84.5081 102.05 84.4672 110.937 84.5373C112.829 84.5548 113.606 83.93 113.477 82.0088C113.361 80.2628 113.378 78.5052 113.477 76.7592C113.577 74.9723 112.899 74.3008 111.083 74.3125C101.25 74.3708 91.416 74.3125 81.5824 74.3592C77.6466 74.3825 74.1547 75.6322 71.4043 78.6161C68.7123 81.5417 67.9007 85.0803 67.9007 88.9168C67.9007 115.486 67.9007 142.05 67.9007 168.619L67.889 168.607ZM203.76 245.606C203.725 259.673 216.222 267.002 226.417 260.94C232.309 257.437 237.88 257.285 243.615 261.01C245.939 262.523 248.607 263.107 251.317 263.118C258.055 263.148 264.076 258.394 265.787 251.883C267.579 245.08 264.753 238.009 258.517 234.75C253.74 232.257 250.803 228.666 249.308 223.48C247.463 217.063 241.664 213.092 234.978 213.098C228.298 213.104 222.493 217.115 220.666 223.515C219.182 228.718 216.181 232.239 211.439 234.774C206.377 237.477 203.825 242.015 203.749 245.612L203.76 245.606ZM147.171 84.5022C154.674 84.5022 162.172 84.473 169.67 84.5256C171.311 84.5373 172.07 84.0351 172.035 82.2716C171.959 78.0438 171.959 73.8044 172.035 69.5767C172.064 67.8365 171.352 67.2584 169.688 67.3052C166.779 67.3811 163.86 67.346 160.952 67.3168C158.137 67.2876 156.829 66.3358 155.883 63.7314C154.312 59.4044 151.118 56.8526 147.264 56.8584C143.428 56.8584 140.216 59.4278 138.651 63.7431C137.711 66.3475 136.397 67.2935 133.571 67.3227C130.657 67.3519 127.743 67.3927 124.835 67.311C123.159 67.2643 122.47 67.8774 122.499 69.6C122.575 73.6117 122.517 77.6234 122.523 81.6409C122.523 84.438 122.593 84.5081 125.314 84.5081C132.596 84.5139 139.877 84.5081 147.159 84.5081L147.171 84.5022ZM250.266 207.188C252.274 207.247 254.271 206.009 255.953 204.169C260.49 199.2 260.455 190.032 255.912 185.069C252.099 180.905 246.587 181.092 243.054 185.512C239.147 190.394 239.025 198.523 242.82 203.48C244.537 205.717 246.727 207.165 250.266 207.188ZM210.744 194.71C210.686 198.266 211.667 201.483 214.05 204.169C217.617 208.193 222.809 208.234 226.464 204.327C231.077 199.399 231.106 189.991 226.517 185.034C222.809 181.028 217.512 181.08 213.95 185.215C211.615 187.93 210.645 191.148 210.739 194.71H210.744ZM258.838 219.615C259.007 222.184 259.632 224.73 262.394 225.962C265.127 227.183 267.527 226.108 269.623 224.321C272.321 222.02 273.688 218.955 273.746 215.48C273.793 212.794 273.092 210.196 270.336 208.888C267.679 207.62 265.337 208.619 263.27 210.295C260.397 212.625 259.013 215.749 258.838 219.615ZM211.036 219.41C211.031 214.984 208.549 210.844 204.876 209.115C200.812 207.2 196.946 209.302 196.415 213.781C195.924 217.892 197.197 221.413 200.274 224.187C202.382 226.085 204.829 227.223 207.65 225.956C210.412 224.718 211.054 222.19 211.036 219.416V219.41Z" fill="#0F2830"/>
  <path d="M169.67 84.5256C162.172 84.473 154.674 84.5022 147.171 84.5022L147.159 84.508C139.877 84.508 132.596 84.5139 125.314 84.508C122.593 84.508 122.523 84.438 122.523 81.6409C122.517 77.6234 122.575 73.6117 122.499 69.6C122.47 67.8774 123.159 67.2642 124.835 67.311C127.743 67.3927 130.657 67.3518 133.571 67.3226C136.397 67.2934 137.711 66.3475 138.651 63.7431C140.216 59.4278 143.428 56.8584 147.264 56.8584C151.118 56.8526 154.312 59.4044 155.883 63.7314C156.829 66.3358 158.137 67.2876 160.952 67.3168C163.86 67.346 166.779 67.381 169.687 67.3051C171.352 67.2584 172.064 67.8365 172.035 69.5767C171.959 73.8044 171.959 78.0438 172.035 82.2715C172.07 84.035 171.311 84.5372 169.67 84.5256Z" fill="#FF6A39"/>
  <path d="M162.131 192.716C154.774 192.716 147.422 192.716 140.064 192.716C138.044 192.716 136.537 191.864 135.72 189.995C134.943 188.226 135.247 186.556 136.508 185.102C137.483 183.981 138.774 183.619 140.234 183.619C154.943 183.63 169.658 183.619 184.368 183.636C187.399 183.636 189.39 185.563 189.337 188.255C189.285 190.865 187.34 192.687 184.415 192.699C176.987 192.734 169.559 192.711 162.126 192.711L162.131 192.716Z" fill="#BE531C"/>
  <path d="M114.628 192.699C111.72 192.693 105.238 186.281 105.214 183.35C105.203 181.511 106.038 180.086 107.679 179.274C109.46 178.392 111.346 178.451 112.765 179.864C114.301 181.4 115.346 181.184 116.648 179.642C117.816 178.252 119.165 177.003 120.52 175.788C122.546 173.966 125.255 173.978 127.025 175.706C128.841 177.487 128.987 180.162 127.077 182.194C124.087 185.382 120.94 188.424 117.822 191.49C116.963 192.331 115.871 192.757 114.639 192.693L114.628 192.699Z" fill="#FF6A39"/>
  <path d="M162.131 160.399C154.774 160.399 147.422 160.399 140.064 160.399C138.044 160.399 136.537 159.547 135.72 157.678C134.943 155.909 135.247 154.239 136.508 152.785C137.483 151.663 138.774 151.301 140.234 151.301C154.943 151.313 169.658 151.301 184.368 151.319C187.399 151.319 189.39 153.246 189.337 155.938C189.285 158.548 187.34 160.37 184.415 160.382C176.987 160.417 169.559 160.393 162.126 160.393L162.131 160.399Z" fill="#BE531C"/>
  <path d="M114.628 160.382C111.72 160.376 105.238 153.964 105.214 151.033C105.203 149.193 106.038 147.769 107.679 146.957C109.46 146.075 111.346 146.133 112.765 147.547C114.301 149.082 115.346 148.866 116.648 147.325C117.816 145.935 119.165 144.685 120.52 143.471C122.546 141.649 125.255 141.661 127.025 143.389C128.841 145.17 128.987 147.844 127.077 149.877C124.087 153.065 120.94 156.107 117.822 159.173C116.963 160.014 115.871 160.44 114.639 160.376L114.628 160.382Z" fill="#FF6A39"/>
  <path d="M162.131 128.082C154.774 128.082 147.422 128.082 140.064 128.082C138.044 128.082 136.537 127.229 135.72 125.361C134.943 123.591 135.247 121.921 136.508 120.467C137.483 119.346 138.774 118.984 140.234 118.984C154.943 118.996 169.658 118.984 184.368 119.002C187.399 119.002 189.39 120.929 189.337 123.621C189.285 126.231 187.34 128.053 184.415 128.064C176.987 128.099 169.559 128.076 162.126 128.076L162.131 128.082Z" fill="#BE531C"/>
  <path d="M114.628 128.064C111.72 128.059 105.238 121.647 105.214 118.716C105.203 116.876 106.038 115.451 107.679 114.64C109.46 113.758 111.346 113.816 112.765 115.229C114.301 116.765 115.346 116.549 116.648 115.007C117.816 113.618 119.165 112.368 120.52 111.153C122.546 109.332 125.255 109.343 127.025 111.072C128.841 112.853 128.987 115.527 127.077 117.559C124.087 120.748 120.94 123.79 117.822 126.856C116.963 127.697 115.871 128.123 114.639 128.059L114.628 128.064Z" fill="#FF6A39"/>
  <path d="M150.984 225.035C147.422 225.035 143.854 225.064 140.292 225.023C137.226 224.988 135.299 223.161 135.334 220.422C135.369 217.777 137.261 215.972 140.205 215.961C147.475 215.926 154.751 215.926 162.021 215.961C164.905 215.978 166.885 217.859 166.914 220.445C166.943 223.085 164.888 225 161.886 225.029C158.248 225.064 154.616 225.041 150.978 225.035H150.984Z" fill="#BE531C"/>
  <path d="M114.809 225.023C111.714 225.012 105.226 218.6 105.209 215.669C105.197 213.829 106.032 212.405 107.673 211.593C109.454 210.711 111.34 210.775 112.759 212.188C114.295 213.724 115.34 213.502 116.642 211.961C117.81 210.571 119.159 209.321 120.514 208.107C122.546 206.285 125.244 206.291 127.019 208.031C128.835 209.812 128.981 212.486 127.066 214.518C124.076 217.707 120.929 220.749 117.81 223.815C116.952 224.656 115.866 225.088 114.815 225.018L114.809 225.023Z" fill="#FF6A39"/>
  <path d="M216.479 126.085C216.531 128.666 214.558 130.739 212.012 130.768C209.472 130.797 207.439 128.765 207.439 126.19C207.439 123.661 209.296 121.728 211.796 121.653C214.4 121.577 216.426 123.492 216.479 126.079V126.085Z" fill="#FF6A39"/>
</g>
</svg>
