<svg width="320" height="320" viewBox="0 0 320 320" fill="none" xmlns="http://www.w3.org/2000/svg">
<circle opacity="0.5" cx="160" cy="160" r="140.146" fill="#F6EB61"/>
<g clip-path="url(#clip0_1141_363)">
<path d="M155.405 212.938C156.954 213.019 158.525 213.056 160.214 213.056C164.957 213.056 169.722 212.732 174.199 212.4C187.867 211.389 201.38 207.959 215.513 201.926C223.11 198.68 227.853 190.176 226.547 182.136C224.866 171.757 217.408 165.06 207.546 165.06C205.614 165.06 203.622 165.326 201.616 165.842C199.492 166.395 197.331 166.985 195.243 167.561C189.718 169.08 184.002 170.651 178.197 171.603C177.127 171.78 176.095 171.868 175.114 171.868C171.765 171.868 168.822 170.821 166.366 168.748C163.098 165.997 161.402 162.257 161.711 158.481C162.021 154.733 164.278 151.34 167.907 149.179C169.198 148.412 170.518 147.652 171.802 146.922C174.361 145.462 177.002 143.957 179.451 142.29C187.461 136.854 190.891 129.559 189.932 119.992C189.416 114.784 186.746 110.543 183.928 106.051C183.677 105.653 183.427 105.255 183.183 104.856C180.97 101.308 177.518 99.2799 173.705 99.2725C171.876 99.2725 170.046 99.7299 168.254 100.63C165.982 101.773 163.806 102.326 161.593 102.326C159.55 102.326 157.522 101.854 155.383 100.881C150.765 98.7783 145.89 97.7162 140.874 97.7162C139.111 97.7162 137.289 97.8489 135.467 98.1071C127.656 99.2209 120.907 103.403 114.954 107.099C108.072 111.369 103.477 117.344 101.662 124.381C99.8479 131.418 100.991 138.867 104.96 145.919C105.505 146.885 106.014 148.036 105.668 149.238C105.328 150.433 104.296 151.119 103.44 151.591C100.357 153.273 97.2736 155.102 94.2937 156.865C93.3791 157.411 92.457 157.949 91.5424 158.495L47.7652 184.12L47.7283 184.142L47.6841 184.164C44.7705 185.632 42.0118 187.461 39.4818 189.608C37.6673 191.149 36.1626 192.964 34.4218 195.059C33.6842 195.951 32.9171 196.873 32.0762 197.832L30.0183 200.185L29.5167 197.094C26.5515 178.934 31.7074 171.226 37.1436 166.085C39.4523 163.902 39.8433 161.254 38.1394 159.351C37.3354 158.451 36.3249 157.979 35.2111 157.979C33.9571 157.979 32.622 158.547 31.3534 159.631C27.7907 162.67 25.032 166.484 22.9225 171.3C21.757 173.97 21.1227 176.758 20.4515 179.716C20.2597 180.565 20.0605 181.435 19.854 182.298V193.052C20.9604 199.027 22.502 205.275 26.2417 210.578C27.1121 211.81 27.031 213.123 26.9572 214.177C26.9424 214.355 26.9351 214.524 26.9277 214.701C26.4851 227.668 31.1542 237.936 41.2078 246.101C45.1688 249.317 46.2162 253.249 44.4091 258.124C42.6904 262.779 40.8759 267.485 39.1278 272.036L38.5229 273.614C36.3175 279.367 36.2511 284.833 38.3385 289.436C40.4333 294.061 44.623 297.638 50.4575 299.785C50.7525 299.895 51.0254 300.028 51.2688 300.139C51.2688 300.139 51.2688 300.139 51.2762 300.139H59.5301C64.8483 298.28 68.2855 295.919 70.6606 292.519C72.1432 290.395 73.6775 288.256 75.1674 286.198C77.4909 282.974 79.8881 279.64 82.1157 276.292C89.4402 265.257 93.1799 253.286 93.2315 240.702C93.2463 237.877 94.3158 236.306 96.927 235.281C112.69 229.062 128.688 222.667 144.156 216.486L150.765 213.846C152.351 213.211 153.642 212.931 154.955 212.931C155.102 212.931 155.257 212.931 155.412 212.946L155.405 212.938Z" fill="#FFFFFF"/>
<path d="M155.405 212.938C156.954 213.019 158.525 213.056 160.214 213.056C164.957 213.056 169.722 212.732 174.199 212.4C187.867 211.389 201.38 207.959 215.513 201.926C223.11 198.68 227.853 190.176 226.547 182.136C224.866 171.758 217.408 165.06 207.546 165.06C205.614 165.06 203.622 165.326 201.616 165.842C199.492 166.395 197.331 166.985 195.243 167.561C189.718 169.08 184.002 170.651 178.197 171.603C177.127 171.78 176.095 171.868 175.114 171.868C171.765 171.868 168.822 170.821 166.366 168.748C163.098 165.997 161.401 162.257 161.711 158.481C162.021 154.733 164.278 151.34 167.907 149.179C169.198 148.412 170.518 147.652 171.802 146.922C174.361 145.462 177.002 143.957 179.451 142.29C187.461 136.854 190.891 129.559 189.932 119.992C189.416 114.784 186.746 110.543 183.928 106.051C183.677 105.653 183.427 105.255 183.176 104.856C180.963 101.308 177.511 99.2725 173.697 99.2725C171.868 99.2725 170.032 99.7299 168.247 100.63C165.975 101.773 163.799 102.326 161.586 102.326C159.543 102.326 157.514 101.854 155.375 100.881C150.758 98.7783 145.882 97.7162 140.866 97.7162C139.104 97.7162 137.282 97.8489 135.46 98.1071C127.648 99.2209 120.899 103.403 114.947 107.099C108.065 111.369 103.47 117.344 101.655 124.381C99.8405 131.418 100.984 138.867 104.952 145.919C105.498 146.885 106.007 148.036 105.66 149.238C105.321 150.433 104.288 151.119 103.433 151.591C100.349 153.273 97.2662 155.102 94.2863 156.865C93.3716 157.411 92.4496 157.949 91.535 158.495C89.5729 159.646 88.7468 161.077 88.9386 162.98C89.1746 165.436 90.7605 167.015 92.9733 167.015C93.8216 167.015 94.6993 166.786 95.5845 166.329C99.184 164.477 102.732 162.331 106.162 160.258C106.907 159.808 107.652 159.358 108.397 158.908C109.363 158.326 110.211 158.06 111.067 158.06C112.018 158.06 112.933 158.392 113.958 159.1C118.259 162.08 122.611 163.592 126.896 163.592C131.543 163.592 136.197 161.815 140.741 158.311C141.331 157.861 142.246 157.256 143.448 157.256C144.045 157.256 144.643 157.404 145.27 157.699L145.425 157.772C146.509 158.281 147.534 158.761 148.567 159.004C152.049 159.816 153.111 162.301 153.649 164.374C156.194 174.184 164.75 180.778 174.929 180.778C176.043 180.778 177.172 180.697 178.293 180.535C185.197 179.539 192.042 177.658 198.666 175.844C200.31 175.394 201.963 174.937 203.608 174.501C204.802 174.184 205.99 174.022 207.141 174.022C211.994 174.022 215.793 176.818 217.29 181.501C219.068 187.07 216.184 192.315 210.113 194.557C209 194.97 207.864 195.368 206.765 195.759C205.717 196.128 204.662 196.504 203.615 196.888C190.338 201.771 176.05 204.249 161.143 204.249C156.459 204.249 151.613 204.006 146.745 203.526C142.179 203.076 137.68 201.977 132.996 200.163C132.266 199.883 131.543 199.735 130.842 199.735C129.065 199.735 127.626 200.657 126.896 202.258C125.849 204.574 126.704 206.86 129.197 208.358C129.249 208.387 129.308 208.417 129.367 208.446C129.839 208.675 130.828 209.147 131.167 210.578L131.462 211.81L130.282 212.289L127.862 213.27C126.077 213.993 124.278 214.723 122.478 215.446C120.022 216.435 117.565 217.416 115.102 218.404C109.12 220.801 102.938 223.272 96.8753 225.758C96.0049 226.112 95.3042 226.282 94.6698 226.282C93.6741 226.282 91.948 225.846 91.6014 222.933C91.5645 222.616 91.4465 222.247 91.3285 221.908C90.6572 219.96 89.123 218.847 87.1093 218.847C86.8143 218.847 86.5119 218.869 86.2094 218.92C84.004 219.274 82.6099 220.986 82.6542 223.28C82.6763 224.401 82.9197 225.551 83.1779 226.768L83.2442 227.093C84.5498 233.348 84.7785 239.802 83.945 246.817C82.0272 262.941 72.512 275.111 63.2992 286.876L62.0232 288.507C60.4816 290.476 58.2466 291.56 55.7092 291.56C53.8578 291.56 51.9769 290.985 50.273 289.901C46.2826 287.363 44.6377 282.805 46.1793 278.556C48.075 273.341 50.155 267.853 52.3531 262.233C55.9969 252.939 53.7029 244.427 45.8916 238.275C36.2732 230.7 33.0424 217.039 38.2131 205.806C41.4881 198.68 47.3078 194.623 52.0064 191.88C53.1718 191.201 53.9832 190.176 54.293 188.995C54.5733 187.919 54.411 186.797 53.8357 185.824C52.9506 184.334 51.6229 183.515 50.0886 183.515C49.2994 183.515 48.4806 183.729 47.6545 184.142C44.741 185.61 41.9823 187.439 39.4523 189.586C37.6378 191.127 36.133 192.942 34.3923 195.036C33.6547 195.929 32.8876 196.851 32.0467 197.81L29.9887 200.163L29.4872 197.072C26.522 178.912 31.6779 171.204 37.1141 166.063C39.4228 163.88 39.8137 161.232 38.1098 159.329C37.3058 158.429 36.2953 157.957 35.1815 157.957C33.9276 157.957 32.5925 158.532 31.3238 159.609C27.7612 162.648 25.0025 166.461 22.8929 171.278C21.7275 173.948 21.0932 176.736 20.4219 179.694C20.2301 180.542 20.031 181.413 19.8245 182.276V193.03C20.9309 199.005 22.4725 205.252 26.2122 210.556C27.0826 211.788 27.0014 213.101 26.9277 214.155C26.9129 214.332 26.9055 214.502 26.8982 214.679C26.4556 227.646 31.1247 237.914 41.1783 246.079C45.1393 249.295 46.1867 253.227 44.3795 258.102C42.6609 262.757 40.8464 267.462 39.0982 272.014L38.4934 273.592C36.2879 279.345 36.2216 284.811 38.309 289.414C40.4038 294.039 44.5934 297.616 50.4279 299.762C50.723 299.873 50.9959 300.006 51.2393 300.116C51.2393 300.116 51.2393 300.116 51.2467 300.116H59.5005C64.8187 298.258 68.256 295.897 70.6311 292.497C72.1137 290.373 73.6479 288.234 75.1379 286.176C77.4614 282.952 79.8586 279.618 82.0862 276.27C89.4107 265.235 93.1504 253.263 93.202 240.68C93.2167 237.855 94.2863 236.284 96.8974 235.258C112.66 229.04 128.666 222.645 144.141 216.457L150.743 213.816C152.329 213.182 153.62 212.901 154.933 212.901C155.08 212.901 155.235 212.901 155.39 212.916L155.405 212.938ZM132.745 152.771C130.813 153.841 128.711 154.409 126.667 154.409C122.832 154.409 119.387 152.476 117.226 149.098C115.234 145.993 113.427 142.74 111.782 139.679C110.359 137.046 109.732 134.154 109.747 130.289V130.245V130.201C110.13 123.687 113.685 118.155 119.749 114.637C120.471 114.217 121.121 114.017 121.74 114.017C122.839 114.017 123.761 114.63 124.462 115.839C125.827 118.177 127.228 120.545 128.593 122.839C131.491 127.722 134.493 132.767 137.252 137.85C140.114 143.116 138.086 149.806 132.738 152.771H132.745ZM155.759 148.154C155.685 148.272 155.619 148.39 155.545 148.508C155.095 149.283 154.35 150.573 152.72 150.573C152.233 150.573 151.731 150.448 151.186 150.197C150.972 150.101 150.743 150.005 150.5 149.909C149.172 149.386 146.952 148.501 147.328 145.425C147.394 144.908 147.372 144.355 147.35 143.765C147.343 143.478 147.328 143.19 147.328 142.917V142.792C147.748 137.982 145.823 133.94 143.677 130.289C142.681 128.6 141.7 126.903 140.712 125.214C138.27 121.025 135.74 116.688 133.188 112.476C132.598 111.509 132 110.241 132.531 109.024C133.062 107.807 134.405 107.394 135.519 107.165C137.363 106.789 139.207 106.604 140.992 106.604C144.702 106.604 148.331 107.423 151.776 109.031C155.117 110.595 158.451 111.384 161.689 111.384C164.927 111.384 167.937 110.654 171.005 109.208C171.853 108.81 172.554 108.625 173.218 108.625C175.276 108.625 176.176 110.418 176.471 111.008C176.913 111.886 177.437 112.719 177.99 113.612C178.462 114.364 178.949 115.146 179.392 115.965C183.22 123.075 181.051 130.953 174.103 135.113C170.467 137.289 166.225 139.819 161.977 142.275C159.299 143.824 157.263 145.749 155.751 148.161L155.759 148.154Z" fill="#0F2830"/>
<path d="M285.534 66.1612C285.077 66.1096 284.634 66.0432 284.206 65.9768C283.557 65.8809 282.945 65.785 282.347 65.7629C281.647 65.7334 280.002 65.6596 279.419 64.3393C278.829 63.0116 279.913 61.7134 280.43 61.0864C284.413 56.2846 288.462 51.3205 292.46 46.3342C295.801 42.1667 296.989 37.837 296.089 33.0941C295.263 28.7275 293.264 25.3713 290.033 22.952C287.23 20.8572 283.764 19.854 280.267 19.854C276.351 19.854 272.5 21.1522 269.52 23.697C268.333 24.7075 267.197 25.895 266.091 27.2744C258.869 36.2437 251.449 45.2942 244.272 54.0496C241.174 57.8262 238.083 61.5954 234.993 65.3793C233.053 67.7544 231.113 70.1222 229.166 72.4973C223.789 79.0546 218.234 85.8406 212.828 92.5603C209.626 96.5434 208.262 101.323 208.985 106.014C209.663 110.425 212.134 114.253 215.948 116.791C218.714 118.635 221.871 119.616 225.079 119.616C229.431 119.616 233.481 117.838 236.483 114.6C241.425 109.275 245.128 104.797 248.115 100.497C250.763 96.6909 253.949 96.2041 256.428 96.2041C257.158 96.2041 257.969 96.2483 258.98 96.3516C260.809 96.536 262.639 96.7352 264.468 96.9343C270.9 97.635 277.553 98.3579 284.096 98.3726C292.401 98.3726 299.394 91.4244 299.711 82.8755C300.021 74.5478 293.662 67.0463 285.527 66.1612H285.534ZM290.734 83.0525C290.424 85.4423 288.824 89.4476 281.595 89.4476C281.359 89.4476 281.108 89.4476 280.865 89.4328H280.821H280.776C278.246 89.2041 275.672 88.9755 273.083 88.7468C266.511 88.1715 259.718 87.5667 252.961 86.8659C252.371 86.8069 251.84 86.7774 251.338 86.7774C248.705 86.7774 246.92 87.6552 245.356 89.7057C242.457 93.5118 239.36 97.2589 236.372 100.881C234.698 102.909 232.964 105.011 231.283 107.091C229.483 109.326 227.226 110.558 224.924 110.558C223.412 110.558 221.952 110.049 220.595 109.046C219.068 107.917 218.094 106.287 217.858 104.458C217.578 102.326 218.293 100.069 219.864 98.1145C222.682 94.6108 225.588 91.0851 228.399 87.6847C229.985 85.7595 231.578 83.8343 233.156 81.9092C237.029 77.1811 240.894 72.4456 244.766 67.7176C248.808 62.7756 252.85 57.8336 256.893 52.8916C263.118 45.2868 268.842 38.3238 274.389 31.582C275.967 29.6716 278.003 28.6168 280.135 28.6168C281.706 28.6168 283.284 29.1922 284.7 30.2765C286.227 31.4419 287.186 33.072 287.4 34.8718C287.629 36.7822 287.009 38.7737 285.652 40.4702C282.716 44.1288 279.685 47.8021 276.756 51.35C275.289 53.1276 273.821 54.9053 272.36 56.6829C271.637 57.5607 270.915 58.431 270.184 59.3014C268.362 61.4847 266.474 63.7418 264.77 66.0506C263.693 67.5037 263.531 69.4214 264.335 71.0663C265.073 72.5784 266.467 73.5078 268.067 73.5521C273.024 73.6775 278.04 74.2897 282.753 74.9019C288.145 75.61 291.28 78.8112 290.727 83.0599L290.734 83.0525Z" fill="#0F2830"/>
<path d="M230.619 41.3701C229.586 40.3006 227.831 39.7031 225.684 39.6736C225.551 39.6736 225.411 39.6736 225.279 39.6736H225.079H224.88H215.454H204.139C194.978 39.6736 185.816 39.6736 176.655 39.6736H176.227H175.822C174.856 39.6736 173.919 39.6957 173.048 39.9981C171.042 40.6989 170.046 41.9749 169.914 43.996C169.796 45.7884 171.035 47.5291 172.923 48.2225C173.793 48.5471 174.796 48.5471 175.763 48.5471H186.392H200.753H201.196C203.563 48.5471 205.931 48.5471 208.299 48.5471C210.667 48.5471 213.034 48.5471 215.402 48.5471C218.876 48.5471 222.35 48.5471 225.824 48.5323C229.431 48.5175 231.615 46.8801 231.674 44.1583C231.696 43.0445 231.342 42.1003 230.626 41.3627L230.619 41.3701Z" fill="#FF6A39"/>
<path d="M204.124 74.9461C204.832 74.1053 205.171 73.0062 205.061 71.8629C204.847 69.5321 202.981 67.8946 200.525 67.8651C197.301 67.8282 193.857 67.8134 189.999 67.8134C186.141 67.8134 181.833 67.8282 177.983 67.8503C175.815 67.8651 174.406 68.8461 173.683 70.8598C173.226 72.1285 173.351 73.3972 174.03 74.4372C174.848 75.6838 176.36 76.4656 178.19 76.5836C179.414 76.6648 180.727 76.7017 182.328 76.7017C183.441 76.7017 184.585 76.6869 185.691 76.6648C186.326 76.6574 186.982 76.6426 187.631 76.6353V76.5099H189.099C190.331 76.5099 191.585 76.532 192.794 76.5541C193.989 76.5763 195.228 76.5984 196.431 76.5984C198.231 76.5984 199.706 76.5468 201.07 76.4435C202.332 76.3402 203.386 75.8313 204.124 74.9535V74.9461Z" fill="#FF6A39"/>
<path d="M158.606 71.8924C158.422 69.746 156.887 68.138 154.8 67.902C154.431 67.8577 154.025 67.843 153.524 67.843C153.199 67.843 152.882 67.8503 152.558 67.8577V67.8872L151.105 67.902C150.662 67.902 150.212 67.8872 149.762 67.8725C149.349 67.8577 148.929 67.843 148.516 67.843C147.984 67.843 147.549 67.8651 147.158 67.9167C144.968 68.197 143.485 69.746 143.367 71.8556C143.242 74.1495 144.577 75.9124 146.767 76.355C148.206 76.6426 149.637 76.7902 151.031 76.7902C152.536 76.7902 154.018 76.6205 155.442 76.2738C157.514 75.7796 158.783 74.0094 158.606 71.8777V71.8924Z" fill="#FF6A39"/>
<path d="M76.0822 175.114C76.06 172.857 73.9652 170.784 71.7008 170.762H71.6639C70.5501 170.762 69.4289 171.263 68.5807 172.141C67.7324 173.019 67.2751 174.162 67.3193 175.283C67.4152 177.769 69.2371 179.569 71.6565 179.569C72.9768 179.569 74.0832 179.134 74.8872 178.315C75.6839 177.503 76.0969 176.397 76.0822 175.114Z" fill="#FF6A39"/>
<path d="M290.734 83.0525C290.424 85.4423 288.824 89.4476 281.595 89.4476C281.359 89.4476 281.108 89.4476 280.865 89.4328H280.821H280.776C278.246 89.2041 275.672 88.9755 273.083 88.7468C266.511 88.1715 259.718 87.5667 252.961 86.8659C252.371 86.8069 251.84 86.7774 251.338 86.7774C248.705 86.7774 246.92 87.6552 245.356 89.7057C242.457 93.5118 239.36 97.2589 236.372 100.881C234.698 102.909 232.964 105.011 231.283 107.091C229.483 109.326 227.226 110.558 224.924 110.558C223.412 110.558 221.952 110.049 220.595 109.046C219.068 107.917 218.094 106.287 217.858 104.458C217.578 102.326 218.293 100.069 219.864 98.1145C222.682 94.6108 225.588 91.0851 228.399 87.6847C229.984 85.7595 231.578 83.8343 233.156 81.9092C237.029 77.1811 240.894 72.4456 244.766 67.7176C248.808 62.7756 252.85 57.8336 256.893 52.8916C263.118 45.2868 268.842 38.3238 274.389 31.582C275.967 29.6716 278.003 28.6168 280.135 28.6168C281.706 28.6168 283.284 29.1922 284.7 30.2764C286.227 31.4419 287.186 33.072 287.4 34.8718C287.629 36.7822 287.009 38.7737 285.652 40.4702C282.716 44.1288 279.685 47.8021 276.756 51.35C275.289 53.1276 273.821 54.9053 272.36 56.6829C271.637 57.5607 270.914 58.431 270.184 59.3014C268.362 61.4847 266.474 63.7418 264.77 66.0506C263.693 67.5036 263.531 69.4214 264.335 71.0663C265.073 72.5784 266.467 73.5078 268.067 73.5521C273.024 73.6774 278.04 74.2897 282.753 74.9019C288.145 75.61 291.28 78.8112 290.727 83.0599L290.734 83.0525Z" fill="#BE531C"/>
<path d="M132.745 152.771C130.813 153.841 128.711 154.409 126.667 154.409C122.832 154.409 119.387 152.476 117.226 149.098C115.234 145.993 113.427 142.74 111.782 139.679C110.359 137.046 109.732 134.154 109.747 130.289V130.245V130.201C110.13 123.687 113.685 118.155 119.749 114.637C120.471 114.217 121.121 114.017 121.74 114.017C122.839 114.017 123.761 114.63 124.462 115.839C125.827 118.177 127.228 120.545 128.593 122.839C131.491 127.722 134.493 132.767 137.252 137.85C140.114 143.116 138.086 149.806 132.738 152.771H132.745Z" fill="#FF6A39"/>
</g>
<defs>
<clipPath id="clip0_1141_363">
<rect width="279.872" height="280.292" fill="#FFFFFF" transform="translate(19.854 19.854)"/>
</clipPath>
</defs>
</svg>
