<svg width="320" height="320" viewBox="0 0 320 320" fill="none" xmlns="http://www.w3.org/2000/svg">
<circle opacity="0.5" cx="160" cy="160" r="140.146" fill="#F6EB61"/>
<g clip-path="url(#clip0_1141_364)">
<path d="M269.002 139.319C263.781 133.725 258.374 128.308 252.957 122.901C251.661 121.609 251.139 120.279 251.149 118.475C251.201 106.038 251.206 93.602 251.168 81.1703C251.134 70.5235 244.636 62.5993 234.587 60.8384C223.304 58.8622 212.514 67.7003 212.203 79.1797C212.188 79.6726 212.16 80.1654 212.117 81.0698C212.112 81.1799 211.978 81.2229 211.901 81.1464C210.973 80.1511 210.298 79.4094 209.6 78.7012C198.867 67.7912 188.076 56.9338 177.425 45.9472C175.951 44.4303 174.424 43.0331 172.793 41.8177C169.094 39.0614 164.567 37.6403 159.954 37.6403C155.676 37.6403 151.451 38.8365 147.925 41.2578C146.814 42.0186 145.766 42.8895 144.781 43.8848C135.11 53.723 125.392 63.5085 115.702 73.3275C114.922 74.1171 114.142 74.9353 113.548 75.8636C113.548 75.8684 113.539 75.8732 113.534 75.8828L81.5696 108.244C81.2203 108.575 80.8901 108.919 80.5551 109.259C71.0424 118.915 61.52 128.562 52.0264 138.233C45.4469 144.932 43.7434 154.153 47.5332 162.244C51.4043 170.513 59.6538 175.312 68.9273 174.475C70.8462 174.303 71.2816 174.867 71.2625 176.609C71.1955 181.949 71.2385 187.294 71.2385 192.634C71.2385 215.12 71.2864 237.605 71.2194 260.09C71.1907 269.474 74.3058 276.934 83.23 281.12C84.4454 281.69 85.723 282.121 86.9767 282.618C86.9911 282.623 87.0054 282.628 87.0198 282.628H232.922C232.922 282.628 232.946 282.628 232.961 282.623C240.31 280.374 245.598 276.01 247.833 268.564C248.512 266.301 248.799 263.942 248.799 261.583C248.785 233.542 248.79 205.506 248.79 177.466C248.79 175.405 249.802 174.44 251.828 174.571C260.374 175.126 268.595 170.365 272.328 162.694C276.113 154.928 274.902 145.64 268.997 139.314L269.002 139.319Z" fill="#FFFFFF"/>
<path d="M71.2386 192.634C71.2386 187.294 71.1955 181.949 71.2625 176.609V168.759L160 80.0219L248.79 168.812V177.466C248.79 205.506 248.785 233.542 248.799 261.583C248.799 263.942 248.512 266.301 247.833 268.564C245.598 276.01 240.31 280.374 232.961 282.623C232.946 282.628 232.922 282.628 232.922 282.628H87.0198C87.0055 282.628 86.9911 282.623 86.9768 282.618C85.7231 282.121 84.4454 281.69 83.23 281.12C74.3058 276.934 71.1907 269.474 71.2194 260.09C71.2864 237.605 71.2386 215.12 71.2386 192.634Z" fill="#FF6A39"/>
<path d="M240.952 109.579C240.952 100.287 240.952 90.5874 240.952 80.888C240.952 80.1702 240.971 79.4476 240.88 78.7394C240.358 74.5381 236.741 71.0833 232.582 70.7723C227.769 70.4134 223.644 73.1026 222.61 77.5097C221.582 81.9024 222.232 86.3908 222.156 90.8362C222.141 91.5252 222.62 92.0133 223.079 92.4535C229.051 98.1813 235.028 103.904 240.952 109.579Z" fill="#BE531C"/>
<path d="M86.9958 282.628C85.7373 282.13 84.4501 281.695 83.2299 281.12C74.3057 276.929 71.1906 269.469 71.2193 260.09C71.2863 237.605 71.2433 215.12 71.2385 192.634C71.2385 187.294 71.1954 181.949 71.2624 176.609C71.2815 174.872 70.8509 174.303 68.9273 174.475C59.6585 175.312 51.409 170.513 47.5331 162.244C43.7433 154.153 45.442 144.932 52.0263 138.223C61.5199 128.548 71.0423 118.906 80.5551 109.249C80.89 108.91 81.2202 108.565 81.5695 108.235C83.9764 105.962 86.9862 105.785 89.0295 107.785C91.0775 109.795 91.0057 112.881 88.7519 115.25C85.8426 118.312 82.8854 121.332 79.9187 124.341C72.9707 131.376 65.9557 138.343 59.0652 145.434C53.0551 151.626 55.4285 161.507 63.5105 163.909C67.9033 165.211 71.8031 164.158 75.0857 160.785C86.0962 149.473 97.1737 138.223 108.208 126.93C120.97 113.872 133.718 100.804 146.465 87.7307C149.47 84.6491 152.432 81.5196 155.451 78.4524C158.772 75.0789 161.27 75.0789 164.61 78.4954C186.851 101.239 209.078 124.002 231.305 146.76C235.817 151.377 240.291 156.038 244.828 160.632C249.555 165.417 256.661 165.675 261.059 161.278C265.633 156.703 265.48 150.009 260.623 145.066C238.88 122.949 217.117 100.851 195.364 78.7442C186.473 69.71 177.606 60.647 168.697 51.6271C163.155 46.0142 156.853 46.0285 151.327 51.6271C141.637 61.4413 131.966 71.2795 122.286 81.1033C120.664 82.7494 118.941 84.1036 116.391 83.3188C113.084 82.3044 111.687 78.7634 113.544 75.8588C114.137 74.9305 114.922 74.1075 115.706 73.3132C125.396 63.4941 135.115 53.7086 144.785 43.8704C147.905 40.6979 151.58 38.2336 155.901 37.6259C158.586 37.2479 161.342 37.3149 164.036 37.6259C169.544 38.2623 173.62 42.0043 177.429 45.9328C188.081 56.9242 198.871 67.7768 209.604 78.6868C210.356 79.4477 211.069 80.242 212.107 81.3473C212.16 80.2515 212.193 79.706 212.208 79.1653C212.519 67.6907 223.309 58.8478 234.592 60.824C244.641 62.585 251.139 70.5091 251.173 81.1559C251.211 93.5924 251.211 106.029 251.153 118.461C251.144 120.265 251.665 121.595 252.962 122.887C258.374 128.294 263.786 133.711 269.007 139.304C274.907 145.626 276.117 154.918 272.337 162.684C268.6 170.355 260.384 175.116 251.838 174.561C249.815 174.43 248.802 175.395 248.799 177.456C248.799 205.277 248.794 233.097 248.804 260.918C248.804 263.239 248.651 265.545 248.057 267.784C245.962 275.708 240.564 280.297 232.951 282.618H86.9958V282.628ZM159.863 272.89C182.348 272.89 204.834 272.904 227.319 272.881C234.611 272.871 238.554 268.899 238.554 261.64C238.559 231.499 238.549 201.362 238.583 171.221C238.583 169.532 238.215 168.226 236.97 166.962C224.008 153.77 211.107 140.515 198.182 127.28C185.985 114.786 173.774 102.306 161.615 89.7739C160.428 88.5489 159.686 88.5728 158.538 89.7739C153.356 95.1858 148.102 100.536 142.867 105.9C123.095 126.155 103.337 146.42 83.5218 166.627C82.0097 168.168 81.359 169.704 81.3638 171.872C81.426 201.453 81.4068 231.035 81.4068 260.616C81.4068 269.162 85.1105 272.895 93.604 272.895C115.692 272.895 137.775 272.895 159.863 272.895V272.89ZM240.952 109.579C240.952 100.287 240.952 90.5874 240.952 80.888C240.952 80.1702 240.971 79.4477 240.88 78.7395C240.358 74.5381 236.741 71.0833 232.582 70.7723C227.769 70.4134 223.644 73.1026 222.61 77.5097C221.582 81.9024 222.232 86.3908 222.156 90.8362C222.141 91.5252 222.62 92.0133 223.079 92.4536C229.051 98.1813 235.028 103.904 240.952 109.579Z" fill="#0F2830"/>
<path d="M106.299 95.1476C106.318 97.9469 104.16 100.191 101.414 100.225C98.7626 100.258 96.4514 97.9373 96.4226 95.2002C96.3939 92.4249 98.5568 90.2189 101.356 90.1615C104.103 90.1089 106.27 92.2957 106.294 95.1428L106.299 95.1476Z" fill="#FF6A39"/>
<path d="M202.121 217.077C204.676 216.349 206.911 214.899 208.767 212.971C215.782 205.683 217.581 197.027 214.71 187.557C212.667 180.815 207.892 176.805 200.671 175.93C199.317 175.767 197.546 177.169 196.747 175.623C196.163 174.494 196.632 172.819 196.632 171.384C196.953 165.307 195.407 159.699 192.139 154.588C184.507 142.664 170.132 142.018 161.624 153.325C160.098 155.354 159.639 154.966 158.342 153.224C150.432 142.601 136.957 142.587 128.966 153.148C124.21 159.435 122.655 166.632 123.449 174.365C123.616 176.011 123.195 176.265 121.688 176.116C116.477 175.604 112.137 177.451 108.754 181.404C104.964 185.835 103.605 191.141 104.151 196.797C105.055 206.215 108.859 213.818 118.444 217.225C119.889 217.742 119.75 218.531 119.353 219.618C118.104 223.02 117.424 226.556 117.606 230.164C118.63 250.63 138.991 263.353 157.835 255.3C159.447 254.611 160.739 254.573 162.337 255.314C168.013 257.956 173.956 258.52 180.066 257.123C196.718 253.319 206.336 236.145 200.805 219.962C200.245 218.321 200.288 217.589 202.121 217.067V217.077Z" fill="#FFFFFF"/>
<path d="M196.632 171.389C196.632 172.819 196.163 174.494 196.747 175.628C197.541 177.174 199.312 175.767 200.671 175.934C207.892 176.81 212.667 180.825 214.71 187.562C217.581 197.027 215.782 205.688 208.767 212.976C206.911 214.904 204.676 216.354 202.121 217.081C200.288 217.603 200.245 218.335 200.805 219.976C206.336 236.155 196.718 253.329 180.066 257.138C173.956 258.535 168.013 257.97 162.337 255.329C160.739 254.587 159.442 254.625 157.835 255.314C138.991 263.368 118.63 250.644 117.606 230.178C117.424 226.575 118.104 223.034 119.353 219.632C119.75 218.546 119.889 217.751 118.444 217.239C108.864 213.828 105.055 206.229 104.151 196.812C103.605 191.156 104.964 185.849 108.754 181.418C112.137 177.466 116.477 175.619 121.688 176.131C123.195 176.279 123.616 176.025 123.449 174.379C122.659 166.647 124.21 159.455 128.966 153.162C136.952 142.601 150.432 142.611 158.342 153.239C159.639 154.98 160.098 155.368 161.624 153.339C170.128 142.032 184.502 142.678 192.139 154.602C195.412 159.713 196.958 165.321 196.632 171.398V171.389ZM192.239 229.441C192.149 222.359 189.163 216.914 183.177 213.521C180.148 211.804 178.454 209.794 177.607 206.387C175.74 198.879 168.553 193.434 160.959 193.228C152.466 192.998 145.025 197.75 142.757 205.521C141.627 209.387 139.766 211.866 136.254 213.962C127.708 219.077 125.248 230.351 130.349 238.681C135.742 247.491 146.834 250.429 155.543 245.046C158.777 243.045 161.304 243.108 164.524 245.074C170.496 248.725 176.865 248.716 182.942 245.247C189.014 241.782 192.115 236.37 192.239 229.437V229.441ZM166.089 170.034C166.103 176.121 167.893 180.93 170.879 183.878C174.233 187.189 178.54 187.208 181.923 183.93C188.196 177.848 188.21 164.005 181.947 157.875C178.564 154.564 174.248 154.54 170.912 157.885C167.3 161.503 166.266 166.096 166.089 170.034ZM133.459 170.829C133.34 175.274 134.455 179.346 137.201 182.892C140.623 187.304 145.676 187.538 149.513 183.5C155.327 177.38 155.37 164.57 149.595 158.373C145.724 154.22 140.58 154.454 137.129 158.986C134.464 162.479 133.354 166.474 133.459 170.833V170.829ZM191.421 198.673C191.378 200.884 191.828 202.965 192.967 204.86C194.9 208.076 198.135 208.669 201.078 206.377C205.576 202.879 207.336 194.3 204.571 189.342C202.556 185.73 199.135 185.079 196.01 187.782C192.699 190.649 191.66 194.505 191.416 198.678L191.421 198.673ZM114.271 194.859C114.247 199.262 115.386 202.86 118.228 205.707C121.616 209.105 125.841 208.315 127.555 203.836C129.617 198.444 128.679 193.352 125.119 188.802C124.593 188.127 123.88 187.553 123.152 187.093C120.42 185.371 117.697 185.988 115.908 188.663C114.568 190.668 114.195 192.917 114.276 194.859H114.271Z" fill="#0F2830"/>
</g>
<defs>
<clipPath id="clip0_1141_364">
<rect width="228.948" height="245.255" fill="#FFFFFF" transform="translate(45.5474 37.3723)"/>
</clipPath>
</defs>
</svg>
