<svg width="24" height="25" viewBox="0 0 24 25" fill="none" xmlns="http://www.w3.org/2000/svg">
  <g clip-path="url(#clip0_112_52)">
    <path d="M12 0.645264C8.7435 0.645264 8.334 0.660264 7.0545 0.717264C5.775 0.777264 4.9035 0.978264 4.14 1.27526C3.33914 1.57649 2.61374 2.049 2.0145 2.65976C1.40411 3.25931 0.931661 3.98462 0.63 4.78526C0.333 5.54726 0.1305 6.42026 0.072 7.69526C0.015 8.97776 0 9.38576 0 12.6468C0 15.9048 0.015 16.3128 0.072 17.5923C0.132 18.8703 0.333 19.7418 0.63 20.5053C0.9375 21.2943 1.347 21.9633 2.0145 22.6308C2.6805 23.2983 3.3495 23.7093 4.1385 24.0153C4.9035 24.3123 5.7735 24.5148 7.0515 24.5733C8.3325 24.6303 8.7405 24.6453 12 24.6453C15.2595 24.6453 15.666 24.6303 16.947 24.5733C18.2235 24.5133 19.098 24.3123 19.8615 24.0153C20.6618 23.7139 21.3867 23.2414 21.9855 22.6308C22.653 21.9633 23.0625 21.2943 23.37 20.5053C23.6655 19.7418 23.868 18.8703 23.928 17.5923C23.985 16.3128 24 15.9048 24 12.6453C24 9.38576 23.985 8.97776 23.928 7.69676C23.868 6.42026 23.6655 5.54726 23.37 4.78526C23.0684 3.9846 22.5959 3.25928 21.9855 2.65976C21.3864 2.04878 20.661 1.57623 19.86 1.27526C19.095 0.978264 18.222 0.775764 16.9455 0.717264C15.6645 0.660264 15.258 0.645264 11.997 0.645264H12.0015H12ZM10.9245 2.80826H12.0015C15.2055 2.80826 15.585 2.81876 16.8495 2.87726C18.0195 2.92976 18.6555 3.12626 19.0785 3.28976C19.638 3.50726 20.0385 3.76826 20.4585 4.18826C20.8785 4.60826 21.138 5.00726 21.3555 5.56826C21.5205 5.98976 21.7155 6.62576 21.768 7.79576C21.8265 9.06026 21.8385 9.43976 21.8385 12.6423C21.8385 15.8448 21.8265 16.2258 21.768 17.4903C21.7155 18.6603 21.519 19.2948 21.3555 19.7178C21.1631 20.2388 20.856 20.7099 20.457 21.0963C20.037 21.5163 19.638 21.7758 19.077 21.9933C18.657 22.1583 18.021 22.3533 16.8495 22.4073C15.585 22.4643 15.2055 22.4778 12.0015 22.4778C8.7975 22.4778 8.4165 22.4643 7.152 22.4073C5.982 22.3533 5.3475 22.1583 4.9245 21.9933C4.40325 21.8011 3.93169 21.4946 3.5445 21.0963C3.14513 20.7093 2.83758 20.2377 2.6445 19.7163C2.481 19.2948 2.2845 18.6588 2.232 17.4888C2.175 16.2243 2.163 15.8448 2.163 12.6393C2.163 9.43526 2.175 9.05726 2.232 7.79276C2.286 6.62276 2.481 5.98676 2.646 5.56376C2.8635 5.00426 3.1245 4.60376 3.5445 4.18376C3.9645 3.76376 4.3635 3.50426 4.9245 3.28676C5.3475 3.12176 5.982 2.92676 7.152 2.87276C8.259 2.82176 8.688 2.80676 10.9245 2.80526V2.80826ZM18.4065 4.80026C18.2174 4.80026 18.0301 4.83751 17.8554 4.90988C17.6807 4.98224 17.522 5.08831 17.3883 5.22203C17.2545 5.35575 17.1485 5.51449 17.0761 5.6892C17.0037 5.86391 16.9665 6.05116 16.9665 6.24026C16.9665 6.42937 17.0037 6.61662 17.0761 6.79133C17.1485 6.96604 17.2545 7.12478 17.3883 7.2585C17.522 7.39221 17.6807 7.49828 17.8554 7.57065C18.0301 7.64302 18.2174 7.68026 18.4065 7.68026C18.7884 7.68026 19.1547 7.52855 19.4247 7.2585C19.6948 6.98845 19.8465 6.62218 19.8465 6.24026C19.8465 5.85835 19.6948 5.49208 19.4247 5.22203C19.1547 4.95198 18.7884 4.80026 18.4065 4.80026ZM12.0015 6.48326C11.1841 6.47051 10.3723 6.62049 9.61347 6.92448C8.85459 7.22846 8.16377 7.68037 7.58123 8.2539C6.99868 8.82743 6.53605 9.51111 6.22026 10.2652C5.90448 11.0192 5.74185 11.8285 5.74185 12.646C5.74185 13.4635 5.90448 14.2728 6.22026 15.0269C6.53605 15.7809 6.99868 16.4646 7.58123 17.0381C8.16377 17.6117 8.85459 18.0636 9.61347 18.3676C10.3723 18.6715 11.1841 18.8215 12.0015 18.8088C13.6193 18.7835 15.1623 18.1231 16.2975 16.9701C17.4326 15.8171 18.0689 14.264 18.0689 12.646C18.0689 11.028 17.4326 9.47488 16.2975 8.32189C15.1623 7.16889 13.6193 6.5085 12.0015 6.48326ZM12.0015 8.64476C13.0625 8.64476 14.08 9.06624 14.8303 9.81648C15.5805 10.5667 16.002 11.5843 16.002 12.6453C16.002 13.7063 15.5805 14.7238 14.8303 15.474C14.08 16.2243 13.0625 16.6458 12.0015 16.6458C10.9405 16.6458 9.92296 16.2243 9.17272 15.474C8.42248 14.7238 8.001 13.7063 8.001 12.6453C8.001 11.5843 8.42248 10.5667 9.17272 9.81648C9.92296 9.06624 10.9405 8.64476 12.0015 8.64476Z" fill="#FF6A39" />
  </g>
  <defs>
    <clipPath id="clip0_112_52">
      <rect width="24" height="24" fill="white" transform="translate(0 0.645264)" />
    </clipPath>
  </defs>
</svg>