<svg width="24" height="25" viewBox="0 0 24 25" fill="none" xmlns="http://www.w3.org/2000/svg">
  <g clip-path="url(#clip0_112_39)">
    <path d="M20.4015 4.13403C19.3012 3.02355 17.9909 2.14315 16.547 1.54414C15.103 0.945131 13.5543 0.639492 11.991 0.645032C5.4405 0.645032 0.102 5.98203 0.096 12.534C0.096 14.6325 0.645 16.674 1.6815 18.4815L0 24.645L6.306 22.992C8.05051 23.9414 10.0049 24.439 11.991 24.4395H11.997C18.549 24.4395 23.886 19.1025 23.892 12.5445C23.8935 10.9816 23.5857 9.43381 22.9864 7.99035C22.3871 6.54689 21.5081 5.23628 20.4 4.13403H20.4015ZM11.991 22.4265C10.2195 22.4271 8.48055 21.9504 6.957 21.0465L6.597 20.8305L2.856 21.8115L3.855 18.162L3.621 17.7855C2.63071 16.211 2.10697 14.3881 2.1105 12.528C2.1105 7.08903 6.546 2.65203 11.997 2.65203C13.2956 2.6497 14.5818 2.90444 15.7815 3.40157C16.9812 3.8987 18.0706 4.62837 18.987 5.54853C19.9065 6.46511 20.6355 7.55467 21.1319 8.75438C21.6282 9.95409 21.8822 11.2402 21.879 12.5385C21.873 17.997 17.4375 22.4265 11.991 22.4265ZM17.4135 15.0255C17.118 14.877 15.6585 14.1585 15.384 14.0565C15.111 13.959 14.9115 13.908 14.7165 14.205C14.517 14.5005 13.947 15.174 13.776 15.3675C13.605 15.567 13.428 15.5895 13.131 15.4425C12.8355 15.2925 11.877 14.9805 10.743 13.965C9.858 13.1775 9.2655 12.2025 9.0885 11.907C8.9175 11.61 9.072 11.451 9.2205 11.3025C9.351 11.1705 9.516 10.9545 9.6645 10.7835C9.8145 10.6125 9.864 10.4865 9.9615 10.2885C10.059 10.0875 10.0125 9.91653 9.939 9.76803C9.864 9.61953 9.2715 8.15403 9.021 7.56303C8.781 6.97953 8.5365 7.06053 8.3535 7.05303C8.1825 7.04253 7.983 7.04253 7.7835 7.04253C7.63285 7.04628 7.48459 7.08112 7.34804 7.14488C7.21149 7.20864 7.08959 7.29993 6.99 7.41303C6.717 7.71003 5.9535 8.42853 5.9535 9.89403C5.9535 11.3595 7.0185 12.768 7.1685 12.9675C7.3155 13.167 9.2595 16.1655 12.243 17.4555C12.948 17.763 13.503 17.9445 13.9365 18.0825C14.649 18.3105 15.2925 18.276 15.8055 18.2025C16.3755 18.1155 17.562 17.4825 17.8125 16.788C18.0585 16.092 18.0585 15.498 17.9835 15.3735C17.91 15.2475 17.7105 15.174 17.4135 15.0255Z" fill="#FFF4E0" />
  </g>
  <defs>
    <clipPath id="clip0_112_39">
      <rect width="24" height="24" fill="white" transform="translate(0 0.645264)" />
    </clipPath>
  </defs>
</svg>