<svg width="1216" height="440" viewBox="0 0 1216 440" fill="none" xmlns="http://www.w3.org/2000/svg">
<g id="Content">
<rect width="1216" height="440" rx="32" fill="#FF6A39"/>
<text id="Consultoria" fill="#F6EB61" xml:space="preserve" style="white-space: pre" font-family="Calistoga" font-size="80" letter-spacing="0em"><tspan x="102.383" y="156">Consultoria</tspan></text>
<text id="Seja para lidar com problemas ou para melhorar a rela&#195;&#167;&#195;&#163;o com o seu pet, conte com nossa expertise para ajud&#195;&#161;-lo a encontrar solu&#195;&#167;&#195;&#181;es." fill="#FFF4E0" xml:space="preserve" style="white-space: pre" font-family="Nunito Sans" font-size="20" letter-spacing="0.01em"><tspan x="102" y="222.58">Seja para lidar com problemas ou para melhorar a </tspan><tspan x="102" y="254.58">rela&#xe7;&#xe3;o com o seu pet, conte com nossa expertise </tspan><tspan x="102" y="286.58">para ajud&#xe1;-lo a encontrar solu&#xe7;&#xf5;es.</tspan></text>
<g id="Tags">
<g id="Default">
<rect x="102" y="328" width="122" height="40" rx="16" fill="#FFF4E0"/>
<g id="clock">
<path id="Vector (Stroke)" fill-rule="evenodd" clip-rule="evenodd" d="M126 339C121.029 339 117 343.029 117 348C117 352.971 121.029 357 126 357C130.971 357 135 352.971 135 348C135 343.029 130.971 339 126 339ZM115 348C115 341.925 119.925 337 126 337C132.075 337 137 341.925 137 348C137 354.075 132.075 359 126 359C119.925 359 115 354.075 115 348Z" fill="#004851"/>
<path id="Vector (Stroke)_2" fill-rule="evenodd" clip-rule="evenodd" d="M126 341C126.552 341 127 341.448 127 342V347.382L130.447 349.106C130.941 349.353 131.141 349.953 130.894 350.447C130.647 350.941 130.047 351.141 129.553 350.894L125.553 348.894C125.214 348.725 125 348.379 125 348V342C125 341.448 125.448 341 126 341Z" fill="#004851"/>
</g>
<text id="1h30min" fill="#0F2830" xml:space="preserve" style="white-space: pre" font-family="Nunito Sans" font-size="16" letter-spacing="0.01em"><tspan x="146.364" y="353.264">1h30min</tspan></text>
</g>
<g id="Default_2">
<rect x="240" y="328" width="195" height="40" rx="16" fill="#FFF4E0"/>
<g id="map-pin">
<path id="Vector (Stroke)_3" fill-rule="evenodd" clip-rule="evenodd" d="M264 338C261.878 338 259.843 338.843 258.343 340.343C256.843 341.843 256 343.878 256 346C256 349.098 258.016 352.104 260.226 354.437C261.311 355.582 262.399 356.519 263.217 357.171C263.521 357.413 263.787 357.615 264 357.773C264.213 357.615 264.479 357.413 264.783 357.171C265.601 356.519 266.689 355.582 267.774 354.437C269.984 352.104 272 349.098 272 346C272 343.878 271.157 341.843 269.657 340.343C268.157 338.843 266.122 338 264 338ZM264 359C263.445 359.832 263.445 359.832 263.445 359.832L263.442 359.83L263.435 359.825L263.412 359.81C263.393 359.797 263.365 359.778 263.33 359.753C263.259 359.704 263.156 359.632 263.028 359.539C262.771 359.353 262.406 359.082 261.971 358.735C261.101 358.043 259.939 357.043 258.774 355.813C256.484 353.396 254 349.902 254 346C254 343.348 255.054 340.804 256.929 338.929C258.804 337.054 261.348 336 264 336C266.652 336 269.196 337.054 271.071 338.929C272.946 340.804 274 343.348 274 346C274 349.902 271.516 353.396 269.226 355.813C268.061 357.043 266.899 358.043 266.029 358.735C265.594 359.082 265.229 359.353 264.972 359.539C264.844 359.632 264.741 359.704 264.67 359.753C264.635 359.778 264.607 359.797 264.588 359.81L264.565 359.825L264.558 359.83L264.556 359.831C264.556 359.831 264.555 359.832 264 359ZM264 359L264.555 359.832C264.219 360.056 263.781 360.056 263.445 359.832L264 359Z" fill="#004851"/>
<path id="Vector (Stroke)_4" fill-rule="evenodd" clip-rule="evenodd" d="M264 344C262.895 344 262 344.895 262 346C262 347.105 262.895 348 264 348C265.105 348 266 347.105 266 346C266 344.895 265.105 344 264 344ZM260 346C260 343.791 261.791 342 264 342C266.209 342 268 343.791 268 346C268 348.209 266.209 350 264 350C261.791 350 260 348.209 260 346Z" fill="#004851"/>
</g>
<text id="Online e Presencial" fill="#0F2830" xml:space="preserve" style="white-space: pre" font-family="Nunito Sans" font-size="16" letter-spacing="0.01em"><tspan x="284.138" y="353.264">Online e Presencial</tspan></text>
</g>
</g>
</g>
</svg>
