<svg width="391" height="904" viewBox="0 0 391 904" fill="none" xmlns="http://www.w3.org/2000/svg">
<g id="CTA">
<rect width="391" height="904" rx="32" fill="white"/>
<text id="Abordagem" fill="#FF6A39" xml:space="preserve" style="white-space: pre" font-family="Calistoga" font-size="40" letter-spacing="0em"><tspan x="48" y="90">Abordagem</tspan></text>
<g id="Item">
<g id="check-circle">
<path id="Vector" d="M66.4582 143.233V144C66.4571 145.797 65.8713 147.546 64.788 148.985C63.7046 150.424 62.1819 151.477 60.4469 151.987C58.7118 152.496 56.8575 152.435 55.1603 151.812C53.4631 151.189 52.0141 150.038 51.0294 148.531C50.0446 147.023 49.5769 145.24 49.6959 143.447C49.815 141.654 50.5144 139.947 51.6899 138.581C52.8655 137.215 54.4541 136.263 56.2189 135.867C57.9837 135.471 59.8301 135.652 61.4828 136.383" stroke="#FF6A39" stroke-width="1.66667" stroke-linecap="round" stroke-linejoin="round"/>
<path id="Vector_2" d="M66.4581 137.333L58.0678 145.675L55.5508 143.175" stroke="#FF6A39" stroke-width="1.66667" stroke-linecap="round" stroke-linejoin="round"/>
</g>
<g id="Frame 41">
<text id="Gen&#195;&#169;tica" fill="#FF6A39" xml:space="preserve" style="white-space: pre" font-family="Nunito Sans" font-size="20" font-weight="600" letter-spacing="0.01em"><tspan x="76" y="150.58">Gen&#xe9;tica</tspan></text>
<text id="O que o c&#195;&#163;o herda da ra&#195;&#167;a e dos seus ancestrais." fill="#004851" xml:space="preserve" style="white-space: pre" font-family="Nunito Sans" font-size="16" letter-spacing="0.01em"><tspan x="76" y="177.264">O que o c&#xe3;o herda da ra&#xe7;a e dos </tspan><tspan x="76" y="201.264">seus ancestrais.</tspan></text>
</g>
</g>
<g id="Item_2">
<g id="check-circle_2">
<path id="Vector_3" d="M66.4582 335.233V336C66.4571 337.797 65.8713 339.546 64.788 340.985C63.7046 342.424 62.1819 343.477 60.4469 343.987C58.7118 344.496 56.8575 344.435 55.1603 343.812C53.4631 343.189 52.0141 342.038 51.0294 340.531C50.0446 339.023 49.5769 337.24 49.6959 335.447C49.815 333.654 50.5144 331.947 51.6899 330.581C52.8655 329.215 54.4541 328.263 56.2189 327.867C57.9837 327.471 59.8301 327.652 61.4828 328.383" stroke="#FF6A39" stroke-width="1.66667" stroke-linecap="round" stroke-linejoin="round"/>
<path id="Vector_4" d="M66.4581 329.333L58.0678 337.675L55.5508 335.175" stroke="#FF6A39" stroke-width="1.66667" stroke-linecap="round" stroke-linejoin="round"/>
</g>
<g id="Frame 41_2">
<text id="Rotina Estruturada" fill="#FF6A39" xml:space="preserve" style="white-space: pre" font-family="Nunito Sans" font-size="20" font-weight="600" letter-spacing="0.01em"><tspan x="76" y="342.58">Rotina Estruturada</tspan></text>
<text id="Qual a rotina ideal para o c&#195;&#163;o e a fam&#195;&#173;lia." fill="#004851" xml:space="preserve" style="white-space: pre" font-family="Nunito Sans" font-size="16" letter-spacing="0.01em"><tspan x="76" y="369.264">Qual a rotina ideal para o c&#xe3;o e a </tspan><tspan x="76" y="393.264">fam&#xed;lia.</tspan></text>
</g>
</g>
<g id="Item_3">
<g id="check-circle_3">
<path id="Vector_5" d="M66.4582 527.233V528C66.4571 529.797 65.8713 531.546 64.788 532.985C63.7046 534.424 62.1819 535.477 60.4469 535.987C58.7118 536.496 56.8575 536.435 55.1603 535.812C53.4631 535.189 52.0141 534.038 51.0294 532.531C50.0446 531.023 49.5769 529.24 49.6959 527.447C49.815 525.654 50.5144 523.947 51.6899 522.581C52.8655 521.215 54.4541 520.263 56.2189 519.867C57.9837 519.471 59.8301 519.652 61.4828 520.383" stroke="#FF6A39" stroke-width="1.66667" stroke-linecap="round" stroke-linejoin="round"/>
<path id="Vector_6" d="M66.4581 521.333L58.0678 529.675L55.5508 527.175" stroke="#FF6A39" stroke-width="1.66667" stroke-linecap="round" stroke-linejoin="round"/>
</g>
<g id="Frame 41_3">
<text id="Mente" fill="#FF6A39" xml:space="preserve" style="white-space: pre" font-family="Nunito Sans" font-size="20" font-weight="600" letter-spacing="0.01em"><tspan x="76" y="534.58">Mente</tspan></text>
<text id="Como funciona a mente canina e como eles aprendem." fill="#004851" xml:space="preserve" style="white-space: pre" font-family="Nunito Sans" font-size="16" letter-spacing="0.01em"><tspan x="76" y="561.264">Como funciona a mente canina e </tspan><tspan x="76" y="585.264">como eles aprendem.</tspan></text>
</g>
</g>
<g id="Item_4">
<g id="check-circle_4">
<path id="Vector_7" d="M66.4582 719.233V720C66.4571 721.797 65.8713 723.546 64.788 724.985C63.7046 726.424 62.1819 727.477 60.4469 727.987C58.7118 728.496 56.8575 728.435 55.1603 727.812C53.4631 727.189 52.0141 726.038 51.0294 724.531C50.0446 723.023 49.5769 721.24 49.6959 719.447C49.815 717.654 50.5144 715.947 51.6899 714.581C52.8655 713.215 54.4541 712.263 56.2189 711.867C57.9837 711.471 59.8301 711.652 61.4828 712.383" stroke="#FF6A39" stroke-width="1.66667" stroke-linecap="round" stroke-linejoin="round"/>
<path id="Vector_8" d="M66.4581 713.333L58.0678 721.675L55.5508 719.175" stroke="#FF6A39" stroke-width="1.66667" stroke-linecap="round" stroke-linejoin="round"/>
</g>
<g id="Frame 41_4">
<text id="Educa&#195;&#167;&#195;&#163;o Sanit&#195;&#161;ria" fill="#FF6A39" xml:space="preserve" style="white-space: pre" font-family="Nunito Sans" font-size="20" font-weight="600" letter-spacing="0.01em"><tspan x="76" y="726.58">Educa&#xe7;&#xe3;o Sanit&#xe1;ria</tspan></text>
<text id="Onde o c&#195;&#163;o deve fazer suas necessidades." fill="#004851" xml:space="preserve" style="white-space: pre" font-family="Nunito Sans" font-size="16" letter-spacing="0.01em"><tspan x="76" y="753.264">Onde o c&#xe3;o deve fazer suas </tspan><tspan x="76" y="777.264">necessidades.</tspan></text>
</g>
</g>
<g id="Item_5">
<g id="check-circle_5">
<path id="Vector_9" d="M66.4582 239.233V240C66.4571 241.797 65.8713 243.546 64.788 244.985C63.7046 246.424 62.1819 247.477 60.4469 247.987C58.7118 248.496 56.8575 248.435 55.1603 247.812C53.4631 247.189 52.0141 246.038 51.0294 244.531C50.0446 243.023 49.5769 241.24 49.6959 239.447C49.815 237.654 50.5144 235.947 51.6899 234.581C52.8655 233.215 54.4541 232.263 56.2189 231.867C57.9837 231.471 59.8301 231.652 61.4828 232.383" stroke="#FF6A39" stroke-width="1.66667" stroke-linecap="round" stroke-linejoin="round"/>
<path id="Vector_10" d="M66.4581 233.333L58.0678 241.675L55.5508 239.175" stroke="#FF6A39" stroke-width="1.66667" stroke-linecap="round" stroke-linejoin="round"/>
</g>
<g id="Frame 41_5">
<text id="Manejo" fill="#FF6A39" xml:space="preserve" style="white-space: pre" font-family="Nunito Sans" font-size="20" font-weight="600" letter-spacing="0.01em"><tspan x="76" y="246.58">Manejo</tspan></text>
<text id="Como fazer o manejo correto em cada fase." fill="#004851" xml:space="preserve" style="white-space: pre" font-family="Nunito Sans" font-size="16" letter-spacing="0.01em"><tspan x="76" y="273.264">Como fazer o manejo correto em </tspan><tspan x="76" y="297.264">cada fase.</tspan></text>
</g>
</g>
<g id="Item_6">
<g id="check-circle_6">
<path id="Vector_11" d="M66.4582 431.233V432C66.4571 433.797 65.8713 435.546 64.788 436.985C63.7046 438.424 62.1819 439.477 60.4469 439.987C58.7118 440.496 56.8575 440.435 55.1603 439.812C53.4631 439.189 52.0141 438.038 51.0294 436.531C50.0446 435.023 49.5769 433.24 49.6959 431.447C49.815 429.654 50.5144 427.947 51.6899 426.581C52.8655 425.215 54.4541 424.263 56.2189 423.867C57.9837 423.471 59.8301 423.652 61.4828 424.383" stroke="#FF6A39" stroke-width="1.66667" stroke-linecap="round" stroke-linejoin="round"/>
<path id="Vector_12" d="M66.4581 425.333L58.0678 433.675L55.5508 431.175" stroke="#FF6A39" stroke-width="1.66667" stroke-linecap="round" stroke-linejoin="round"/>
</g>
<g id="Frame 41_6">
<text id="V&#195;&#173;nculo" fill="#FF6A39" xml:space="preserve" style="white-space: pre" font-family="Nunito Sans" font-size="20" font-weight="600" letter-spacing="0.01em"><tspan x="76" y="438.58">V&#xed;nculo</tspan></text>
<text id="O que &#195;&#169; v&#195;&#173;nculo saud&#195;&#161;vel e como desenvolver." fill="#004851" xml:space="preserve" style="white-space: pre" font-family="Nunito Sans" font-size="16" letter-spacing="0.01em"><tspan x="76" y="465.264">O que &#xe9; v&#xed;nculo saud&#xe1;vel e como </tspan><tspan x="76" y="489.264">desenvolver.</tspan></text>
</g>
</g>
<g id="Item_7">
<g id="check-circle_7">
<path id="Vector_13" d="M66.4582 623.233V624C66.4571 625.797 65.8713 627.546 64.788 628.985C63.7046 630.424 62.1819 631.477 60.4469 631.987C58.7118 632.496 56.8575 632.435 55.1603 631.812C53.4631 631.189 52.0141 630.038 51.0294 628.531C50.0446 627.023 49.5769 625.24 49.6959 623.447C49.815 621.654 50.5144 619.947 51.6899 618.581C52.8655 617.215 54.4541 616.263 56.2189 615.867C57.9837 615.471 59.8301 615.652 61.4828 616.383" stroke="#FF6A39" stroke-width="1.66667" stroke-linecap="round" stroke-linejoin="round"/>
<path id="Vector_14" d="M66.4581 617.333L58.0678 625.675L55.5508 623.175" stroke="#FF6A39" stroke-width="1.66667" stroke-linecap="round" stroke-linejoin="round"/>
</g>
<g id="Frame 41_7">
<text id="Refor&#195;&#167;adores" fill="#FF6A39" xml:space="preserve" style="white-space: pre" font-family="Nunito Sans" font-size="20" font-weight="600" letter-spacing="0.01em"><tspan x="76" y="630.58">Refor&#xe7;adores</tspan></text>
<text id="O que &#195;&#169; e como criar um c&#195;&#163;o obediente." fill="#004851" xml:space="preserve" style="white-space: pre" font-family="Nunito Sans" font-size="16" letter-spacing="0.01em"><tspan x="76" y="657.264">O que &#xe9; e como criar um c&#xe3;o </tspan><tspan x="76" y="681.264">obediente.</tspan></text>
</g>
</g>
<g id="Item_8">
<g id="check-circle_8">
<path id="Vector_15" d="M66.4582 815.233V816C66.4571 817.797 65.8713 819.546 64.788 820.985C63.7046 822.424 62.1819 823.477 60.4469 823.987C58.7118 824.496 56.8575 824.435 55.1603 823.812C53.4631 823.189 52.0141 822.038 51.0294 820.531C50.0446 819.023 49.5769 817.24 49.6959 815.447C49.815 813.654 50.5144 811.947 51.6899 810.581C52.8655 809.215 54.4541 808.263 56.2189 807.867C57.9837 807.471 59.8301 807.652 61.4828 808.383" stroke="#FF6A39" stroke-width="1.66667" stroke-linecap="round" stroke-linejoin="round"/>
<path id="Vector_16" d="M66.4581 809.333L58.0678 817.675L55.5508 815.175" stroke="#FF6A39" stroke-width="1.66667" stroke-linecap="round" stroke-linejoin="round"/>
</g>
<g id="Frame 41_8">
<text id="Objetivo com o C&#195;&#163;o" fill="#FF6A39" xml:space="preserve" style="white-space: pre" font-family="Nunito Sans" font-size="20" font-weight="600" letter-spacing="0.01em"><tspan x="76" y="822.58">Objetivo com o C&#xe3;o</tspan></text>
<text id="Como ter o c&#195;&#163;o ideal para sua vida." fill="#004851" xml:space="preserve" style="white-space: pre" font-family="Nunito Sans" font-size="16" letter-spacing="0.01em"><tspan x="76" y="849.264">Como ter o c&#xe3;o ideal para sua vida.</tspan></text>
</g>
</g>
</g>
</svg>
