<svg width="1216" height="968" viewBox="0 0 1216 968" fill="none" xmlns="http://www.w3.org/2000/svg">
<g id="Group 13">
<g id="Content">
<rect width="1216" height="440" rx="32" fill="#FF6A39"/>
<text id="Consultoria" fill="#F6EB61" xml:space="preserve" style="white-space: pre" font-family="Calistoga" font-size="80" letter-spacing="0em"><tspan x="102.383" y="156">Consultoria</tspan></text>
<text id="Seja para lidar com problemas ou para melhorar a rela&#195;&#167;&#195;&#163;o com o seu pet, conte com nossa expertise para ajud&#195;&#161;-lo a encontrar solu&#195;&#167;&#195;&#181;es." fill="#FFF4E0" xml:space="preserve" style="white-space: pre" font-family="Nunito Sans" font-size="20" letter-spacing="0.01em"><tspan x="102" y="222.58">Seja para lidar com problemas ou para melhorar a </tspan><tspan x="102" y="254.58">rela&#xe7;&#xe3;o com o seu pet, conte com nossa expertise </tspan><tspan x="102" y="286.58">para ajud&#xe1;-lo a encontrar solu&#xe7;&#xf5;es.</tspan></text>
<g id="Tags">
<g id="Default">
<rect x="102" y="328" width="122" height="40" rx="16" fill="#FFF4E0"/>
<g id="clock">
<path id="Vector (Stroke)" fill-rule="evenodd" clip-rule="evenodd" d="M126 339C121.029 339 117 343.029 117 348C117 352.971 121.029 357 126 357C130.971 357 135 352.971 135 348C135 343.029 130.971 339 126 339ZM115 348C115 341.925 119.925 337 126 337C132.075 337 137 341.925 137 348C137 354.075 132.075 359 126 359C119.925 359 115 354.075 115 348Z" fill="#004851"/>
<path id="Vector (Stroke)_2" fill-rule="evenodd" clip-rule="evenodd" d="M126 341C126.552 341 127 341.448 127 342V347.382L130.447 349.106C130.941 349.353 131.141 349.953 130.894 350.447C130.647 350.941 130.047 351.141 129.553 350.894L125.553 348.894C125.214 348.725 125 348.379 125 348V342C125 341.448 125.448 341 126 341Z" fill="#004851"/>
</g>
<text id="1h30min" fill="#0F2830" xml:space="preserve" style="white-space: pre" font-family="Nunito Sans" font-size="16" letter-spacing="0.01em"><tspan x="146.364" y="353.264">1h30min</tspan></text>
</g>
<g id="Default_2">
<rect x="240" y="328" width="195" height="40" rx="16" fill="#FFF4E0"/>
<g id="map-pin">
<path id="Vector (Stroke)_3" fill-rule="evenodd" clip-rule="evenodd" d="M264 338C261.878 338 259.843 338.843 258.343 340.343C256.843 341.843 256 343.878 256 346C256 349.098 258.016 352.104 260.226 354.437C261.311 355.582 262.399 356.519 263.217 357.171C263.521 357.413 263.787 357.615 264 357.773C264.213 357.615 264.479 357.413 264.783 357.171C265.601 356.519 266.689 355.582 267.774 354.437C269.984 352.104 272 349.098 272 346C272 343.878 271.157 341.843 269.657 340.343C268.157 338.843 266.122 338 264 338ZM264 359C263.445 359.832 263.445 359.832 263.445 359.832L263.442 359.83L263.435 359.825L263.412 359.81C263.393 359.797 263.365 359.778 263.33 359.753C263.259 359.704 263.156 359.632 263.028 359.539C262.771 359.353 262.406 359.082 261.971 358.735C261.101 358.043 259.939 357.043 258.774 355.813C256.484 353.396 254 349.902 254 346C254 343.348 255.054 340.804 256.929 338.929C258.804 337.054 261.348 336 264 336C266.652 336 269.196 337.054 271.071 338.929C272.946 340.804 274 343.348 274 346C274 349.902 271.516 353.396 269.226 355.813C268.061 357.043 266.899 358.043 266.029 358.735C265.594 359.082 265.229 359.353 264.972 359.539C264.844 359.632 264.741 359.704 264.67 359.753C264.635 359.778 264.607 359.797 264.588 359.81L264.565 359.825L264.558 359.83L264.556 359.831C264.556 359.831 264.555 359.832 264 359ZM264 359L264.555 359.832C264.219 360.056 263.781 360.056 263.445 359.832L264 359Z" fill="#004851"/>
<path id="Vector (Stroke)_4" fill-rule="evenodd" clip-rule="evenodd" d="M264 344C262.895 344 262 344.895 262 346C262 347.105 262.895 348 264 348C265.105 348 266 347.105 266 346C266 344.895 265.105 344 264 344ZM260 346C260 343.791 261.791 342 264 342C266.209 342 268 343.791 268 346C268 348.209 266.209 350 264 350C261.791 350 260 348.209 260 346Z" fill="#004851"/>
</g>
<text id="Online e Presencial" fill="#0F2830" xml:space="preserve" style="white-space: pre" font-family="Nunito Sans" font-size="16" letter-spacing="0.01em"><tspan x="284.138" y="353.264">Online e Presencial</tspan></text>
</g>
</g>
</g>
<g id="CTA">
<rect x="724" y="64" width="391" height="904" rx="32" fill="#FFF"/>
<text id="Abordagem" fill="#FF6A39" xml:space="preserve" style="white-space: pre" font-family="Calistoga" font-size="40" letter-spacing="0em"><tspan x="772" y="154">Abordagem</tspan></text>
<g id="Item">
<g id="check-circle">
<path id="Vector" d="M790.458 207.233V208C790.457 209.797 789.871 211.546 788.788 212.985C787.705 214.424 786.182 215.477 784.447 215.987C782.712 216.496 780.857 216.435 779.16 215.812C777.463 215.189 776.014 214.038 775.029 212.531C774.045 211.023 773.577 209.24 773.696 207.447C773.815 205.654 774.514 203.947 775.69 202.581C776.865 201.215 778.454 200.263 780.219 199.867C781.984 199.471 783.83 199.652 785.483 200.383" stroke="#FF6A39" stroke-width="1.66667" stroke-linecap="round" stroke-linejoin="round"/>
<path id="Vector_2" d="M790.458 201.333L782.068 209.675L779.551 207.175" stroke="#FF6A39" stroke-width="1.66667" stroke-linecap="round" stroke-linejoin="round"/>
</g>
<g id="Frame 41">
<text id="Gen&#195;&#169;tica" fill="#FF6A39" xml:space="preserve" style="white-space: pre" font-family="Nunito Sans" font-size="20" font-weight="600" letter-spacing="0.01em"><tspan x="800" y="214.58">Gen&#xe9;tica</tspan></text>
<text id="O que o c&#195;&#163;o herda da ra&#195;&#167;a e dos seus ancestrais." fill="#004851" xml:space="preserve" style="white-space: pre" font-family="Nunito Sans" font-size="16" letter-spacing="0.01em"><tspan x="800" y="241.264">O que o c&#xe3;o herda da ra&#xe7;a e dos </tspan><tspan x="800" y="265.264">seus ancestrais.</tspan></text>
</g>
</g>
<g id="Item_2">
<g id="check-circle_2">
<path id="Vector_3" d="M790.458 399.233V400C790.457 401.797 789.871 403.546 788.788 404.985C787.705 406.424 786.182 407.477 784.447 407.987C782.712 408.496 780.857 408.435 779.16 407.812C777.463 407.189 776.014 406.038 775.029 404.531C774.045 403.023 773.577 401.24 773.696 399.447C773.815 397.654 774.514 395.947 775.69 394.581C776.865 393.215 778.454 392.263 780.219 391.867C781.984 391.471 783.83 391.652 785.483 392.383" stroke="#FF6A39" stroke-width="1.66667" stroke-linecap="round" stroke-linejoin="round"/>
<path id="Vector_4" d="M790.458 393.333L782.068 401.675L779.551 399.175" stroke="#FF6A39" stroke-width="1.66667" stroke-linecap="round" stroke-linejoin="round"/>
</g>
<g id="Frame 41_2">
<text id="Rotina Estruturada" fill="#FF6A39" xml:space="preserve" style="white-space: pre" font-family="Nunito Sans" font-size="20" font-weight="600" letter-spacing="0.01em"><tspan x="800" y="406.58">Rotina Estruturada</tspan></text>
<text id="Qual a rotina ideal para o c&#195;&#163;o e a fam&#195;&#173;lia." fill="#004851" xml:space="preserve" style="white-space: pre" font-family="Nunito Sans" font-size="16" letter-spacing="0.01em"><tspan x="800" y="433.264">Qual a rotina ideal para o c&#xe3;o e a </tspan><tspan x="800" y="457.264">fam&#xed;lia.</tspan></text>
</g>
</g>
<g id="Item_3">
<g id="check-circle_3">
<path id="Vector_5" d="M790.458 591.233V592C790.457 593.797 789.871 595.546 788.788 596.985C787.705 598.424 786.182 599.477 784.447 599.987C782.712 600.496 780.857 600.435 779.16 599.812C777.463 599.189 776.014 598.038 775.029 596.531C774.045 595.023 773.577 593.24 773.696 591.447C773.815 589.654 774.514 587.947 775.69 586.581C776.865 585.215 778.454 584.263 780.219 583.867C781.984 583.471 783.83 583.652 785.483 584.383" stroke="#FF6A39" stroke-width="1.66667" stroke-linecap="round" stroke-linejoin="round"/>
<path id="Vector_6" d="M790.458 585.333L782.068 593.675L779.551 591.175" stroke="#FF6A39" stroke-width="1.66667" stroke-linecap="round" stroke-linejoin="round"/>
</g>
<g id="Frame 41_3">
<text id="Mente" fill="#FF6A39" xml:space="preserve" style="white-space: pre" font-family="Nunito Sans" font-size="20" font-weight="600" letter-spacing="0.01em"><tspan x="800" y="598.58">Mente</tspan></text>
<text id="Como funciona a mente canina e como eles aprendem." fill="#004851" xml:space="preserve" style="white-space: pre" font-family="Nunito Sans" font-size="16" letter-spacing="0.01em"><tspan x="800" y="625.264">Como funciona a mente canina e </tspan><tspan x="800" y="649.264">como eles aprendem.</tspan></text>
</g>
</g>
<g id="Item_4">
<g id="check-circle_4">
<path id="Vector_7" d="M790.458 783.233V784C790.457 785.797 789.871 787.546 788.788 788.985C787.705 790.424 786.182 791.477 784.447 791.987C782.712 792.496 780.857 792.435 779.16 791.812C777.463 791.189 776.014 790.038 775.029 788.531C774.045 787.023 773.577 785.24 773.696 783.447C773.815 781.654 774.514 779.947 775.69 778.581C776.865 777.215 778.454 776.263 780.219 775.867C781.984 775.471 783.83 775.652 785.483 776.383" stroke="#FF6A39" stroke-width="1.66667" stroke-linecap="round" stroke-linejoin="round"/>
<path id="Vector_8" d="M790.458 777.333L782.068 785.675L779.551 783.175" stroke="#FF6A39" stroke-width="1.66667" stroke-linecap="round" stroke-linejoin="round"/>
</g>
<g id="Frame 41_4">
<text id="Educa&#195;&#167;&#195;&#163;o Sanit&#195;&#161;ria" fill="#FF6A39" xml:space="preserve" style="white-space: pre" font-family="Nunito Sans" font-size="20" font-weight="600" letter-spacing="0.01em"><tspan x="800" y="790.58">Educa&#xe7;&#xe3;o Sanit&#xe1;ria</tspan></text>
<text id="Onde o c&#195;&#163;o deve fazer suas necessidades." fill="#004851" xml:space="preserve" style="white-space: pre" font-family="Nunito Sans" font-size="16" letter-spacing="0.01em"><tspan x="800" y="817.264">Onde o c&#xe3;o deve fazer suas </tspan><tspan x="800" y="841.264">necessidades.</tspan></text>
</g>
</g>
<g id="Item_5">
<g id="check-circle_5">
<path id="Vector_9" d="M790.458 303.233V304C790.457 305.797 789.871 307.546 788.788 308.985C787.705 310.424 786.182 311.477 784.447 311.987C782.712 312.496 780.857 312.435 779.16 311.812C777.463 311.189 776.014 310.038 775.029 308.531C774.045 307.023 773.577 305.24 773.696 303.447C773.815 301.654 774.514 299.947 775.69 298.581C776.865 297.215 778.454 296.263 780.219 295.867C781.984 295.471 783.83 295.652 785.483 296.383" stroke="#FF6A39" stroke-width="1.66667" stroke-linecap="round" stroke-linejoin="round"/>
<path id="Vector_10" d="M790.458 297.333L782.068 305.675L779.551 303.175" stroke="#FF6A39" stroke-width="1.66667" stroke-linecap="round" stroke-linejoin="round"/>
</g>
<g id="Frame 41_5">
<text id="Manejo" fill="#FF6A39" xml:space="preserve" style="white-space: pre" font-family="Nunito Sans" font-size="20" font-weight="600" letter-spacing="0.01em"><tspan x="800" y="310.58">Manejo</tspan></text>
<text id="Como fazer o manejo correto em cada fase." fill="#004851" xml:space="preserve" style="white-space: pre" font-family="Nunito Sans" font-size="16" letter-spacing="0.01em"><tspan x="800" y="337.264">Como fazer o manejo correto em </tspan><tspan x="800" y="361.264">cada fase.</tspan></text>
</g>
</g>
<g id="Item_6">
<g id="check-circle_6">
<path id="Vector_11" d="M790.458 495.233V496C790.457 497.797 789.871 499.546 788.788 500.985C787.705 502.424 786.182 503.477 784.447 503.987C782.712 504.496 780.857 504.435 779.16 503.812C777.463 503.189 776.014 502.038 775.029 500.531C774.045 499.023 773.577 497.24 773.696 495.447C773.815 493.654 774.514 491.947 775.69 490.581C776.865 489.215 778.454 488.263 780.219 487.867C781.984 487.471 783.83 487.652 785.483 488.383" stroke="#FF6A39" stroke-width="1.66667" stroke-linecap="round" stroke-linejoin="round"/>
<path id="Vector_12" d="M790.458 489.333L782.068 497.675L779.551 495.175" stroke="#FF6A39" stroke-width="1.66667" stroke-linecap="round" stroke-linejoin="round"/>
</g>
<g id="Frame 41_6">
<text id="V&#195;&#173;nculo" fill="#FF6A39" xml:space="preserve" style="white-space: pre" font-family="Nunito Sans" font-size="20" font-weight="600" letter-spacing="0.01em"><tspan x="800" y="502.58">V&#xed;nculo</tspan></text>
<text id="O que &#195;&#169; v&#195;&#173;nculo saud&#195;&#161;vel e como desenvolver." fill="#004851" xml:space="preserve" style="white-space: pre" font-family="Nunito Sans" font-size="16" letter-spacing="0.01em"><tspan x="800" y="529.264">O que &#xe9; v&#xed;nculo saud&#xe1;vel e como </tspan><tspan x="800" y="553.264">desenvolver.</tspan></text>
</g>
</g>
<g id="Item_7">
<g id="check-circle_7">
<path id="Vector_13" d="M790.458 687.233V688C790.457 689.797 789.871 691.546 788.788 692.985C787.705 694.424 786.182 695.477 784.447 695.987C782.712 696.496 780.857 696.435 779.16 695.812C777.463 695.189 776.014 694.038 775.029 692.531C774.045 691.023 773.577 689.24 773.696 687.447C773.815 685.654 774.514 683.947 775.69 682.581C776.865 681.215 778.454 680.263 780.219 679.867C781.984 679.471 783.83 679.652 785.483 680.383" stroke="#FF6A39" stroke-width="1.66667" stroke-linecap="round" stroke-linejoin="round"/>
<path id="Vector_14" d="M790.458 681.333L782.068 689.675L779.551 687.175" stroke="#FF6A39" stroke-width="1.66667" stroke-linecap="round" stroke-linejoin="round"/>
</g>
<g id="Frame 41_7">
<text id="Refor&#195;&#167;adores" fill="#FF6A39" xml:space="preserve" style="white-space: pre" font-family="Nunito Sans" font-size="20" font-weight="600" letter-spacing="0.01em"><tspan x="800" y="694.58">Refor&#xe7;adores</tspan></text>
<text id="O que &#195;&#169; e como criar um c&#195;&#163;o obediente." fill="#004851" xml:space="preserve" style="white-space: pre" font-family="Nunito Sans" font-size="16" letter-spacing="0.01em"><tspan x="800" y="721.264">O que &#xe9; e como criar um c&#xe3;o </tspan><tspan x="800" y="745.264">obediente.</tspan></text>
</g>
</g>
<g id="Item_8">
<g id="check-circle_8">
<path id="Vector_15" d="M790.458 879.233V880C790.457 881.797 789.871 883.546 788.788 884.985C787.705 886.424 786.182 887.477 784.447 887.987C782.712 888.496 780.857 888.435 779.16 887.812C777.463 887.189 776.014 886.038 775.029 884.531C774.045 883.023 773.577 881.24 773.696 879.447C773.815 877.654 774.514 875.947 775.69 874.581C776.865 873.215 778.454 872.263 780.219 871.867C781.984 871.471 783.83 871.652 785.483 872.383" stroke="#FF6A39" stroke-width="1.66667" stroke-linecap="round" stroke-linejoin="round"/>
<path id="Vector_16" d="M790.458 873.333L782.068 881.675L779.551 879.175" stroke="#FF6A39" stroke-width="1.66667" stroke-linecap="round" stroke-linejoin="round"/>
</g>
<g id="Frame 41_8">
<text id="Objetivo com o C&#195;&#163;o" fill="#FF6A39" xml:space="preserve" style="white-space: pre" font-family="Nunito Sans" font-size="20" font-weight="600" letter-spacing="0.01em"><tspan x="800" y="886.58">Objetivo com o C&#xe3;o</tspan></text>
<text id="Como ter o c&#195;&#163;o ideal para sua vida." fill="#004851" xml:space="preserve" style="white-space: pre" font-family="Nunito Sans" font-size="16" letter-spacing="0.01em"><tspan x="800" y="913.264">Como ter o c&#xe3;o ideal para sua vida.</tspan></text>
</g>
</g>
</g>
<g id="How it Works">
<text id="Como Funciona" fill="#FF6A39" xml:space="preserve" style="white-space: pre" font-family="Calistoga" font-size="40" letter-spacing="0em"><tspan x="102" y="546">Como Funciona</tspan></text>
<g id="Marcamos uma visita ou v&#195;&#173;deo chamada, de aproximadamente 1h30min, para tratar de assuntos relacionados ao c&#195;&#163;o em especial, e as dificuldades que os donos vem enfrentando. A consultoria &#195;&#169; personalizada de acordo com cada c&#195;&#163;o e cada fam&#195;&#173;lia, sendo indicada tanto para c&#195;&#163;es pet (companhia), quanto para c&#195;&#163;es de fun&#195;&#167;&#195;&#163;o (c&#195;&#163;es de trabalho, como guarda).">
<text fill="#004851" xml:space="preserve" style="white-space: pre" font-family="Nunito Sans" font-size="20" letter-spacing="0.01em"><tspan x="102" y="606.58">Marcamos uma visita ou v&#xed;deo chamada, de aproximadamente </tspan><tspan x="184.513" y="638.58">, para tratar de assuntos relacionados ao c&#xe3;o em </tspan><tspan x="102" y="670.58">especial, e as dificuldades que os donos vem enfrentando.&#10;</tspan><tspan x="102" y="702.58">&#10;</tspan><tspan x="102" y="734.58">A consultoria &#xe9; personalizada de acordo com cada c&#xe3;o e cada </tspan><tspan x="102" y="766.58">fam&#xed;lia, sendo indicada tanto para c&#xe3;es pet (companhia), quanto </tspan><tspan x="102" y="798.58">para c&#xe3;es de fun&#xe7;&#xe3;o (c&#xe3;es de trabalho, como guarda).</tspan></text>
<text fill="#004851" xml:space="preserve" style="white-space: pre" font-family="Nunito Sans" font-size="20" font-weight="600" letter-spacing="0.01em"><tspan x="102" y="638.58">1h30min</tspan></text>
</g>
<g id="Button">
<rect x="93" y="856" width="332" height="64" rx="32" fill="#FF6A39"/>
<g id="calendar">
<path id="Vector (Stroke)_5" fill-rule="evenodd" clip-rule="evenodd" d="M130 881C129.448 881 129 881.448 129 882V896C129 896.552 129.448 897 130 897H144C144.552 897 145 896.552 145 896V882C145 881.448 144.552 881 144 881H130ZM127 882C127 880.343 128.343 879 130 879H144C145.657 879 147 880.343 147 882V896C147 897.657 145.657 899 144 899H130C128.343 899 127 897.657 127 896V882Z" fill="#FFF4E0"/>
<path id="Vector (Stroke)_6" fill-rule="evenodd" clip-rule="evenodd" d="M141 877C141.552 877 142 877.448 142 878V882C142 882.552 141.552 883 141 883C140.448 883 140 882.552 140 882V878C140 877.448 140.448 877 141 877Z" fill="#FFF4E0"/>
<path id="Vector (Stroke)_7" fill-rule="evenodd" clip-rule="evenodd" d="M133 877C133.552 877 134 877.448 134 878V882C134 882.552 133.552 883 133 883C132.448 883 132 882.552 132 882V878C132 877.448 132.448 877 133 877Z" fill="white"/>
<path id="Vector (Stroke)_8" fill-rule="evenodd" clip-rule="evenodd" d="M127 886C127 885.448 127.448 885 128 885H146C146.552 885 147 885.448 147 886C147 886.552 146.552 887 146 887H128C127.448 887 127 886.552 127 886Z" fill="white"/>
</g>
<text id="Button_2" fill="#FFF4E0" xml:space="preserve" style="white-space: pre" font-family="Nunito Sans" font-size="20" font-weight="600" letter-spacing="0.01em"><tspan x="165.201" y="894.58">Marque uma Consultoria</tspan></text>
</g>
</g>
</g>
</svg>
