<svg width="607" height="416" viewBox="0 0 607 416" fill="none" xmlns="http://www.w3.org/2000/svg">
<g id="How it Works">
<text id="Como Funciona" fill="#FF6A39" xml:space="preserve" style="white-space: pre" font-family="Calistoga" font-size="40" letter-spacing="0em"><tspan x="9" y="42">Como Funciona</tspan></text>
<g id="Marcamos uma visita ou v&#195;&#173;deo chamada, de aproximadamente 1h30min, para tratar de assuntos relacionados ao c&#195;&#163;o em especial, e as dificuldades que os donos vem enfrentando. A consultoria &#195;&#169; personalizada de acordo com cada c&#195;&#163;o e cada fam&#195;&#173;lia, sendo indicada tanto para c&#195;&#163;es pet (companhia), quanto para c&#195;&#163;es de fun&#195;&#167;&#195;&#163;o (c&#195;&#163;es de trabalho, como guarda).">
<text fill="#004851" xml:space="preserve" style="white-space: pre" font-family="Nunito Sans" font-size="20" letter-spacing="0.01em"><tspan x="9" y="102.58">Marcamos uma visita ou v&#xed;deo chamada, de aproximadamente </tspan><tspan x="91.5133" y="134.58">, para tratar de assuntos relacionados ao c&#xe3;o em </tspan><tspan x="9" y="166.58">especial, e as dificuldades que os donos vem enfrentando.&#10;</tspan><tspan x="9" y="198.58">&#10;</tspan><tspan x="9" y="230.58">A consultoria &#xe9; personalizada de acordo com cada c&#xe3;o e cada </tspan><tspan x="9" y="262.58">fam&#xed;lia, sendo indicada tanto para c&#xe3;es pet (companhia), quanto </tspan><tspan x="9" y="294.58">para c&#xe3;es de fun&#xe7;&#xe3;o (c&#xe3;es de trabalho, como guarda).</tspan></text>
<text fill="#004851" xml:space="preserve" style="white-space: pre" font-family="Nunito Sans" font-size="20" font-weight="600" letter-spacing="0.01em"><tspan x="9" y="134.58">1h30min</tspan></text>
</g>
<g id="Button">
<rect y="352" width="332" height="64" rx="32" fill="#FF6A39"/>
<g id="calendar">
<path id="Vector (Stroke)" fill-rule="evenodd" clip-rule="evenodd" d="M37 377C36.4477 377 36 377.448 36 378V392C36 392.552 36.4477 393 37 393H51C51.5523 393 52 392.552 52 392V378C52 377.448 51.5523 377 51 377H37ZM34 378C34 376.343 35.3431 375 37 375H51C52.6569 375 54 376.343 54 378V392C54 393.657 52.6569 395 51 395H37C35.3431 395 34 393.657 34 392V378Z" fill="#FFF4E0"/>
<path id="Vector (Stroke)_2" fill-rule="evenodd" clip-rule="evenodd" d="M48 373C48.5523 373 49 373.448 49 374V378C49 378.552 48.5523 379 48 379C47.4477 379 47 378.552 47 378V374C47 373.448 47.4477 373 48 373Z" fill="#FFF4E0"/>
<path id="Vector (Stroke)_3" fill-rule="evenodd" clip-rule="evenodd" d="M40 373C40.5523 373 41 373.448 41 374V378C41 378.552 40.5523 379 40 379C39.4477 379 39 378.552 39 378V374C39 373.448 39.4477 373 40 373Z" fill="white"/>
<path id="Vector (Stroke)_4" fill-rule="evenodd" clip-rule="evenodd" d="M34 382C34 381.448 34.4477 381 35 381H53C53.5523 381 54 381.448 54 382C54 382.552 53.5523 383 53 383H35C34.4477 383 34 382.552 34 382Z" fill="white"/>
</g>
<text id="Button_2" fill="#FFF4E0" xml:space="preserve" style="white-space: pre" font-family="Nunito Sans" font-size="20" font-weight="600" letter-spacing="0.01em"><tspan x="72.2008" y="390.58">Marque uma Consultoria</tspan></text>
</g>
</g>
</svg>
