<svg width="174" height="48" viewBox="0 0 174 48" fill="none" xmlns="http://www.w3.org/2000/svg">
<g clip-path="url(#clip0_1136_758)">
<path d="M77.0236 25.3191C75.4847 28.6276 72.4839 30.5512 68.7521 30.5512C63.2891 30.5512 59.4804 26.5117 59.4804 20.4716C59.4804 14.4316 63.2506 10.5459 68.8675 10.5459C73.5226 10.5459 76.6004 13.2774 76.6004 17.0476C76.6004 17.5093 76.5234 17.971 76.4465 18.4711H73.0225C73.5226 15.6626 71.9453 13.7391 68.9445 13.7391C65.3666 13.7391 63.0198 16.3936 63.0198 20.5101C63.0198 24.6266 65.4435 27.3196 68.906 27.3196C71.4067 27.3196 73.3687 25.9346 74.4075 23.6263L77.0236 25.3191Z" fill="#0F2830"/>
<path d="M96.2082 26.4348V17.6247C96.2082 13.1235 93.1689 10.5459 88.2061 10.5459C83.2432 10.5459 80.3193 12.9696 80.3193 16.4706C80.3193 16.8553 80.3578 17.2785 80.4348 17.7017H83.8972C83.3971 15.201 85.0129 13.5467 88.1291 13.5467C91.053 13.5467 92.6303 15.0086 92.6303 17.4708V17.5093C88.7831 19.7022 79.5884 17.7786 79.5884 24.6651C79.5884 28.3583 82.3199 30.5512 86.1671 30.5512C88.8216 30.5512 91.053 29.551 92.8996 27.5889H93.2843C93.3613 29.2817 94.5154 30.3974 96.1313 30.3974C96.6699 30.3974 97.4778 30.2435 98.2087 29.9742V27.4735C97.901 27.5889 97.5932 27.6274 97.3624 27.6274C96.6314 27.6274 96.2082 27.2042 96.2082 26.4348ZM92.6303 23.0492C92.6303 25.5114 89.7065 27.5889 86.7441 27.5889C84.6282 27.5889 83.2047 26.5117 83.2047 24.6266C83.2047 20.7794 89.1294 22.1259 92.6303 20.2793V23.0492Z" fill="#0F2830"/>
<path d="M122.895 11.0845H119.317C119.477 12.8574 119.041 14.8483 117.9 16.2654C117.332 16.9835 116.633 17.6055 115.8 18.2403C114.646 19.2021 113.171 19.622 111.86 20.3562C111.273 19.7599 110.68 19.2245 110.138 18.7661C109.237 18.0319 108.218 17.3554 107.163 16.8328C106.272 16.368 105.246 16.0185 104.512 15.4831C103.178 14.4284 102.72 12.7035 102.72 11.0076L99.3853 11.0396L99.3693 14.3578C99.3821 16.4802 99.4141 22.1163 99.427 24.3124H102.678C102.684 22.9915 102.7 20.3755 102.713 18.0543C103.216 18.4198 103.781 18.7212 104.399 18.9424C105.849 19.5291 107.099 20.1158 108.327 21.0744C108.641 21.3212 109.042 21.6546 109.465 22.0394C108.218 22.9819 107.028 24.0687 106.58 25.691C106.185 27.2106 107.016 28.8232 108.189 29.7433C110.468 31.6573 114.027 30.4807 114.941 27.8133C115.479 26.0436 114.841 24.2547 113.771 22.6549C114.005 22.5587 114.219 22.469 114.412 22.392C114.854 22.2189 115.412 21.9079 115.986 21.613C118.663 20.1446 121.173 18.0447 122.183 15.0215C122.6 13.7968 122.943 12.3573 122.892 11.0845H122.895ZM112.052 27.2491C111.558 28.0858 110.465 28.3616 109.805 27.5024C109.433 27.0183 109.292 26.7554 109.513 25.7968C109.673 25.1043 110.372 24.4727 111.228 23.9277C112.075 25.053 112.597 26.2681 112.049 27.2459L112.052 27.2491Z" fill="#0F2830"/>
<path d="M137.36 29.9357C136.591 30.2434 135.783 30.3973 135.09 30.3973C133.398 30.3973 132.359 29.4355 132.128 27.7812H131.743C130.551 29.3971 128.435 30.3973 125.973 30.3973C121.933 30.3973 119.317 27.7043 119.317 23.5493V11.0845H122.895V23.0107C122.895 25.6268 124.434 27.2042 126.896 27.2042C129.743 27.2042 131.782 25.1267 131.782 22.2413V11.0845H135.36V26.3963C135.36 27.1657 135.783 27.5889 136.514 27.5889C136.745 27.5889 137.052 27.5504 137.36 27.435V29.9357Z" fill="#0F2830"/>
<path d="M146.042 29.9357C145.08 30.2434 144.08 30.3973 143.234 30.3973C140.771 30.3973 139.386 29.0508 139.386 26.6656V3.42859H142.964V25.5499C142.964 26.781 143.772 27.4735 145.08 27.4735C145.349 27.4735 145.696 27.435 146.042 27.3581V29.9357Z" fill="#0F2830"/>
<path d="M170.645 10.517C170.202 11.8026 169.099 14.1782 166.676 15.6626C166.419 15.8197 166.153 15.9575 165.881 16.089C164.957 13.8512 163.306 12.1809 161.12 11.2864C160.373 10.9177 159.603 10.6869 158.837 10.6324C156.59 10.4657 154.403 11.2672 153.877 13.6043C153.538 15.1208 153.598 16.8328 155.545 18.3107C157.574 19.8496 160.347 20.4683 163.123 20.167C163.127 20.2952 163.133 20.4235 163.133 20.5549C163.133 22.44 162.662 23.9949 161.809 25.1363C161.277 25.7678 160.639 26.3064 159.914 26.6976C159.122 27.0791 158.205 27.2875 157.173 27.2875C153.48 27.2875 151.249 24.7868 151.249 20.5934C151.249 18.8461 151.633 17.3874 152.339 16.2685L151.364 15.6818L149.411 14.4988C149.411 14.4988 149.411 14.4988 149.411 14.502L149.347 14.4571C148.27 16.0826 147.674 18.1536 147.674 20.5517C147.674 26.4283 151.242 30.3364 156.715 30.5448C156.917 30.5608 157.122 30.5704 157.33 30.5704C157.439 30.5704 157.551 30.5704 157.664 30.564C158.02 30.5512 158.372 30.5127 158.722 30.455C163.242 29.8426 166.272 26.5116 166.669 21.6674C166.733 21.0711 166.743 20.4683 166.695 19.8656C166.685 19.6636 166.669 19.4649 166.65 19.2661C167.237 19.0224 167.807 18.7339 168.352 18.4005C171.632 16.3935 173.097 13.2549 173.678 11.5653L170.645 10.5234V10.517ZM157.481 15.7523C157.481 15.7523 157.465 15.7395 157.455 15.7331C156.683 15.1432 157.048 13.8768 158.02 13.8159C158.186 13.8063 158.359 13.8063 158.526 13.8223C159.607 13.9249 160.879 14.7681 161.854 16.0184C162.094 16.3262 162.309 16.65 162.502 16.9866C160.613 17.1341 158.763 16.727 157.478 15.7523H157.481Z" fill="#0F2830"/>
<path d="M75.7542 40.8969C75.7542 39.2073 77.0526 37.9955 78.7998 37.9955C79.7712 37.9955 80.5792 38.3481 81.1081 38.9893L80.2746 39.7588C79.8963 39.326 79.425 39.1016 78.864 39.1016C77.8124 39.1016 77.0686 39.8389 77.0686 40.8969C77.0686 41.9549 77.8124 42.6923 78.864 42.6923C79.425 42.6923 79.8963 42.4678 80.2746 42.0286L81.1081 42.7981C80.5792 43.4457 79.7713 43.7983 78.7934 43.7983C77.0558 43.7983 75.7574 42.5897 75.7574 40.8969H75.7542Z" fill="#FF6A39"/>
<path d="M87.1258 42.6602V43.7021H82.7817V38.0917H87.02V39.1336H84.0705V40.3519H86.6737V41.3618H84.0705V42.6602H87.1226H87.1258Z" fill="#FF6A39"/>
<path d="M94.1084 38.0948V43.7053H93.044L90.2484 40.3006V43.7053H88.966V38.0948H90.04L92.8292 41.4996V38.0948H94.1116H94.1084Z" fill="#FF6A39"/>
<path d="M97.4042 39.1528H95.6088V38.0948H100.498V39.1528H98.7026V43.7053H97.4042V39.1528Z" fill="#FF6A39"/>
<path d="M105.57 43.7021L104.489 42.1408H103.297V43.7021H101.998V38.0917H104.425C105.922 38.0917 106.862 38.8675 106.862 40.1275C106.862 40.9674 106.435 41.5862 105.708 41.8972L106.964 43.6989H105.57V43.7021ZM104.352 39.1497H103.294V41.1053H104.352C105.143 41.1053 105.544 40.7366 105.544 40.1275C105.544 39.5183 105.143 39.1497 104.352 39.1497Z" fill="#FF6A39"/>
<path d="M108.337 40.8969C108.337 39.2298 109.635 37.9955 111.405 37.9955C113.174 37.9955 114.473 39.2202 114.473 40.8969C114.473 42.5736 113.168 43.7983 111.405 43.7983C109.641 43.7983 108.337 42.564 108.337 40.8969ZM113.162 40.8969C113.162 39.8325 112.408 39.1016 111.408 39.1016C110.408 39.1016 109.654 39.8293 109.654 40.8969C109.654 41.9645 110.408 42.6923 111.408 42.6923C112.408 42.6923 113.162 41.9645 113.162 40.8969Z" fill="#FF6A39"/>
<path d="M118.971 40.8969C118.971 39.2073 120.269 37.9955 122.017 37.9955C122.988 37.9955 123.796 38.3481 124.325 38.9893L123.491 39.7588C123.113 39.326 122.642 39.1016 122.081 39.1016C121.029 39.1016 120.285 39.8389 120.285 40.8969C120.285 41.9549 121.029 42.6923 122.081 42.6923C122.642 42.6923 123.113 42.4678 123.491 42.0286L124.325 42.7981C123.796 43.4457 122.988 43.7983 122.01 43.7983C120.272 43.7983 118.974 42.5897 118.974 40.8969H118.971Z" fill="#FF6A39"/>
<path d="M129.583 42.4999H126.979L126.482 43.7021H125.152L127.653 38.0917H128.935L131.442 43.7021H130.08L129.583 42.4999ZM129.172 41.5157L128.284 39.3677L127.393 41.5157H129.172Z" fill="#FF6A39"/>
<path d="M137.973 38.0948V43.7053H136.908L134.113 40.3006V43.7053H132.83V38.0948H133.904L136.694 41.4996V38.0948H137.976H137.973Z" fill="#FF6A39"/>
<path d="M140.108 38.0948H141.406V43.7053H140.108V38.0948Z" fill="#FF6A39"/>
<path d="M148.681 38.0948V43.7053H147.616L144.821 40.3006V43.7053H143.538V38.0948H144.612L147.402 41.4996V38.0948H148.684H148.681Z" fill="#FF6A39"/>
<path d="M150.463 40.8969C150.463 39.2298 151.762 37.9955 153.531 37.9955C155.301 37.9955 156.6 39.2202 156.6 40.8969C156.6 42.5736 155.295 43.7983 153.531 43.7983C151.768 43.7983 150.463 42.564 150.463 40.8969ZM155.288 40.8969C155.288 39.8325 154.535 39.1016 153.535 39.1016C152.534 39.1016 151.781 39.8293 151.781 40.8969C151.781 41.9645 152.534 42.6923 153.535 42.6923C154.535 42.6923 155.288 41.9645 155.288 40.8969Z" fill="#FF6A39"/>
<path d="M41.7901 7.3811C34.7016 0.885779 24.2886 -0.941632 15.2637 2.72281C8.04065 5.65628 4.30567 11.3437 3.0329 13.652C-1.93638 22.6801 -0.16347 33.0546 3.79592 39.3287C5.91508 42.6886 10.2432 46.8788 12.6444 47.2507C13.3722 47.3629 13.8563 47.1097 14.1352 46.8756C15.3279 45.8657 14.5232 44.5609 13.5902 43.0445C12.7022 41.605 11.362 39.4313 10.4003 36.5395C8.00538 29.3261 9.17557 23.7316 10.5798 20.3076C12.3271 16.0437 15.19 13.1262 17.6458 11.2668C18.2613 12.4241 18.7262 13.4404 19.0692 14.3253C17.7676 14.7741 16.3345 15.566 15.812 17.169C15.3311 18.6533 15.7446 20.7148 17.2739 21.5964C18.9025 22.5358 20.9031 21.6862 21.8007 20.7789C22.5445 20.0287 23.0927 18.7335 22.7369 16.4925C24.3271 16.3194 26.8053 16.3354 28.1967 17.8006C28.6744 18.3039 28.8411 18.7046 29.0944 19.3106C29.4085 20.064 29.7997 21.0001 30.8448 22.1928C32.419 23.9881 34.8747 25.0012 38.1609 25.2128C38.241 25.8123 38.5264 26.3605 38.9816 26.7677C39.4497 27.1845 40.0428 27.4089 40.6648 27.4089C40.7128 27.4089 40.7609 27.4089 40.809 27.4057C40.8283 27.4057 40.8443 27.4025 40.8635 27.3993C40.8603 27.4698 40.8571 27.5371 40.8507 27.6109C40.6648 29.4575 39.2894 30.9098 38.0102 31.5254C37.7762 31.6376 37.5742 31.7113 37.3722 31.753C35.9167 32.0608 34.8972 31.9005 33.8168 31.7274C33.089 31.6119 32.3356 31.4901 31.5021 31.5382C28.3538 31.7049 25.1959 34.4108 24.4617 37.5719C23.6249 41.1818 25.9813 44.7468 28.7449 46.4011C30.1107 47.2187 31.6559 47.629 33.3711 47.629C34.4163 47.629 35.5224 47.4784 36.6893 47.1706C44.6338 45.0995 48.4232 35.7605 49.4075 30.57C51.0265 22.0485 48.1059 13.1615 41.7901 7.3779V7.3811ZM19.7329 18.7239C19.4732 18.9836 18.8865 19.1407 18.7326 19.0701C18.6076 18.9804 18.4601 18.461 18.5851 18.0699C18.7166 17.6627 19.2648 17.3613 19.8675 17.1401C19.9958 18.0282 19.9028 18.5508 19.7297 18.7239H19.7329ZM46.5381 30.0282C45.4256 35.8855 41.6362 42.8681 35.9199 44.3589C35.0735 44.5801 32.4991 45.2534 30.2421 43.9005C28.4307 42.8136 26.7828 40.4605 27.299 38.2323C27.7895 36.1131 29.9888 34.539 31.6527 34.4524C31.7201 34.4492 31.7906 34.446 31.8579 34.446C32.3228 34.446 32.8069 34.523 33.3551 34.6095C34.5285 34.7955 35.9904 35.0263 37.9749 34.6095C38.4045 34.5198 38.8309 34.3691 39.2734 34.1543C41.136 33.2534 43.4283 31.0765 43.7489 27.9058C43.9765 25.652 43.0885 23.8535 42.5467 22.9942C42.2549 22.5198 41.7259 22.2473 41.1585 22.2825C37.1831 22.5646 34.4483 21.8882 33.0345 20.2724C32.3035 19.4388 32.0503 18.8297 31.781 18.1853C31.486 17.48 31.1526 16.6849 30.3062 15.7936C27.9017 13.2641 24.1411 13.3314 21.945 13.6456C21.4032 12.1901 20.5825 10.4717 19.4027 8.4487C19.1943 8.09283 18.848 7.83315 18.4441 7.74017C18.0433 7.6472 17.6137 7.72414 17.2707 7.95177C14.2731 9.93948 10.2047 13.5045 7.87073 19.2048C6.28056 23.084 4.94687 29.403 7.62387 37.4629C8.15927 39.0755 8.79085 40.4669 9.4064 41.6531C8.35163 40.624 7.23274 39.3223 6.25491 37.777C2.75077 32.2243 1.18304 23.0488 5.58166 15.0626C6.70375 13.0268 9.9963 8.01268 16.3538 5.43187C24.2181 2.2387 33.6436 3.88658 39.812 9.53553C46.4772 15.6397 47.6538 24.126 46.5317 30.0314L46.5381 30.0282Z" fill="#FF6A39"/>
</g>
<defs>
<clipPath id="clip0_1136_758">
<rect width="173.678" height="48" fill="white"/>
</clipPath>
</defs>
</svg>
