<svg width="1440" height="257" viewBox="0 0 1440 257" fill="none" xmlns="http://www.w3.org/2000/svg">
<path d="M1469.85 190.791C1345.84 264.8 1275.83 260.238 1234.17 239.434C1166.75 205.768 1173.12 129.361 1099.23 100.724C1025.47 72.1414 936.672 100.918 922.5 154.5C914.126 186.161 924.544 205.172 950 208.5C974.378 211.69 990.245 196.965 990.5 166.5C990.898 118.899 926.337 86.837 858.147 71.9022C726.837 43.1438 629.818 136.613 578.121 87.374C566.386 76.1981 551.656 52.597 558.591 32.271C564.782 14.1248 578.121 4 592 4C605.879 4 621 13 621 46C621 87.374 518.925 148.395 415.561 152.967C295.965 158.257 264.312 87.3953 160.083 86.3159C100.558 85.6992 16.1565 107.833 -87.0001 213.615" stroke-dasharray="1" stroke-dashoffset="1" pathLength="1" stroke="#FF6A39" stroke-width="8" stroke-miterlimit="10"/>
</svg>
