<svg width="268" height="95" viewBox="0 0 268 95" fill="none" xmlns="http://www.w3.org/2000/svg">
<g clip-path="url(#clip0_350_468)">
<path d="M41.04 51.2101C37.44 58.9501 30.42 63.4501 21.69 63.4501C8.91 63.4501 0 54.0001 0 39.8701C0 25.7401 8.82 16.6501 21.96 16.6501C32.85 16.6501 40.05 23.0401 40.05 31.8601C40.05 32.9401 39.87 34.0201 39.69 35.1901H31.68C32.85 28.6201 29.16 24.1201 22.14 24.1201C13.77 24.1201 8.28 30.3301 8.28 39.9601C8.28 49.5901 13.95 55.8901 22.05 55.8901C27.9 55.8901 32.49 52.6501 34.92 47.2501L41.04 51.2101Z" fill="#FFF4E0"/>
<path d="M85.92 53.8201V33.2101C85.92 22.6801 78.81 16.6501 67.2 16.6501C55.59 16.6501 48.75 22.3201 48.75 30.5101C48.75 31.4101 48.84 32.4001 49.02 33.3901H57.12C55.95 27.5401 59.73 23.6701 67.02 23.6701C73.86 23.6701 77.55 27.0901 77.55 32.8501V32.9401C68.55 38.0701 47.04 33.5701 47.04 49.6801C47.04 58.3201 53.43 63.4501 62.43 63.4501C68.64 63.4501 73.86 61.1101 78.18 56.5201H79.08C79.26 60.4801 81.96 63.0901 85.74 63.0901C87 63.0901 88.89 62.7301 90.6 62.1001V56.2501C89.88 56.5201 89.16 56.6101 88.62 56.6101C86.91 56.6101 85.92 55.6201 85.92 53.8201ZM77.55 45.9001C77.55 51.6601 70.71 56.5201 63.78 56.5201C58.83 56.5201 55.5 54.0001 55.5 49.5901C55.5 40.5901 69.36 43.7401 77.55 39.4201V45.9001Z" fill="#FFF4E0"/>
<path d="M148.35 17.9101H139.98C140.355 22.0576 139.335 26.7151 136.665 30.0301C135.337 31.7101 133.702 33.1651 131.752 34.6501C129.052 36.9001 125.602 37.8826 122.535 39.6001C121.162 38.2051 119.775 36.9526 118.507 35.8801C116.4 34.1626 114.015 32.5801 111.547 31.3576C109.462 30.2701 107.062 29.4526 105.345 28.2001C102.225 25.7326 101.152 21.6976 101.152 17.7301L93.3524 17.8051L93.3149 25.5676C93.3449 30.5326 93.4199 43.7176 93.4499 48.8551H101.055C101.07 45.7651 101.107 39.6451 101.137 34.2151C102.315 35.0701 103.635 35.7751 105.082 36.2926C108.472 37.6651 111.397 39.0376 114.27 41.2801C115.005 41.8576 115.942 42.6376 116.932 43.5376C114.015 45.7426 111.232 48.2851 110.182 52.0801C109.26 55.6351 111.202 59.4076 113.947 61.5601C119.28 66.0376 127.605 63.2851 129.742 57.0451C131.002 52.9051 129.51 48.7201 127.005 44.9776C127.552 44.7526 128.055 44.5426 128.505 44.3626C129.54 43.9576 130.845 43.2301 132.187 42.5401C138.45 39.1051 144.322 34.1926 146.685 27.1201C147.66 24.2551 148.462 20.8876 148.342 17.9101H148.35ZM122.985 55.7251C121.83 57.6826 119.272 58.3276 117.727 56.3176C116.857 55.1851 116.527 54.5701 117.045 52.3276C117.42 50.7076 119.055 49.2301 121.057 47.9551C123.037 50.5876 124.26 53.4301 122.977 55.7176L122.985 55.7251Z" fill="#FFF4E0"/>
<path d="M182.183 62.0102C180.383 62.7302 178.493 63.0902 176.873 63.0902C172.913 63.0902 170.483 60.8401 169.943 56.9701H169.043C166.253 60.7502 161.303 63.0902 155.543 63.0902C146.093 63.0902 139.973 56.7901 139.973 47.0702V17.9102H148.343V45.8102C148.343 51.9302 151.943 55.6202 157.703 55.6202C164.363 55.6202 169.133 50.7602 169.133 44.0102V17.9102H177.503V53.7302C177.503 55.5302 178.493 56.5202 180.203 56.5202C180.743 56.5202 181.463 56.4301 182.183 56.1601V62.0102Z" fill="#FFF4E0"/>
<path d="M202.5 62.0101C200.25 62.7301 197.91 63.0901 195.93 63.0901C190.17 63.0901 186.93 59.9401 186.93 54.3601V0.00012207H195.3V51.7501C195.3 54.6301 197.19 56.2501 200.25 56.2501C200.88 56.2501 201.69 56.1601 202.5 55.9801V62.0101Z" fill="#FFF4E0"/>
<path d="M260.055 16.5826C259.02 19.5901 256.44 25.1476 250.77 28.6201C250.17 28.9876 249.548 29.3101 248.91 29.6176C246.75 24.3826 242.888 20.4751 237.773 18.3826C236.025 17.5201 234.225 16.9801 232.433 16.8526C227.175 16.4626 222.06 18.3376 220.83 23.8051C220.035 27.3526 220.178 31.3576 224.73 34.8151C229.478 38.4151 235.965 39.8626 242.46 39.1576C242.468 39.4576 242.483 39.7576 242.483 40.0651C242.483 44.4751 241.38 48.1126 239.385 50.7826C238.14 52.2601 236.647 53.5201 234.952 54.4351C233.1 55.3276 230.955 55.8151 228.54 55.8151C219.9 55.8151 214.68 49.9651 214.68 40.1551C214.68 36.0676 215.58 32.6551 217.23 30.0376L214.95 28.6651L210.383 25.8976C210.383 25.8976 210.383 25.8976 210.383 25.9051L210.233 25.8001C207.713 29.6026 206.318 34.4476 206.318 40.0576C206.318 53.8051 214.665 62.9476 227.468 63.4351C227.94 63.4726 228.42 63.4951 228.908 63.4951C229.163 63.4951 229.425 63.4951 229.688 63.4801C230.52 63.4501 231.345 63.3601 232.162 63.2251C242.737 61.7926 249.825 54.0001 250.755 42.6676C250.905 41.2726 250.928 39.8626 250.815 38.4526C250.793 37.9801 250.755 37.5151 250.71 37.0501C252.083 36.4801 253.418 35.8051 254.693 35.0251C262.365 30.3301 265.793 22.9876 267.15 19.0351L260.055 16.5976V16.5826ZM229.26 28.8301C229.26 28.8301 229.223 28.8001 229.2 28.7851C227.393 27.4051 228.247 24.4426 230.52 24.3001C230.91 24.2776 231.315 24.2776 231.705 24.3151C234.233 24.5551 237.21 26.5276 239.49 29.4526C240.053 30.1726 240.555 30.9301 241.005 31.7176C236.588 32.0626 232.26 31.1101 229.253 28.8301H229.26Z" fill="#FFF4E0"/>
<path d="M38.0701 87.6526C38.0701 83.7001 41.1076 80.8651 45.1951 80.8651C47.4676 80.8651 49.3576 81.6901 50.5951 83.1901L48.6451 84.9901C47.7601 83.9776 46.6576 83.4526 45.3451 83.4526C42.8851 83.4526 41.1451 85.1776 41.1451 87.6526C41.1451 90.1276 42.8851 91.8526 45.3451 91.8526C46.6576 91.8526 47.7601 91.3276 48.6451 90.3001L50.5951 92.1001C49.3576 93.6151 47.4676 94.4401 45.1801 94.4401C41.1151 94.4401 38.0776 91.6126 38.0776 87.6526H38.0701Z" fill="#FF6A39"/>
<path d="M64.6725 91.7776V94.2151H54.51V81.0901H64.425V83.5276H57.525V86.3776H63.615V88.7401H57.525V91.7776H64.665H64.6725Z" fill="#FF6A39"/>
<path d="M81.0075 81.0977V94.2227H78.5175L71.9775 86.2577V94.2227H68.9775V81.0977H71.49L78.015 89.0627V81.0977H81.015H81.0075Z" fill="#FF6A39"/>
<path d="M88.7176 83.5727H84.5176V81.0977H95.9551V83.5727H91.7551V94.2227H88.7176V83.5727Z" fill="#FF6A39"/>
<path d="M107.82 94.2151L105.293 90.5626H102.503V94.2151H99.4651V81.0901H105.143C108.645 81.0901 110.843 82.9051 110.843 85.8526C110.843 87.8176 109.845 89.2651 108.143 89.9926L111.083 94.2076H107.82V94.2151ZM104.97 83.5651H102.495V88.1401H104.97C106.823 88.1401 107.76 87.2776 107.76 85.8526C107.76 84.4276 106.823 83.5651 104.97 83.5651Z" fill="#FF6A39"/>
<path d="M114.293 87.6526C114.293 83.7526 117.33 80.8651 121.47 80.8651C125.61 80.8651 128.648 83.7301 128.648 87.6526C128.648 91.5751 125.595 94.4401 121.47 94.4401C117.345 94.4401 114.293 91.5526 114.293 87.6526ZM125.58 87.6526C125.58 85.1626 123.818 83.4526 121.478 83.4526C119.138 83.4526 117.375 85.1551 117.375 87.6526C117.375 90.1501 119.138 91.8526 121.478 91.8526C123.818 91.8526 125.58 90.1501 125.58 87.6526Z" fill="#FF6A39"/>
<path d="M139.17 87.6526C139.17 83.7001 142.207 80.8651 146.295 80.8651C148.567 80.8651 150.457 81.6901 151.695 83.1901L149.745 84.9901C148.86 83.9776 147.757 83.4526 146.445 83.4526C143.985 83.4526 142.245 85.1776 142.245 87.6526C142.245 90.1276 143.985 91.8526 146.445 91.8526C147.757 91.8526 148.86 91.3276 149.745 90.3001L151.695 92.1001C150.457 93.6151 148.567 94.4401 146.28 94.4401C142.215 94.4401 139.177 91.6126 139.177 87.6526H139.17Z" fill="#FF6A39"/>
<path d="M163.994 91.4027H157.904L156.742 94.2152H153.629L159.479 81.0902H162.479L168.344 94.2152H165.157L163.994 91.4027ZM163.034 89.1002L160.957 84.0752L158.872 89.1002H163.034Z" fill="#FF6A39"/>
<path d="M183.622 81.0977V94.2227H181.132L174.592 86.2577V94.2227H171.592V81.0977H174.105L180.63 89.0627V81.0977H183.63H183.622Z" fill="#FF6A39"/>
<path d="M188.609 81.0977H191.647V94.2227H188.609V81.0977Z" fill="#FF6A39"/>
<path d="M208.672 81.0977V94.2227H206.182L199.642 86.2577V94.2227H196.642V81.0977H199.154L205.679 89.0627V81.0977H208.679H208.672Z" fill="#FF6A39"/>
<path d="M212.842 87.6526C212.842 83.7526 215.88 80.8651 220.02 80.8651C224.16 80.8651 227.197 83.7301 227.197 87.6526C227.197 91.5751 224.145 94.4401 220.02 94.4401C215.895 94.4401 212.842 91.5526 212.842 87.6526ZM224.13 87.6526C224.13 85.1626 222.367 83.4526 220.027 83.4526C217.687 83.4526 215.925 85.1551 215.925 87.6526C215.925 90.1501 217.687 91.8526 220.027 91.8526C222.367 91.8526 224.13 90.1501 224.13 87.6526Z" fill="#FF6A39"/>
</g>
<defs>
<clipPath id="clip0_350_468">
<rect width="267.15" height="94.44" fill="white"/>
</clipPath>
</defs>
</svg>
