<svg width="268" height="95" viewBox="0 0 268 95" fill="none" xmlns="http://www.w3.org/2000/svg">
<g clip-path="url(#clip0_350_467)">
<path d="M41.79 51.2101C38.19 58.9501 31.17 63.4501 22.44 63.4501C9.66 63.4501 0.75 54.0001 0.75 39.8701C0.75 25.7401 9.57 16.6501 22.71 16.6501C33.6 16.6501 40.8 23.0401 40.8 31.8601C40.8 32.9401 40.62 34.0201 40.44 35.1901H32.43C33.6 28.6201 29.91 24.1201 22.89 24.1201C14.52 24.1201 9.03 30.3301 9.03 39.9601C9.03 49.5901 14.7 55.8901 22.8 55.8901C28.65 55.8901 33.24 52.6501 35.67 47.2501L41.79 51.2101Z" fill="#0F2830"/>
<path d="M86.67 53.8201V33.2101C86.67 22.6801 79.56 16.6501 67.95 16.6501C56.34 16.6501 49.5 22.3201 49.5 30.5101C49.5 31.4101 49.59 32.4001 49.77 33.3901H57.87C56.7 27.5401 60.48 23.6701 67.77 23.6701C74.61 23.6701 78.3 27.0901 78.3 32.8501V32.9401C69.3 38.0701 47.79 33.5701 47.79 49.6801C47.79 58.3201 54.18 63.4501 63.18 63.4501C69.39 63.4501 74.61 61.1101 78.93 56.5201H79.83C80.01 60.4801 82.71 63.0901 86.49 63.0901C87.75 63.0901 89.64 62.7301 91.35 62.1001V56.2501C90.63 56.5201 89.91 56.6101 89.37 56.6101C87.66 56.6101 86.67 55.6201 86.67 53.8201ZM78.3 45.9001C78.3 51.6601 71.46 56.5201 64.53 56.5201C59.58 56.5201 56.25 54.0001 56.25 49.5901C56.25 40.5901 70.11 43.7401 78.3 39.4201V45.9001Z" fill="#0F2830"/>
<path d="M149.1 17.9101H140.73C141.105 22.0576 140.085 26.7151 137.415 30.0301C136.087 31.7101 134.452 33.1651 132.502 34.6501C129.802 36.9001 126.352 37.8826 123.285 39.6001C121.912 38.2051 120.525 36.9526 119.257 35.8801C117.15 34.1626 114.765 32.5801 112.297 31.3576C110.212 30.2701 107.812 29.4526 106.095 28.2001C102.975 25.7326 101.902 21.6976 101.902 17.7301L94.1024 17.8051L94.0649 25.5676C94.0949 30.5326 94.1699 43.7176 94.1999 48.8551H101.805C101.82 45.7651 101.857 39.6451 101.887 34.2151C103.065 35.0701 104.385 35.7751 105.832 36.2926C109.222 37.6651 112.147 39.0376 115.02 41.2801C115.755 41.8576 116.692 42.6376 117.682 43.5376C114.765 45.7426 111.982 48.2851 110.932 52.0801C110.01 55.6351 111.952 59.4076 114.697 61.5601C120.03 66.0376 128.355 63.2851 130.492 57.0451C131.752 52.9051 130.26 48.7201 127.755 44.9776C128.302 44.7526 128.805 44.5426 129.255 44.3626C130.29 43.9576 131.595 43.2301 132.937 42.5401C139.2 39.1051 145.072 34.1926 147.435 27.1201C148.41 24.2551 149.212 20.8876 149.092 17.9101H149.1ZM123.735 55.7251C122.58 57.6826 120.022 58.3276 118.477 56.3176C117.607 55.1851 117.277 54.5701 117.795 52.3276C118.17 50.7076 119.805 49.2301 121.807 47.9551C123.787 50.5876 125.01 53.4301 123.727 55.7176L123.735 55.7251Z" fill="#0F2830"/>
<path d="M182.933 62.0102C181.133 62.7302 179.243 63.0902 177.623 63.0902C173.663 63.0902 171.233 60.8401 170.693 56.9701H169.793C167.003 60.7502 162.053 63.0902 156.293 63.0902C146.843 63.0902 140.723 56.7901 140.723 47.0702V17.9102H149.093V45.8102C149.093 51.9302 152.693 55.6202 158.453 55.6202C165.113 55.6202 169.883 50.7602 169.883 44.0102V17.9102H178.253V53.7302C178.253 55.5302 179.243 56.5202 180.953 56.5202C181.493 56.5202 182.213 56.4301 182.933 56.1601V62.0102Z" fill="#0F2830"/>
<path d="M203.25 62.0101C201 62.7301 198.66 63.0901 196.68 63.0901C190.92 63.0901 187.68 59.9401 187.68 54.3601V0.00012207H196.05V51.7501C196.05 54.6301 197.94 56.2501 201 56.2501C201.63 56.2501 202.44 56.1601 203.25 55.9801V62.0101Z" fill="#0F2830"/>
<path d="M260.805 16.5826C259.77 19.5901 257.19 25.1476 251.52 28.6201C250.92 28.9876 250.297 29.3101 249.66 29.6176C247.5 24.3826 243.637 20.4751 238.522 18.3826C236.775 17.5201 234.975 16.9801 233.182 16.8526C227.925 16.4626 222.81 18.3376 221.58 23.8051C220.785 27.3526 220.927 31.3576 225.48 34.8151C230.227 38.4151 236.715 39.8626 243.21 39.1576C243.217 39.4576 243.232 39.7576 243.232 40.0651C243.232 44.4751 242.13 48.1126 240.135 50.7826C238.89 52.2601 237.397 53.5201 235.702 54.4351C233.85 55.3276 231.705 55.8151 229.29 55.8151C220.65 55.8151 215.43 49.9651 215.43 40.1551C215.43 36.0676 216.33 32.6551 217.98 30.0376L215.7 28.6651L211.132 25.8976C211.132 25.8976 211.132 25.8976 211.132 25.9051L210.982 25.8001C208.462 29.6026 207.067 34.4476 207.067 40.0576C207.067 53.8051 215.415 62.9476 228.217 63.4351C228.69 63.4726 229.17 63.4951 229.657 63.4951C229.912 63.4951 230.175 63.4951 230.437 63.4801C231.27 63.4501 232.095 63.3601 232.912 63.2251C243.487 61.7926 250.575 54.0001 251.505 42.6676C251.655 41.2726 251.677 39.8626 251.565 38.4526C251.542 37.9801 251.505 37.5151 251.46 37.0501C252.832 36.4801 254.167 35.8051 255.442 35.0251C263.115 30.3301 266.542 22.9876 267.9 19.0351L260.805 16.5976V16.5826ZM230.01 28.8301C230.01 28.8301 229.972 28.8001 229.95 28.7851C228.142 27.4051 228.997 24.4426 231.27 24.3001C231.66 24.2776 232.065 24.2776 232.455 24.3151C234.982 24.5551 237.96 26.5276 240.24 29.4526C240.802 30.1726 241.305 30.9301 241.755 31.7176C237.337 32.0626 233.01 31.1101 230.002 28.8301H230.01Z" fill="#0F2830"/>
<path d="M38.8199 87.6526C38.8199 83.7001 41.8574 80.8651 45.9449 80.8651C48.2174 80.8651 50.1074 81.6901 51.3449 83.1901L49.3949 84.9901C48.5099 83.9776 47.4074 83.4526 46.0949 83.4526C43.6349 83.4526 41.8949 85.1776 41.8949 87.6526C41.8949 90.1276 43.6349 91.8526 46.0949 91.8526C47.4074 91.8526 48.5099 91.3276 49.3949 90.3001L51.3449 92.1001C50.1074 93.6151 48.2174 94.4401 45.9299 94.4401C41.8649 94.4401 38.8274 91.6126 38.8274 87.6526H38.8199Z" fill="#FF6A39"/>
<path d="M65.4225 91.7776V94.2151H55.26V81.0901H65.175V83.5276H58.275V86.3776H64.365V88.7401H58.275V91.7776H65.415H65.4225Z" fill="#FF6A39"/>
<path d="M81.7574 81.0977V94.2227H79.2674L72.7274 86.2577V94.2227H69.7274V81.0977H72.2399L78.7649 89.0627V81.0977H81.7649H81.7574Z" fill="#FF6A39"/>
<path d="M89.4675 83.5727H85.2675V81.0977H96.705V83.5727H92.505V94.2227H89.4675V83.5727Z" fill="#FF6A39"/>
<path d="M108.57 94.2151L106.042 90.5626H103.252V94.2151H100.215V81.0901H105.892C109.395 81.0901 111.592 82.9051 111.592 85.8526C111.592 87.8176 110.595 89.2651 108.892 89.9926L111.832 94.2076H108.57V94.2151ZM105.72 83.5651H103.245V88.1401H105.72C107.572 88.1401 108.51 87.2776 108.51 85.8526C108.51 84.4276 107.572 83.5651 105.72 83.5651Z" fill="#FF6A39"/>
<path d="M115.042 87.6526C115.042 83.7526 118.08 80.8651 122.22 80.8651C126.36 80.8651 129.397 83.7301 129.397 87.6526C129.397 91.5751 126.345 94.4401 122.22 94.4401C118.095 94.4401 115.042 91.5526 115.042 87.6526ZM126.33 87.6526C126.33 85.1626 124.567 83.4526 122.227 83.4526C119.887 83.4526 118.125 85.1551 118.125 87.6526C118.125 90.1501 119.887 91.8526 122.227 91.8526C124.567 91.8526 126.33 90.1501 126.33 87.6526Z" fill="#FF6A39"/>
<path d="M139.92 87.6526C139.92 83.7001 142.957 80.8651 147.045 80.8651C149.317 80.8651 151.207 81.6901 152.445 83.1901L150.495 84.9901C149.61 83.9776 148.507 83.4526 147.195 83.4526C144.735 83.4526 142.995 85.1776 142.995 87.6526C142.995 90.1276 144.735 91.8526 147.195 91.8526C148.507 91.8526 149.61 91.3276 150.495 90.3001L152.445 92.1001C151.207 93.6151 149.317 94.4401 147.03 94.4401C142.965 94.4401 139.927 91.6126 139.927 87.6526H139.92Z" fill="#FF6A39"/>
<path d="M164.744 91.4027H158.654L157.492 94.2152H154.379L160.229 81.0902H163.229L169.094 94.2152H165.907L164.744 91.4027ZM163.784 89.1002L161.707 84.0752L159.622 89.1002H163.784Z" fill="#FF6A39"/>
<path d="M184.372 81.0977V94.2227H181.882L175.342 86.2577V94.2227H172.342V81.0977H174.855L181.38 89.0627V81.0977H184.38H184.372Z" fill="#FF6A39"/>
<path d="M189.36 81.0977H192.397V94.2227H189.36V81.0977Z" fill="#FF6A39"/>
<path d="M209.422 81.0977V94.2227H206.932L200.392 86.2577V94.2227H197.392V81.0977H199.905L206.43 89.0627V81.0977H209.43H209.422Z" fill="#FF6A39"/>
<path d="M213.593 87.6526C213.593 83.7526 216.63 80.8651 220.77 80.8651C224.91 80.8651 227.948 83.7301 227.948 87.6526C227.948 91.5751 224.895 94.4401 220.77 94.4401C216.645 94.4401 213.593 91.5526 213.593 87.6526ZM224.88 87.6526C224.88 85.1626 223.118 83.4526 220.778 83.4526C218.438 83.4526 216.675 85.1551 216.675 87.6526C216.675 90.1501 218.438 91.8526 220.778 91.8526C223.118 91.8526 224.88 90.1501 224.88 87.6526Z" fill="#FF6A39"/>
</g>
<defs>
<clipPath id="clip0_350_467">
<rect width="267.15" height="94.44" fill="white" transform="translate(0.75 0.00012207)"/>
</clipPath>
</defs>
</svg>
