<svg width="289" height="288" viewBox="0 0 289 288" fill="none" xmlns="http://www.w3.org/2000/svg">
<g clip-path="url(#clip0_350_461)">
<path d="M122.84 89.6525C122.472 89.795 122.105 89.93 121.745 90.0725L122.84 89.6525ZM121.745 90.0725C104.847 96.935 96.11 110.24 93.1325 115.64C91.265 119.03 89.81 122.503 88.7075 126.005C86.87 131.683 85.865 137.735 85.865 144.02C85.865 151.258 87.1925 158.188 89.5925 164.585C91.0325 168.673 92.84 172.43 94.91 175.708C99.1625 182.45 107.217 190.618 112.97 193.355C122.037 199.13 132.785 202.49 144.335 202.49C176.982 202.49 203.382 175.73 202.797 142.948C202.242 112.085 177.35 86.7125 146.502 85.5875C138.117 85.28 130.122 86.765 122.84 89.645M170.067 187.468C168.087 187.985 162.065 189.56 156.785 186.395C152.547 183.853 148.692 178.348 149.9 173.135C151.047 168.178 156.192 164.495 160.085 164.293C160.242 164.285 160.407 164.278 160.565 164.278C161.652 164.278 162.785 164.458 164.067 164.66C166.812 165.095 170.232 165.635 174.875 164.66C175.88 164.45 176.877 164.098 177.912 163.595C182.27 161.488 187.632 156.395 188.382 148.978C188.915 143.705 186.837 139.498 185.57 137.488C184.887 136.378 183.65 135.74 182.322 135.823C173.022 136.483 166.625 134.9 163.317 131.12C161.607 129.17 161.015 127.745 160.385 126.238C159.695 124.588 158.915 122.728 156.935 120.643C151.31 114.725 142.512 114.883 137.375 115.618C136.107 112.213 134.187 108.193 131.427 103.46C130.94 102.628 130.13 102.02 129.185 101.803C128.247 101.585 127.242 101.765 126.44 102.298C119.427 106.948 109.91 115.288 104.45 128.623C100.73 137.698 97.61 152.48 103.872 171.335C105.125 175.108 106.595 178.363 108.042 181.138C107.922 181.063 105.417 179.203 104.48 178.115C96.065 168.298 91.205 155.353 91.925 141.29C93.3125 114.05 115.775 92.225 143.037 91.5725C172.557 90.86 196.79 114.665 196.79 144.028C196.79 159.86 189.732 174.058 178.617 183.688C175.962 185.383 173.09 186.688 170.052 187.483L170.067 187.468ZM132.2 127.498C131.592 128.105 130.22 128.473 129.86 128.308C129.567 128.098 129.222 126.883 129.515 125.968C129.822 125.015 131.105 124.31 132.515 123.793C132.815 125.87 132.597 127.093 132.192 127.498H132.2ZM132.807 195.2C126.582 193.79 121.212 189.898 117.867 184.468C117.852 184.445 117.837 184.423 117.822 184.4C115.745 181.033 112.61 175.948 110.36 169.183C104.757 152.308 107.495 139.22 110.78 131.21C114.867 121.235 121.565 114.41 127.31 110.06C128.75 112.768 129.837 115.145 130.64 117.215C127.595 118.265 124.242 120.118 123.02 123.868C121.895 127.34 122.862 132.163 126.44 134.225C130.25 136.423 134.93 134.435 137.03 132.313C138.77 130.558 140.052 127.528 139.22 122.285C142.94 121.88 148.737 121.918 151.992 125.345C153.11 126.523 153.5 127.46 154.092 128.878C154.827 130.64 155.742 132.83 158.187 135.62C161.87 139.82 167.615 142.19 175.302 142.685C175.49 144.088 176.157 145.37 177.222 146.323C178.317 147.298 179.705 147.823 181.16 147.823C181.272 147.823 181.385 147.823 181.497 147.815C181.542 147.815 181.58 147.808 181.625 147.8C181.617 147.965 181.61 148.123 181.595 148.295C181.16 152.615 177.942 156.013 174.95 157.453C174.402 157.715 173.93 157.888 173.457 157.985C170.052 158.705 167.667 158.33 165.14 157.925C163.437 157.655 161.675 157.37 159.725 157.483C152.36 157.873 144.972 164.203 143.255 171.598C141.297 180.043 146.81 188.383 153.275 192.253C154.962 193.265 156.77 194 158.682 194.48C154.115 195.778 149.307 196.49 144.327 196.49C140.367 196.49 136.505 196.048 132.8 195.208L132.807 195.2Z" fill="#FF6A39"/>
<path d="M144.343 67.4226C186.583 67.4226 220.94 101.788 220.94 144.02C220.94 186.253 186.575 220.618 144.343 220.618C102.11 220.618 67.7451 186.253 67.7451 144.02C67.7451 101.788 102.11 67.4226 144.343 67.4226ZM144.343 61.4226C98.7201 61.4226 61.7451 98.4051 61.7451 144.02C61.7451 189.635 98.7276 226.618 144.343 226.618C189.958 226.618 226.94 189.635 226.94 144.02C226.94 98.4051 189.958 61.4226 144.343 61.4226Z" fill="#004851"/>
<path d="M144.342 6.18506C162.95 6.18506 181.002 9.83006 197.997 17.0151C214.407 23.9601 229.152 33.8976 241.812 46.5576C254.473 59.2175 264.41 73.9625 271.355 90.3725C278.54 107.36 282.185 125.413 282.185 144.028C282.185 162.643 278.54 180.688 271.355 197.683C264.41 214.093 254.473 228.838 241.812 241.498C229.152 254.158 214.407 264.095 197.997 271.04C181.01 278.225 162.957 281.87 144.342 281.87C125.727 281.87 107.683 278.225 90.6875 271.04C74.2775 264.095 59.5325 254.158 46.8725 241.498C34.2125 228.838 24.275 214.093 17.33 197.683C10.145 180.695 6.5 162.643 6.5 144.028C6.5 125.413 10.145 107.368 17.33 90.3725C24.275 73.9625 34.2125 59.2175 46.8725 46.5576C59.5325 33.8976 74.2775 23.9601 90.6875 17.0151C107.675 9.83006 125.727 6.18506 144.342 6.18506ZM144.342 0.185059C64.9025 0.185059 0.5 64.5875 0.5 144.028C0.5 223.468 64.9025 287.87 144.342 287.87C223.783 287.87 288.185 223.468 288.185 144.028C288.185 64.5875 223.783 0.185059 144.342 0.185059Z" fill="#004851"/>
<path d="M108.028 241.955C107.698 240.658 107.083 239.495 106.183 238.483C105.283 237.47 104.128 236.63 102.725 235.97C101.465 235.378 100.205 235.033 98.9525 234.943C97.7 234.853 96.5 234.995 95.3525 235.378C94.205 235.76 93.1775 236.353 92.2625 237.163C91.3475 237.973 90.605 238.985 90.035 240.2C89.465 241.415 89.1575 242.638 89.12 243.853C89.0825 245.075 89.2775 246.245 89.7125 247.37C90.14 248.495 90.8 249.508 91.6775 250.415C92.555 251.323 93.62 252.073 94.865 252.658C96.2825 253.325 97.67 253.678 99.035 253.715C100.4 253.753 101.683 253.483 102.89 252.905L101.533 249.56C100.678 249.943 99.83 250.138 99.005 250.138C98.18 250.138 97.37 249.943 96.5675 249.568C95.81 249.215 95.18 248.765 94.6625 248.225C94.145 247.685 93.77 247.07 93.5225 246.395C93.275 245.72 93.1775 245 93.2225 244.25C93.2675 243.5 93.47 242.743 93.83 241.97C94.19 241.198 94.6475 240.56 95.195 240.05C95.7425 239.54 96.3575 239.158 97.04 238.918C97.715 238.67 98.4275 238.573 99.1775 238.625C99.9275 238.678 100.678 238.88 101.428 239.233C102.23 239.608 102.89 240.11 103.423 240.748C103.955 241.378 104.345 242.143 104.6 243.035L108.043 241.948L108.028 241.955Z" fill="#004851"/>
<path d="M116.465 241.355L104.218 256.58L108.313 257.66L110.825 254.368L118.828 256.483L119.383 260.585L123.575 261.695L120.41 242.398L116.465 241.355ZM112.888 251.675L117.38 245.795L118.37 253.123L112.888 251.675Z" fill="#004851"/>
<path d="M133.723 247.985C134.248 247.843 134.908 247.805 135.703 247.873C136.498 247.94 137.3 248.128 138.11 248.428C138.92 248.728 139.723 249.148 140.51 249.695L142.048 246.68C141.26 246.088 140.338 245.608 139.28 245.255C138.215 244.903 137.128 244.67 136.01 244.58C134.33 244.438 132.92 244.565 131.765 244.97C130.61 245.375 129.725 245.975 129.103 246.763C128.48 247.55 128.128 248.458 128.038 249.478C127.955 250.423 128.083 251.225 128.405 251.863C128.728 252.5 129.185 253.04 129.763 253.46C130.34 253.888 130.985 254.248 131.705 254.548C132.425 254.848 133.145 255.11 133.865 255.335C134.585 255.56 135.245 255.785 135.838 256.018C136.43 256.25 136.903 256.52 137.255 256.828C137.608 257.135 137.758 257.533 137.72 258.005C137.69 258.38 137.54 258.695 137.278 258.965C137.015 259.235 136.625 259.423 136.115 259.543C135.598 259.663 134.938 259.685 134.128 259.618C133.063 259.528 132.02 259.265 131.008 258.823C129.995 258.388 129.133 257.863 128.413 257.255L126.748 260.233C127.49 260.908 128.495 261.5 129.77 261.988C131.045 262.483 132.388 262.79 133.813 262.91C135.508 263.053 136.933 262.925 138.08 262.513C139.235 262.1 140.128 261.5 140.758 260.72C141.388 259.94 141.748 259.048 141.83 258.05C141.913 257.12 141.785 256.333 141.455 255.688C141.125 255.043 140.675 254.51 140.098 254.083C139.52 253.655 138.875 253.303 138.155 253.018C137.435 252.733 136.715 252.478 135.995 252.245C135.275 252.013 134.615 251.788 134.023 251.563C133.43 251.345 132.958 251.075 132.605 250.76C132.253 250.445 132.103 250.063 132.14 249.605C132.17 249.215 132.313 248.885 132.56 248.608C132.808 248.33 133.19 248.12 133.715 247.978L133.723 247.985Z" fill="#004851"/>
<path d="M161.203 244.145L157.138 244.498L157.978 254.308C158.12 256.003 157.88 257.248 157.25 258.058C156.62 258.86 155.675 259.318 154.423 259.43C153.17 259.535 152.165 259.25 151.408 258.56C150.65 257.878 150.2 256.685 150.05 254.99L149.21 245.18L145.093 245.533L145.948 255.493C146.173 258.103 147.058 260.045 148.603 261.328C150.148 262.61 152.18 263.143 154.7 262.925C157.22 262.708 159.14 261.838 160.438 260.308C161.743 258.778 162.275 256.715 162.058 254.105L161.203 244.145Z" fill="#004851"/>
<path d="M172.385 256.288L168.71 242.278L164.712 243.328L169.242 260.593L181.895 257.27L181.047 254.015L172.385 256.288Z" fill="#004851"/>
<path d="M199.265 239.99C198.703 238.768 197.968 237.755 197.053 236.953C196.138 236.15 195.11 235.55 193.963 235.16C192.815 234.77 191.615 234.613 190.348 234.695C189.08 234.77 187.813 235.108 186.53 235.7C185.263 236.285 184.19 237.035 183.298 237.95C182.413 238.865 181.738 239.885 181.288 241.01C180.83 242.135 180.62 243.313 180.65 244.535C180.68 245.758 180.973 246.973 181.528 248.173C182.083 249.38 182.818 250.385 183.725 251.203C184.633 252.02 185.66 252.62 186.808 253.01C187.948 253.4 189.163 253.55 190.445 253.468C191.728 253.385 193.01 253.048 194.285 252.455C195.553 251.87 196.625 251.12 197.503 250.213C198.38 249.305 199.048 248.285 199.498 247.175C199.948 246.058 200.158 244.888 200.135 243.65C200.105 242.42 199.82 241.198 199.265 239.99ZM195.74 246.163C195.493 246.838 195.118 247.445 194.623 247.97C194.128 248.503 193.513 248.93 192.793 249.268C192.073 249.605 191.338 249.785 190.61 249.83C189.883 249.868 189.178 249.763 188.51 249.508C187.843 249.253 187.235 248.87 186.68 248.345C186.133 247.82 185.683 247.183 185.33 246.425C184.978 245.653 184.775 244.895 184.738 244.145C184.7 243.395 184.805 242.683 185.053 242.008C185.3 241.333 185.675 240.725 186.17 240.2C186.665 239.675 187.28 239.24 188 238.903C188.728 238.565 189.455 238.385 190.183 238.34C190.91 238.303 191.615 238.408 192.283 238.663C192.95 238.918 193.558 239.3 194.105 239.818C194.653 240.335 195.103 240.973 195.463 241.745C195.823 242.518 196.018 243.275 196.055 244.025C196.093 244.775 195.988 245.488 195.74 246.163Z" fill="#004851"/>
<path d="M51.8375 186.507C51.245 185.262 50.495 184.242 49.595 183.447C48.6875 182.66 47.66 182.12 46.5125 181.835L45.56 184.872C46.3625 185.09 47.045 185.435 47.6 185.9C48.1625 186.365 48.605 186.95 48.9425 187.655C49.2575 188.322 49.4375 188.982 49.4825 189.642C49.5275 190.302 49.445 190.932 49.235 191.532C49.025 192.132 48.6875 192.672 48.2375 193.16C47.7875 193.647 47.225 194.052 46.55 194.375C45.875 194.697 45.2 194.877 44.54 194.915C43.88 194.952 43.25 194.87 42.65 194.652C42.05 194.435 41.51 194.105 41.03 193.655C40.55 193.205 40.1525 192.642 39.8375 191.982C39.5 191.277 39.335 190.557 39.3275 189.83C39.3275 189.102 39.485 188.36 39.8075 187.61L36.8525 186.417C36.35 187.49 36.1175 188.622 36.1625 189.822C36.2075 191.022 36.5225 192.237 37.1075 193.467C37.6325 194.577 38.3 195.515 39.1025 196.28C39.905 197.045 40.805 197.622 41.8025 198.005C42.8 198.387 43.835 198.56 44.915 198.522C45.995 198.485 47.0675 198.215 48.14 197.705C49.2125 197.195 50.105 196.535 50.81 195.725C51.5225 194.915 52.0475 194.007 52.385 193.002C52.7225 191.997 52.85 190.94 52.76 189.822C52.67 188.712 52.37 187.602 51.8525 186.507H51.8375Z" fill="#004851"/>
<path d="M44.5925 166.58L41.7875 167.398L44.2025 175.625L40.7075 176.653L38.645 169.64L35.9225 170.435L37.985 177.455L34.7075 178.415L32.375 170.473L29.5625 171.298L32.9225 182.713L48.035 178.28L44.5925 166.58Z" fill="#004851"/>
<path d="M43.4974 160.078L34.0099 161.233L42.5524 152.285L42.1849 149.315L26.5549 151.213L26.9899 154.79L36.4774 153.635L27.9349 162.56L28.3024 165.553L43.9324 163.655L43.4974 160.078Z" fill="#004851"/>
<path d="M29.5399 141.763L42.3049 142.213L42.4324 138.568L29.6674 138.125L29.8399 133.085L26.8699 132.98L26.3899 146.698L29.3599 146.803L29.5399 141.763Z" fill="#004851"/>
<path d="M43.5423 127.873L39.2298 127.063L39.8148 123.943C39.8223 123.883 39.8298 123.83 39.8373 123.778L44.7123 121.61L45.4323 117.74L39.8223 120.275C39.8223 120.275 39.8223 120.253 39.8223 120.238C39.5673 119.15 39.0723 118.258 38.3448 117.56C37.6173 116.863 36.6723 116.398 35.5248 116.188C34.3623 115.97 33.3048 116.053 32.3673 116.443C31.4223 116.833 30.6348 117.485 29.9973 118.4C29.3598 119.315 28.9098 120.47 28.6548 121.858L27.4023 128.563L42.8823 131.458L43.5498 127.873H43.5423ZM32.6973 120.26C33.2748 119.803 33.9873 119.653 34.8423 119.818C35.6823 119.975 36.2898 120.373 36.6648 121.003C37.0398 121.64 37.1298 122.51 36.9198 123.613L36.3723 126.53L30.9723 125.518L31.5198 122.6C31.7298 121.498 32.1198 120.71 32.6898 120.253L32.6973 120.26Z" fill="#004851"/>
<path d="M35.6225 111.575C36.395 112.325 37.3325 112.903 38.4275 113.315C39.5225 113.728 40.61 113.908 41.6825 113.855C42.7625 113.803 43.775 113.548 44.7425 113.083C45.71 112.618 46.5575 111.965 47.3075 111.118C48.0575 110.27 48.6575 109.265 49.0925 108.103C49.5275 106.955 49.7375 105.815 49.73 104.698C49.7225 103.58 49.5125 102.53 49.1 101.548C48.695 100.565 48.095 99.7026 47.315 98.9376C46.535 98.1801 45.5975 97.5951 44.5025 97.1826C43.3925 96.7626 42.305 96.5826 41.2325 96.6426C40.16 96.7026 39.14 96.9651 38.18 97.4301C37.22 97.8951 36.365 98.5401 35.6225 99.3726C34.8725 100.205 34.28 101.203 33.845 102.373C33.41 103.528 33.2 104.66 33.2075 105.785C33.215 106.91 33.425 107.968 33.8375 108.958C34.25 109.948 34.8425 110.818 35.6225 111.568V111.575ZM36.755 103.475C37.0025 102.815 37.3475 102.245 37.7825 101.773C38.2175 101.293 38.7275 100.933 39.305 100.678C39.8825 100.423 40.505 100.288 41.165 100.273C41.825 100.258 42.5075 100.385 43.2125 100.648C43.9175 100.91 44.51 101.27 44.9975 101.72C45.485 102.17 45.86 102.68 46.1225 103.265C46.385 103.843 46.5275 104.458 46.5425 105.095C46.5575 105.733 46.445 106.385 46.19 107.045C45.9425 107.705 45.5975 108.275 45.1625 108.748C44.7275 109.228 44.2175 109.588 43.64 109.843C43.0625 110.098 42.44 110.233 41.7725 110.24C41.105 110.255 40.4225 110.128 39.74 109.865C39.035 109.603 38.4425 109.243 37.955 108.793C37.4675 108.343 37.0925 107.833 36.83 107.248C36.5675 106.663 36.4325 106.063 36.4175 105.418C36.4025 104.78 36.515 104.128 36.77 103.468L36.755 103.475Z" fill="#004851"/>
<path d="M59.12 74.1126C57.8075 73.1901 56.4575 72.6951 55.0775 72.6276C53.6975 72.5601 52.3625 72.8676 51.08 73.5651C49.7975 74.2626 48.665 75.3051 47.6825 76.7076L43.5725 82.5651L56.4725 91.6026L60.5825 85.7451C61.565 84.3426 62.165 82.9251 62.375 81.4776C62.5925 80.0376 62.4275 78.6726 61.8875 77.3976C61.3475 76.1226 60.425 75.0276 59.12 74.1126ZM59.1125 81.5901C58.9925 82.4526 58.6325 83.3076 58.0325 84.1701L56.12 86.9001L48.125 81.2976L50.0375 78.5676C50.6375 77.7051 51.3275 77.0751 52.0925 76.6701C52.8575 76.2651 53.6675 76.1001 54.5075 76.1676C55.3475 76.2351 56.18 76.5576 57.005 77.1351C57.815 77.7051 58.4 78.3726 58.7525 79.1451C59.1125 79.9176 59.225 80.7351 59.1125 81.5901Z" fill="#004851"/>
<path d="M68.0074 71.9676L65.4049 69.4101L70.5274 64.1901L68.5024 62.2026L63.3799 67.4226L60.9424 65.0301L66.7399 59.1201L64.6549 57.0726L56.3149 65.5626L67.5499 76.5951L76.0999 67.8951L74.0074 65.8476L68.0074 71.9676Z" fill="#004851"/>
<path d="M86.6298 44.5176L84.9873 42.0426L73.5498 49.6326L75.1923 52.1076L79.3923 49.3176L86.4573 59.9676L89.4948 57.9501L82.4298 47.3076L86.6298 44.5176Z" fill="#004851"/>
<path d="M102.897 45.1626C103.632 44.3226 104.075 43.4076 104.217 42.4026C104.36 41.3976 104.187 40.3701 103.692 39.3051C103.19 38.2326 102.507 37.4226 101.645 36.8826C100.782 36.3426 99.7923 36.0801 98.6748 36.0951C97.5573 36.1101 96.3573 36.4176 95.0823 37.0101L88.9023 39.8826L95.5473 54.1626L98.8548 52.6251L97.0023 48.6501L99.8748 47.3151C99.9273 47.2926 99.9723 47.2626 100.025 47.2401L104.622 49.9476L108.192 48.2901L102.867 45.1926C102.867 45.1926 102.882 45.1776 102.89 45.1701L102.897 45.1626ZM95.7798 46.0176L93.4623 41.0376L96.1548 39.7851C97.1748 39.3126 98.0373 39.1776 98.7423 39.3726C99.4473 39.5751 99.9873 40.0701 100.355 40.8576C100.715 41.6301 100.745 42.3576 100.452 43.0326C100.152 43.7076 99.4923 44.2851 98.4798 44.7576L95.7873 46.0101L95.7798 46.0176Z" fill="#004851"/>
<path d="M113.457 43.6701L112.452 40.1601L119.487 38.1501L118.707 35.4276L111.672 37.4376L110.735 34.1451L118.692 31.8726L117.89 29.0601L106.445 32.3301L110.78 47.4726L122.502 44.1201L121.7 41.3076L113.457 43.6701Z" fill="#004851"/>
<path d="M126.602 27.556L123.007 28.157L125.603 43.6914L129.198 43.0905L126.602 27.556Z" fill="#004851"/>
<path d="M143.3 26.1951L143.675 35.7426L135.477 26.5026L132.462 26.6151L133.077 42.3576L136.677 42.2151L136.302 32.6601L144.522 41.9076L147.515 41.7951L146.9 26.0526L143.3 26.1951Z" fill="#004851"/>
<path d="M158.322 27.05L149.277 41.7275L152.982 42.2225L154.82 39.065L162.057 40.0325L162.995 43.565L166.782 44.075L161.892 27.53L158.322 27.05ZM156.32 36.4775L159.605 30.8375L161.277 37.145L156.32 36.4775Z" fill="#004851"/>
<path d="M187.37 34.1976L178.76 41.6226L176.277 30.4776L173.42 29.5176L168.41 44.4501L171.65 45.5376L174.597 36.7701L176.555 45.4251L178.115 45.9501L184.985 40.0401L182 49.0101L185.24 50.0976L190.205 35.1501L187.37 34.1976Z" fill="#004851"/>
<path d="M201.342 51.4177L202.715 48.9352L196.31 45.4027L197.96 42.4102L205.212 46.4077L206.622 43.8502L196.205 38.0977L188.592 51.8902L199.272 57.7777L200.682 55.2202L193.175 51.0802L194.937 47.8852L201.342 51.4177Z" fill="#004851"/>
<path d="M220.07 53.7351L214.152 61.2426L213.92 48.8901L211.55 47.0226L201.8 59.3901L204.627 61.6176L210.545 54.1101L210.792 66.4851L213.14 68.3376L222.897 55.9701L220.07 53.7351Z" fill="#004851"/>
<path d="M233.345 71.1651L235.527 69.1551L226.212 59.0751L224.03 61.0851L227.45 64.7901L218.06 73.4601L220.535 76.1376L229.925 67.4676L233.345 71.1651Z" fill="#004851"/>
<path d="M240.702 90.4326C241.692 89.7726 242.472 88.9926 243.05 88.0926C243.627 87.1851 244.01 86.2101 244.19 85.1601C244.377 84.1101 244.347 83.0376 244.107 81.9426C243.867 80.8476 243.402 79.7826 242.712 78.7476C242.03 77.7201 241.235 76.8876 240.312 76.2351C239.397 75.5826 238.415 75.1401 237.372 74.8926C236.33 74.6526 235.28 74.6226 234.215 74.8176C233.15 75.0126 232.137 75.4326 231.162 76.0776C230.187 76.7226 229.407 77.5026 228.822 78.4026C228.237 79.3101 227.847 80.2851 227.667 81.3351C227.487 82.3851 227.517 83.4651 227.765 84.5676C228.012 85.6701 228.485 86.7426 229.167 87.7776C229.85 88.8051 230.645 89.6376 231.56 90.2826C232.475 90.9276 233.45 91.3701 234.485 91.6101C235.52 91.8501 236.57 91.8726 237.642 91.6851C238.715 91.4976 239.735 91.0776 240.71 90.4326H240.702ZM234.837 88.1976C234.215 88.0701 233.637 87.8301 233.112 87.4701C232.587 87.1101 232.122 86.6376 231.732 86.0526C231.342 85.4676 231.08 84.8526 230.952 84.2226C230.817 83.5926 230.817 82.9626 230.952 82.3476C231.08 81.7326 231.335 81.1476 231.717 80.5926C232.1 80.0451 232.595 79.5651 233.21 79.1526C233.832 78.7401 234.47 78.4626 235.122 78.3276C235.775 78.1926 236.405 78.1926 237.035 78.3126C237.657 78.4401 238.235 78.6801 238.76 79.0401C239.285 79.4001 239.75 79.8726 240.14 80.4651C240.53 81.0501 240.792 81.6651 240.927 82.2951C241.062 82.9251 241.062 83.5551 240.927 84.1701C240.8 84.7851 240.545 85.3701 240.17 85.9176C239.795 86.4651 239.292 86.9451 238.67 87.3576C238.047 87.7701 237.41 88.0476 236.757 88.1826C236.105 88.3176 235.475 88.3251 234.845 88.1976H234.837Z" fill="#004851"/>
<path d="M240.597 104.128C240.162 105.095 239.937 106.138 239.915 107.255C239.892 108.373 240.087 109.498 240.5 110.645C240.965 111.943 241.617 113.03 242.435 113.908C243.26 114.785 244.227 115.415 245.345 115.813L246.582 112.88C245.81 112.588 245.165 112.183 244.647 111.665C244.137 111.148 243.747 110.525 243.485 109.79C243.237 109.1 243.117 108.425 243.14 107.765C243.162 107.105 243.305 106.49 243.575 105.913C243.845 105.335 244.227 104.825 244.722 104.39C245.217 103.948 245.817 103.603 246.522 103.348C247.227 103.093 247.91 102.98 248.577 103.003C249.237 103.025 249.86 103.175 250.437 103.445C251.015 103.715 251.517 104.098 251.952 104.6C252.387 105.095 252.725 105.695 252.98 106.385C253.242 107.12 253.34 107.848 253.28 108.575C253.212 109.303 252.98 110.023 252.59 110.735L255.417 112.205C256.025 111.193 256.362 110.083 256.437 108.883C256.505 107.683 256.31 106.445 255.852 105.163C255.432 104.008 254.862 103.01 254.142 102.17C253.415 101.33 252.582 100.67 251.622 100.198C250.67 99.7177 249.657 99.4477 248.577 99.3802C247.497 99.3127 246.402 99.4777 245.292 99.8827C244.182 100.288 243.23 100.85 242.442 101.593C241.655 102.335 241.047 103.183 240.612 104.15L240.597 104.128Z" fill="#004851"/>
<path d="M243.77 120.478L247.34 121.25L248.66 128.428L245.592 130.415L246.282 134.18L260.502 124.408L259.85 120.868L243.087 116.81L243.762 120.485L243.77 120.478ZM250.272 121.88L256.655 123.26L251.18 126.808L250.272 121.888V121.88Z" fill="#004851"/>
<path d="M246.312 139.468L255.867 139.318L246.44 147.32L246.485 150.313L262.235 150.058L262.175 146.458L252.62 146.615L262.047 138.628L262.002 135.613L246.252 135.868L246.312 139.468Z" fill="#004851"/>
<path d="M245.872 154.247L245.447 157.867L261.089 159.705L261.514 156.085L245.872 154.247Z" fill="#004851"/>
<path d="M244.22 165.283L253.497 167.6L242.322 172.903L241.595 175.805L256.88 179.615L257.75 176.128L248.48 173.81L259.647 168.53L260.375 165.605L245.097 161.795L244.22 165.283Z" fill="#004851"/>
<path d="M250.64 183.695C249.92 182.893 249.02 182.255 247.955 181.768C246.89 181.28 245.817 181.025 244.737 181.003C243.657 180.98 242.622 181.168 241.632 181.565C240.642 181.963 239.742 182.555 238.94 183.35C238.13 184.145 237.47 185.105 236.952 186.238C236.442 187.355 236.157 188.473 236.09 189.59C236.022 190.708 236.165 191.765 236.502 192.77C236.84 193.775 237.38 194.683 238.107 195.493C238.835 196.303 239.727 196.948 240.792 197.435C241.872 197.93 242.945 198.178 244.025 198.193C245.097 198.208 246.132 198.013 247.122 197.615C248.112 197.218 249.005 196.625 249.807 195.845C250.61 195.065 251.27 194.105 251.787 192.973C252.297 191.855 252.59 190.73 252.657 189.605C252.725 188.48 252.59 187.415 252.245 186.395C251.9 185.375 251.367 184.475 250.64 183.673V183.695ZM248.967 191.698C248.675 192.335 248.292 192.883 247.827 193.325C247.362 193.768 246.83 194.105 246.237 194.315C245.645 194.533 245.015 194.623 244.355 194.593C243.695 194.563 243.02 194.39 242.337 194.083C241.655 193.768 241.085 193.378 240.627 192.898C240.17 192.418 239.832 191.878 239.607 191.285C239.382 190.693 239.285 190.07 239.315 189.433C239.345 188.795 239.502 188.15 239.795 187.513C240.087 186.868 240.47 186.328 240.935 185.878C241.4 185.435 241.932 185.098 242.525 184.888C243.117 184.67 243.747 184.58 244.415 184.61C245.082 184.64 245.75 184.813 246.425 185.12C247.107 185.435 247.677 185.825 248.135 186.305C248.592 186.785 248.93 187.325 249.155 187.918C249.38 188.51 249.477 189.133 249.447 189.77C249.417 190.408 249.26 191.053 248.967 191.69V191.698Z" fill="#004851"/>
<path d="M222.178 225.785C224.232 225.785 225.898 224.119 225.898 222.065C225.898 220.01 224.232 218.345 222.178 218.345C220.123 218.345 218.458 220.01 218.458 222.065C218.458 224.119 220.123 225.785 222.178 225.785Z" fill="#FF6A39"/>
<path d="M66.5525 225.785C68.607 225.785 70.2725 224.119 70.2725 222.065C70.2725 220.01 68.607 218.345 66.5525 218.345C64.498 218.345 62.8325 220.01 62.8325 222.065C62.8325 224.119 64.498 225.785 66.5525 225.785Z" fill="#FF6A39"/>
</g>
<defs>
<clipPath id="clip0_350_461">
<rect width="287.685" height="287.685" fill="white" transform="translate(0.5 0.185059)"/>
</clipPath>
</defs>
</svg>
