<svg width="289" height="289" viewBox="0 0 289 289" fill="none" xmlns="http://www.w3.org/2000/svg">
<g clip-path="url(#clip0_350_462)">
<path d="M122.84 89.9676C122.472 90.1101 122.105 90.2451 121.745 90.3876L122.84 89.9676ZM121.745 90.3876C104.847 97.2501 96.11 110.555 93.1325 115.955C91.265 119.345 89.81 122.818 88.7075 126.32C86.87 131.998 85.865 138.05 85.865 144.335C85.865 151.573 87.1925 158.503 89.5925 164.9C91.0325 168.988 92.84 172.745 94.91 176.023C99.1625 182.765 107.217 190.933 112.97 193.67C122.037 199.445 132.785 202.805 144.335 202.805C176.982 202.805 203.382 176.045 202.797 143.263C202.242 112.4 177.35 87.0276 146.502 85.9026C138.117 85.5951 130.122 87.0801 122.84 89.9601M170.067 187.783C168.087 188.3 162.065 189.875 156.785 186.71C152.547 184.168 148.692 178.663 149.9 173.45C151.047 168.493 156.192 164.81 160.085 164.608C160.242 164.6 160.407 164.593 160.565 164.593C161.652 164.593 162.785 164.773 164.067 164.975C166.812 165.41 170.232 165.95 174.875 164.975C175.88 164.765 176.877 164.413 177.912 163.91C182.27 161.803 187.632 156.71 188.382 149.293C188.915 144.02 186.837 139.813 185.57 137.803C184.887 136.693 183.65 136.055 182.322 136.138C173.022 136.798 166.625 135.215 163.317 131.435C161.607 129.485 161.015 128.06 160.385 126.553C159.695 124.903 158.915 123.043 156.935 120.958C151.31 115.04 142.512 115.198 137.375 115.933C136.107 112.528 134.187 108.508 131.427 103.775C130.94 102.943 130.13 102.335 129.185 102.118C128.247 101.9 127.242 102.08 126.44 102.613C119.427 107.263 109.91 115.603 104.45 128.938C100.73 138.013 97.61 152.795 103.872 171.65C105.125 175.423 106.595 178.678 108.042 181.453C107.922 181.378 105.417 179.518 104.48 178.43C96.065 168.613 91.205 155.668 91.925 141.605C93.3125 114.365 115.775 92.5401 143.037 91.8876C172.557 91.1751 196.79 114.98 196.79 144.343C196.79 160.175 189.732 174.373 178.617 184.003C175.962 185.698 173.09 187.003 170.052 187.798L170.067 187.783ZM132.2 127.813C131.592 128.42 130.22 128.788 129.86 128.623C129.567 128.413 129.222 127.198 129.515 126.283C129.822 125.33 131.105 124.625 132.515 124.108C132.815 126.185 132.597 127.408 132.192 127.813H132.2ZM132.807 195.515C126.582 194.105 121.212 190.213 117.867 184.783C117.852 184.76 117.837 184.738 117.822 184.715C115.745 181.348 112.61 176.263 110.36 169.498C104.757 152.623 107.495 139.535 110.78 131.525C114.867 121.55 121.565 114.725 127.31 110.375C128.75 113.083 129.837 115.46 130.64 117.53C127.595 118.58 124.242 120.433 123.02 124.183C121.895 127.655 122.862 132.478 126.44 134.54C130.25 136.738 134.93 134.75 137.03 132.628C138.77 130.873 140.052 127.843 139.22 122.6C142.94 122.195 148.737 122.233 151.992 125.66C153.11 126.838 153.5 127.775 154.092 129.193C154.827 130.955 155.742 133.145 158.187 135.935C161.87 140.135 167.615 142.505 175.302 143C175.49 144.403 176.157 145.685 177.222 146.638C178.317 147.613 179.705 148.138 181.16 148.138C181.272 148.138 181.385 148.138 181.497 148.13C181.542 148.13 181.58 148.123 181.625 148.115C181.617 148.28 181.61 148.438 181.595 148.61C181.16 152.93 177.942 156.328 174.95 157.768C174.402 158.03 173.93 158.203 173.457 158.3C170.052 159.02 167.667 158.645 165.14 158.24C163.437 157.97 161.675 157.685 159.725 157.798C152.36 158.188 144.972 164.518 143.255 171.913C141.297 180.358 146.81 188.698 153.275 192.568C154.962 193.58 156.77 194.315 158.682 194.795C154.115 196.093 149.307 196.805 144.327 196.805C140.367 196.805 136.505 196.363 132.8 195.523L132.807 195.515Z" fill="#FF6A39"/>
<path d="M144.343 67.7377C186.583 67.7377 220.94 102.103 220.94 144.335C220.94 186.568 186.575 220.933 144.343 220.933C102.11 220.933 67.7451 186.568 67.7451 144.335C67.7451 102.103 102.11 67.7377 144.343 67.7377ZM144.343 61.7377C98.7201 61.7377 61.7451 98.7202 61.7451 144.335C61.7451 189.95 98.7276 226.933 144.343 226.933C189.958 226.933 226.94 189.95 226.94 144.335C226.94 98.7202 189.958 61.7377 144.343 61.7377Z" fill="#FFF4E0"/>
<path d="M144.342 6.50012C162.95 6.50012 181.002 10.1451 197.997 17.3301C214.407 24.2751 229.152 34.2126 241.812 46.8726C254.473 59.5326 264.41 74.2776 271.355 90.6876C278.54 107.675 282.185 125.728 282.185 144.343C282.185 162.958 278.54 181.003 271.355 197.998C264.41 214.408 254.473 229.153 241.812 241.813C229.152 254.473 214.407 264.41 197.997 271.355C181.01 278.54 162.957 282.185 144.342 282.185C125.727 282.185 107.683 278.54 90.6875 271.355C74.2775 264.41 59.5325 254.473 46.8725 241.813C34.2125 229.153 24.275 214.408 17.33 197.998C10.145 181.01 6.5 162.958 6.5 144.343C6.5 125.728 10.145 107.683 17.33 90.6876C24.275 74.2776 34.2125 59.5326 46.8725 46.8726C59.5325 34.2126 74.2775 24.2751 90.6875 17.3301C107.675 10.1451 125.727 6.50012 144.342 6.50012ZM144.342 0.500122C64.9025 0.500122 0.5 64.9026 0.5 144.343C0.5 223.783 64.9025 288.185 144.342 288.185C223.783 288.185 288.185 223.783 288.185 144.343C288.185 64.9026 223.783 0.500122 144.342 0.500122Z" fill="#FFF4E0"/>
<path d="M108.028 242.27C107.698 240.973 107.083 239.81 106.183 238.798C105.283 237.785 104.128 236.945 102.725 236.285C101.465 235.693 100.205 235.348 98.9525 235.258C97.7 235.168 96.5 235.31 95.3525 235.693C94.205 236.075 93.1775 236.668 92.2625 237.478C91.3475 238.288 90.605 239.3 90.035 240.515C89.465 241.73 89.1575 242.953 89.12 244.168C89.0825 245.39 89.2775 246.56 89.7125 247.685C90.14 248.81 90.8 249.823 91.6775 250.73C92.555 251.638 93.62 252.388 94.865 252.973C96.2825 253.64 97.67 253.993 99.035 254.03C100.4 254.068 101.683 253.798 102.89 253.22L101.533 249.875C100.678 250.258 99.83 250.453 99.005 250.453C98.18 250.453 97.37 250.258 96.5675 249.883C95.81 249.53 95.18 249.08 94.6625 248.54C94.145 248 93.77 247.385 93.5225 246.71C93.275 246.035 93.1775 245.315 93.2225 244.565C93.2675 243.815 93.47 243.058 93.83 242.285C94.19 241.513 94.6475 240.875 95.195 240.365C95.7425 239.855 96.3575 239.473 97.04 239.233C97.715 238.985 98.4275 238.888 99.1775 238.94C99.9275 238.993 100.678 239.195 101.428 239.548C102.23 239.923 102.89 240.425 103.423 241.063C103.955 241.693 104.345 242.458 104.6 243.35L108.043 242.263L108.028 242.27Z" fill="#FFF4E0"/>
<path d="M116.465 241.67L104.218 256.895L108.313 257.975L110.825 254.683L118.828 256.798L119.383 260.9L123.575 262.01L120.41 242.713L116.465 241.67ZM112.888 251.99L117.38 246.11L118.37 253.438L112.888 251.99Z" fill="#FFF4E0"/>
<path d="M133.723 248.3C134.248 248.158 134.908 248.12 135.703 248.188C136.498 248.255 137.3 248.443 138.11 248.743C138.92 249.043 139.723 249.463 140.51 250.01L142.048 246.995C141.26 246.403 140.338 245.923 139.28 245.57C138.215 245.218 137.128 244.985 136.01 244.895C134.33 244.753 132.92 244.88 131.765 245.285C130.61 245.69 129.725 246.29 129.103 247.078C128.48 247.865 128.128 248.773 128.038 249.793C127.955 250.738 128.083 251.54 128.405 252.178C128.728 252.815 129.185 253.355 129.763 253.775C130.34 254.203 130.985 254.563 131.705 254.863C132.425 255.163 133.145 255.425 133.865 255.65C134.585 255.875 135.245 256.1 135.838 256.333C136.43 256.565 136.903 256.835 137.255 257.143C137.608 257.45 137.758 257.848 137.72 258.32C137.69 258.695 137.54 259.01 137.278 259.28C137.015 259.55 136.625 259.738 136.115 259.858C135.598 259.978 134.938 260 134.128 259.933C133.063 259.843 132.02 259.58 131.008 259.138C129.995 258.703 129.133 258.178 128.413 257.57L126.748 260.548C127.49 261.223 128.495 261.815 129.77 262.303C131.045 262.798 132.388 263.105 133.813 263.225C135.508 263.368 136.933 263.24 138.08 262.828C139.235 262.415 140.128 261.815 140.758 261.035C141.388 260.255 141.748 259.363 141.83 258.365C141.913 257.435 141.785 256.648 141.455 256.003C141.125 255.358 140.675 254.825 140.098 254.398C139.52 253.97 138.875 253.618 138.155 253.333C137.435 253.048 136.715 252.793 135.995 252.56C135.275 252.328 134.615 252.103 134.023 251.878C133.43 251.66 132.958 251.39 132.605 251.075C132.253 250.76 132.103 250.378 132.14 249.92C132.17 249.53 132.313 249.2 132.56 248.923C132.808 248.645 133.19 248.435 133.715 248.293L133.723 248.3Z" fill="#FFF4E0"/>
<path d="M161.203 244.46L157.138 244.813L157.978 254.623C158.12 256.318 157.88 257.563 157.25 258.373C156.62 259.175 155.675 259.633 154.423 259.745C153.17 259.85 152.165 259.565 151.408 258.875C150.65 258.193 150.2 257 150.05 255.305L149.21 245.495L145.093 245.848L145.948 255.808C146.173 258.418 147.058 260.36 148.603 261.643C150.148 262.925 152.18 263.458 154.7 263.24C157.22 263.023 159.14 262.153 160.438 260.623C161.743 259.093 162.275 257.03 162.058 254.42L161.203 244.46Z" fill="#FFF4E0"/>
<path d="M172.385 256.603L168.71 242.593L164.712 243.643L169.242 260.908L181.895 257.585L181.047 254.33L172.385 256.603Z" fill="#FFF4E0"/>
<path d="M199.265 240.305C198.703 239.083 197.968 238.07 197.053 237.268C196.138 236.465 195.11 235.865 193.963 235.475C192.815 235.085 191.615 234.928 190.348 235.01C189.08 235.085 187.813 235.423 186.53 236.015C185.263 236.6 184.19 237.35 183.298 238.265C182.413 239.18 181.738 240.2 181.288 241.325C180.83 242.45 180.62 243.628 180.65 244.85C180.68 246.073 180.973 247.288 181.528 248.488C182.083 249.695 182.818 250.7 183.725 251.518C184.633 252.335 185.66 252.935 186.808 253.325C187.948 253.715 189.163 253.865 190.445 253.783C191.728 253.7 193.01 253.363 194.285 252.77C195.553 252.185 196.625 251.435 197.503 250.528C198.38 249.62 199.048 248.6 199.498 247.49C199.948 246.373 200.158 245.203 200.135 243.965C200.105 242.735 199.82 241.513 199.265 240.305ZM195.74 246.478C195.493 247.153 195.118 247.76 194.623 248.285C194.128 248.818 193.513 249.245 192.793 249.583C192.073 249.92 191.338 250.1 190.61 250.145C189.883 250.183 189.178 250.078 188.51 249.823C187.843 249.568 187.235 249.185 186.68 248.66C186.133 248.135 185.683 247.498 185.33 246.74C184.978 245.968 184.775 245.21 184.738 244.46C184.7 243.71 184.805 242.998 185.053 242.323C185.3 241.648 185.675 241.04 186.17 240.515C186.665 239.99 187.28 239.555 188 239.218C188.728 238.88 189.455 238.7 190.183 238.655C190.91 238.618 191.615 238.723 192.283 238.978C192.95 239.233 193.558 239.615 194.105 240.133C194.653 240.65 195.103 241.288 195.463 242.06C195.823 242.833 196.018 243.59 196.055 244.34C196.093 245.09 195.988 245.803 195.74 246.478Z" fill="#FFF4E0"/>
<path d="M51.8375 186.823C51.245 185.578 50.495 184.558 49.595 183.763C48.6875 182.975 47.66 182.435 46.5125 182.15L45.56 185.188C46.3625 185.405 47.045 185.75 47.6 186.215C48.1625 186.68 48.605 187.265 48.9425 187.97C49.2575 188.638 49.4375 189.298 49.4825 189.958C49.5275 190.618 49.445 191.248 49.235 191.848C49.025 192.448 48.6875 192.988 48.2375 193.475C47.7875 193.963 47.225 194.368 46.55 194.69C45.875 195.013 45.2 195.193 44.54 195.23C43.88 195.268 43.25 195.185 42.65 194.968C42.05 194.75 41.51 194.42 41.03 193.97C40.55 193.52 40.1525 192.958 39.8375 192.298C39.5 191.593 39.335 190.873 39.3275 190.145C39.3275 189.418 39.485 188.675 39.8075 187.925L36.8525 186.733C36.35 187.805 36.1175 188.938 36.1625 190.138C36.2075 191.338 36.5225 192.553 37.1075 193.783C37.6325 194.893 38.3 195.83 39.1025 196.595C39.905 197.36 40.805 197.938 41.8025 198.32C42.8 198.703 43.835 198.875 44.915 198.838C45.995 198.8 47.0675 198.53 48.14 198.02C49.2125 197.51 50.105 196.85 50.81 196.04C51.5225 195.23 52.0475 194.323 52.385 193.318C52.7225 192.313 52.85 191.255 52.76 190.138C52.67 189.028 52.37 187.918 51.8525 186.823H51.8375Z" fill="#FFF4E0"/>
<path d="M44.5925 166.895L41.7875 167.713L44.2025 175.94L40.7075 176.968L38.645 169.955L35.9225 170.75L37.985 177.77L34.7075 178.73L32.375 170.788L29.5625 171.613L32.9225 183.028L48.035 178.595L44.5925 166.895Z" fill="#FFF4E0"/>
<path d="M43.4974 160.393L34.0099 161.548L42.5524 152.6L42.1849 149.63L26.5549 151.528L26.9899 155.105L36.4774 153.95L27.9349 162.875L28.3024 165.868L43.9324 163.97L43.4974 160.393Z" fill="#FFF4E0"/>
<path d="M29.5399 142.078L42.3049 142.528L42.4324 138.883L29.6674 138.44L29.8399 133.4L26.8699 133.295L26.3899 147.013L29.3599 147.118L29.5399 142.078Z" fill="#FFF4E0"/>
<path d="M43.5423 128.188L39.2298 127.378L39.8148 124.258C39.8223 124.198 39.8298 124.145 39.8373 124.093L44.7123 121.925L45.4323 118.055L39.8223 120.59C39.8223 120.59 39.8223 120.568 39.8223 120.553C39.5673 119.465 39.0723 118.573 38.3448 117.875C37.6173 117.178 36.6723 116.713 35.5248 116.503C34.3623 116.285 33.3048 116.368 32.3673 116.758C31.4223 117.148 30.6348 117.8 29.9973 118.715C29.3598 119.63 28.9098 120.785 28.6548 122.173L27.4023 128.878L42.8823 131.773L43.5498 128.188H43.5423ZM32.6973 120.575C33.2748 120.118 33.9873 119.968 34.8423 120.133C35.6823 120.29 36.2898 120.688 36.6648 121.318C37.0398 121.955 37.1298 122.825 36.9198 123.928L36.3723 126.845L30.9723 125.833L31.5198 122.915C31.7298 121.813 32.1198 121.025 32.6898 120.568L32.6973 120.575Z" fill="#FFF4E0"/>
<path d="M35.6225 111.89C36.395 112.64 37.3325 113.218 38.4275 113.63C39.5225 114.043 40.61 114.223 41.6825 114.17C42.7625 114.118 43.775 113.863 44.7425 113.398C45.71 112.933 46.5575 112.28 47.3075 111.433C48.0575 110.585 48.6575 109.58 49.0925 108.418C49.5275 107.27 49.7375 106.13 49.73 105.013C49.7225 103.895 49.5125 102.845 49.1 101.863C48.695 100.88 48.095 100.018 47.315 99.2527C46.535 98.4952 45.5975 97.9102 44.5025 97.4977C43.3925 97.0777 42.305 96.8977 41.2325 96.9577C40.16 97.0177 39.14 97.2802 38.18 97.7452C37.22 98.2102 36.365 98.8552 35.6225 99.6877C34.8725 100.52 34.28 101.518 33.845 102.688C33.41 103.843 33.2 104.975 33.2075 106.1C33.215 107.225 33.425 108.283 33.8375 109.273C34.25 110.263 34.8425 111.133 35.6225 111.883V111.89ZM36.755 103.79C37.0025 103.13 37.3475 102.56 37.7825 102.088C38.2175 101.608 38.7275 101.248 39.305 100.993C39.8825 100.738 40.505 100.603 41.165 100.588C41.825 100.573 42.5075 100.7 43.2125 100.963C43.9175 101.225 44.51 101.585 44.9975 102.035C45.485 102.485 45.86 102.995 46.1225 103.58C46.385 104.158 46.5275 104.773 46.5425 105.41C46.5575 106.048 46.445 106.7 46.19 107.36C45.9425 108.02 45.5975 108.59 45.1625 109.063C44.7275 109.543 44.2175 109.903 43.64 110.158C43.0625 110.413 42.44 110.548 41.7725 110.555C41.105 110.57 40.4225 110.443 39.74 110.18C39.035 109.918 38.4425 109.558 37.955 109.108C37.4675 108.658 37.0925 108.148 36.83 107.563C36.5675 106.978 36.4325 106.378 36.4175 105.733C36.4025 105.095 36.515 104.443 36.77 103.783L36.755 103.79Z" fill="#FFF4E0"/>
<path d="M59.12 74.4277C57.8075 73.5052 56.4575 73.0102 55.0775 72.9427C53.6975 72.8752 52.3625 73.1827 51.08 73.8802C49.7975 74.5777 48.665 75.6202 47.6825 77.0227L43.5725 82.8802L56.4725 91.9177L60.5825 86.0602C61.565 84.6577 62.165 83.2402 62.375 81.7927C62.5925 80.3527 62.4275 78.9877 61.8875 77.7127C61.3475 76.4377 60.425 75.3427 59.12 74.4277ZM59.1125 81.9052C58.9925 82.7677 58.6325 83.6227 58.0325 84.4852L56.12 87.2152L48.125 81.6127L50.0375 78.8827C50.6375 78.0202 51.3275 77.3902 52.0925 76.9852C52.8575 76.5802 53.6675 76.4152 54.5075 76.4827C55.3475 76.5502 56.18 76.8727 57.005 77.4502C57.815 78.0202 58.4 78.6877 58.7525 79.4602C59.1125 80.2327 59.225 81.0502 59.1125 81.9052Z" fill="#FFF4E0"/>
<path d="M68.0074 72.2827L65.4049 69.7252L70.5274 64.5052L68.5024 62.5177L63.3799 67.7377L60.9424 65.3452L66.7399 59.4352L64.6549 57.3877L56.3149 65.8777L67.5499 76.9102L76.0999 68.2102L74.0074 66.1627L68.0074 72.2827Z" fill="#FFF4E0"/>
<path d="M86.6298 44.8327L84.9873 42.3577L73.5498 49.9477L75.1923 52.4227L79.3923 49.6327L86.4573 60.2827L89.4948 58.2652L82.4298 47.6227L86.6298 44.8327Z" fill="#FFF4E0"/>
<path d="M102.897 45.4777C103.632 44.6377 104.075 43.7227 104.217 42.7177C104.36 41.7127 104.187 40.6852 103.692 39.6202C103.19 38.5477 102.507 37.7377 101.645 37.1977C100.782 36.6577 99.7923 36.3952 98.6748 36.4102C97.5573 36.4252 96.3573 36.7327 95.0823 37.3252L88.9023 40.1977L95.5473 54.4777L98.8548 52.9401L97.0023 48.9652L99.8748 47.6302C99.9273 47.6077 99.9723 47.5777 100.025 47.5552L104.622 50.2626L108.192 48.6052L102.867 45.5077C102.867 45.5077 102.882 45.4927 102.89 45.4852L102.897 45.4777ZM95.7798 46.3327L93.4623 41.3527L96.1548 40.1002C97.1748 39.6277 98.0373 39.4927 98.7423 39.6877C99.4473 39.8902 99.9873 40.3852 100.355 41.1727C100.715 41.9452 100.745 42.6727 100.452 43.3477C100.152 44.0227 99.4923 44.6002 98.4798 45.0727L95.7873 46.3252L95.7798 46.3327Z" fill="#FFF4E0"/>
<path d="M113.457 43.9851L112.452 40.4751L119.487 38.4651L118.707 35.7426L111.672 37.7526L110.735 34.4601L118.692 32.1876L117.89 29.3751L106.445 32.6451L110.78 47.7876L122.502 44.4351L121.7 41.6226L113.457 43.9851Z" fill="#FFF4E0"/>
<path d="M126.602 27.8711L123.007 28.472L125.603 44.0065L129.198 43.4055L126.602 27.8711Z" fill="#FFF4E0"/>
<path d="M143.3 26.5102L143.675 36.0577L135.477 26.8177L132.462 26.9302L133.077 42.6727L136.677 42.5302L136.302 32.9752L144.522 42.2227L147.515 42.1102L146.9 26.3677L143.3 26.5102Z" fill="#FFF4E0"/>
<path d="M158.322 27.3651L149.277 42.0426L152.982 42.5376L154.82 39.3801L162.057 40.3476L162.995 43.8801L166.782 44.3901L161.892 27.8451L158.322 27.3651ZM156.32 36.7926L159.605 31.1526L161.277 37.4601L156.32 36.7926Z" fill="#FFF4E0"/>
<path d="M187.37 34.5126L178.76 41.9376L176.277 30.7926L173.42 29.8326L168.41 44.7651L171.65 45.8526L174.597 37.0851L176.555 45.7401L178.115 46.2651L184.985 40.3551L182 49.3251L185.24 50.4126L190.205 35.4651L187.37 34.5126Z" fill="#FFF4E0"/>
<path d="M201.342 51.7327L202.715 49.2502L196.31 45.7177L197.96 42.7252L205.212 46.7227L206.622 44.1652L196.205 38.4127L188.592 52.2052L199.272 58.0927L200.682 55.5352L193.175 51.3952L194.937 48.2002L201.342 51.7327Z" fill="#FFF4E0"/>
<path d="M220.07 54.0501L214.152 61.5576L213.92 49.2051L211.55 47.3376L201.8 59.7051L204.627 61.9326L210.545 54.4251L210.792 66.8001L213.14 68.6526L222.897 56.2851L220.07 54.0501Z" fill="#FFF4E0"/>
<path d="M233.345 71.4801L235.527 69.4701L226.212 59.3901L224.03 61.4001L227.45 65.1051L218.06 73.7751L220.535 76.4526L229.925 67.7826L233.345 71.4801Z" fill="#FFF4E0"/>
<path d="M240.702 90.7476C241.692 90.0876 242.472 89.3076 243.05 88.4076C243.627 87.5001 244.01 86.5251 244.19 85.4751C244.377 84.4251 244.347 83.3526 244.107 82.2576C243.867 81.1626 243.402 80.0976 242.712 79.0626C242.03 78.0351 241.235 77.2026 240.312 76.5501C239.397 75.8976 238.415 75.4551 237.372 75.2076C236.33 74.9676 235.28 74.9376 234.215 75.1326C233.15 75.3276 232.137 75.7476 231.162 76.3926C230.187 77.0376 229.407 77.8176 228.822 78.7176C228.237 79.6251 227.847 80.6001 227.667 81.6501C227.487 82.7001 227.517 83.7801 227.765 84.8826C228.012 85.9851 228.485 87.0576 229.167 88.0926C229.85 89.1201 230.645 89.9526 231.56 90.5976C232.475 91.2426 233.45 91.6851 234.485 91.9251C235.52 92.1651 236.57 92.1876 237.642 92.0001C238.715 91.8126 239.735 91.3926 240.71 90.7476H240.702ZM234.837 88.5126C234.215 88.3851 233.637 88.1451 233.112 87.7851C232.587 87.4251 232.122 86.9526 231.732 86.3676C231.342 85.7826 231.08 85.1676 230.952 84.5376C230.817 83.9076 230.817 83.2776 230.952 82.6626C231.08 82.0476 231.335 81.4626 231.717 80.9076C232.1 80.3601 232.595 79.8801 233.21 79.4676C233.832 79.0551 234.47 78.7776 235.122 78.6426C235.775 78.5076 236.405 78.5076 237.035 78.6276C237.657 78.7551 238.235 78.9951 238.76 79.3551C239.285 79.7151 239.75 80.1876 240.14 80.7801C240.53 81.3651 240.792 81.9801 240.927 82.6101C241.062 83.2401 241.062 83.8701 240.927 84.4851C240.8 85.1001 240.545 85.6851 240.17 86.2326C239.795 86.7801 239.292 87.2601 238.67 87.6726C238.047 88.0851 237.41 88.3626 236.757 88.4976C236.105 88.6326 235.475 88.6401 234.845 88.5126H234.837Z" fill="#FFF4E0"/>
<path d="M240.597 104.443C240.162 105.41 239.937 106.453 239.915 107.57C239.892 108.688 240.087 109.813 240.5 110.96C240.965 112.258 241.617 113.345 242.435 114.223C243.26 115.1 244.227 115.73 245.345 116.128L246.582 113.195C245.81 112.903 245.165 112.498 244.647 111.98C244.137 111.463 243.747 110.84 243.485 110.105C243.237 109.415 243.117 108.74 243.14 108.08C243.162 107.42 243.305 106.805 243.575 106.228C243.845 105.65 244.227 105.14 244.722 104.705C245.217 104.263 245.817 103.918 246.522 103.663C247.227 103.408 247.91 103.295 248.577 103.318C249.237 103.34 249.86 103.49 250.437 103.76C251.015 104.03 251.517 104.413 251.952 104.915C252.387 105.41 252.725 106.01 252.98 106.7C253.242 107.435 253.34 108.163 253.28 108.89C253.212 109.618 252.98 110.338 252.59 111.05L255.417 112.52C256.025 111.508 256.362 110.398 256.437 109.198C256.505 107.998 256.31 106.76 255.852 105.478C255.432 104.323 254.862 103.325 254.142 102.485C253.415 101.645 252.582 100.985 251.622 100.513C250.67 100.033 249.657 99.7626 248.577 99.6951C247.497 99.6276 246.402 99.7926 245.292 100.198C244.182 100.603 243.23 101.165 242.442 101.908C241.655 102.65 241.047 103.498 240.612 104.465L240.597 104.443Z" fill="#FFF4E0"/>
<path d="M243.77 120.793L247.34 121.565L248.66 128.743L245.592 130.73L246.282 134.495L260.502 124.723L259.85 121.183L243.087 117.125L243.762 120.8L243.77 120.793ZM250.272 122.195L256.655 123.575L251.18 127.123L250.272 122.203V122.195Z" fill="#FFF4E0"/>
<path d="M246.312 139.783L255.867 139.633L246.44 147.635L246.485 150.628L262.235 150.373L262.175 146.773L252.62 146.93L262.047 138.943L262.002 135.928L246.252 136.183L246.312 139.783Z" fill="#FFF4E0"/>
<path d="M245.872 154.562L245.447 158.182L261.089 160.02L261.514 156.4L245.872 154.562Z" fill="#FFF4E0"/>
<path d="M244.22 165.598L253.497 167.915L242.322 173.218L241.595 176.12L256.88 179.93L257.75 176.443L248.48 174.125L259.647 168.845L260.375 165.92L245.097 162.11L244.22 165.598Z" fill="#FFF4E0"/>
<path d="M250.64 184.01C249.92 183.208 249.02 182.57 247.955 182.083C246.89 181.595 245.817 181.34 244.737 181.318C243.657 181.295 242.622 181.483 241.632 181.88C240.642 182.278 239.742 182.87 238.94 183.665C238.13 184.46 237.47 185.42 236.952 186.553C236.442 187.67 236.157 188.788 236.09 189.905C236.022 191.023 236.165 192.08 236.502 193.085C236.84 194.09 237.38 194.998 238.107 195.808C238.835 196.618 239.727 197.263 240.792 197.75C241.872 198.245 242.945 198.493 244.025 198.508C245.097 198.523 246.132 198.328 247.122 197.93C248.112 197.533 249.005 196.94 249.807 196.16C250.61 195.38 251.27 194.42 251.787 193.288C252.297 192.17 252.59 191.045 252.657 189.92C252.725 188.795 252.59 187.73 252.245 186.71C251.9 185.69 251.367 184.79 250.64 183.988V184.01ZM248.967 192.013C248.675 192.65 248.292 193.198 247.827 193.64C247.362 194.083 246.83 194.42 246.237 194.63C245.645 194.848 245.015 194.938 244.355 194.908C243.695 194.878 243.02 194.705 242.337 194.398C241.655 194.083 241.085 193.693 240.627 193.213C240.17 192.733 239.832 192.193 239.607 191.6C239.382 191.008 239.285 190.385 239.315 189.748C239.345 189.11 239.502 188.465 239.795 187.828C240.087 187.183 240.47 186.643 240.935 186.193C241.4 185.75 241.932 185.413 242.525 185.203C243.117 184.985 243.747 184.895 244.415 184.925C245.082 184.955 245.75 185.128 246.425 185.435C247.107 185.75 247.677 186.14 248.135 186.62C248.592 187.1 248.93 187.64 249.155 188.233C249.38 188.825 249.477 189.448 249.447 190.085C249.417 190.723 249.26 191.368 248.967 192.005V192.013Z" fill="#FFF4E0"/>
<path d="M222.178 226.1C224.232 226.1 225.898 224.435 225.898 222.38C225.898 220.326 224.232 218.66 222.178 218.66C220.123 218.66 218.458 220.326 218.458 222.38C218.458 224.435 220.123 226.1 222.178 226.1Z" fill="#FF6A39"/>
<path d="M66.5525 226.1C68.607 226.1 70.2725 224.435 70.2725 222.38C70.2725 220.326 68.607 218.66 66.5525 218.66C64.498 218.66 62.8325 220.326 62.8325 222.38C62.8325 224.435 64.498 226.1 66.5525 226.1Z" fill="#FF6A39"/>
</g>
<defs>
<clipPath id="clip0_350_462">
<rect width="287.685" height="287.685" fill="white" transform="translate(0.5 0.500122)"/>
</clipPath>
</defs>
</svg>
