<svg width="504" height="110" viewBox="0 0 504 110" fill="none" xmlns="http://www.w3.org/2000/svg">
<g clip-path="url(#clip0_350_464)">
<path d="M180.498 69.56C176.898 77.3 169.878 81.8 161.148 81.8C148.368 81.8 139.458 72.35 139.458 58.22C139.458 44.09 148.278 35 161.418 35C172.308 35 179.508 41.39 179.508 50.21C179.508 51.29 179.328 52.37 179.148 53.54H171.138C172.308 46.97 168.618 42.47 161.598 42.47C153.228 42.47 147.738 48.68 147.738 58.31C147.738 67.94 153.408 74.24 161.508 74.24C167.358 74.24 171.948 71 174.378 65.6L180.498 69.56Z" fill="#0F2830"/>
<path d="M225.378 72.17V51.56C225.378 41.03 218.268 35 206.658 35C195.048 35 188.208 40.67 188.208 48.86C188.208 49.76 188.298 50.75 188.478 51.74H196.578C195.408 45.89 199.188 42.02 206.478 42.02C213.318 42.02 217.008 45.44 217.008 51.2V51.29C208.008 56.42 186.498 51.92 186.498 68.03C186.498 76.67 192.888 81.8 201.888 81.8C208.098 81.8 213.318 79.46 217.638 74.87H218.538C218.718 78.83 221.418 81.44 225.198 81.44C226.458 81.44 228.348 81.08 230.058 80.45V74.6C229.338 74.87 228.618 74.96 228.078 74.96C226.368 74.96 225.378 73.97 225.378 72.17ZM217.008 64.25C217.008 70.01 210.168 74.87 203.238 74.87C198.288 74.87 194.958 72.35 194.958 67.94C194.958 58.94 208.818 62.09 217.008 57.77V64.25Z" fill="#0F2830"/>
<path d="M287.807 36.26H279.437C279.812 40.4075 278.792 45.065 276.122 48.38C274.795 50.06 273.16 51.515 271.21 53C268.51 55.25 265.06 56.2325 261.992 57.95C260.62 56.555 259.232 55.3025 257.965 54.23C255.857 52.5125 253.472 50.93 251.005 49.7075C248.92 48.62 246.52 47.8025 244.802 46.55C241.682 44.0825 240.61 40.0475 240.61 36.08L232.81 36.155L232.772 43.9175C232.802 48.8825 232.877 62.0675 232.907 67.205H240.512C240.527 64.115 240.565 57.995 240.595 52.565C241.772 53.42 243.092 54.125 244.54 54.6425C247.93 56.015 250.855 57.3875 253.727 59.63C254.462 60.2075 255.4 60.9875 256.39 61.8875C253.472 64.0925 250.69 66.635 249.64 70.43C248.717 73.985 250.66 77.7575 253.405 79.9099C258.737 84.3874 267.062 81.6349 269.2 75.395C270.46 71.255 268.967 67.07 266.462 63.3274C267.01 63.1024 267.512 62.8925 267.962 62.7125C268.997 62.3075 270.302 61.58 271.645 60.8899C277.907 57.455 283.78 52.5425 286.142 45.47C287.117 42.605 287.92 39.2375 287.8 36.26H287.807ZM262.442 74.075C261.287 76.0324 258.73 76.6775 257.185 74.6674C256.315 73.535 255.985 72.92 256.502 70.6775C256.877 69.0575 258.512 67.58 260.515 66.305C262.495 68.9375 263.717 71.7799 262.435 74.0674L262.442 74.075Z" fill="#0F2830"/>
<path d="M321.647 80.36C319.847 81.08 317.958 81.44 316.338 81.44C312.378 81.44 309.947 79.19 309.407 75.32H308.508C305.718 79.1 300.768 81.44 295.008 81.44C285.558 81.44 279.438 75.14 279.438 65.42V36.26H287.808V64.16C287.808 70.28 291.408 73.97 297.168 73.97C303.828 73.97 308.598 69.11 308.598 62.36V36.26H316.968V72.08C316.968 73.88 317.958 74.87 319.668 74.87C320.208 74.87 320.927 74.78 321.647 74.51V80.36Z" fill="#0F2830"/>
<path d="M341.957 80.36C339.707 81.08 337.367 81.44 335.387 81.44C329.627 81.44 326.387 78.29 326.387 72.71V18.35H334.757V70.1C334.757 72.98 336.647 74.6 339.707 74.6C340.337 74.6 341.147 74.51 341.957 74.33V80.36Z" fill="#0F2830"/>
<path d="M399.52 34.9325C398.485 37.94 395.905 43.4975 390.235 46.97C389.635 47.3375 389.012 47.66 388.375 47.9675C386.215 42.7325 382.352 38.825 377.237 36.7325C375.49 35.87 373.69 35.33 371.897 35.2025C366.64 34.8125 361.525 36.6875 360.295 42.155C359.5 45.7025 359.642 49.7075 364.195 53.165C368.942 56.765 375.43 58.2125 381.925 57.5075C381.932 57.8075 381.947 58.1075 381.947 58.415C381.947 62.825 380.845 66.4625 378.85 69.1325C377.605 70.61 376.112 71.87 374.417 72.785C372.565 73.6775 370.42 74.165 368.005 74.165C359.365 74.165 354.145 68.315 354.145 58.505C354.145 54.4175 355.045 51.005 356.695 48.3875L354.415 47.015L349.847 44.2475C349.847 44.2475 349.847 44.2475 349.847 44.255L349.697 44.15C347.177 47.9525 345.782 52.7975 345.782 58.4075C345.782 72.155 354.13 81.2975 366.932 81.785C367.405 81.8225 367.885 81.845 368.372 81.845C368.627 81.845 368.89 81.845 369.152 81.83C369.985 81.8 370.81 81.71 371.627 81.575C382.202 80.1425 389.29 72.35 390.22 61.0175C390.37 59.6225 390.392 58.2125 390.28 56.8025C390.257 56.33 390.22 55.865 390.175 55.4C391.547 54.83 392.882 54.155 394.157 53.375C401.83 48.68 405.257 41.3375 406.615 37.385L399.52 34.9475V34.9325ZM368.725 47.18C368.725 47.18 368.687 47.15 368.665 47.135C366.857 45.755 367.712 42.7925 369.985 42.65C370.375 42.6275 370.78 42.6275 371.17 42.665C373.697 42.905 376.675 44.8775 378.955 47.8025C379.517 48.5225 380.02 49.28 380.47 50.0675C376.052 50.4125 371.725 49.46 368.717 47.18H368.725Z" fill="#0F2830"/>
<path d="M412.607 56.6225C412.607 52.67 415.645 49.835 419.732 49.835C422.005 49.835 423.895 50.66 425.132 52.16L423.182 53.96C422.297 52.9475 421.195 52.4225 419.882 52.4225C417.422 52.4225 415.682 54.1475 415.682 56.6225C415.682 59.0975 417.422 60.8225 419.882 60.8225C421.195 60.8225 422.297 60.2975 423.182 59.27L425.132 61.07C423.895 62.585 422.005 63.41 419.717 63.41C415.652 63.41 412.615 60.5825 412.615 56.6225H412.607Z" fill="#FF6A39"/>
<path d="M439.21 60.7474V63.1849H429.047V50.0599H438.962V52.4974H432.062V55.3474H438.152V57.7099H432.062V60.7474H439.202H439.21Z" fill="#FF6A39"/>
<path d="M455.545 50.0675V63.1925H453.055L446.515 55.2275V63.1925H443.515V50.0675H446.027L452.552 58.0325V50.0675H455.552H455.545Z" fill="#FF6A39"/>
<path d="M463.247 52.5425H459.047V50.0675H470.485V52.5425H466.285V63.1925H463.247V52.5425Z" fill="#FF6A39"/>
<path d="M482.357 63.1849L479.83 59.5324H477.04V63.1849H474.002V50.0599H479.68C483.182 50.0599 485.38 51.8749 485.38 54.8224C485.38 56.7874 484.382 58.2349 482.68 58.9624L485.62 63.1774H482.357V63.1849ZM479.507 52.5349H477.032V57.1099H479.507C481.36 57.1099 482.297 56.2474 482.297 54.8224C482.297 53.3974 481.36 52.5349 479.507 52.5349Z" fill="#FF6A39"/>
<path d="M488.83 56.6225C488.83 52.7225 491.867 49.835 496.007 49.835C500.147 49.835 503.185 52.7 503.185 56.6225C503.185 60.545 500.132 63.41 496.007 63.41C491.882 63.41 488.83 60.5225 488.83 56.6225ZM500.117 56.6225C500.117 54.1325 498.355 52.4225 496.015 52.4225C493.675 52.4225 491.912 54.125 491.912 56.6225C491.912 59.12 493.675 60.8225 496.015 60.8225C498.355 60.8225 500.117 59.12 500.117 56.6225Z" fill="#FF6A39"/>
<path d="M412.607 74.84C412.607 70.8875 415.645 68.0525 419.732 68.0525C422.005 68.0525 423.895 68.8775 425.132 70.3775L423.182 72.1775C422.297 71.165 421.195 70.64 419.882 70.64C417.422 70.64 415.682 72.365 415.682 74.84C415.682 77.315 417.422 79.04 419.882 79.04C421.195 79.04 422.297 78.515 423.182 77.4875L425.132 79.2875C423.895 80.8025 422.005 81.6275 419.717 81.6275C415.652 81.6275 412.615 78.8 412.615 74.84H412.607Z" fill="#FF6A39"/>
<path d="M437.432 78.59H431.342L430.18 81.4025H427.067L432.917 68.2775H435.917L441.782 81.4025H438.595L437.432 78.59ZM436.472 76.2875L434.395 71.2625L432.31 76.2875H436.472Z" fill="#FF6A39"/>
<path d="M457.06 68.2775V81.4025H454.57L448.03 73.4375V81.4025H445.03V68.2775H447.543L454.068 76.2425V68.2775H457.068H457.06Z" fill="#FF6A39"/>
<path d="M462.055 68.2775H465.093V81.4025H462.055V68.2775Z" fill="#FF6A39"/>
<path d="M482.11 68.2775V81.4025H479.62L473.08 73.4375V81.4025H470.08V68.2775H472.592L479.117 76.2425V68.2775H482.117H482.11Z" fill="#FF6A39"/>
<path d="M486.28 74.84C486.28 70.94 489.318 68.0525 493.458 68.0525C497.598 68.0525 500.635 70.9175 500.635 74.84C500.635 78.7625 497.583 81.6275 493.458 81.6275C489.333 81.6275 486.28 78.74 486.28 74.84ZM497.568 74.84C497.568 72.35 495.805 70.64 493.465 70.64C491.125 70.64 489.363 72.3425 489.363 74.84C489.363 77.3375 491.125 79.04 493.465 79.04C495.805 79.04 497.568 77.3375 497.568 74.84Z" fill="#FF6A39"/>
<path d="M98.0124 15.7623C81.4299 0.567276 57.0699 -3.70772 35.9574 4.86478C19.0599 11.7273 10.3224 25.0323 7.3449 30.4323C-4.2801 51.5523 -0.132601 75.8223 9.1299 90.4998C14.0874 98.3598 24.2124 108.162 29.8299 109.032C31.5324 109.295 32.6649 108.702 33.3174 108.155C36.1074 105.792 34.2249 102.74 32.0424 99.1923C29.9649 95.8248 26.8299 90.7398 24.5799 83.9748C18.9774 67.0998 21.7149 54.0123 24.9999 46.0023C29.0874 36.0273 35.7849 29.2023 41.5299 24.8523C42.9699 27.5598 44.0574 29.9373 44.8599 32.0073C41.8149 33.0573 38.4624 34.9098 37.2399 38.6598C36.1149 42.1323 37.0824 46.9548 40.6599 49.0173C44.4699 51.2148 49.1499 49.2273 51.2499 47.1048C52.9899 45.3498 54.2724 42.3198 53.4399 37.0773C57.1599 36.6723 62.9574 36.7098 66.2124 40.1373C67.3299 41.3148 67.7199 42.2523 68.3124 43.6698C69.0474 45.4323 69.9624 47.6223 72.4074 50.4123C76.0899 54.6123 81.8349 56.9823 89.5224 57.4773C89.7099 58.8798 90.3774 60.1623 91.4424 61.1148C92.5374 62.0898 93.9249 62.6148 95.3799 62.6148C95.4924 62.6148 95.6049 62.6148 95.7174 62.6073C95.7624 62.6073 95.7999 62.5998 95.8449 62.5923C95.8374 62.7573 95.8299 62.9148 95.8149 63.0873C95.3799 67.4073 92.1624 70.8048 89.1699 72.2448C88.6224 72.5073 88.1499 72.6798 87.6774 72.7773C84.2724 73.4973 81.8874 73.1223 79.3599 72.7173C77.6574 72.4473 75.8949 72.1623 73.9449 72.2748C66.5799 72.6648 59.1924 78.9948 57.4749 86.3898C55.5174 94.8348 61.0299 103.175 67.4949 107.045C70.6899 108.957 74.3049 109.917 78.3174 109.917C80.7624 109.917 83.3499 109.565 86.0799 108.845C104.665 104 113.53 82.1523 115.832 70.0098C119.62 50.0748 112.787 29.2848 98.0124 15.7548V15.7623ZM46.4124 42.2973C45.8049 42.9048 44.4324 43.2723 44.0724 43.1073C43.7799 42.8973 43.4349 41.6823 43.7274 40.7673C44.0349 39.8148 45.3174 39.1098 46.7274 38.5923C47.0274 40.6698 46.8099 41.8923 46.4049 42.2973H46.4124ZM109.12 68.7423C106.517 82.4448 97.6524 98.7798 84.2799 102.267C82.2999 102.785 76.2774 104.36 70.9974 101.195C66.7599 98.6523 62.9049 93.1473 64.1124 87.9348C65.2599 82.9773 70.4049 79.2948 74.2974 79.0923C74.4549 79.0848 74.6199 79.0773 74.7774 79.0773C75.8649 79.0773 76.9974 79.2573 78.2799 79.4598C81.0249 79.8948 84.4449 80.4348 89.0874 79.4598C90.0924 79.2498 91.0899 78.8973 92.1249 78.3948C96.4824 76.2873 101.845 71.1948 102.595 63.7773C103.127 58.5048 101.05 54.2973 99.7824 52.2873C99.0999 51.1773 97.8624 50.5398 96.5349 50.6223C87.2349 51.2823 80.8374 49.6998 77.5299 45.9198C75.8199 43.9698 75.2274 42.5448 74.5974 41.0373C73.9074 39.3873 73.1274 37.5273 71.1474 35.4423C65.5224 29.5248 56.7249 29.6823 51.5874 30.4173C50.3199 27.0123 48.3999 22.9923 45.6399 18.2598C45.1524 17.4273 44.3424 16.8198 43.3974 16.6023C42.4599 16.3848 41.4549 16.5648 40.6524 17.0973C33.6399 21.7473 24.1224 30.0873 18.6624 43.4223C14.9424 52.4973 11.8224 67.2798 18.0849 86.1348C19.3374 89.9073 20.8149 93.1623 22.2549 95.9373C19.7874 93.5298 17.1699 90.4848 14.8824 86.8698C6.6849 73.8798 3.0174 52.4148 13.3074 33.7323C15.9324 28.9698 23.6349 17.2398 38.5074 11.2023C56.9049 3.73228 78.9549 7.58727 93.3849 20.8023C108.977 35.0823 111.73 54.9348 109.105 68.7498L109.12 68.7423Z" fill="#FF6A39"/>
</g>
<defs>
<clipPath id="clip0_350_464">
<rect width="502.935" height="109.417" fill="white" transform="translate(0.25 0.5)"/>
</clipPath>
</defs>
</svg>
