<svg width="503" height="110" viewBox="0 0 503 110" fill="none" xmlns="http://www.w3.org/2000/svg">
<g clip-path="url(#clip0_350_465)">
<path d="M180.248 69.56C176.648 77.3 169.628 81.8 160.898 81.8C148.118 81.8 139.208 72.35 139.208 58.22C139.208 44.09 148.028 35 161.168 35C172.058 35 179.258 41.39 179.258 50.21C179.258 51.29 179.078 52.37 178.898 53.54H170.888C172.058 46.97 168.368 42.47 161.348 42.47C152.978 42.47 147.488 48.68 147.488 58.31C147.488 67.94 153.158 74.24 161.258 74.24C167.108 74.24 171.698 71 174.128 65.6L180.248 69.56Z" fill="#FFF4E0"/>
<path d="M225.128 72.17V51.56C225.128 41.03 218.018 35 206.408 35C194.798 35 187.958 40.67 187.958 48.86C187.958 49.76 188.048 50.75 188.228 51.74H196.328C195.158 45.89 198.938 42.02 206.228 42.02C213.068 42.02 216.758 45.44 216.758 51.2V51.29C207.758 56.42 186.248 51.92 186.248 68.03C186.248 76.67 192.638 81.8 201.638 81.8C207.848 81.8 213.068 79.46 217.388 74.87H218.288C218.468 78.83 221.168 81.44 224.948 81.44C226.208 81.44 228.098 81.08 229.808 80.45V74.6C229.088 74.87 228.368 74.96 227.828 74.96C226.118 74.96 225.128 73.97 225.128 72.17ZM216.758 64.25C216.758 70.01 209.918 74.87 202.988 74.87C198.038 74.87 194.708 72.35 194.708 67.94C194.708 58.94 208.568 62.09 216.758 57.77V64.25Z" fill="#FFF4E0"/>
<path d="M287.557 36.26H279.187C279.562 40.4075 278.542 45.065 275.872 48.38C274.545 50.06 272.91 51.515 270.96 53C268.26 55.25 264.81 56.2325 261.742 57.95C260.37 56.555 258.982 55.3025 257.715 54.23C255.607 52.5125 253.222 50.93 250.755 49.7075C248.67 48.62 246.27 47.8025 244.552 46.55C241.432 44.0825 240.36 40.0475 240.36 36.08L232.56 36.155L232.522 43.9175C232.552 48.8825 232.627 62.0675 232.657 67.205H240.262C240.277 64.115 240.315 57.995 240.345 52.565C241.522 53.42 242.842 54.125 244.29 54.6425C247.68 56.015 250.605 57.3875 253.477 59.63C254.212 60.2075 255.15 60.9875 256.14 61.8875C253.222 64.0925 250.44 66.635 249.39 70.43C248.467 73.985 250.41 77.7575 253.155 79.9099C258.487 84.3874 266.812 81.6349 268.95 75.395C270.21 71.255 268.717 67.07 266.212 63.3274C266.76 63.1024 267.262 62.8925 267.712 62.7125C268.747 62.3075 270.052 61.58 271.395 60.8899C277.657 57.455 283.53 52.5425 285.892 45.47C286.867 42.605 287.67 39.2375 287.55 36.26H287.557ZM262.192 74.075C261.037 76.0324 258.48 76.6775 256.935 74.6674C256.065 73.535 255.735 72.92 256.252 70.6775C256.627 69.0575 258.262 67.58 260.265 66.305C262.245 68.9375 263.467 71.7799 262.185 74.0674L262.192 74.075Z" fill="#FFF4E0"/>
<path d="M321.397 80.36C319.597 81.08 317.708 81.44 316.088 81.44C312.128 81.44 309.697 79.19 309.157 75.32H308.258C305.468 79.1 300.518 81.44 294.758 81.44C285.308 81.44 279.188 75.14 279.188 65.42V36.26H287.558V64.16C287.558 70.28 291.158 73.97 296.918 73.97C303.578 73.97 308.348 69.11 308.348 62.36V36.26H316.718V72.08C316.718 73.88 317.708 74.87 319.418 74.87C319.958 74.87 320.677 74.78 321.397 74.51V80.36Z" fill="#FFF4E0"/>
<path d="M341.708 80.36C339.458 81.08 337.118 81.44 335.138 81.44C329.378 81.44 326.138 78.29 326.138 72.71V18.35H334.508V70.1C334.508 72.98 336.398 74.6 339.458 74.6C340.088 74.6 340.898 74.51 341.708 74.33V80.36Z" fill="#FFF4E0"/>
<path d="M399.27 34.9325C398.235 37.94 395.655 43.4975 389.985 46.97C389.385 47.3375 388.762 47.66 388.125 47.9675C385.965 42.7325 382.102 38.825 376.987 36.7325C375.24 35.87 373.44 35.33 371.647 35.2025C366.39 34.8125 361.275 36.6875 360.045 42.155C359.25 45.7025 359.392 49.7075 363.945 53.165C368.692 56.765 375.18 58.2125 381.675 57.5075C381.682 57.8075 381.697 58.1075 381.697 58.415C381.697 62.825 380.595 66.4625 378.6 69.1325C377.355 70.61 375.862 71.87 374.167 72.785C372.315 73.6775 370.17 74.165 367.755 74.165C359.115 74.165 353.895 68.315 353.895 58.505C353.895 54.4175 354.795 51.005 356.445 48.3875L354.165 47.015L349.597 44.2475C349.597 44.2475 349.597 44.2475 349.597 44.255L349.447 44.15C346.927 47.9525 345.532 52.7975 345.532 58.4075C345.532 72.155 353.88 81.2975 366.682 81.785C367.155 81.8225 367.635 81.845 368.122 81.845C368.377 81.845 368.64 81.845 368.902 81.83C369.735 81.8 370.56 81.71 371.377 81.575C381.952 80.1425 389.04 72.35 389.97 61.0175C390.12 59.6225 390.142 58.2125 390.03 56.8025C390.007 56.33 389.97 55.865 389.925 55.4C391.297 54.83 392.632 54.155 393.907 53.375C401.58 48.68 405.007 41.3375 406.365 37.385L399.27 34.9475V34.9325ZM368.475 47.18C368.475 47.18 368.437 47.15 368.415 47.135C366.607 45.755 367.462 42.7925 369.735 42.65C370.125 42.6275 370.53 42.6275 370.92 42.665C373.447 42.905 376.425 44.8775 378.705 47.8025C379.267 48.5225 379.77 49.28 380.22 50.0675C375.802 50.4125 371.475 49.46 368.467 47.18H368.475Z" fill="#FFF4E0"/>
<path d="M412.357 56.6225C412.357 52.67 415.395 49.835 419.482 49.835C421.755 49.835 423.645 50.66 424.882 52.16L422.932 53.96C422.047 52.9475 420.945 52.4225 419.632 52.4225C417.172 52.4225 415.432 54.1475 415.432 56.6225C415.432 59.0975 417.172 60.8225 419.632 60.8225C420.945 60.8225 422.047 60.2975 422.932 59.27L424.882 61.07C423.645 62.585 421.755 63.41 419.467 63.41C415.402 63.41 412.365 60.5825 412.365 56.6225H412.357Z" fill="#FF6A39"/>
<path d="M438.96 60.7474V63.1849H428.797V50.0599H438.712V52.4974H431.812V55.3474H437.902V57.7099H431.812V60.7474H438.952H438.96Z" fill="#FF6A39"/>
<path d="M455.295 50.0675V63.1925H452.805L446.265 55.2275V63.1925H443.265V50.0675H445.777L452.302 58.0325V50.0675H455.302H455.295Z" fill="#FF6A39"/>
<path d="M462.997 52.5425H458.797V50.0675H470.235V52.5425H466.035V63.1925H462.997V52.5425Z" fill="#FF6A39"/>
<path d="M482.107 63.1849L479.58 59.5324H476.79V63.1849H473.752V50.0599H479.43C482.932 50.0599 485.13 51.8749 485.13 54.8224C485.13 56.7874 484.132 58.2349 482.43 58.9624L485.37 63.1774H482.107V63.1849ZM479.257 52.5349H476.782V57.1099H479.257C481.11 57.1099 482.047 56.2474 482.047 54.8224C482.047 53.3974 481.11 52.5349 479.257 52.5349Z" fill="#FF6A39"/>
<path d="M488.58 56.6225C488.58 52.7225 491.617 49.835 495.757 49.835C499.897 49.835 502.935 52.7 502.935 56.6225C502.935 60.545 499.882 63.41 495.757 63.41C491.632 63.41 488.58 60.5225 488.58 56.6225ZM499.867 56.6225C499.867 54.1325 498.105 52.4225 495.765 52.4225C493.425 52.4225 491.662 54.125 491.662 56.6225C491.662 59.12 493.425 60.8225 495.765 60.8225C498.105 60.8225 499.867 59.12 499.867 56.6225Z" fill="#FF6A39"/>
<path d="M412.357 74.84C412.357 70.8875 415.395 68.0525 419.482 68.0525C421.755 68.0525 423.645 68.8775 424.882 70.3775L422.932 72.1775C422.047 71.165 420.945 70.64 419.632 70.64C417.172 70.64 415.432 72.365 415.432 74.84C415.432 77.315 417.172 79.04 419.632 79.04C420.945 79.04 422.047 78.515 422.932 77.4875L424.882 79.2875C423.645 80.8025 421.755 81.6275 419.467 81.6275C415.402 81.6275 412.365 78.8 412.365 74.84H412.357Z" fill="#FF6A39"/>
<path d="M437.182 78.59H431.092L429.93 81.4025H426.817L432.667 68.2775H435.667L441.532 81.4025H438.345L437.182 78.59ZM436.222 76.2875L434.145 71.2625L432.06 76.2875H436.222Z" fill="#FF6A39"/>
<path d="M456.81 68.2775V81.4025H454.32L447.78 73.4375V81.4025H444.78V68.2775H447.292L453.817 76.2425V68.2775H456.817H456.81Z" fill="#FF6A39"/>
<path d="M461.805 68.2775H464.842V81.4025H461.805V68.2775Z" fill="#FF6A39"/>
<path d="M481.86 68.2775V81.4025H479.37L472.83 73.4375V81.4025H469.83V68.2775H472.342L478.867 76.2425V68.2775H481.867H481.86Z" fill="#FF6A39"/>
<path d="M486.03 74.84C486.03 70.94 489.067 68.0525 493.207 68.0525C497.347 68.0525 500.385 70.9175 500.385 74.84C500.385 78.7625 497.332 81.6275 493.207 81.6275C489.082 81.6275 486.03 78.74 486.03 74.84ZM497.317 74.84C497.317 72.35 495.555 70.64 493.215 70.64C490.875 70.64 489.112 72.3425 489.112 74.84C489.112 77.3375 490.875 79.04 493.215 79.04C495.555 79.04 497.317 77.3375 497.317 74.84Z" fill="#FF6A39"/>
<path d="M97.7624 15.7623C81.1799 0.567276 56.8199 -3.70772 35.7074 4.86478C18.8099 11.7273 10.0724 25.0323 7.0949 30.4323C-4.5301 51.5523 -0.382601 75.8223 8.8799 90.4998C13.8374 98.3598 23.9624 108.162 29.5799 109.032C31.2824 109.295 32.4149 108.702 33.0674 108.155C35.8574 105.792 33.9749 102.74 31.7924 99.1923C29.7149 95.8248 26.5799 90.7398 24.3299 83.9748C18.7274 67.0998 21.4649 54.0123 24.7499 46.0023C28.8374 36.0273 35.5349 29.2023 41.2799 24.8523C42.7199 27.5598 43.8074 29.9373 44.6099 32.0073C41.5649 33.0573 38.2124 34.9098 36.9899 38.6598C35.8649 42.1323 36.8324 46.9548 40.4099 49.0173C44.2199 51.2148 48.8999 49.2273 50.9999 47.1048C52.7399 45.3498 54.0224 42.3198 53.1899 37.0773C56.9099 36.6723 62.7074 36.7098 65.9624 40.1373C67.0799 41.3148 67.4699 42.2523 68.0624 43.6698C68.7974 45.4323 69.7124 47.6223 72.1574 50.4123C75.8399 54.6123 81.5849 56.9823 89.2724 57.4773C89.4599 58.8798 90.1274 60.1623 91.1924 61.1148C92.2874 62.0898 93.6749 62.6148 95.1299 62.6148C95.2424 62.6148 95.3549 62.6148 95.4674 62.6073C95.5124 62.6073 95.5499 62.5998 95.5949 62.5923C95.5874 62.7573 95.5799 62.9148 95.5649 63.0873C95.1299 67.4073 91.9124 70.8048 88.9199 72.2448C88.3724 72.5073 87.8999 72.6798 87.4274 72.7773C84.0224 73.4973 81.6374 73.1223 79.1099 72.7173C77.4074 72.4473 75.6449 72.1623 73.6949 72.2748C66.3299 72.6648 58.9424 78.9948 57.2249 86.3898C55.2674 94.8348 60.7799 103.175 67.2449 107.045C70.4399 108.957 74.0549 109.917 78.0674 109.917C80.5124 109.917 83.0999 109.565 85.8299 108.845C104.415 104 113.28 82.1523 115.582 70.0098C119.37 50.0748 112.537 29.2848 97.7624 15.7548V15.7623ZM46.1624 42.2973C45.5549 42.9048 44.1824 43.2723 43.8224 43.1073C43.5299 42.8973 43.1849 41.6823 43.4774 40.7673C43.7849 39.8148 45.0674 39.1098 46.4774 38.5923C46.7774 40.6698 46.5599 41.8923 46.1549 42.2973H46.1624ZM108.87 68.7423C106.267 82.4448 97.4024 98.7798 84.0299 102.267C82.0499 102.785 76.0274 104.36 70.7474 101.195C66.5099 98.6523 62.6549 93.1473 63.8624 87.9348C65.0099 82.9773 70.1549 79.2948 74.0474 79.0923C74.2049 79.0848 74.3699 79.0773 74.5274 79.0773C75.6149 79.0773 76.7474 79.2573 78.0299 79.4598C80.7749 79.8948 84.1949 80.4348 88.8374 79.4598C89.8424 79.2498 90.8399 78.8973 91.8749 78.3948C96.2324 76.2873 101.595 71.1948 102.345 63.7773C102.877 58.5048 100.8 54.2973 99.5324 52.2873C98.8499 51.1773 97.6124 50.5398 96.2849 50.6223C86.9849 51.2823 80.5874 49.6998 77.2799 45.9198C75.5699 43.9698 74.9774 42.5448 74.3474 41.0373C73.6574 39.3873 72.8774 37.5273 70.8974 35.4423C65.2724 29.5248 56.4749 29.6823 51.3374 30.4173C50.0699 27.0123 48.1499 22.9923 45.3899 18.2598C44.9024 17.4273 44.0924 16.8198 43.1474 16.6023C42.2099 16.3848 41.2049 16.5648 40.4024 17.0973C33.3899 21.7473 23.8724 30.0873 18.4124 43.4223C14.6924 52.4973 11.5724 67.2798 17.8349 86.1348C19.0874 89.9073 20.5649 93.1623 22.0049 95.9373C19.5374 93.5298 16.9199 90.4848 14.6324 86.8698C6.4349 73.8798 2.7674 52.4148 13.0574 33.7323C15.6824 28.9698 23.3849 17.2398 38.2574 11.2023C56.6549 3.73228 78.7049 7.58727 93.1349 20.8023C108.727 35.0823 111.48 54.9348 108.855 68.7498L108.87 68.7423Z" fill="#FF6A39"/>
</g>
<defs>
<clipPath id="clip0_350_465">
<rect width="502.935" height="109.417" fill="white" transform="translate(0 0.5)"/>
</clipPath>
</defs>
</svg>
