<svg width="268" height="217" viewBox="0 0 268 217" fill="none" xmlns="http://www.w3.org/2000/svg">
<g clip-path="url(#clip0_350_471)">
<path d="M41.04 172.955C37.44 180.695 30.42 185.195 21.69 185.195C8.91 185.195 0 175.745 0 161.615C0 147.485 8.82 138.395 21.96 138.395C32.85 138.395 40.05 144.785 40.05 153.605C40.05 154.685 39.87 155.765 39.69 156.935H31.68C32.85 150.365 29.16 145.865 22.14 145.865C13.77 145.865 8.28 152.075 8.28 161.705C8.28 171.335 13.95 177.635 22.05 177.635C27.9 177.635 32.49 174.395 34.92 168.995L41.04 172.955Z" fill="#FFF4E0"/>
<path d="M85.92 175.565V154.955C85.92 144.425 78.81 138.395 67.2 138.395C55.59 138.395 48.75 144.065 48.75 152.255C48.75 153.155 48.84 154.145 49.02 155.135H57.12C55.95 149.285 59.73 145.415 67.02 145.415C73.86 145.415 77.55 148.835 77.55 154.595V154.685C68.55 159.815 47.04 155.315 47.04 171.425C47.04 180.065 53.43 185.195 62.43 185.195C68.64 185.195 73.86 182.855 78.18 178.265H79.08C79.26 182.225 81.96 184.835 85.74 184.835C87 184.835 88.89 184.475 90.6 183.845V177.995C89.88 178.265 89.16 178.355 88.62 178.355C86.91 178.355 85.92 177.365 85.92 175.565ZM77.55 167.645C77.55 173.405 70.71 178.265 63.78 178.265C58.83 178.265 55.5 175.745 55.5 171.335C55.5 162.335 69.36 165.485 77.55 161.165V167.645Z" fill="#FFF4E0"/>
<path d="M148.35 139.655H139.98C140.355 143.802 139.335 148.46 136.665 151.775C135.337 153.455 133.702 154.91 131.752 156.395C129.052 158.645 125.602 159.627 122.535 161.345C121.162 159.95 119.775 158.697 118.507 157.625C116.4 155.907 114.015 154.325 111.547 153.102C109.462 152.015 107.062 151.197 105.345 149.945C102.225 147.477 101.152 143.442 101.152 139.475L93.3524 139.55L93.3149 147.312C93.3449 152.277 93.4199 165.462 93.4499 170.6H101.055C101.07 167.51 101.107 161.39 101.137 155.96C102.315 156.815 103.635 157.52 105.082 158.037C108.472 159.41 111.397 160.782 114.27 163.025C115.005 163.602 115.942 164.382 116.932 165.282C114.015 167.487 111.232 170.03 110.182 173.825C109.26 177.38 111.202 181.152 113.947 183.305C119.28 187.782 127.605 185.03 129.742 178.79C131.002 174.65 129.51 170.465 127.005 166.722C127.552 166.497 128.055 166.287 128.505 166.107C129.54 165.702 130.845 164.975 132.187 164.285C138.45 160.85 144.322 155.937 146.685 148.865C147.66 146 148.462 142.632 148.342 139.655H148.35ZM122.985 177.47C121.83 179.427 119.272 180.072 117.727 178.062C116.857 176.93 116.527 176.315 117.045 174.072C117.42 172.452 119.055 170.975 121.057 169.7C123.037 172.332 124.26 175.175 122.977 177.462L122.985 177.47Z" fill="#FFF4E0"/>
<path d="M182.183 183.755C180.383 184.475 178.493 184.835 176.873 184.835C172.913 184.835 170.483 182.585 169.943 178.715H169.043C166.253 182.495 161.303 184.835 155.543 184.835C146.093 184.835 139.973 178.535 139.973 168.815V139.655H148.343V167.555C148.343 173.675 151.943 177.365 157.703 177.365C164.363 177.365 169.133 172.505 169.133 165.755V139.655H177.503V175.475C177.503 177.275 178.493 178.265 180.203 178.265C180.743 178.265 181.463 178.175 182.183 177.905V183.755Z" fill="#FFF4E0"/>
<path d="M202.5 183.747C200.25 184.467 197.91 184.827 195.93 184.827C190.17 184.827 186.93 181.677 186.93 176.097V121.737H195.3V173.487C195.3 176.367 197.19 177.987 200.25 177.987C200.88 177.987 201.69 177.897 202.5 177.717V183.747Z" fill="#FFF4E0"/>
<path d="M260.055 138.327C259.02 141.335 256.44 146.892 250.77 150.365C250.17 150.732 249.548 151.055 248.91 151.362C246.75 146.127 242.888 142.22 237.773 140.127C236.025 139.265 234.225 138.725 232.433 138.597C227.175 138.207 222.06 140.082 220.83 145.55C220.035 149.097 220.178 153.102 224.73 156.56C229.478 160.16 235.965 161.607 242.46 160.902C242.468 161.202 242.483 161.502 242.483 161.81C242.483 166.22 241.38 169.857 239.385 172.527C238.14 174.005 236.647 175.265 234.952 176.18C233.1 177.072 230.955 177.56 228.54 177.56C219.9 177.56 214.68 171.71 214.68 161.9C214.68 157.812 215.58 154.4 217.23 151.782L214.95 150.41L210.383 147.642C210.383 147.642 210.383 147.642 210.383 147.65L210.233 147.545C207.713 151.347 206.318 156.192 206.318 161.802C206.318 175.55 214.665 184.692 227.468 185.18C227.94 185.217 228.42 185.24 228.908 185.24C229.163 185.24 229.425 185.24 229.688 185.225C230.52 185.195 231.345 185.105 232.162 184.97C242.737 183.537 249.825 175.745 250.755 164.412C250.905 163.017 250.928 161.607 250.815 160.197C250.793 159.725 250.755 159.26 250.71 158.795C252.083 158.225 253.418 157.55 254.693 156.77C262.365 152.075 265.793 144.732 267.15 140.78L260.055 138.342V138.327ZM229.26 150.575C229.26 150.575 229.223 150.545 229.2 150.53C227.393 149.15 228.247 146.187 230.52 146.045C230.91 146.022 231.315 146.022 231.705 146.06C234.233 146.3 237.21 148.272 239.49 151.197C240.053 151.917 240.555 152.675 241.005 153.462C236.588 153.807 232.26 152.855 229.253 150.575H229.26Z" fill="#FFF4E0"/>
<path d="M38.0701 209.397C38.0701 205.445 41.1076 202.61 45.1951 202.61C47.4676 202.61 49.3576 203.435 50.5951 204.935L48.6451 206.735C47.7601 205.722 46.6576 205.197 45.3451 205.197C42.8851 205.197 41.1451 206.922 41.1451 209.397C41.1451 211.872 42.8851 213.597 45.3451 213.597C46.6576 213.597 47.7601 213.072 48.6451 212.045L50.5951 213.845C49.3576 215.36 47.4676 216.185 45.1801 216.185C41.1151 216.185 38.0776 213.357 38.0776 209.397H38.0701Z" fill="#FF6A39"/>
<path d="M64.6725 213.522V215.96H54.51V202.835H64.425V205.272H57.525V208.122H63.615V210.485H57.525V213.522H64.665H64.6725Z" fill="#FF6A39"/>
<path d="M81.0075 202.835V215.96H78.5175L71.9775 207.995V215.96H68.9775V202.835H71.49L78.015 210.8V202.835H81.015H81.0075Z" fill="#FF6A39"/>
<path d="M88.7176 205.31H84.5176V202.835H95.9551V205.31H91.7551V215.96H88.7176V205.31Z" fill="#FF6A39"/>
<path d="M107.82 215.96L105.293 212.307H102.503V215.96H99.4651V202.835H105.143C108.645 202.835 110.843 204.65 110.843 207.597C110.843 209.562 109.845 211.01 108.143 211.737L111.083 215.952H107.82V215.96ZM104.97 205.31H102.495V209.885H104.97C106.823 209.885 107.76 209.022 107.76 207.597C107.76 206.172 106.823 205.31 104.97 205.31Z" fill="#FF6A39"/>
<path d="M114.293 209.397C114.293 205.497 117.33 202.61 121.47 202.61C125.61 202.61 128.648 205.475 128.648 209.397C128.648 213.32 125.595 216.185 121.47 216.185C117.345 216.185 114.293 213.297 114.293 209.397ZM125.58 209.397C125.58 206.907 123.818 205.197 121.478 205.197C119.138 205.197 117.375 206.9 117.375 209.397C117.375 211.895 119.138 213.597 121.478 213.597C123.818 213.597 125.58 211.895 125.58 209.397Z" fill="#FF6A39"/>
<path d="M139.17 209.398C139.17 205.445 142.207 202.61 146.295 202.61C148.567 202.61 150.457 203.435 151.695 204.935L149.745 206.735C148.86 205.723 147.757 205.198 146.445 205.198C143.985 205.198 142.245 206.923 142.245 209.398C142.245 211.873 143.985 213.598 146.445 213.598C147.757 213.598 148.86 213.073 149.745 212.045L151.695 213.845C150.457 215.36 148.567 216.185 146.28 216.185C142.215 216.185 139.177 213.358 139.177 209.398H139.17Z" fill="#FF6A39"/>
<path d="M163.994 213.148H157.904L156.742 215.96H153.629L159.479 202.835H162.479L168.344 215.96H165.157L163.994 213.148ZM163.034 210.845L160.957 205.82L158.872 210.845H163.034Z" fill="#FF6A39"/>
<path d="M183.622 202.835V215.96H181.132L174.592 207.995V215.96H171.592V202.835H174.105L180.63 210.8V202.835H183.63H183.622Z" fill="#FF6A39"/>
<path d="M188.609 202.835H191.647V215.96H188.609V202.835Z" fill="#FF6A39"/>
<path d="M208.672 202.835V215.96H206.182L199.642 207.995V215.96H196.642V202.835H199.154L205.679 210.8V202.835H208.679H208.672Z" fill="#FF6A39"/>
<path d="M212.842 209.398C212.842 205.498 215.88 202.61 220.02 202.61C224.16 202.61 227.197 205.475 227.197 209.398C227.197 213.32 224.145 216.185 220.02 216.185C215.895 216.185 212.842 213.298 212.842 209.398ZM224.13 209.398C224.13 206.908 222.367 205.198 220.027 205.198C217.687 205.198 215.925 206.9 215.925 209.398C215.925 211.895 217.687 213.598 220.027 213.598C222.367 213.598 224.13 211.895 224.13 209.398Z" fill="#FF6A39"/>
<path d="M173.032 15.7625C156.45 0.56752 132.09 -3.70748 110.977 4.86502C94.08 11.7275 85.3425 25.0325 82.365 30.4325C70.74 51.5525 74.88 75.8225 84.15 90.5075C89.1075 98.3675 99.2325 108.17 104.85 109.04C106.552 109.302 107.685 108.71 108.337 108.162C111.127 105.8 109.245 102.748 107.062 99.2C104.985 95.8325 101.85 90.7475 99.6 83.9825C93.9975 67.1075 96.735 54.02 100.02 46.01C104.107 36.035 110.805 29.21 116.55 24.86C117.99 27.5675 119.077 29.945 119.88 32.015C116.835 33.065 113.482 34.9175 112.26 38.6675C111.135 42.14 112.102 46.9625 115.68 49.025C119.49 51.2225 124.17 49.235 126.27 47.1125C128.01 45.3575 129.292 42.3275 128.46 37.085C132.18 36.68 137.977 36.7175 141.232 40.145C142.35 41.3225 142.74 42.26 143.332 43.6775C144.067 45.44 144.982 47.63 147.427 50.42C151.11 54.62 156.855 56.99 164.542 57.485C164.73 58.8875 165.397 60.17 166.462 61.1225C167.557 62.0975 168.945 62.6225 170.4 62.6225C170.512 62.6225 170.625 62.6225 170.737 62.615C170.782 62.615 170.82 62.6075 170.865 62.6C170.857 62.765 170.85 62.9225 170.835 63.095C170.4 67.415 167.182 70.8125 164.19 72.2525C163.642 72.515 163.17 72.6875 162.697 72.785C159.292 73.505 156.907 73.13 154.38 72.725C152.677 72.455 150.915 72.17 148.965 72.2825C141.6 72.6725 134.212 79.0025 132.495 86.3975C130.537 94.8425 136.05 103.183 142.515 107.053C145.71 108.965 149.325 109.925 153.337 109.925C155.782 109.925 158.37 109.573 161.1 108.853C179.685 104.007 188.55 82.16 190.852 70.0175C194.64 50.0825 187.807 29.2925 173.032 15.7625ZM121.432 42.2975C120.825 42.905 119.452 43.2725 119.092 43.1075C118.8 42.8975 118.455 41.6825 118.747 40.7675C119.055 39.815 120.337 39.11 121.747 38.5925C122.047 40.67 121.83 41.8925 121.425 42.2975H121.432ZM184.14 68.7425C181.537 82.445 172.672 98.78 159.3 102.268C157.32 102.785 151.297 104.36 146.017 101.195C141.78 98.6525 137.925 93.1475 139.132 87.935C140.28 82.9775 145.425 79.295 149.317 79.0925C149.475 79.085 149.64 79.0775 149.797 79.0775C150.885 79.0775 152.017 79.2575 153.3 79.46C156.045 79.895 159.465 80.435 164.107 79.46C165.112 79.25 166.11 78.8975 167.145 78.395C171.502 76.2875 176.865 71.195 177.615 63.7775C178.147 58.505 176.07 54.2975 174.802 52.2875C174.12 51.1775 172.882 50.54 171.555 50.6225C162.255 51.2825 155.857 49.7 152.55 45.92C150.84 43.97 150.247 42.545 149.617 41.0375C148.927 39.3875 148.147 37.5275 146.167 35.4425C140.542 29.525 131.745 29.6825 126.607 30.4175C125.34 27.0125 123.42 22.9925 120.66 18.26C120.172 17.4275 119.362 16.82 118.417 16.6025C117.48 16.385 116.475 16.565 115.672 17.0975C108.66 21.7475 99.1425 30.0875 93.6825 43.4225C89.9625 52.4975 86.8425 67.28 93.105 86.135C94.3575 89.9075 95.835 93.1625 97.275 95.9375C94.8075 93.53 92.19 90.485 89.9025 86.87C81.705 73.88 78.0375 52.415 88.3275 33.7325C90.9525 28.97 98.655 17.24 113.527 11.2025C131.925 3.73252 153.975 7.58752 168.405 20.8025C183.997 35.0825 186.75 54.935 184.125 68.75L184.14 68.7425Z" fill="#FF6A39"/>
</g>
<defs>
<clipPath id="clip0_350_471">
<rect width="267.15" height="215.685" fill="white" transform="translate(0 0.5)"/>
</clipPath>
</defs>
</svg>
