<svg width="268" height="217" viewBox="0 0 268 217" fill="none" xmlns="http://www.w3.org/2000/svg">
<g clip-path="url(#clip0_350_470)">
<path d="M41.79 172.955C38.19 180.695 31.17 185.195 22.44 185.195C9.66 185.195 0.75 175.745 0.75 161.615C0.75 147.485 9.57 138.395 22.71 138.395C33.6 138.395 40.8 144.785 40.8 153.605C40.8 154.685 40.62 155.765 40.44 156.935H32.43C33.6 150.365 29.91 145.865 22.89 145.865C14.52 145.865 9.03 152.075 9.03 161.705C9.03 171.335 14.7 177.635 22.8 177.635C28.65 177.635 33.24 174.395 35.67 168.995L41.79 172.955Z" fill="#0F2830"/>
<path d="M86.67 175.565V154.955C86.67 144.425 79.56 138.395 67.95 138.395C56.34 138.395 49.5 144.065 49.5 152.255C49.5 153.155 49.59 154.145 49.77 155.135H57.87C56.7 149.285 60.48 145.415 67.77 145.415C74.61 145.415 78.3 148.835 78.3 154.595V154.685C69.3 159.815 47.79 155.315 47.79 171.425C47.79 180.065 54.18 185.195 63.18 185.195C69.39 185.195 74.61 182.855 78.93 178.265H79.83C80.01 182.225 82.71 184.835 86.49 184.835C87.75 184.835 89.64 184.475 91.35 183.845V177.995C90.63 178.265 89.91 178.355 89.37 178.355C87.66 178.355 86.67 177.365 86.67 175.565ZM78.3 167.645C78.3 173.405 71.46 178.265 64.53 178.265C59.58 178.265 56.25 175.745 56.25 171.335C56.25 162.335 70.11 165.485 78.3 161.165V167.645Z" fill="#0F2830"/>
<path d="M149.1 139.655H140.73C141.105 143.802 140.085 148.46 137.415 151.775C136.087 153.455 134.452 154.91 132.502 156.395C129.802 158.645 126.352 159.627 123.285 161.345C121.912 159.95 120.525 158.697 119.257 157.625C117.15 155.907 114.765 154.325 112.297 153.102C110.212 152.015 107.812 151.197 106.095 149.945C102.975 147.477 101.902 143.442 101.902 139.475L94.1024 139.55L94.0649 147.312C94.0949 152.277 94.1699 165.462 94.1999 170.6H101.805C101.82 167.51 101.857 161.39 101.887 155.96C103.065 156.815 104.385 157.52 105.832 158.037C109.222 159.41 112.147 160.782 115.02 163.025C115.755 163.602 116.692 164.382 117.682 165.282C114.765 167.487 111.982 170.03 110.932 173.825C110.01 177.38 111.952 181.152 114.697 183.305C120.03 187.782 128.355 185.03 130.492 178.79C131.752 174.65 130.26 170.465 127.755 166.722C128.302 166.497 128.805 166.287 129.255 166.107C130.29 165.702 131.595 164.975 132.937 164.285C139.2 160.85 145.072 155.937 147.435 148.865C148.41 146 149.212 142.632 149.092 139.655H149.1ZM123.735 177.47C122.58 179.427 120.022 180.072 118.477 178.062C117.607 176.93 117.277 176.315 117.795 174.072C118.17 172.452 119.805 170.975 121.807 169.7C123.787 172.332 125.01 175.175 123.727 177.462L123.735 177.47Z" fill="#0F2830"/>
<path d="M182.933 183.755C181.133 184.475 179.243 184.835 177.623 184.835C173.663 184.835 171.233 182.585 170.693 178.715H169.793C167.003 182.495 162.053 184.835 156.293 184.835C146.843 184.835 140.723 178.535 140.723 168.815V139.655H149.093V167.555C149.093 173.675 152.693 177.365 158.453 177.365C165.113 177.365 169.883 172.505 169.883 165.755V139.655H178.253V175.475C178.253 177.275 179.243 178.265 180.953 178.265C181.493 178.265 182.213 178.175 182.933 177.905V183.755Z" fill="#0F2830"/>
<path d="M203.25 183.747C201 184.467 198.66 184.827 196.68 184.827C190.92 184.827 187.68 181.677 187.68 176.097V121.737H196.05V173.487C196.05 176.367 197.94 177.987 201 177.987C201.63 177.987 202.44 177.897 203.25 177.717V183.747Z" fill="#0F2830"/>
<path d="M260.805 138.327C259.77 141.335 257.19 146.892 251.52 150.365C250.92 150.732 250.297 151.055 249.66 151.362C247.5 146.127 243.637 142.22 238.522 140.127C236.775 139.265 234.975 138.725 233.182 138.597C227.925 138.207 222.81 140.082 221.58 145.55C220.785 149.097 220.927 153.102 225.48 156.56C230.227 160.16 236.715 161.607 243.21 160.902C243.217 161.202 243.232 161.502 243.232 161.81C243.232 166.22 242.13 169.857 240.135 172.527C238.89 174.005 237.397 175.265 235.702 176.18C233.85 177.072 231.705 177.56 229.29 177.56C220.65 177.56 215.43 171.71 215.43 161.9C215.43 157.812 216.33 154.4 217.98 151.782L215.7 150.41L211.132 147.642C211.132 147.642 211.132 147.642 211.132 147.65L210.982 147.545C208.462 151.347 207.067 156.192 207.067 161.802C207.067 175.55 215.415 184.692 228.217 185.18C228.69 185.217 229.17 185.24 229.657 185.24C229.912 185.24 230.175 185.24 230.437 185.225C231.27 185.195 232.095 185.105 232.912 184.97C243.487 183.537 250.575 175.745 251.505 164.412C251.655 163.017 251.677 161.607 251.565 160.197C251.542 159.725 251.505 159.26 251.46 158.795C252.832 158.225 254.167 157.55 255.442 156.77C263.115 152.075 266.542 144.732 267.9 140.78L260.805 138.342V138.327ZM230.01 150.575C230.01 150.575 229.972 150.545 229.95 150.53C228.142 149.15 228.997 146.187 231.27 146.045C231.66 146.022 232.065 146.022 232.455 146.06C234.982 146.3 237.96 148.272 240.24 151.197C240.802 151.917 241.305 152.675 241.755 153.462C237.337 153.807 233.01 152.855 230.002 150.575H230.01Z" fill="#0F2830"/>
<path d="M38.8199 209.397C38.8199 205.445 41.8574 202.61 45.9449 202.61C48.2174 202.61 50.1074 203.435 51.3449 204.935L49.3949 206.735C48.5099 205.722 47.4074 205.197 46.0949 205.197C43.6349 205.197 41.8949 206.922 41.8949 209.397C41.8949 211.872 43.6349 213.597 46.0949 213.597C47.4074 213.597 48.5099 213.072 49.3949 212.045L51.3449 213.845C50.1074 215.36 48.2174 216.185 45.9299 216.185C41.8649 216.185 38.8274 213.357 38.8274 209.397H38.8199Z" fill="#FF6A39"/>
<path d="M65.4225 213.522V215.96H55.26V202.835H65.175V205.272H58.275V208.122H64.365V210.485H58.275V213.522H65.415H65.4225Z" fill="#FF6A39"/>
<path d="M81.7574 202.835V215.96H79.2674L72.7274 207.995V215.96H69.7274V202.835H72.2399L78.7649 210.8V202.835H81.7649H81.7574Z" fill="#FF6A39"/>
<path d="M89.4675 205.31H85.2675V202.835H96.705V205.31H92.505V215.96H89.4675V205.31Z" fill="#FF6A39"/>
<path d="M108.57 215.96L106.042 212.307H103.252V215.96H100.215V202.835H105.892C109.395 202.835 111.592 204.65 111.592 207.597C111.592 209.562 110.595 211.01 108.892 211.737L111.832 215.952H108.57V215.96ZM105.72 205.31H103.245V209.885H105.72C107.572 209.885 108.51 209.022 108.51 207.597C108.51 206.172 107.572 205.31 105.72 205.31Z" fill="#FF6A39"/>
<path d="M115.042 209.397C115.042 205.497 118.08 202.61 122.22 202.61C126.36 202.61 129.397 205.475 129.397 209.397C129.397 213.32 126.345 216.185 122.22 216.185C118.095 216.185 115.042 213.297 115.042 209.397ZM126.33 209.397C126.33 206.907 124.567 205.197 122.227 205.197C119.887 205.197 118.125 206.9 118.125 209.397C118.125 211.895 119.887 213.597 122.227 213.597C124.567 213.597 126.33 211.895 126.33 209.397Z" fill="#FF6A39"/>
<path d="M139.92 209.397C139.92 205.445 142.957 202.61 147.045 202.61C149.317 202.61 151.207 203.435 152.445 204.935L150.495 206.735C149.61 205.722 148.507 205.197 147.195 205.197C144.735 205.197 142.995 206.922 142.995 209.397C142.995 211.872 144.735 213.597 147.195 213.597C148.507 213.597 149.61 213.072 150.495 212.045L152.445 213.845C151.207 215.36 149.317 216.185 147.03 216.185C142.965 216.185 139.927 213.357 139.927 209.397H139.92Z" fill="#FF6A39"/>
<path d="M164.744 213.147H158.654L157.492 215.96H154.379L160.229 202.835H163.229L169.094 215.96H165.907L164.744 213.147ZM163.784 210.845L161.707 205.82L159.622 210.845H163.784Z" fill="#FF6A39"/>
<path d="M184.372 202.835V215.96H181.882L175.342 207.995V215.96H172.342V202.835H174.855L181.38 210.8V202.835H184.38H184.372Z" fill="#FF6A39"/>
<path d="M189.36 202.835H192.397V215.96H189.36V202.835Z" fill="#FF6A39"/>
<path d="M209.422 202.835V215.96H206.932L200.392 207.995V215.96H197.392V202.835H199.905L206.43 210.8V202.835H209.43H209.422Z" fill="#FF6A39"/>
<path d="M213.593 209.397C213.593 205.497 216.63 202.61 220.77 202.61C224.91 202.61 227.948 205.475 227.948 209.397C227.948 213.32 224.895 216.185 220.77 216.185C216.645 216.185 213.593 213.297 213.593 209.397ZM224.88 209.397C224.88 206.907 223.118 205.197 220.778 205.197C218.438 205.197 216.675 206.9 216.675 209.397C216.675 211.895 218.438 213.597 220.778 213.597C223.118 213.597 224.88 211.895 224.88 209.397Z" fill="#FF6A39"/>
<path d="M173.782 15.7625C157.2 0.56752 132.84 -3.70748 111.727 4.86502C94.83 11.7275 86.0925 25.0325 83.115 30.4325C71.49 51.5525 75.63 75.8225 84.9 90.5075C89.8575 98.3675 99.9825 108.17 105.6 109.04C107.302 109.302 108.435 108.71 109.087 108.162C111.877 105.8 109.995 102.748 107.812 99.2C105.735 95.8325 102.6 90.7475 100.35 83.9825C94.7475 67.1075 97.485 54.02 100.77 46.01C104.857 36.035 111.555 29.21 117.3 24.86C118.74 27.5675 119.827 29.945 120.63 32.015C117.585 33.065 114.232 34.9175 113.01 38.6675C111.885 42.14 112.852 46.9625 116.43 49.025C120.24 51.2225 124.92 49.235 127.02 47.1125C128.76 45.3575 130.042 42.3275 129.21 37.085C132.93 36.68 138.727 36.7175 141.982 40.145C143.1 41.3225 143.49 42.26 144.082 43.6775C144.817 45.44 145.732 47.63 148.177 50.42C151.86 54.62 157.605 56.99 165.292 57.485C165.48 58.8875 166.147 60.17 167.212 61.1225C168.307 62.0975 169.695 62.6225 171.15 62.6225C171.262 62.6225 171.375 62.6225 171.487 62.615C171.532 62.615 171.57 62.6075 171.615 62.6C171.607 62.765 171.6 62.9225 171.585 63.095C171.15 67.415 167.932 70.8125 164.94 72.2525C164.392 72.515 163.92 72.6875 163.447 72.785C160.042 73.505 157.657 73.13 155.13 72.725C153.427 72.455 151.665 72.17 149.715 72.2825C142.35 72.6725 134.962 79.0025 133.245 86.3975C131.287 94.8425 136.8 103.183 143.265 107.053C146.46 108.965 150.075 109.925 154.087 109.925C156.532 109.925 159.12 109.573 161.85 108.853C180.435 104.007 189.3 82.16 191.602 70.0175C195.39 50.0825 188.557 29.2925 173.782 15.7625ZM122.182 42.2975C121.575 42.905 120.202 43.2725 119.842 43.1075C119.55 42.8975 119.205 41.6825 119.497 40.7675C119.805 39.815 121.087 39.11 122.497 38.5925C122.797 40.67 122.58 41.8925 122.175 42.2975H122.182ZM184.89 68.7425C182.287 82.445 173.422 98.78 160.05 102.268C158.07 102.785 152.047 104.36 146.767 101.195C142.53 98.6525 138.675 93.1475 139.882 87.935C141.03 82.9775 146.175 79.295 150.067 79.0925C150.225 79.085 150.39 79.0775 150.547 79.0775C151.635 79.0775 152.767 79.2575 154.05 79.46C156.795 79.895 160.215 80.435 164.857 79.46C165.862 79.25 166.86 78.8975 167.895 78.395C172.252 76.2875 177.615 71.195 178.365 63.7775C178.897 58.505 176.82 54.2975 175.552 52.2875C174.87 51.1775 173.632 50.54 172.305 50.6225C163.005 51.2825 156.607 49.7 153.3 45.92C151.59 43.97 150.997 42.545 150.367 41.0375C149.677 39.3875 148.897 37.5275 146.917 35.4425C141.292 29.525 132.495 29.6825 127.357 30.4175C126.09 27.0125 124.17 22.9925 121.41 18.26C120.922 17.4275 120.112 16.82 119.167 16.6025C118.23 16.385 117.225 16.565 116.422 17.0975C109.41 21.7475 99.8925 30.0875 94.4325 43.4225C90.7125 52.4975 87.5925 67.28 93.855 86.135C95.1075 89.9075 96.585 93.1625 98.025 95.9375C95.5575 93.53 92.94 90.485 90.6525 86.87C82.455 73.88 78.7875 52.415 89.0775 33.7325C91.7025 28.97 99.405 17.24 114.277 11.2025C132.675 3.73252 154.725 7.58752 169.155 20.8025C184.747 35.0825 187.5 54.935 184.875 68.75L184.89 68.7425Z" fill="#FF6A39"/>
</g>
<defs>
<clipPath id="clip0_350_470">
<rect width="267.15" height="215.685" fill="white" transform="translate(0.75 0.5)"/>
</clipPath>
</defs>
</svg>
